<svg xmlns="http://www.w3.org/2000/svg" xmlns:xlink="http://www.w3.org/1999/xlink" width="512" zoomAndPan="magnify" viewBox="0 0 384 383.999986" height="512" preserveAspectRatio="xMidYMid meet" version="1.0"><defs><filter x="0%" y="0%" width="100%" height="100%" id="c66faeae07"><feColorMatrix values="0 0 0 0 1 0 0 0 0 1 0 0 0 0 1 0 0 0 1 0" color-interpolation-filters="sRGB"/></filter><clipPath id="9e3e6608d1"><path d="M 33.382812 0.921875 L 283 0.921875 L 283 350 L 33.382812 350 Z M 33.382812 0.921875 " clip-rule="nonzero"/></clipPath><mask id="864c4151f9"><g filter="url(#c66faeae07)"><rect x="-118.48" width="552.96" fill="#000000" y="-91.479997" height="552.959979" fill-opacity="0.3"/></g></mask><clipPath id="2aa314c74f"><path d="M 0.28125 0.441406 L 12.761719 0.441406 L 12.761719 6.679688 L 0.28125 6.679688 Z M 0.28125 0.441406 " clip-rule="nonzero"/></clipPath><clipPath id="f79f55c69e"><rect x="0" width="13" y="0" height="7"/></clipPath><mask id="def7c033c1"><g filter="url(#c66faeae07)"><rect x="-118.48" width="552.96" fill="#000000" y="-91.479997" height="552.959979" fill-opacity="0.3"/></g></mask><clipPath id="e853d1bd63"><path d="M 1 0.0390625 L 13.761719 0.0390625 L 13.761719 6 L 1 6 Z M 1 0.0390625 " clip-rule="nonzero"/></clipPath><clipPath id="ffffa214c7"><rect x="0" width="14" y="0" height="7"/></clipPath><mask id="55559e1cda"><g filter="url(#c66faeae07)"><rect x="-118.48" width="552.96" fill="#000000" y="-91.479997" height="552.959979" fill-opacity="0.3"/></g></mask><clipPath id="a2a6d8701c"><path d="M 0.238281 0.078125 L 31.679688 0.078125 L 31.679688 48.558594 L 0.238281 48.558594 Z M 0.238281 0.078125 " clip-rule="nonzero"/></clipPath><clipPath id="e694053de4"><rect x="0" width="32" y="0" height="49"/></clipPath><mask id="1cd6e2f323"><g filter="url(#c66faeae07)"><rect x="-118.48" width="552.96" fill="#000000" y="-91.479997" height="552.959979" fill-opacity="0.3"/></g></mask><clipPath id="850e8d884a"><path d="M 0.601562 0.199219 L 36 0.199219 L 36 37.878906 L 0.601562 37.878906 Z M 0.601562 0.199219 " clip-rule="nonzero"/></clipPath><clipPath id="b1a1da3fa7"><rect x="0" width="37" y="0" height="38"/></clipPath><mask id="7b32c2a1d4"><g filter="url(#c66faeae07)"><rect x="-118.48" width="552.96" fill="#000000" y="-91.479997" height="552.959979" fill-opacity="0.3"/></g></mask><clipPath id="8a5f514442"><path d="M 0.71875 0.761719 L 23.761719 0.761719 L 23.761719 16.359375 L 0.71875 16.359375 Z M 0.71875 0.761719 " clip-rule="nonzero"/></clipPath><clipPath id="0a5de9b3f9"><rect x="0" width="24" y="0" height="17"/></clipPath><mask id="d60515d450"><g filter="url(#c66faeae07)"><rect x="-118.48" width="552.96" fill="#000000" y="-91.479997" height="552.959979" fill-opacity="0.3"/></g></mask><clipPath id="7ca3502b25"><path d="M 1 1 L 47.238281 1 L 47.238281 26.480469 L 1 26.480469 Z M 1 1 " clip-rule="nonzero"/></clipPath><clipPath id="5b9fcafaa7"><rect x="0" width="48" y="0" height="27"/></clipPath><mask id="eed1d38570"><g filter="url(#c66faeae07)"><rect x="-118.48" width="552.96" fill="#000000" y="-91.479997" height="552.959979" fill-opacity="0.3"/></g></mask><clipPath id="b4e410fb0c"><path d="M 0.28125 0.558594 L 56.921875 0.558594 L 56.921875 38.480469 L 0.28125 38.480469 Z M 0.28125 0.558594 " clip-rule="nonzero"/></clipPath><clipPath id="b31d5c7e45"><rect x="0" width="57" y="0" height="39"/></clipPath><mask id="788377b5de"><g filter="url(#c66faeae07)"><rect x="-118.48" width="552.96" fill="#000000" y="-91.479997" height="552.959979" fill-opacity="0.3"/></g></mask><clipPath id="e798bcda6a"><path d="M 0.121094 1 L 22.921875 1 L 22.921875 23.800781 L 0.121094 23.800781 Z M 0.121094 1 " clip-rule="nonzero"/></clipPath><clipPath id="c8b8010742"><rect x="0" width="23" y="0" height="24"/></clipPath><mask id="77ee4894c2"><g filter="url(#c66faeae07)"><rect x="-118.48" width="552.96" fill="#000000" y="-91.479997" height="552.959979" fill-opacity="0.3"/></g></mask><clipPath id="f39921391b"><path d="M 0.238281 0.121094 L 35.519531 0.121094 L 35.519531 26.28125 L 0.238281 26.28125 Z M 0.238281 0.121094 " clip-rule="nonzero"/></clipPath><clipPath id="80720ffa81"><rect x="0" width="36" y="0" height="27"/></clipPath><mask id="4e1dbb4ef7"><g filter="url(#c66faeae07)"><rect x="-118.48" width="552.96" fill="#000000" y="-91.479997" height="552.959979" fill-opacity="0.3"/></g></mask><clipPath id="ae24f3dd66"><path d="M 0.199219 1 L 16.761719 1 L 16.761719 24.28125 L 0.199219 24.28125 Z M 0.199219 1 " clip-rule="nonzero"/></clipPath><clipPath id="2d5baab69a"><rect x="0" width="17" y="0" height="25"/></clipPath><mask id="ac575a509c"><g filter="url(#c66faeae07)"><rect x="-118.48" width="552.96" fill="#000000" y="-91.479997" height="552.959979" fill-opacity="0.3"/></g></mask><clipPath id="e1f7d01206"><path d="M 0.0390625 0.441406 L 13 0.441406 L 13 6.679688 L 0.0390625 6.679688 Z M 0.0390625 0.441406 " clip-rule="nonzero"/></clipPath><clipPath id="63a7a0e7aa"><rect x="0" width="13" y="0" height="7"/></clipPath><mask id="c8282b509b"><g filter="url(#c66faeae07)"><rect x="-118.48" width="552.96" fill="#000000" y="-91.479997" height="552.959979" fill-opacity="0.3"/></g></mask><clipPath id="455bd7703f"><path d="M 0.0390625 0.0390625 L 13 0.0390625 L 13 6 L 0.0390625 6 Z M 0.0390625 0.0390625 " clip-rule="nonzero"/></clipPath><clipPath id="a4fe503ff3"><rect x="0" width="13" y="0" height="7"/></clipPath><mask id="a503af5470"><g filter="url(#c66faeae07)"><rect x="-118.48" width="552.96" fill="#000000" y="-91.479997" height="552.959979" fill-opacity="0.3"/></g></mask><clipPath id="aed4eebd29"><path d="M 0.0390625 1 L 23.558594 1 L 23.558594 16.359375 L 0.0390625 16.359375 Z M 0.0390625 1 " clip-rule="nonzero"/></clipPath><clipPath id="dc93af2b59"><rect x="0" width="24" y="0" height="17"/></clipPath><clipPath id="acbd7b925a"><path d="M 2 133.65625 L 314 133.65625 L 314 359.050781 L 2 359.050781 Z M 2 133.65625 " clip-rule="nonzero"/></clipPath><clipPath id="0efe00560c"><rect x="0" width="314" y="0" height="360"/></clipPath></defs><g transform="matrix(1, 0, 0, 1, 34, 7)"><g clip-path="url(#0efe00560c)"><g clip-path="url(#9e3e6608d1)"><path fill="#172029" d="M 266.257812 189.289062 C 265.945312 188.71875 265.757812 188.433594 265.757812 188.433594 L 266.011719 188.476562 C 267.359375 182.613281 267.4375 176.734375 266.25 170.835938 C 272.160156 169.5625 277.605469 167.210938 282.589844 163.789062 C 277.25 161.75 272.347656 158.953125 267.878906 155.386719 C 263.648438 151.824219 259.816406 147.878906 256.375 143.550781 L 267.46875 146.84375 L 255.632812 125.324219 C 253.585938 122.746094 251.265625 120.4375 248.679688 118.402344 C 246.09375 116.363281 243.304688 114.652344 240.316406 113.269531 L 238.179688 112.390625 L 237.925781 112.300781 C 240.3125 110.101562 244.300781 107.058594 250.871094 103.53125 C 240.855469 97.609375 229.59375 97.828125 223.339844 98.582031 C 221.960938 98.726562 220.59375 98.949219 219.242188 99.25 C 218.75 99.359375 218.480469 99.429688 218.480469 99.429688 C 218.738281 98.40625 218.886719 97.367188 218.9375 96.3125 L 218.980469 94.898438 L 220.316406 89.890625 L 230.464844 66.902344 L 227.519531 62.449219 L 233.761719 59.371094 L 250.554688 21.3125 L 187.976562 47.289062 L 165.894531 15.371094 L 157.984375 0.984375 L 150.078125 15.371094 L 127.996094 47.289062 L 65.417969 21.335938 L 82.210938 59.390625 L 88.472656 62.449219 L 85.554688 66.910156 L 95.703125 89.898438 L 97.035156 94.90625 L 97.082031 96.324219 C 97.128906 97.375 97.28125 98.414062 97.535156 99.4375 C 97.535156 99.4375 97.269531 99.367188 96.773438 99.257812 C 95.417969 98.957031 94.054688 98.734375 92.675781 98.589844 C 86.421875 97.839844 75.171875 97.636719 65.148438 103.539062 C 71.703125 107.066406 75.707031 110.109375 78.089844 112.308594 L 77.835938 112.398438 L 75.703125 113.277344 C 72.714844 114.660156 69.925781 116.371094 67.335938 118.410156 C 64.75 120.445312 62.433594 122.753906 60.386719 125.332031 L 48.546875 146.851562 L 59.644531 143.558594 C 56.199219 147.890625 52.363281 151.835938 48.132812 155.398438 C 43.652344 158.960938 38.734375 161.757812 33.382812 163.789062 C 38.363281 167.210938 43.808594 169.5625 49.71875 170.835938 C 48.53125 176.734375 48.609375 182.613281 49.960938 188.476562 L 50.214844 188.433594 C 50.214844 188.433594 50.027344 188.71875 49.707031 189.289062 C 46.257812 195.148438 44.003906 202.632812 42.941406 211.738281 C 41.675781 220.117188 41.09375 230.859375 42.25 244.140625 C 45.4375 241.410156 47.859375 239.28125 49.714844 237.644531 C 49.621094 238.101562 49.53125 238.597656 49.429688 239.074219 C 49.234375 239.914062 46.046875 253.722656 42.25 267.425781 C 47.714844 264.28125 52.875 260.699219 57.730469 256.675781 C 57.667969 257.800781 57.640625 258.929688 57.65625 260.039062 C 57.914062 278.863281 69.105469 290.769531 69.582031 291.265625 L 72.472656 294.285156 L 75.078125 297.015625 L 82.363281 304.636719 C 82.363281 304.636719 84.054688 322.765625 104.214844 339.839844 L 105.125 332.554688 C 107.648438 335.824219 110.921875 339.816406 113.042969 341.496094 C 113.109375 341.347656 113.617188 328.585938 114.144531 326.671875 C 116.628906 331.804688 122.214844 339.253906 134.523438 343.519531 C 133.871094 340.867188 133.332031 338.628906 132.898438 336.78125 C 134.816406 338.769531 137.210938 341.164062 139.359375 343.199219 C 140.660156 344.589844 142.078125 345.851562 143.609375 346.984375 C 143.855469 347.175781 144.0625 347.335938 144.253906 347.4375 C 143.914062 343.796875 143.691406 341.402344 143.539062 339.828125 C 144.359375 340.476562 145.21875 341.121094 146.125 341.738281 C 148.328125 344.46875 152.042969 347.65625 157.992188 349.183594 C 163.949219 347.632812 167.652344 344.480469 169.855469 341.738281 C 170.765625 341.121094 171.617188 340.476562 172.4375 339.828125 C 172.292969 341.402344 172.066406 343.792969 171.726562 347.4375 C 171.902344 347.320312 172.121094 347.160156 172.367188 346.984375 C 173.902344 345.851562 175.320312 344.589844 176.621094 343.199219 C 178.765625 341.164062 181.175781 338.769531 183.082031 336.78125 C 182.625 338.628906 182.105469 340.878906 181.457031 343.519531 C 193.75 339.238281 199.347656 331.789062 201.832031 326.671875 C 202.363281 328.585938 202.867188 341.347656 202.9375 341.496094 C 205.054688 339.816406 208.328125 335.824219 210.855469 332.554688 L 211.765625 339.839844 C 231.910156 322.765625 233.617188 304.636719 233.617188 304.636719 L 240.902344 297.015625 L 243.507812 294.285156 L 246.398438 291.265625 C 246.878906 290.769531 258.066406 278.863281 258.324219 260.039062 C 258.324219 258.929688 258.324219 257.800781 258.25 256.675781 C 261.601562 259.523438 266.570312 263.210938 273.730469 267.425781 C 269.9375 253.722656 266.746094 239.914062 266.554688 239.074219 C 266.453125 238.597656 266.359375 238.117188 266.273438 237.644531 C 268.121094 239.28125 270.550781 241.402344 273.730469 244.140625 C 274.890625 230.855469 274.304688 220.117188 273.042969 211.738281 C 271.980469 202.648438 269.71875 195.164062 266.257812 189.289062 Z M 266.257812 189.289062 " fill-opacity="1" fill-rule="nonzero"/></g><path fill="#ffffff" d="M 88.253906 141.894531 C 88.179688 142.300781 85.71875 155.398438 72.210938 164.324219 C 58.488281 173.394531 59.183594 185.957031 59.183594 185.957031 C 59.183594 185.957031 54.765625 169.792969 67.554688 156.886719 C 60.117188 162.382812 50.644531 165.730469 50.355469 165.832031 C 50.808594 165.480469 66.039062 154.222656 72.90625 140.371094 C 72.90625 140.371094 74.480469 149.566406 72.449219 157.582031 C 83.628906 152.554688 88.117188 142.210938 88.253906 141.894531 Z M 88.253906 141.894531 " fill-opacity="1" fill-rule="nonzero"/><path fill="#ffffff" d="M 129.644531 328.835938 C 129.285156 328.71875 117.65625 324.660156 117.953125 298.53125 C 118.257812 271.992188 110.71875 263.550781 110.71875 263.550781 C 118.304688 294.484375 104.90625 323.964844 104.539062 324.757812 C 104.648438 323.949219 108.75 294.179688 97.445312 273.539062 C 100.609375 288.503906 93.375 297.929688 96.238281 316.175781 C 87.34375 303.058594 92.921875 272.148438 87.042969 258.269531 C 88.699219 277.125 82.066406 296.574219 82.066406 296.574219 C 82.066406 296.574219 82.066406 267.921875 74.675781 249.917969 C 69.769531 266.960938 76.300781 284.179688 76.496094 284.648438 C 76.1875 284.328125 65.519531 272.8125 67.457031 255.101562 C 69.417969 237.15625 66.546875 224.941406 66.546875 224.941406 C 66.546875 224.941406 66.089844 234.445312 57.949219 244.851562 C 63.832031 220.421875 58.105469 210.796875 58.105469 210.796875 C 53.277344 222.121094 51.90625 229.25 51.90625 229.25 C 50.339844 184.921875 70.285156 185.050781 70.285156 185.050781 C 70.285156 185.050781 60.976562 198.015625 62.976562 210.796875 C 73.222656 185.203125 94.636719 182.152344 95.300781 182.066406 C 84.066406 189.921875 79.691406 199.101562 79.429688 199.660156 C 79.789062 199.171875 84.894531 192.328125 95.980469 187.238281 C 81.058594 198.871094 81.296875 215.199219 81.296875 215.199219 L 81.332031 215.140625 C 81.84375 214.367188 87.433594 205.988281 95.589844 199.609375 L 95.621094 199.582031 C 82.234375 215.675781 84.238281 234.359375 84.238281 234.359375 C 84.238281 234.359375 88.121094 219.070312 95.757812 209.796875 C 87.613281 229.449219 94.328125 250.152344 94.460938 250.558594 C 94.460938 250.558594 94.515625 247.523438 94.988281 243.273438 C 94.988281 243.246094 94.988281 243.207031 94.988281 243.175781 C 95.738281 236.523438 97.519531 226.917969 101.703125 221.078125 C 97.089844 246.574219 107.84375 264.785156 107.84375 264.785156 C 107.84375 264.785156 107.84375 249.988281 104.085938 238.210938 C 123.46875 260.859375 120.929688 293.863281 120.929688 293.863281 C 120.929688 293.863281 122.4375 288.4375 124.851562 284.367188 C 119.105469 317.433594 129.3125 328.484375 129.644531 328.835938 Z M 129.644531 328.835938 " fill-opacity="1" fill-rule="nonzero"/><path fill="#ffffff" d="M 103.601562 132.363281 C 103.601562 132.363281 93.734375 129.546875 83.742188 131.59375 C 88.355469 132.746094 89.660156 133.644531 89.660156 133.644531 C 89.660156 133.644531 79.921875 133.386719 78.640625 146.328125 C 73.109375 133.128906 76.179688 128.648438 76.179688 128.648438 L 67.984375 131.078125 C 67.984375 131.078125 79.328125 116.054688 95.660156 120.703125 C 95.660156 120.703125 90.652344 110.964844 80.667969 108.65625 C 97.324219 105.457031 112.441406 112.246094 103.601562 132.363281 Z M 103.601562 132.363281 " fill-opacity="1" fill-rule="nonzero"/><path fill="#ffffff" d="M 137.945312 181.121094 C 137.675781 181.277344 131.992188 184.515625 126.875 183.277344 C 121.757812 182.039062 118.4375 175.246094 118.339844 175.035156 L 127.628906 177.914062 L 127.628906 181.203125 L 127.910156 180.9375 L 130.289062 178.742188 L 137.945312 181.117188 Z M 137.945312 181.121094 " fill-opacity="1" fill-rule="nonzero"/><path fill="#ffffff" d="M 136.914062 313.007812 C 136.714844 317.554688 137.417969 321.957031 139.03125 326.214844 C 139.738281 328.066406 140.640625 329.820312 141.742188 331.472656 C 136.625 328.171875 133.972656 322.960938 132.636719 317.917969 C 131.429688 313.125 131.0625 308.269531 131.539062 303.347656 C 132.449219 313.109375 134.753906 317.105469 134.753906 317.105469 C 134.753906 317.105469 134.265625 309.652344 135.78125 304.625 C 137.386719 311.484375 144.523438 322.378906 144.746094 322.734375 C 143.597656 318.25 144.792969 312.023438 144.792969 312.023438 C 144.792969 312.023438 144.839844 312.546875 144.988281 313.488281 C 146.144531 320.632812 148.347656 327.441406 151.589844 333.910156 C 139.511719 325.609375 137.0625 313.769531 136.917969 313.046875 C 136.917969 313.035156 136.914062 313.023438 136.914062 313.007812 Z M 136.914062 313.007812 " fill-opacity="1" fill-rule="nonzero"/><path fill="#ffffff" d="M 137.945312 102.3125 C 139.691406 103.195312 141.265625 104.3125 142.671875 105.667969 C 144.078125 107.027344 145.25 108.5625 146.1875 110.277344 C 145.976562 110.167969 139.128906 106.589844 128.117188 104.164062 C 135.109375 111.152344 138.4375 116 138.4375 116 C 138.4375 116 128.582031 109.210938 117.734375 106.480469 C 106.882812 103.75 106.621094 95.96875 106.621094 95.96875 C 106.621094 95.96875 112.082031 100.355469 123.921875 99.761719 L 118.664062 96.632812 C 118.664062 96.632812 136.167969 94.433594 146.617188 99.492188 C 141.847656 94.726562 140.636719 92.761719 140.566406 92.664062 C 140.941406 92.765625 157.296875 97.597656 157.582031 114.515625 C 157.585938 114.519531 149.550781 102.476562 137.945312 102.3125 Z M 137.945312 102.3125 " fill-opacity="1" fill-rule="nonzero"/><path fill="#ffffff" d="M 163.878906 215.199219 C 164.371094 214.800781 164.910156 214.476562 165.492188 214.222656 C 166.074219 213.96875 166.679688 213.796875 167.308594 213.710938 C 167.9375 213.621094 168.566406 213.617188 169.195312 213.699219 C 169.824219 213.78125 170.429688 213.945312 171.015625 214.191406 C 171.015625 214.191406 169.910156 210.171875 164.53125 210.878906 C 159.15625 211.585938 157.585938 211.277344 157.585938 211.277344 C 157.585938 211.277344 156.015625 211.578125 150.636719 210.878906 C 145.261719 210.175781 144.152344 214.191406 144.152344 214.191406 C 144.738281 213.945312 145.347656 213.78125 145.976562 213.695312 C 146.609375 213.613281 147.238281 213.617188 147.867188 213.707031 C 148.496094 213.792969 149.105469 213.964844 149.6875 214.21875 C 150.269531 214.472656 150.808594 214.800781 151.300781 215.199219 C 154.921875 217.964844 157.597656 217.761719 157.597656 217.761719 C 157.597656 217.761719 160.257812 217.964844 163.878906 215.199219 Z M 163.878906 215.199219 " fill-opacity="1" fill-rule="nonzero"/><path fill="#ffffff" d="M 168.601562 249.914062 L 167.78125 246.464844 L 167.429688 247.980469 C 163.171875 247.398438 157.585938 247.980469 157.585938 247.980469 C 157.585938 247.980469 152 247.398438 147.742188 247.980469 L 147.390625 246.464844 L 146.566406 249.914062 C 146.472656 249.828125 144.6875 248.136719 145.320312 244.148438 C 145.320312 244.148438 148.15625 245.242188 157.613281 244.25 C 167.046875 245.242188 169.882812 244.148438 169.882812 244.148438 C 170.507812 248.238281 168.601562 249.914062 168.601562 249.914062 Z M 168.601562 249.914062 " fill-opacity="1" fill-rule="nonzero"/><path fill="#ffffff" d="M 169.515625 304.4375 C 173.230469 298.691406 171.886719 290.730469 171.886719 290.730469 C 171.886719 290.730469 170.730469 307.625 157.609375 307.625 C 144.488281 307.625 143.332031 290.730469 143.332031 290.730469 C 143.332031 290.730469 141.988281 298.691406 145.703125 304.4375 C 121.648438 296.65625 130.742188 274.8125 130.742188 274.8125 C 130.742188 274.8125 132.105469 282.132812 138.480469 280.152344 C 133.472656 272.460938 135.625 262.785156 135.625 262.785156 C 139.132812 270.203125 143.457031 274.25 146.058594 276.179688 C 152.886719 273.027344 157.613281 273.578125 157.613281 273.578125 C 157.613281 273.578125 162.347656 273.027344 169.167969 276.179688 C 171.769531 274.25 176.09375 270.203125 179.597656 262.785156 C 179.597656 262.785156 181.746094 272.460938 176.742188 280.152344 C 183.117188 282.132812 184.484375 274.8125 184.484375 274.8125 C 184.484375 274.8125 193.542969 296.65625 169.515625 304.4375 Z M 169.515625 304.4375 " fill-opacity="1" fill-rule="nonzero"/><path fill="#ffffff" d="M 241.570312 179.457031 C 229.238281 167.832031 230.640625 143.179688 202.613281 143.878906 C 208.335938 147.699219 211.136719 155.519531 211.320312 156.0625 C 210.863281 155.429688 201.8125 143.160156 185.320312 141.992188 L 184.933594 141.539062 C 180.300781 136.195312 173.65625 136.382812 168.035156 138.292969 C 168.609375 136.515625 170.648438 132.75 177.910156 129.875 C 187.753906 125.964844 189.933594 123.535156 189.933594 123.535156 C 189.933594 123.535156 191.617188 130.515625 179.71875 136.0625 C 179.71875 136.0625 193.484375 137.746094 201.460938 131.761719 C 198.59375 136.871094 192.566406 140.027344 185.527344 139.601562 C 185.527344 139.601562 218.425781 150.53125 204.621094 119.164062 C 206.207031 127.285156 195.515625 130.214844 195.21875 130.296875 C 195.53125 130.078125 203.253906 124.441406 193.816406 110.285156 C 192.105469 119.804688 169.636719 119.703125 163.859375 136.070312 C 163.113281 123.980469 173.488281 113.171875 173.488281 113.171875 C 173.488281 113.171875 161.0625 116.492188 157.59375 129.5625 C 157.597656 129.554688 157.597656 129.546875 157.59375 129.535156 C 154.113281 116.515625 141.710938 113.199219 141.710938 113.199219 C 141.710938 113.199219 152.085938 124.007812 151.339844 136.097656 C 145.550781 119.746094 123.109375 119.847656 121.390625 110.332031 C 111.953125 124.488281 119.679688 130.125 119.988281 130.34375 C 119.679688 130.261719 109 127.332031 110.585938 119.210938 C 96.957031 150.171875 128.84375 139.921875 129.664062 139.652344 C 122.613281 140.078125 116.585938 136.921875 113.726562 131.8125 C 121.703125 137.796875 135.472656 136.109375 135.472656 136.109375 C 123.570312 130.566406 125.253906 123.585938 125.253906 123.585938 C 125.253906 123.585938 127.4375 126.015625 137.28125 129.921875 C 144.5625 132.800781 146.582031 136.566406 147.15625 138.339844 C 141.53125 136.433594 134.890625 136.246094 130.253906 141.585938 L 129.867188 142.042969 C 113.375 143.207031 104.335938 155.480469 103.871094 156.113281 C 104.050781 155.570312 106.851562 147.746094 112.574219 143.929688 C 84.5625 143.230469 85.949219 167.867188 73.628906 179.503906 C 90.371094 174.890625 100.996094 155.652344 101.707031 154.34375 C 101.390625 155.113281 98.375 162.515625 98.042969 170.441406 C 103.960938 159.058594 112.933594 155.050781 117.914062 153.671875 C 113.453125 157.542969 109.328125 160.886719 106.078125 164.394531 C 104.984375 167.3125 103.894531 175.460938 106.273438 178.164062 C 106.539062 178.480469 106.863281 178.714844 107.242188 178.871094 C 110.84375 180.324219 115.671875 178.417969 115.671875 178.417969 C 115.671875 178.417969 114.855469 173.125 110.378906 172.136719 C 112.941406 170.507812 117.9375 168.589844 128.929688 175.214844 C 139.921875 181.839844 147.300781 177.078125 149.453125 174.171875 C 151.605469 171.269531 152.125 166.554688 152.125 166.554688 C 153.195312 169.082031 153.773438 171.71875 153.871094 174.460938 C 141.894531 182.425781 142.359375 191.382812 142.359375 191.382812 C 142.359375 191.382812 142.011719 189.054688 139.914062 186.09375 C 136.394531 189.023438 136.496094 194.851562 136.941406 198.136719 L 136.96875 198.34375 C 136.941406 198.257812 136.914062 198.171875 136.882812 198.082031 C 135.835938 194.773438 134.605469 189.429688 136.117188 185.847656 C 136.226562 185.59375 136.347656 185.347656 136.484375 185.109375 C 136.027344 185.25 135.503906 185.367188 135 185.464844 C 129.710938 186.484375 123.222656 185.367188 123.222656 185.367188 L 124.441406 187.199219 C 120.25 185.335938 116.53125 180.800781 116.53125 180.800781 C 116.53125 180.800781 101.050781 190.335938 101.761719 197.316406 C 102.472656 204.296875 107.867188 210.164062 107.867188 210.164062 C 107.867188 210.164062 107.75 208.882812 107.34375 204.582031 C 110.046875 210.609375 112.152344 217.070312 112.285156 217.472656 C 113.40625 214.285156 114.355469 211.050781 115.128906 207.765625 C 116.003906 203.636719 114.320312 193.75 114.320312 193.75 C 114.320312 193.75 119.027344 201.773438 126.933594 201.25 C 121.757812 203.460938 117.050781 211.367188 117.050781 211.367188 C 117.050781 211.367188 117.34375 211.597656 131.703125 215.917969 L 131.402344 215.890625 C 128.738281 215.601562 116.550781 213.542969 116.550781 213.542969 L 118.644531 220.925781 L 137.597656 226.390625 C 131.140625 226.503906 119.28125 225.285156 119.28125 225.285156 L 121.667969 229.296875 L 141.085938 233.132812 C 134.617188 233.785156 128.144531 233.824219 121.667969 233.25 C 124.605469 235.648438 127.726562 237.769531 131.03125 239.625 C 130.464844 243.316406 129.871094 253.628906 139.0625 261.125 C 139.007812 252.019531 140.667969 245.378906 141.882812 241.75 C 148.148438 241.003906 156.304688 238.300781 155.398438 231.28125 C 154.296875 222.703125 146.457031 222.890625 138.617188 219.152344 C 130.777344 215.414062 134.910156 206.257812 134.910156 206.257812 C 135.003906 206.53125 136.851562 211.890625 138.523438 212.007812 C 140.191406 212.125 143.238281 210.90625 145.566406 204.472656 C 149.238281 209.027344 157.566406 207.78125 157.566406 207.78125 C 157.566406 207.78125 165.894531 209.007812 169.570312 204.472656 C 171.894531 210.90625 174.894531 212.128906 176.613281 212.007812 C 178.328125 211.882812 180.226562 206.25 180.226562 206.25 C 180.226562 206.25 184.394531 215.375 176.554688 219.109375 C 168.710938 222.84375 160.871094 222.660156 159.769531 231.238281 C 158.859375 238.273438 167.023438 240.976562 173.289062 241.710938 C 174.503906 245.351562 176.160156 251.976562 176.105469 261.082031 C 185.316406 253.585938 184.726562 243.261719 184.15625 239.566406 C 187.460938 237.710938 190.582031 235.585938 193.519531 233.191406 C 187.046875 233.765625 180.574219 233.726562 174.101562 233.074219 L 193.519531 229.234375 L 195.90625 225.226562 C 195.90625 225.226562 184.082031 226.476562 177.609375 226.355469 L 196.5625 220.890625 L 198.652344 213.515625 C 198.652344 213.515625 185.222656 215.792969 183.476562 215.894531 C 197.835938 211.59375 198.128906 211.34375 198.128906 211.34375 C 198.128906 211.34375 193.421875 203.4375 188.246094 201.226562 C 196.152344 201.75 200.859375 193.726562 200.859375 193.726562 C 200.859375 193.726562 199.175781 203.613281 200.050781 207.742188 C 200.824219 211.027344 201.773438 214.261719 202.894531 217.449219 C 202.894531 217.449219 205.050781 210.765625 207.839844 204.539062 C 207.433594 208.84375 207.316406 210.121094 207.316406 210.121094 C 207.316406 210.121094 212.726562 204.25 213.421875 197.273438 C 214.117188 190.300781 198.652344 180.777344 198.652344 180.777344 C 198.652344 180.777344 194.933594 185.332031 190.746094 187.175781 L 191.96875 185.3125 C 191.96875 185.3125 184.175781 186.652344 178.710938 185.054688 C 180.804688 188.695312 179.363281 194.78125 178.222656 198.289062 C 178.679688 195.050781 178.882812 189.015625 175.28125 185.996094 C 173.1875 188.960938 172.835938 191.289062 172.835938 191.289062 C 172.835938 191.289062 173.292969 182.332031 161.328125 174.363281 C 161.421875 171.621094 162.003906 168.988281 163.070312 166.460938 C 163.070312 166.460938 163.59375 171.167969 165.746094 174.078125 C 167.894531 176.988281 175.28125 181.75 186.269531 175.121094 C 197.253906 168.492188 202.257812 170.414062 204.816406 172.042969 C 200.339844 173.03125 199.527344 178.320312 199.527344 178.320312 C 199.527344 178.320312 204.351562 180.238281 207.953125 178.777344 C 211.554688 177.316406 210.339844 167.554688 209.121094 164.296875 C 205.855469 160.792969 201.730469 157.445312 197.28125 153.574219 C 202.261719 154.941406 211.222656 158.953125 217.15625 170.34375 C 216.824219 162.421875 213.808594 155.019531 213.492188 154.25 C 214.191406 155.582031 224.824219 174.832031 241.570312 179.457031 Z M 157.585938 164.789062 C 157.585938 164.789062 151.921875 157.988281 150.757812 153.105469 C 152.792969 156.242188 157.585938 158.164062 157.585938 158.164062 C 157.585938 158.164062 162.378906 156.242188 164.414062 153.105469 C 163.25 157.988281 157.585938 164.789062 157.585938 164.789062 Z M 157.585938 164.789062 " fill-opacity="1" fill-rule="nonzero"/><path fill="#ffffff" d="M 242.730469 157.605469 C 231.347656 152.5 226.914062 141.90625 226.914062 141.90625 C 226.914062 141.90625 229.238281 155.28125 242.960938 164.351562 C 256.683594 173.421875 255.984375 185.980469 255.984375 185.980469 C 255.984375 185.980469 260.402344 169.816406 247.609375 156.910156 C 255.171875 162.488281 264.820312 165.863281 264.820312 165.863281 C 264.820312 165.863281 249.238281 154.480469 242.265625 140.394531 C 242.265625 140.371094 240.691406 149.566406 242.730469 157.605469 Z M 242.730469 157.605469 " fill-opacity="1" fill-rule="nonzero"/><path fill="#ffffff" d="M 244.886719 185.054688 C 244.886719 185.054688 254.195312 198.015625 252.199219 210.796875 C 241.785156 184.804688 219.851562 182.066406 219.851562 182.066406 C 231.457031 190.171875 235.742188 199.6875 235.742188 199.6875 C 235.742188 199.6875 230.6875 192.519531 219.171875 187.234375 C 234.097656 198.867188 233.859375 215.199219 233.859375 215.199219 C 233.859375 215.199219 228.105469 206.269531 219.527344 199.574219 C 232.921875 215.667969 230.910156 234.347656 230.910156 234.347656 C 230.910156 234.347656 227.03125 219.078125 219.394531 209.796875 C 227.617188 229.648438 220.6875 250.566406 220.6875 250.566406 C 220.6875 250.566406 220.332031 230.707031 213.4375 221.074219 C 218.046875 246.570312 207.292969 264.78125 207.292969 264.78125 C 207.292969 264.78125 207.292969 249.980469 211.054688 238.207031 C 191.667969 260.855469 194.210938 293.859375 194.210938 293.859375 C 194.210938 293.859375 192.703125 288.433594 190.289062 284.363281 C 196.171875 317.992188 185.527344 328.84375 185.527344 328.84375 C 185.527344 328.84375 197.527344 325.074219 197.222656 298.535156 C 196.917969 271.996094 204.460938 263.550781 204.460938 263.550781 C 196.773438 294.917969 210.644531 324.773438 210.644531 324.773438 C 210.644531 324.773438 206.273438 294.464844 217.734375 273.539062 C 214.546875 288.503906 221.804688 297.933594 218.941406 316.179688 C 227.835938 303.0625 222.253906 272.148438 228.136719 258.273438 C 226.480469 277.125 233.113281 296.578125 233.113281 296.578125 C 233.113281 296.578125 233.113281 267.925781 240.503906 249.917969 C 245.480469 267.222656 238.683594 284.664062 238.683594 284.664062 C 238.683594 284.664062 249.6875 273.054688 247.726562 255.105469 C 245.769531 237.15625 248.640625 224.945312 248.640625 224.945312 C 248.640625 224.945312 249.09375 234.449219 257.230469 244.851562 C 251.351562 220.425781 257.082031 210.796875 257.082031 210.796875 C 261.90625 222.125 263.277344 229.253906 263.277344 229.253906 C 264.824219 184.945312 244.886719 185.054688 244.886719 185.054688 Z M 244.886719 185.054688 " fill-opacity="1" fill-rule="nonzero"/><path fill="#ffffff" d="M 231.433594 131.59375 C 226.816406 132.75 225.539062 133.648438 225.539062 133.648438 C 225.539062 133.648438 235.277344 133.386719 236.554688 146.332031 C 242.066406 133.128906 238.992188 128.648438 238.992188 128.648438 L 247.1875 131.085938 C 247.1875 131.085938 235.835938 116.058594 219.507812 120.703125 C 219.507812 120.703125 224.519531 110.964844 234.503906 108.660156 C 217.84375 105.472656 202.726562 112.25 211.566406 132.363281 C 211.566406 132.363281 221.417969 129.546875 231.433594 131.59375 Z M 231.433594 131.59375 " fill-opacity="1" fill-rule="nonzero"/><path fill="#ffffff" d="M 167.691406 270.152344 C 161.574219 269.242188 157.570312 269.753906 157.570312 269.753906 C 157.570312 269.753906 153.570312 269.222656 147.449219 270.152344 C 145.320312 267.09375 145.582031 264.691406 145.582031 264.691406 L 148.316406 266.820312 C 150.972656 266.554688 157.570312 266.488281 157.570312 266.488281 C 157.570312 266.488281 164.167969 266.554688 166.828125 266.820312 L 169.558594 264.691406 C 169.558594 264.691406 169.835938 267.09375 167.691406 270.152344 Z M 167.691406 270.152344 " fill-opacity="1" fill-rule="nonzero"/><path fill="#ffffff" d="M 184.894531 178.742188 L 177.226562 181.125 C 177.226562 181.125 183.058594 184.558594 188.304688 183.289062 C 193.546875 182.019531 196.832031 175.035156 196.832031 175.035156 L 187.539062 177.921875 L 187.539062 181.203125 Z M 184.894531 178.742188 " fill-opacity="1" fill-rule="nonzero"/><path fill="#ffffff" d="M 180.441406 317.09375 C 180.441406 317.09375 180.929688 309.636719 179.410156 304.605469 C 177.773438 311.574219 170.441406 322.730469 170.441406 322.730469 C 171.59375 318.246094 170.402344 312.003906 170.402344 312.003906 C 169.363281 319.683594 167.09375 326.980469 163.59375 333.894531 C 176.066406 325.320312 178.269531 313.015625 178.269531 313.015625 C 178.269531 313.015625 179.101562 323.03125 173.449219 331.476562 C 186.148438 323.28125 183.652344 303.335938 183.652344 303.335938 C 182.71875 313.089844 180.441406 317.09375 180.441406 317.09375 Z M 180.441406 317.09375 " fill-opacity="1" fill-rule="nonzero"/><path fill="#ffffff" d="M 177.226562 102.320312 C 171.253906 105.410156 168.976562 110.28125 168.976562 110.28125 C 168.976562 110.28125 175.871094 106.640625 187.050781 104.164062 C 180.0625 111.152344 176.734375 116 176.734375 116 C 176.734375 116 186.582031 109.210938 197.433594 106.484375 C 208.28125 103.757812 208.550781 95.96875 208.550781 95.96875 C 208.550781 95.96875 203.085938 100.359375 191.25 99.761719 L 196.507812 96.632812 C 196.507812 96.632812 179.003906 94.4375 168.554688 99.496094 C 173.476562 94.570312 174.609375 92.640625 174.609375 92.640625 C 174.609375 92.640625 157.875 97.382812 157.589844 114.492188 C 157.585938 114.523438 165.621094 102.476562 177.226562 102.320312 Z M 177.226562 102.320312 " fill-opacity="1" fill-rule="nonzero"/><path fill="#ffffff" d="M 231.367188 39.296875 L 198.128906 53.09375 L 205.234375 68.769531 L 186.636719 77.335938 L 164.503906 65.636719 L 178.71875 51.84375 L 157.609375 21.339844 L 136.5 51.84375 L 150.6875 65.636719 L 128.539062 77.335938 L 109.933594 68.769531 L 117.042969 53.09375 L 83.804688 39.296875 L 89.554688 52.328125 L 102.367188 58.636719 L 96.378906 67.792969 L 106.589844 90.921875 L 107.199219 90.921875 C 120.101562 84.214844 137.914062 80.0625 157.585938 80.0625 C 177.257812 80.0625 195.070312 84.214844 207.972656 90.921875 L 208.582031 90.921875 L 218.789062 67.792969 L 212.804688 58.636719 L 225.613281 52.328125 Z M 150.078125 48.296875 L 157.585938 37.890625 L 165.09375 48.296875 L 157.585938 54.445312 Z M 150.078125 48.296875 " fill-opacity="1" fill-rule="nonzero"/><path fill="#a6a6a6" d="M 104.539062 324.757812 C 104.648438 323.953125 108.75 294.183594 97.445312 273.539062 C 100.609375 288.503906 93.375 297.933594 96.238281 316.179688 C 87.34375 303.0625 92.921875 272.148438 87.042969 258.273438 C 88.699219 277.125 82.066406 296.578125 82.066406 296.578125 C 82.066406 296.578125 82.066406 267.925781 74.675781 249.917969 C 69.769531 266.960938 76.300781 284.183594 76.496094 284.652344 C 76.1875 284.332031 65.519531 272.816406 67.457031 255.105469 C 69.417969 237.164062 66.546875 224.945312 66.546875 224.945312 C 66.546875 224.945312 66.089844 234.449219 57.949219 244.851562 C 63.832031 220.425781 58.105469 210.796875 58.105469 210.796875 C 53.277344 222.125 51.90625 229.253906 51.90625 229.253906 C 50.355469 184.945312 70.296875 185.054688 70.296875 185.054688 C 70.296875 185.054688 58.839844 188.171875 55.648438 209.183594 C 57.121094 207.203125 58.277344 205.054688 59.121094 202.734375 C 59.121094 202.734375 65.011719 220.832031 62.027344 233.3125 C 64.207031 227.953125 65.6875 222.40625 66.46875 216.675781 C 66.46875 216.675781 74.621094 229.742188 71.433594 247.496094 C 73.195312 244.25 74.335938 240.796875 74.851562 237.140625 C 74.851562 237.140625 85.664062 257.058594 83.273438 278.117188 C 86.347656 265.9375 84.753906 249.917969 84.753906 249.917969 C 84.753906 249.917969 93.707031 257.726562 92.832031 280.847656 C 94.84375 274.746094 95.714844 268.484375 95.453125 262.066406 C 95.453125 262.066406 110.363281 281.53125 108.3125 302.703125 C 112.285156 295.6875 112.460938 274.140625 110.730469 263.546875 C 118.304688 294.488281 104.90625 323.964844 104.539062 324.757812 Z M 104.539062 324.757812 " fill-opacity="1" fill-rule="nonzero"/><path fill="#a6a6a6" d="M 81.308594 215.195312 C 80.757812 213.050781 81.183594 206.914062 83.027344 199.296875 C 77.710938 203.4375 73.601562 209.769531 73.601562 209.769531 C 76.90625 188.613281 94.746094 182.269531 95.300781 182.078125 C 84.066406 189.929688 79.691406 199.109375 79.429688 199.667969 C 79.789062 199.183594 84.894531 192.339844 95.980469 187.25 C 81.074219 198.867188 81.308594 215.195312 81.308594 215.195312 Z M 81.308594 215.195312 " fill-opacity="1" fill-rule="nonzero"/><path fill="#737373" d="M 94.46875 250.5625 C 94.46875 250.5625 94.523438 247.53125 94.996094 243.277344 C 94.683594 247.597656 94.46875 250.5625 94.46875 250.5625 Z M 94.46875 250.5625 " fill-opacity="1" fill-rule="nonzero"/><path fill="#a6a6a6" d="M 94.464844 250.558594 C 94.296875 250.316406 88.949219 242.589844 88.726562 229.75 C 85.851562 236.027344 83.464844 246.226562 83.464844 246.226562 C 76.296875 217.582031 94.632812 200.484375 95.601562 199.605469 L 95.632812 199.578125 C 82.25 215.671875 84.25 234.351562 84.25 234.351562 C 84.25 234.351562 88.121094 219.070312 95.757812 209.796875 C 87.617188 229.449219 94.332031 250.152344 94.464844 250.558594 Z M 94.464844 250.558594 " fill-opacity="1" fill-rule="nonzero"/><path fill="#a6a6a6" d="M 169.515625 304.4375 C 173.230469 298.691406 171.886719 290.730469 171.886719 290.730469 C 171.886719 290.730469 170.730469 307.625 157.609375 307.625 C 144.488281 307.625 143.332031 290.730469 143.332031 290.730469 C 143.332031 290.730469 141.988281 298.691406 145.703125 304.4375 C 121.648438 296.65625 130.742188 274.8125 130.742188 274.8125 C 130.742188 274.8125 130.214844 290.996094 140.457031 298.886719 C 139.929688 286.367188 142.433594 280.148438 142.433594 280.148438 C 142.433594 280.148438 142.128906 293.578125 157.609375 293.578125 C 173.089844 293.578125 172.78125 280.148438 172.78125 280.148438 C 172.78125 280.148438 175.285156 286.367188 174.757812 298.886719 C 185.003906 290.996094 184.476562 274.8125 184.476562 274.8125 C 184.476562 274.8125 193.542969 296.65625 169.515625 304.4375 Z M 169.515625 304.4375 " fill-opacity="1" fill-rule="nonzero"/><g mask="url(#864c4151f9)"><g transform="matrix(1, 0, 0, 1, 145, 264)"><g clip-path="url(#f79f55c69e)"><g clip-path="url(#2aa314c74f)"><path fill="#172029" d="M 12.585938 4.101562 L 12.585938 5.753906 C 12.585938 5.753906 8.582031 5.222656 2.464844 6.152344 C 0.332031 3.09375 0.597656 0.691406 0.597656 0.691406 C 0.597656 0.691406 1.691406 3.5 3.238281 4.671875 C 4.390625 4.046875 12.585938 4.101562 12.585938 4.101562 Z M 12.585938 4.101562 " fill-opacity="1" fill-rule="nonzero"/></g></g></g></g><g mask="url(#def7c033c1)"><g transform="matrix(1, 0, 0, 1, 144, 244)"><g clip-path="url(#ffffa214c7)"><g clip-path="url(#e853d1bd63)"><path fill="#172029" d="M 13.585938 0.246094 L 13.585938 1.503906 C 13.585938 1.503906 6.390625 2.023438 2.566406 1.320312 C 2.113281 4.34375 2.535156 5.808594 2.566406 5.910156 C 2.472656 5.824219 0.6875 4.128906 1.320312 0.140625 C 1.316406 0.140625 4.152344 1.238281 13.585938 0.246094 Z M 13.585938 0.246094 " fill-opacity="1" fill-rule="nonzero"/></g></g></g></g><g mask="url(#55559e1cda)"><g transform="matrix(1, 0, 0, 1, 116, 213)"><g clip-path="url(#e694053de4)"><g clip-path="url(#a2a6d8701c)"><path fill="#172029" d="M 23.007812 48.089844 C 13.816406 40.59375 14.410156 30.28125 14.976562 26.589844 C 11.671875 24.734375 8.550781 22.609375 5.613281 20.214844 C 12.089844 20.789062 18.5625 20.746094 25.03125 20.097656 L 5.613281 16.257812 L 3.226562 12.246094 C 3.226562 12.246094 15.066406 13.46875 21.542969 13.355469 L 2.589844 7.890625 L 0.496094 0.503906 C 0.496094 0.503906 12.683594 2.5625 15.347656 2.855469 L 3.203125 3.359375 L 8.585938 6.835938 L 29.527344 14.058594 L 12.976562 15.351562 L 31.535156 19.578125 C 31.535156 19.578125 29.082031 21.082031 18.519531 24.691406 C 13.859375 38.0625 22.59375 47.625 23.007812 48.089844 Z M 23.007812 48.089844 " fill-opacity="1" fill-rule="nonzero"/></g></g></g></g><g mask="url(#1cd6e2f323)"><g transform="matrix(1, 0, 0, 1, 101, 180)"><g clip-path="url(#b1a1da3fa7)"><g clip-path="url(#850e8d884a)"><path fill="#172029" d="M 32.601562 9.625 C 31.535156 9.335938 24.886719 7.101562 24.886719 7.101562 C 24.886719 7.101562 25.078125 7.976562 26.492188 11.082031 C 22.546875 8.710938 18.890625 5.960938 15.511719 2.832031 C 15.511719 2.832031 8.730469 7.199219 5.914062 11.710938 C 3.101562 16.222656 5.460938 21.613281 5.460938 21.613281 L 6.332031 17.4375 C 9.75 25.074219 11.1875 36.921875 11.246094 37.449219 C 11.117188 37.046875 9.011719 30.585938 6.308594 24.558594 C 6.710938 28.863281 6.832031 30.140625 6.832031 30.140625 C 6.832031 30.140625 1.421875 24.269531 0.726562 17.292969 C 0.0273438 10.316406 15.496094 0.777344 15.496094 0.777344 C 15.496094 0.777344 19.214844 5.332031 23.402344 7.175781 L 22.179688 5.3125 C 22.179688 5.3125 29.972656 6.652344 35.4375 5.054688 C 33.394531 8.621094 34.71875 14.484375 35.835938 18.027344 C 35.539062 17.691406 33.871094 15.734375 32.601562 9.625 Z M 32.601562 9.625 " fill-opacity="1" fill-rule="nonzero"/></g></g></g></g><g mask="url(#7b32c2a1d4)"><g transform="matrix(1, 0, 0, 1, 134, 196)"><g clip-path="url(#0a5de9b3f9)"><g clip-path="url(#8a5f514442)"><path fill="#172029" d="M 23.585938 8.6875 L 23.585938 11.792969 C 23.585938 11.792969 15.257812 13.015625 11.582031 8.480469 C 9.257812 14.914062 6.257812 16.140625 4.539062 16.015625 C 2.824219 15.894531 1.019531 10.554688 0.929688 10.265625 C 1.035156 10.449219 2.933594 13.753906 6.152344 12.882812 C 9.457031 11.996094 11.160156 0.996094 11.160156 0.996094 C 11.160156 0.996094 13.488281 8.042969 23.585938 8.6875 Z M 23.585938 8.6875 " fill-opacity="1" fill-rule="nonzero"/></g></g></g></g><path fill="#a6a6a6" d="M 118.324219 175.035156 L 127.613281 177.914062 L 127.613281 180.796875 C 124.085938 179.015625 118.542969 175.183594 118.332031 175.039062 Z M 118.324219 175.035156 " fill-opacity="1" fill-rule="nonzero"/><path fill="#a6a6a6" d="M 137.945312 181.121094 C 137.683594 181.175781 132.351562 182.289062 129.652344 181.636719 C 129.046875 181.460938 128.464844 181.226562 127.90625 180.933594 L 130.285156 178.738281 L 137.941406 181.113281 Z M 137.945312 181.121094 " fill-opacity="1" fill-rule="nonzero"/><path fill="#a6a6a6" d="M 134.972656 185.410156 C 135.476562 185.3125 135.976562 185.195312 136.457031 185.054688 C 136.320312 185.292969 136.199219 185.539062 136.089844 185.792969 Z M 134.972656 185.410156 " fill-opacity="1" fill-rule="nonzero"/><g mask="url(#d60515d450)"><g transform="matrix(1, 0, 0, 1, 105, 153)"><g clip-path="url(#5b9fcafaa7)"><g clip-path="url(#7ca3502b25)"><path fill="#172029" d="M 47.09375 13.480469 C 47.09375 13.480469 46.570312 18.1875 44.421875 21.09375 C 42.273438 24.003906 34.859375 28.765625 23.898438 22.136719 C 12.933594 15.507812 7.90625 17.429688 5.347656 19.058594 C 9.824219 20.046875 10.640625 25.339844 10.640625 25.339844 C 10.640625 25.339844 5.8125 27.253906 2.210938 25.792969 C 1.828125 25.640625 1.5 25.40625 1.226562 25.09375 L 1.199219 25.054688 C 1.199219 25.054688 0.941406 16.753906 4.570312 11.785156 C 8.199219 6.816406 21.90625 1.085938 21.90625 1.085938 C 21.941406 2.746094 22.175781 4.375 22.613281 5.976562 C 23.054688 7.578125 23.683594 9.097656 24.5 10.542969 C 25.316406 11.988281 26.300781 13.308594 27.449219 14.507812 C 28.59375 15.707031 29.871094 16.75 31.277344 17.628906 C 26.898438 16.71875 22.8125 15.074219 19.019531 12.695312 C 26.269531 22.359375 40.496094 27.898438 47.09375 13.480469 Z M 47.09375 13.480469 " fill-opacity="1" fill-rule="nonzero"/></g></g></g></g><g mask="url(#eed1d38570)"><g transform="matrix(1, 0, 0, 1, 73, 141)"><g clip-path="url(#b31d5c7e45)"><g clip-path="url(#b4e410fb0c)"><path fill="#172029" d="M 56.847656 0.976562 C 49.628906 2.609375 38.019531 8.078125 28.238281 19.574219 C 28.171875 15.070312 30.96875 7.28125 31.0625 7.03125 C 30.875 7.128906 25.285156 10.28125 17.726562 22.164062 C 10.167969 34.046875 0.902344 38.308594 0.613281 38.457031 C 12.929688 26.820312 11.539062 2.1875 39.558594 2.882812 C 33.835938 6.703125 31.035156 14.523438 30.851562 15.066406 C 31.316406 14.410156 40.359375 2.140625 56.847656 0.976562 Z M 56.847656 0.976562 " fill-opacity="1" fill-rule="nonzero"/></g></g></g></g><g mask="url(#788377b5de)"><g transform="matrix(1, 0, 0, 1, 107, 118)"><g clip-path="url(#c8b8010742)"><g clip-path="url(#e798bcda6a)"><path fill="#172029" d="M 12.960938 12.289062 C 12.960938 12.289062 9.078125 12.523438 3.324219 9.925781 C 2.582031 15.582031 5.421875 18.488281 5.421875 18.488281 C 9.097656 24.042969 22.078125 21.699219 22.636719 21.597656 C 21.816406 21.867188 -10.070312 32.105469 3.558594 1.15625 C 1.960938 9.28125 12.652344 12.210938 12.960938 12.289062 Z M 12.960938 12.289062 " fill-opacity="1" fill-rule="nonzero"/></g></g></g></g><g mask="url(#77ee4894c2)"><g transform="matrix(1, 0, 0, 1, 116, 110)"><g clip-path="url(#80720ffa81)"><g clip-path="url(#f39921391b)"><path fill="#172029" d="M 35.300781 26.046875 C 35.070312 25.660156 31.203125 19.382812 19.691406 14.265625 C 7.820312 8.988281 6.101562 5.824219 6.101562 5.824219 C 2.121094 11.636719 3.960938 20.289062 3.960938 20.289062 C 3.652344 20.070312 -4.074219 14.433594 5.363281 0.277344 C 7.074219 9.816406 29.523438 9.699219 35.300781 26.046875 Z M 35.300781 26.046875 " fill-opacity="1" fill-rule="nonzero"/></g></g></g></g><g mask="url(#4e1dbb4ef7)"><g transform="matrix(1, 0, 0, 1, 141, 112)"><g clip-path="url(#2d5baab69a)"><g clip-path="url(#ae24f3dd66)"><path fill="#172029" d="M 6.992188 6.511719 C 12.097656 15.050781 10.320312 24.066406 10.320312 24.066406 C 11.066406 11.976562 0.691406 1.167969 0.691406 1.167969 C 0.691406 1.167969 13.09375 4.484375 16.578125 17.503906 C 16.578125 17.511719 16.578125 17.523438 16.578125 17.53125 C 16.414062 17.226562 12.085938 9.421875 6.992188 6.511719 Z M 6.992188 6.511719 " fill-opacity="1" fill-rule="nonzero"/></g></g></g></g><path fill="#a6a6a6" d="M 139.03125 326.21875 C 139.738281 328.070312 140.640625 329.820312 141.742188 331.472656 C 136.625 328.171875 133.972656 322.960938 132.636719 317.917969 C 134.230469 320.0625 136.992188 323.726562 139.03125 326.21875 Z M 139.03125 326.21875 " fill-opacity="1" fill-rule="nonzero"/><path fill="#a6a6a6" d="M 151.585938 333.894531 C 139.511719 325.609375 137.0625 313.769531 136.917969 313.046875 C 136.917969 313.035156 136.917969 313.023438 136.917969 313.007812 C 136.917969 313.007812 140.789062 322.023438 147.527344 328.097656 C 146.421875 323.265625 145.574219 318.390625 144.988281 313.46875 C 146.144531 320.613281 148.34375 327.421875 151.585938 333.894531 Z M 151.585938 333.894531 " fill-opacity="1" fill-rule="nonzero"/><path fill="#a6a6a6" d="M 59.183594 185.957031 C 59.183594 185.957031 54.765625 169.792969 67.554688 156.886719 C 60.117188 162.382812 50.644531 165.730469 50.355469 165.832031 C 50.808594 165.480469 66.039062 154.222656 72.90625 140.371094 C 70.875 157.09375 68.71875 161.222656 68.71875 161.222656 L 73.601562 160.246094 C 56.867188 167.816406 59.183594 185.957031 59.183594 185.957031 Z M 59.183594 185.957031 " fill-opacity="1" fill-rule="nonzero"/><path fill="#a6a6a6" d="M 99.027344 127.847656 C 84.125 124.984375 77.304688 132.890625 77.304688 132.890625 C 79.160156 132.878906 80.996094 133.070312 82.808594 133.472656 C 76.929688 136.328125 78.539062 145.871094 78.613281 146.316406 C 73.109375 133.128906 76.179688 128.648438 76.179688 128.648438 L 67.984375 131.078125 C 67.984375 131.078125 79.328125 116.054688 95.660156 120.703125 C 95.660156 120.703125 90.652344 110.964844 80.667969 108.65625 C 95.949219 106.71875 101.777344 117.648438 99.027344 127.847656 Z M 99.027344 127.847656 " fill-opacity="1" fill-rule="nonzero"/><path fill="#a6a6a6" d="M 119.234375 101.367188 L 127.722656 106.757812 L 119.023438 104 C 110.316406 101.238281 106.621094 95.976562 106.621094 95.976562 C 106.621094 95.976562 112.082031 100.367188 123.921875 99.769531 L 118.664062 96.640625 C 118.664062 96.640625 129.214844 97.839844 136.933594 104.328125 C 130.207031 100.976562 119.234375 101.367188 119.234375 101.367188 Z M 119.234375 101.367188 " fill-opacity="1" fill-rule="nonzero"/><path fill="#a6a6a6" d="M 210.59375 324.757812 C 210.488281 323.953125 206.394531 294.191406 217.6875 273.539062 C 214.523438 288.503906 221.757812 297.933594 218.894531 316.179688 C 227.792969 303.0625 222.214844 272.148438 228.089844 258.273438 C 226.433594 277.125 233.066406 296.578125 233.066406 296.578125 C 233.066406 296.578125 233.066406 267.925781 240.457031 249.917969 C 245.367188 266.960938 238.832031 284.183594 238.636719 284.652344 C 238.945312 284.332031 249.613281 272.816406 247.679688 255.105469 C 245.714844 237.164062 248.589844 224.945312 248.589844 224.945312 C 248.589844 224.945312 249.042969 234.449219 257.183594 244.851562 C 251.300781 220.425781 257.03125 210.796875 257.03125 210.796875 C 261.855469 222.125 263.226562 229.253906 263.226562 229.253906 C 264.777344 184.945312 244.835938 185.054688 244.835938 185.054688 C 244.835938 185.054688 256.292969 188.171875 259.484375 209.183594 C 258.011719 207.203125 256.859375 205.054688 256.019531 202.734375 C 256.019531 202.734375 250.128906 220.832031 253.109375 233.3125 C 250.933594 227.953125 249.453125 222.40625 248.671875 216.675781 C 248.671875 216.675781 240.539062 229.742188 243.726562 247.496094 C 241.964844 244.25 240.828125 240.796875 240.3125 237.140625 C 240.3125 237.140625 229.5 257.058594 231.890625 278.117188 C 228.816406 265.9375 230.410156 249.917969 230.410156 249.917969 C 230.410156 249.917969 221.441406 257.726562 222.328125 280.847656 C 220.320312 274.746094 219.445312 268.484375 219.710938 262.066406 C 219.710938 262.066406 204.785156 281.53125 206.847656 302.703125 C 202.878906 295.6875 202.699219 274.140625 204.429688 263.546875 C 196.832031 294.488281 210.226562 323.964844 210.59375 324.757812 Z M 210.59375 324.757812 " fill-opacity="1" fill-rule="nonzero"/><path fill="#a6a6a6" d="M 233.824219 215.195312 C 234.375 213.050781 233.953125 206.914062 232.109375 199.296875 C 237.425781 203.4375 241.53125 209.769531 241.53125 209.769531 C 238.226562 188.613281 220.386719 182.269531 219.832031 182.078125 C 231.070312 189.929688 235.445312 199.109375 235.703125 199.667969 C 235.34375 199.183594 230.242188 192.339844 219.15625 187.25 C 234.0625 198.867188 233.824219 215.195312 233.824219 215.195312 Z M 233.824219 215.195312 " fill-opacity="1" fill-rule="nonzero"/><path fill="#737373" d="M 220.664062 250.5625 C 220.664062 250.5625 220.613281 247.53125 220.136719 243.277344 C 220.453125 247.597656 220.664062 250.5625 220.664062 250.5625 Z M 220.664062 250.5625 " fill-opacity="1" fill-rule="nonzero"/><path fill="#a6a6a6" d="M 220.671875 250.558594 C 220.839844 250.316406 226.183594 242.589844 226.40625 229.75 C 229.285156 236.027344 231.671875 246.226562 231.671875 246.226562 C 238.835938 217.582031 220.503906 200.484375 219.53125 199.605469 L 219.5 199.578125 C 232.886719 215.671875 230.882812 234.351562 230.882812 234.351562 C 230.882812 234.351562 227.007812 219.074219 219.367188 209.796875 C 227.519531 229.449219 220.800781 250.152344 220.671875 250.558594 Z M 220.671875 250.558594 " fill-opacity="1" fill-rule="nonzero"/><path fill="#a6a6a6" d="M 145.644531 304.4375 C 141.929688 298.691406 143.269531 290.730469 143.269531 290.730469 C 143.269531 290.730469 144.425781 307.625 157.550781 307.625 C 170.671875 307.625 171.828125 290.730469 171.828125 290.730469 C 171.828125 290.730469 173.171875 298.691406 169.453125 304.4375 C 193.507812 296.65625 184.414062 274.8125 184.414062 274.8125 C 184.414062 274.8125 184.945312 290.996094 174.699219 298.886719 C 175.226562 286.367188 172.722656 280.148438 172.722656 280.148438 C 172.722656 280.148438 173.027344 293.578125 157.550781 293.578125 C 142.070312 293.578125 142.375 280.148438 142.375 280.148438 C 142.375 280.148438 139.871094 286.367188 140.398438 298.886719 C 130.152344 290.996094 130.683594 274.8125 130.683594 274.8125 C 130.683594 274.8125 121.589844 296.65625 145.644531 304.4375 Z M 145.644531 304.4375 " fill-opacity="1" fill-rule="nonzero"/><g mask="url(#ac575a509c)"><g transform="matrix(1, 0, 0, 1, 157, 264)"><g clip-path="url(#63a7a0e7aa)"><g clip-path="url(#e1f7d01206)"><path fill="#172029" d="M 0.550781 4.101562 L 0.550781 5.753906 C 0.550781 5.753906 4.550781 5.222656 10.671875 6.152344 C 12.800781 3.09375 12.535156 0.691406 12.535156 0.691406 C 12.535156 0.691406 11.445312 3.5 9.894531 4.671875 C 8.746094 4.046875 0.550781 4.101562 0.550781 4.101562 Z M 0.550781 4.101562 " fill-opacity="1" fill-rule="nonzero"/></g></g></g></g><g mask="url(#c8282b509b)"><g transform="matrix(1, 0, 0, 1, 157, 244)"><g clip-path="url(#a4fe503ff3)"><g clip-path="url(#455bd7703f)"><path fill="#172029" d="M 0.550781 0.246094 L 0.550781 1.503906 C 0.550781 1.503906 7.742188 2.023438 11.566406 1.320312 C 12.023438 4.34375 11.597656 5.808594 11.566406 5.910156 C 11.664062 5.824219 13.449219 4.128906 12.816406 0.140625 C 12.820312 0.140625 9.984375 1.238281 0.550781 0.246094 Z M 0.550781 0.246094 " fill-opacity="1" fill-rule="nonzero"/></g></g></g></g><path fill="#a6a6a6" d="M 176.105469 261.089844 C 185.300781 253.59375 184.707031 243.28125 184.136719 239.589844 C 187.445312 237.734375 190.566406 235.609375 193.503906 233.214844 C 187.027344 233.789062 180.554688 233.746094 174.085938 233.097656 L 193.503906 229.257812 L 195.890625 225.246094 C 195.890625 225.246094 184.027344 226.46875 177.574219 226.355469 L 196.527344 220.890625 L 198.621094 213.503906 C 198.621094 213.503906 186.433594 215.5625 183.769531 215.855469 L 183.746094 215.855469 L 195.890625 216.359375 L 190.507812 219.835938 L 169.5625 227.058594 L 186.117188 228.351562 L 167.554688 232.578125 C 167.554688 232.578125 170.011719 234.082031 180.574219 237.691406 C 185.277344 251.0625 176.539062 260.625 176.105469 261.089844 Z M 176.105469 261.089844 " fill-opacity="1" fill-rule="nonzero"/><path fill="#a6a6a6" d="M 181.535156 189.625 C 182.597656 189.335938 189.246094 187.101562 189.246094 187.101562 C 189.246094 187.101562 189.054688 187.976562 187.644531 191.082031 C 191.585938 188.710938 195.246094 185.960938 198.621094 182.832031 C 198.621094 182.832031 205.40625 187.199219 208.21875 191.710938 C 211.03125 196.222656 208.671875 201.613281 208.671875 201.613281 L 207.804688 197.4375 C 204.382812 205.074219 202.945312 216.921875 202.886719 217.449219 C 203.019531 217.046875 205.121094 210.585938 207.828125 204.558594 C 207.421875 208.863281 207.304688 210.140625 207.304688 210.140625 C 207.304688 210.140625 212.710938 204.269531 213.410156 197.292969 C 214.105469 190.316406 198.640625 180.777344 198.640625 180.777344 C 198.640625 180.777344 194.917969 185.332031 190.730469 187.175781 L 191.957031 185.3125 C 191.957031 185.3125 184.160156 186.652344 178.695312 185.054688 C 180.742188 188.621094 179.417969 194.484375 178.296875 198.027344 C 178.621094 197.691406 180.261719 195.734375 181.535156 189.625 Z M 181.535156 189.625 " fill-opacity="1" fill-rule="nonzero"/><g mask="url(#a503af5470)"><g transform="matrix(1, 0, 0, 1, 157, 196)"><g clip-path="url(#dc93af2b59)"><g clip-path="url(#aed4eebd29)"><path fill="#172029" d="M 0.550781 8.6875 L 0.550781 11.792969 C 0.550781 11.792969 8.871094 13.015625 12.550781 8.5 C 14.875 14.933594 17.878906 16.15625 19.59375 16.035156 C 21.308594 15.910156 23.113281 10.570312 23.203125 10.285156 C 23.097656 10.464844 21.199219 13.773438 17.980469 12.902344 C 14.675781 12.015625 12.972656 1.015625 12.972656 1.015625 C 12.972656 1.015625 10.648438 8.042969 0.550781 8.6875 Z M 0.550781 8.6875 " fill-opacity="1" fill-rule="nonzero"/></g></g></g></g><path fill="#a6a6a6" d="M 196.832031 175.035156 L 187.542969 177.914062 L 187.542969 180.796875 C 191.070312 179.015625 196.613281 175.183594 196.828125 175.039062 Z M 196.832031 175.035156 " fill-opacity="1" fill-rule="nonzero"/><path fill="#a6a6a6" d="M 177.191406 181.121094 C 177.449219 181.175781 182.78125 182.289062 185.480469 181.636719 C 186.085938 181.460938 186.671875 181.226562 187.230469 180.933594 L 184.847656 178.738281 L 177.195312 181.113281 Z M 177.191406 181.121094 " fill-opacity="1" fill-rule="nonzero"/><path fill="#a6a6a6" d="M 180.164062 185.410156 C 179.65625 185.3125 179.15625 185.195312 178.679688 185.054688 C 178.816406 185.292969 178.9375 185.539062 179.042969 185.792969 Z M 180.164062 185.410156 " fill-opacity="1" fill-rule="nonzero"/><path fill="#a6a6a6" d="M 163.039062 166.480469 C 163.039062 166.480469 163.5625 171.1875 165.710938 174.09375 C 167.859375 177.003906 175.273438 181.765625 186.238281 175.136719 C 197.199219 168.507812 202.226562 170.429688 204.785156 172.058594 C 200.308594 173.046875 199.496094 178.339844 199.496094 178.339844 C 199.496094 178.339844 204.320312 180.253906 207.921875 178.792969 C 208.304688 178.636719 208.625 178.402344 208.890625 178.089844 L 208.917969 178.050781 C 208.917969 178.050781 209.179688 169.746094 205.550781 164.78125 C 201.921875 159.8125 188.210938 154.082031 188.210938 154.082031 C 188.179688 155.738281 187.945312 157.367188 187.507812 158.96875 C 187.070312 160.570312 186.441406 162.089844 185.625 163.535156 C 184.808594 164.976562 183.828125 166.300781 182.683594 167.5 C 181.535156 168.699219 180.261719 169.738281 178.855469 170.621094 C 183.238281 169.710938 187.324219 168.066406 191.113281 165.6875 C 183.859375 175.359375 169.636719 180.898438 163.039062 166.480469 Z M 163.039062 166.480469 " fill-opacity="1" fill-rule="nonzero"/><path fill="#a6a6a6" d="M 185.285156 141.976562 C 192.507812 143.609375 204.117188 149.078125 213.894531 160.574219 C 213.964844 156.070312 211.164062 148.28125 211.074219 148.03125 C 211.257812 148.128906 216.851562 151.28125 224.410156 163.164062 C 231.964844 175.046875 241.253906 179.308594 241.523438 179.4375 C 229.203125 167.800781 230.597656 143.164062 202.578125 143.859375 C 208.300781 147.679688 211.101562 155.5 211.28125 156.042969 C 210.816406 155.410156 201.777344 143.140625 185.285156 141.976562 Z M 185.285156 141.976562 " fill-opacity="1" fill-rule="nonzero"/><path fill="#a6a6a6" d="M 195.175781 130.289062 C 195.175781 130.289062 199.058594 130.523438 204.808594 127.925781 C 205.550781 133.582031 202.714844 136.488281 202.714844 136.488281 C 199.035156 142.042969 186.054688 139.699219 185.5 139.597656 C 186.320312 139.867188 218.203125 150.105469 204.574219 119.15625 C 206.160156 127.28125 195.464844 130.210938 195.175781 130.289062 Z M 195.175781 130.289062 " fill-opacity="1" fill-rule="nonzero"/><path fill="#a6a6a6" d="M 163.824219 136.046875 C 164.054688 135.660156 167.921875 129.382812 179.433594 124.265625 C 191.304688 118.988281 193.023438 115.824219 193.023438 115.824219 C 197.011719 121.636719 195.175781 130.289062 195.175781 130.289062 C 195.484375 130.070312 203.210938 124.433594 193.773438 110.277344 C 192.058594 119.816406 169.609375 119.699219 163.824219 136.046875 Z M 163.824219 136.046875 " fill-opacity="1" fill-rule="nonzero"/><path fill="#a6a6a6" d="M 167.140625 118.511719 C 162.039062 127.050781 163.8125 136.066406 163.8125 136.066406 C 163.066406 123.976562 173.441406 113.167969 173.441406 113.167969 C 173.441406 113.167969 161.039062 116.484375 157.558594 129.503906 C 157.554688 129.511719 157.554688 129.523438 157.558594 129.53125 C 157.722656 129.226562 162.046875 121.421875 167.140625 118.511719 Z M 167.140625 118.511719 " fill-opacity="1" fill-rule="nonzero"/><path fill="#a6a6a6" d="M 176.101562 326.21875 C 175.398438 328.070312 174.496094 329.820312 173.398438 331.472656 C 178.515625 328.171875 181.164062 322.960938 182.503906 317.917969 C 180.894531 320.0625 178.164062 323.726562 176.101562 326.21875 Z M 176.101562 326.21875 " fill-opacity="1" fill-rule="nonzero"/><path fill="#a6a6a6" d="M 163.550781 333.894531 C 175.625 325.609375 178.074219 313.769531 178.214844 313.046875 C 178.214844 313.035156 178.214844 313.023438 178.214844 313.007812 C 178.214844 313.007812 174.34375 322.023438 167.605469 328.097656 C 168.710938 323.265625 169.558594 318.390625 170.148438 313.46875 C 168.988281 320.613281 166.789062 327.421875 163.550781 333.894531 Z M 163.550781 333.894531 " fill-opacity="1" fill-rule="nonzero"/><path fill="#a6a6a6" d="M 255.949219 185.957031 C 255.949219 185.957031 260.367188 169.792969 247.578125 156.886719 C 255.019531 162.382812 264.488281 165.730469 264.777344 165.832031 C 264.300781 165.480469 249.09375 154.222656 242.230469 140.371094 C 244.257812 157.09375 246.417969 161.222656 246.417969 161.222656 L 241.53125 160.246094 C 258.269531 167.816406 255.949219 185.957031 255.949219 185.957031 Z M 255.949219 185.957031 " fill-opacity="1" fill-rule="nonzero"/><path fill="#a6a6a6" d="M 216.109375 127.847656 C 231.011719 124.984375 237.832031 132.890625 237.832031 132.890625 C 235.980469 132.878906 234.152344 133.074219 232.34375 133.472656 C 238.222656 136.328125 236.613281 145.871094 236.539062 146.316406 C 242.042969 133.136719 238.96875 128.65625 238.96875 128.65625 L 247.164062 131.089844 C 247.164062 131.089844 235.816406 116.0625 219.488281 120.710938 C 219.488281 120.710938 224.496094 110.972656 234.480469 108.664062 C 219.1875 106.71875 213.359375 117.648438 216.109375 127.847656 Z M 216.109375 127.847656 " fill-opacity="1" fill-rule="nonzero"/><path fill="#a6a6a6" d="M 195.921875 101.367188 L 187.433594 106.757812 L 196.136719 104 C 204.839844 101.238281 208.535156 95.976562 208.535156 95.976562 C 208.535156 95.976562 203.074219 100.367188 191.234375 99.769531 L 196.496094 96.640625 C 196.496094 96.640625 185.90625 97.839844 178.195312 104.335938 C 184.925781 100.976562 195.921875 101.367188 195.921875 101.367188 Z M 195.921875 101.367188 " fill-opacity="1" fill-rule="nonzero"/><path fill="#a6a6a6" d="M 157.589844 58.597656 L 157.589844 74.351562 C 119.589844 77.292969 106.597656 90.921875 106.597656 90.921875 L 96.390625 67.792969 L 102.375 58.636719 L 89.566406 52.328125 L 83.804688 39.296875 L 111.578125 54.445312 L 106.226562 70.644531 L 128.539062 77.347656 L 150.6875 65.636719 L 136.472656 51.839844 L 157.582031 21.335938 L 157.582031 34.648438 L 146.417969 49.246094 Z M 157.589844 58.597656 " fill-opacity="1" fill-rule="nonzero"/><path fill="#a6a6a6" d="M 225.613281 52.328125 L 212.804688 58.636719 L 218.789062 67.792969 L 208.582031 90.921875 L 207.972656 90.921875 L 215.257812 68.660156 L 208.957031 56.878906 L 222.769531 50.050781 L 231.367188 39.296875 Z M 225.613281 52.328125 " fill-opacity="1" fill-rule="nonzero"/><g clip-path="url(#acbd7b925a)"><path fill="#a6a6a6" d="M 48.996094 282.929688 L 50.417969 285.285156 C 34.363281 280.960938 18.617188 273.902344 3.371094 264.40625 C 7.878906 291.171875 27.972656 295.96875 47.5625 287.722656 C 48.890625 287.1875 50.289062 287.128906 51.78125 287.382812 C 54.902344 292.125 58.296875 296.722656 61.996094 301.121094 C 42.496094 300.136719 22.710938 295.644531 2.941406 287.996094 C 13.320312 316.042969 36.050781 317.082031 55.550781 304.121094 C 57.777344 302.664062 60.488281 302.757812 63.757812 303.128906 C 78.785156 320.332031 98.484375 334.59375 122.777344 344.050781 C 129.21875 346.566406 137.210938 349.042969 145.882812 351.210938 C 142.722656 351.667969 139.527344 352.003906 136.398438 352.328125 C 128.429688 353.066406 124.210938 355.613281 119.886719 359.527344 C 131.609375 358.738281 145.109375 356.726562 158.023438 354.015625 C 170.929688 356.726562 184.433594 358.738281 196.15625 359.527344 C 191.847656 355.613281 187.648438 353.066406 179.65625 352.328125 C 176.515625 352.003906 173.316406 351.667969 170.160156 351.210938 C 178.828125 349.042969 186.800781 346.566406 193.265625 344.050781 C 217.5625 334.59375 237.261719 320.332031 252.320312 303.128906 C 255.554688 302.757812 258.300781 302.664062 260.488281 304.121094 C 279.988281 317.082031 302.722656 316.042969 313.097656 287.996094 C 293.351562 295.644531 273.546875 300.136719 254.027344 301.121094 C 257.726562 296.722656 261.160156 292.125 264.242188 287.386719 C 265.75 287.128906 267.148438 287.1875 268.464844 287.722656 C 288.085938 295.96875 308.140625 291.171875 312.671875 264.40625 C 297.425781 273.902344 281.675781 280.960938 265.609375 285.285156 L 267.042969 282.929688 C 269.667969 278.660156 271.980469 274.132812 274.136719 269.480469 C 275.011719 269.191406 275.914062 269.109375 276.8125 269.230469 C 297.746094 272.121094 315.777344 262.394531 313.226562 235.570312 C 301.605469 247.976562 288.984375 258.386719 275.445312 266.46875 C 278.324219 259.679688 280.707031 252.605469 282.609375 245.28125 C 301.695312 244.417969 316.132812 232.765625 309.503906 209.222656 C 301.949219 220.96875 293.386719 231.363281 283.832031 240.25 C 285.34375 233.589844 286.417969 226.835938 287.082031 220 C 304.265625 215.292969 315.023438 201.75 304.265625 181.554688 C 299.832031 193.511719 294.261719 204.484375 287.550781 214.3125 C 287.941406 207.738281 288 201.113281 287.636719 194.59375 C 300.765625 186.191406 306.21875 172.097656 292.128906 157.804688 C 291.449219 168 289.757812 177.839844 287.046875 187.050781 C 286.238281 179.511719 284.949219 172.0625 283.042969 164.839844 C 290.867188 156.023438 291.949219 144.605469 278.730469 137.046875 C 280.207031 144.085938 280.980469 151.066406 281.011719 157.839844 L 281.570312 159.542969 C 278.765625 150.382812 275.035156 141.679688 270.351562 133.65625 C 288.894531 181.253906 290.867188 236.050781 263.757812 280.960938 C 248.335938 306.46875 224.3125 327.101562 191.882812 339.722656 C 182.003906 343.566406 170.265625 346.871094 158.023438 349.1875 C 145.773438 346.871094 134.015625 343.566406 124.160156 339.722656 C 91.730469 327.101562 67.6875 306.46875 52.28125 280.960938 C 25.152344 236.050781 27.128906 181.253906 45.691406 133.65625 C 40.992188 141.679688 37.273438 150.382812 34.488281 159.542969 L 35.011719 157.839844 C 35.046875 151.066406 35.855469 144.085938 37.324219 137.046875 C 24.078125 144.605469 25.152344 156.023438 33 164.839844 C 31.097656 172.0625 29.785156 179.511719 29.011719 187.050781 C 26.285156 177.839844 24.613281 168 23.894531 157.804688 C 9.816406 172.097656 15.277344 186.191406 28.402344 194.59375 C 28.042969 201.113281 28.078125 207.738281 28.472656 214.3125 C 21.796875 204.484375 16.191406 193.511719 11.773438 181.554688 C 1.019531 201.75 11.773438 215.292969 28.960938 220 C 29.625 226.835938 30.71875 233.589844 32.207031 240.25 C 22.675781 231.363281 14.109375 220.96875 6.53125 209.222656 C -0.109375 232.765625 14.34375 244.417969 33.429688 245.28125 C 35.332031 252.605469 37.707031 259.679688 40.59375 266.46875 C 27.054688 258.386719 14.414062 247.976562 2.816406 235.570312 C 0.265625 262.394531 18.3125 272.121094 39.210938 269.230469 C 40.128906 269.109375 41.023438 269.191406 41.90625 269.480469 C 44.042969 274.132812 46.410156 278.660156 48.996094 282.929688 Z M 48.996094 282.929688 " fill-opacity="1" fill-rule="evenodd"/></g></g></g></svg>