<svg xmlns="http://www.w3.org/2000/svg" xmlns:xlink="http://www.w3.org/1999/xlink" width="200" zoomAndPan="magnify" viewBox="0 0 150 37.5" height="50" preserveAspectRatio="xMidYMid meet" version="1.0"><defs><filter x="0%" y="0%" width="100%" height="100%" id="205023cd84"><feColorMatrix values="0 0 0 0 1 0 0 0 0 1 0 0 0 0 1 0 0 0 1 0" color-interpolation-filters="sRGB"/></filter><g/><clipPath id="da9ead6a5a"><path d="M 3.34375 0.578125 L 22.730469 0.578125 L 22.730469 27.554688 L 3.34375 27.554688 Z M 3.34375 0.578125 " clip-rule="nonzero"/></clipPath><mask id="2c3309341a"><g filter="url(#205023cd84)"><rect x="-35" width="216" fill="#000000" y="-12.25" height="54" fill-opacity="0.3"/></g></mask><clipPath id="da2da5c190"><path d="M 0.0117188 1 L 1 1 L 1 1.578125 L 0.0117188 1.578125 Z M 0.0117188 1 " clip-rule="nonzero"/></clipPath><clipPath id="c2c739af97"><rect x="0" width="2" y="0" height="2"/></clipPath><mask id="f957e16a45"><g filter="url(#205023cd84)"><rect x="-35" width="216" fill="#000000" y="-12.25" height="54" fill-opacity="0.3"/></g></mask><clipPath id="20973879dd"><path d="M 1 0.449219 L 2 0.449219 L 2 0.921875 L 1 0.921875 Z M 1 0.449219 " clip-rule="nonzero"/></clipPath><clipPath id="8b88473291"><rect x="0" width="3" y="0" height="1"/></clipPath><mask id="ff3f81d06a"><g filter="url(#205023cd84)"><rect x="-35" width="216" fill="#000000" y="-12.25" height="54" fill-opacity="0.3"/></g></mask><clipPath id="7a4e617ee0"><path d="M 0.644531 1 L 3.25 1 L 3.25 4.867188 L 0.644531 4.867188 Z M 0.644531 1 " clip-rule="nonzero"/></clipPath><clipPath id="14a87c37fc"><rect x="0" width="4" y="0" height="5"/></clipPath><mask id="dec116734f"><g filter="url(#205023cd84)"><rect x="-35" width="216" fill="#000000" y="-12.25" height="54" fill-opacity="0.3"/></g></mask><clipPath id="ccc5bc62e1"><path d="M 0.460938 0.472656 L 3.539062 0.472656 L 3.539062 3.550781 L 0.460938 3.550781 Z M 0.460938 0.472656 " clip-rule="nonzero"/></clipPath><clipPath id="b22944de19"><rect x="0" width="4" y="0" height="4"/></clipPath><mask id="3a63ee47e2"><g filter="url(#205023cd84)"><rect x="-35" width="216" fill="#000000" y="-12.25" height="54" fill-opacity="0.3"/></g></mask><clipPath id="b9f3aa8a95"><path d="M 0.0664062 0.65625 L 2 0.65625 L 2 2 L 0.0664062 2 Z M 0.0664062 0.65625 " clip-rule="nonzero"/></clipPath><clipPath id="b829d91b4a"><rect x="0" width="3" y="0" height="3"/></clipPath><mask id="8a0e6cdc5e"><g filter="url(#205023cd84)"><rect x="-35" width="216" fill="#000000" y="-12.25" height="54" fill-opacity="0.3"/></g></mask><clipPath id="406120b16b"><path d="M 0.933594 0.34375 L 4.722656 0.34375 L 4.722656 2.472656 L 0.933594 2.472656 Z M 0.933594 0.34375 " clip-rule="nonzero"/></clipPath><clipPath id="d56c09ce8f"><rect x="0" width="5" y="0" height="3"/></clipPath><mask id="abebc5c205"><g filter="url(#205023cd84)"><rect x="-35" width="216" fill="#000000" y="-12.25" height="54" fill-opacity="0.3"/></g></mask><clipPath id="d1efb9d30a"><path d="M 0.328125 0.394531 L 5 0.394531 L 5 3.472656 L 0.328125 3.472656 Z M 0.328125 0.394531 " clip-rule="nonzero"/></clipPath><clipPath id="5d5d910c9b"><rect x="0" width="6" y="0" height="4"/></clipPath><mask id="5dd6a3d6e1"><g filter="url(#205023cd84)"><rect x="-35" width="216" fill="#000000" y="-12.25" height="54" fill-opacity="0.3"/></g></mask><clipPath id="05f7080037"><path d="M 1 0.738281 L 3 0.738281 L 3 2.632812 L 1 2.632812 Z M 1 0.738281 " clip-rule="nonzero"/></clipPath><clipPath id="f6e460212a"><rect x="0" width="4" y="0" height="3"/></clipPath><mask id="5058449620"><g filter="url(#205023cd84)"><rect x="-35" width="216" fill="#000000" y="-12.25" height="54" fill-opacity="0.3"/></g></mask><clipPath id="740b1ee38c"><path d="M 0.644531 0.0273438 L 3.722656 0.0273438 L 3.722656 2.15625 L 0.644531 2.15625 Z M 0.644531 0.0273438 " clip-rule="nonzero"/></clipPath><clipPath id="801989c0aa"><rect x="0" width="4" y="0" height="3"/></clipPath><mask id="785fc23d07"><g filter="url(#205023cd84)"><rect x="-35" width="216" fill="#000000" y="-12.25" height="54" fill-opacity="0.3"/></g></mask><clipPath id="cc1d824acc"><path d="M 0.539062 0.261719 L 2 0.261719 L 2 2.15625 L 0.539062 2.15625 Z M 0.539062 0.261719 " clip-rule="nonzero"/></clipPath><clipPath id="68d69370c7"><rect x="0" width="3" y="0" height="3"/></clipPath><mask id="20afe42ee4"><g filter="url(#205023cd84)"><rect x="-35" width="216" fill="#000000" y="-12.25" height="54" fill-opacity="0.3"/></g></mask><clipPath id="8e1b82e5ef"><path d="M 0.722656 1 L 2 1 L 2 1.578125 L 0.722656 1.578125 Z M 0.722656 1 " clip-rule="nonzero"/></clipPath><clipPath id="43f48cba80"><rect x="0" width="3" y="0" height="2"/></clipPath><mask id="e0bc70123a"><g filter="url(#205023cd84)"><rect x="-35" width="216" fill="#000000" y="-12.25" height="54" fill-opacity="0.3"/></g></mask><clipPath id="74fff67ab4"><path d="M 0.722656 0.449219 L 2 0.449219 L 2 0.921875 L 0.722656 0.921875 Z M 0.722656 0.449219 " clip-rule="nonzero"/></clipPath><clipPath id="cda24c5970"><rect x="0" width="3" y="0" height="1"/></clipPath><mask id="2fc7398044"><g filter="url(#205023cd84)"><rect x="-35" width="216" fill="#000000" y="-12.25" height="54" fill-opacity="0.3"/></g></mask><clipPath id="fd71c18bcb"><path d="M 0.722656 0.65625 L 2.855469 0.65625 L 2.855469 2 L 0.722656 2 Z M 0.722656 0.65625 " clip-rule="nonzero"/></clipPath><clipPath id="ceccf7aa06"><rect x="0" width="3" y="0" height="3"/></clipPath><clipPath id="39aa3c6256"><path d="M 0.707031 10.890625 L 25.15625 10.890625 L 25.15625 28.59375 L 0.707031 28.59375 Z M 0.707031 10.890625 " clip-rule="nonzero"/></clipPath><clipPath id="6147b74a44"><path d="M 0.300781 1 L 10 1 L 10 12 L 0.300781 12 Z M 0.300781 1 " clip-rule="nonzero"/></clipPath><clipPath id="32de382520"><rect x="0" width="37" y="0" height="16"/></clipPath><clipPath id="38981761f6"><path d="M 68 11 L 113.144531 11 L 113.144531 23 L 68 23 Z M 68 11 " clip-rule="nonzero"/></clipPath><clipPath id="9ae10f35a7"><rect x="0" width="46" y="0" height="12"/></clipPath><clipPath id="1b27eedd70"><rect x="0" width="114" y="0" height="29"/></clipPath></defs><g transform="matrix(1, 0, 0, 1, 2, 4)"><g clip-path="url(#1b27eedd70)"><g clip-path="url(#da9ead6a5a)"><path fill="#172029" d="M 21.410156 15.207031 C 21.386719 15.164062 21.375 15.140625 21.375 15.140625 L 21.394531 15.144531 C 21.496094 14.6875 21.503906 14.234375 21.410156 13.773438 C 21.871094 13.675781 22.292969 13.496094 22.679688 13.226562 C 22.265625 13.070312 21.882812 12.851562 21.539062 12.578125 C 21.210938 12.300781 20.910156 11.992188 20.644531 11.65625 L 21.507812 11.914062 L 20.585938 10.242188 C 20.265625 9.839844 19.871094 9.527344 19.398438 9.308594 L 19.234375 9.238281 L 19.214844 9.234375 C 19.398438 9.0625 19.707031 8.828125 20.21875 8.550781 C 19.441406 8.09375 18.566406 8.109375 18.082031 8.167969 C 17.976562 8.179688 17.867188 8.195312 17.765625 8.21875 C 17.726562 8.230469 17.703125 8.234375 17.703125 8.234375 C 17.722656 8.15625 17.738281 8.074219 17.738281 7.992188 L 17.742188 7.882812 L 17.847656 7.496094 L 18.632812 5.710938 L 18.40625 5.363281 L 18.890625 5.125 L 20.195312 2.171875 L 15.335938 4.1875 L 13.625 1.710938 L 13.011719 0.59375 L 12.398438 1.710938 L 10.683594 4.1875 L 5.828125 2.175781 L 7.132812 5.128906 L 7.617188 5.363281 L 7.390625 5.710938 L 8.175781 7.496094 L 8.28125 7.882812 L 8.285156 7.992188 C 8.289062 8.074219 8.300781 8.15625 8.320312 8.234375 C 8.320312 8.234375 8.300781 8.230469 8.261719 8.222656 C 8.15625 8.199219 8.050781 8.179688 7.941406 8.167969 C 7.457031 8.109375 6.585938 8.09375 5.808594 8.554688 C 6.316406 8.828125 6.625 9.0625 6.8125 9.234375 L 6.792969 9.242188 L 6.625 9.308594 C 6.15625 9.527344 5.757812 9.839844 5.4375 10.246094 L 4.519531 11.914062 L 5.378906 11.660156 C 5.113281 11.996094 4.816406 12.300781 4.488281 12.578125 C 4.140625 12.855469 3.757812 13.070312 3.34375 13.226562 C 3.726562 13.496094 4.152344 13.675781 4.609375 13.773438 C 4.515625 14.234375 4.523438 14.6875 4.628906 15.144531 L 4.648438 15.140625 C 4.648438 15.140625 4.632812 15.164062 4.609375 15.207031 C 4.339844 15.660156 4.164062 16.242188 4.082031 16.949219 C 3.984375 17.597656 3.941406 18.433594 4.03125 19.464844 C 4.277344 19.25 4.464844 19.085938 4.609375 18.960938 C 4.601562 18.996094 4.59375 19.035156 4.585938 19.070312 C 4.570312 19.136719 4.324219 20.207031 4.03125 21.269531 C 4.453125 21.027344 4.855469 20.75 5.230469 20.4375 C 5.226562 20.523438 5.222656 20.609375 5.226562 20.695312 C 5.246094 22.15625 6.113281 23.082031 6.152344 23.121094 L 6.375 23.355469 L 6.578125 23.566406 L 7.140625 24.15625 C 7.140625 24.15625 7.273438 25.5625 8.839844 26.890625 L 8.910156 26.324219 C 9.105469 26.578125 9.359375 26.886719 9.523438 27.019531 C 9.527344 27.007812 9.566406 26.015625 9.609375 25.867188 C 9.800781 26.265625 10.234375 26.84375 11.191406 27.175781 C 11.140625 26.96875 11.097656 26.796875 11.0625 26.652344 C 11.210938 26.804688 11.398438 26.992188 11.566406 27.148438 C 11.667969 27.257812 11.777344 27.355469 11.894531 27.445312 C 11.914062 27.457031 11.929688 27.472656 11.945312 27.480469 C 11.917969 27.195312 11.902344 27.011719 11.890625 26.886719 C 11.953125 26.9375 12.019531 26.988281 12.089844 27.035156 C 12.261719 27.25 12.550781 27.496094 13.011719 27.613281 C 13.472656 27.492188 13.761719 27.25 13.929688 27.035156 C 14.003906 26.988281 14.066406 26.9375 14.132812 26.886719 C 14.121094 27.011719 14.101562 27.195312 14.078125 27.480469 C 14.089844 27.46875 14.109375 27.457031 14.125 27.445312 C 14.246094 27.355469 14.355469 27.257812 14.457031 27.148438 C 14.621094 26.992188 14.808594 26.804688 14.957031 26.652344 C 14.921875 26.796875 14.882812 26.96875 14.832031 27.175781 C 15.785156 26.84375 16.21875 26.265625 16.414062 25.867188 C 16.453125 26.015625 16.492188 27.007812 16.5 27.019531 C 16.664062 26.886719 16.917969 26.578125 17.113281 26.324219 L 17.183594 26.890625 C 18.746094 25.5625 18.878906 24.15625 18.878906 24.15625 L 19.445312 23.566406 L 19.648438 23.355469 L 19.871094 23.121094 C 19.90625 23.082031 20.777344 22.15625 20.796875 20.695312 C 20.796875 20.609375 20.796875 20.523438 20.789062 20.4375 C 21.050781 20.65625 21.4375 20.941406 21.992188 21.269531 C 21.699219 20.207031 21.449219 19.136719 21.433594 19.070312 C 21.425781 19.035156 21.417969 18.996094 21.414062 18.960938 C 21.554688 19.085938 21.746094 19.25 21.992188 19.464844 C 22.082031 18.433594 22.035156 17.597656 21.9375 16.949219 C 21.855469 16.242188 21.679688 15.664062 21.410156 15.207031 Z M 21.410156 15.207031 " fill-opacity="1" fill-rule="nonzero"/></g><path fill="#ffffff" d="M 7.601562 11.53125 C 7.59375 11.5625 7.402344 12.578125 6.355469 13.269531 C 5.289062 13.972656 5.34375 14.949219 5.34375 14.949219 C 5.34375 14.949219 5 13.695312 5.992188 12.691406 C 5.417969 13.121094 4.679688 13.378906 4.660156 13.386719 C 4.695312 13.359375 5.875 12.484375 6.410156 11.410156 C 6.410156 11.410156 6.53125 12.125 6.375 12.746094 C 7.242188 12.355469 7.589844 11.554688 7.601562 11.53125 Z M 7.601562 11.53125 " fill-opacity="1" fill-rule="nonzero"/><path fill="#ffffff" d="M 10.8125 26.035156 C 10.785156 26.027344 9.882812 25.710938 9.902344 23.683594 C 9.929688 21.625 9.34375 20.96875 9.34375 20.96875 C 9.929688 23.371094 8.890625 25.65625 8.863281 25.71875 C 8.871094 25.65625 9.191406 23.347656 8.3125 21.746094 C 8.558594 22.90625 7.996094 23.636719 8.21875 25.054688 C 7.527344 24.035156 7.960938 21.636719 7.503906 20.558594 C 7.632812 22.023438 7.121094 23.53125 7.121094 23.53125 C 7.121094 23.53125 7.121094 21.308594 6.546875 19.910156 C 6.164062 21.234375 6.671875 22.570312 6.6875 22.605469 C 6.664062 22.582031 5.835938 21.6875 5.984375 20.3125 C 6.136719 18.921875 5.914062 17.972656 5.914062 17.972656 C 5.914062 17.972656 5.878906 18.710938 5.25 19.519531 C 5.703125 17.621094 5.261719 16.875 5.261719 16.875 C 4.886719 17.753906 4.78125 18.308594 4.78125 18.308594 C 4.65625 14.867188 6.207031 14.878906 6.207031 14.878906 C 6.207031 14.878906 5.484375 15.882812 5.636719 16.875 C 6.433594 14.890625 8.09375 14.652344 8.148438 14.648438 C 7.273438 15.257812 6.933594 15.96875 6.914062 16.011719 C 6.941406 15.972656 7.339844 15.441406 8.199219 15.046875 C 7.042969 15.949219 7.058594 17.21875 7.058594 17.21875 L 7.0625 17.214844 C 7.101562 17.152344 7.535156 16.503906 8.167969 16.007812 L 8.171875 16.007812 C 7.132812 17.253906 7.289062 18.703125 7.289062 18.703125 C 7.289062 18.703125 7.589844 17.519531 8.183594 16.796875 C 7.550781 18.324219 8.070312 19.929688 8.082031 19.960938 C 8.082031 19.960938 8.085938 19.726562 8.121094 19.394531 C 8.121094 19.394531 8.121094 19.390625 8.121094 19.386719 C 8.179688 18.871094 8.320312 18.128906 8.644531 17.671875 C 8.285156 19.652344 9.121094 21.066406 9.121094 21.066406 C 9.121094 21.066406 9.121094 19.917969 8.828125 19.003906 C 10.332031 20.761719 10.136719 23.320312 10.136719 23.320312 C 10.136719 23.320312 10.253906 22.902344 10.4375 22.585938 C 9.992188 25.152344 10.785156 26.007812 10.8125 26.035156 Z M 10.8125 26.035156 " fill-opacity="1" fill-rule="nonzero"/><path fill="#ffffff" d="M 8.789062 10.789062 C 8.789062 10.789062 8.023438 10.570312 7.25 10.730469 C 7.609375 10.820312 7.707031 10.890625 7.707031 10.890625 C 7.707031 10.890625 6.953125 10.871094 6.855469 11.875 C 6.425781 10.847656 6.664062 10.5 6.664062 10.5 L 6.027344 10.691406 C 6.027344 10.691406 6.90625 9.523438 8.175781 9.886719 C 8.175781 9.886719 7.785156 9.128906 7.011719 8.949219 C 8.304688 8.703125 9.476562 9.230469 8.789062 10.789062 Z M 8.789062 10.789062 " fill-opacity="1" fill-rule="nonzero"/><path fill="#ffffff" d="M 11.457031 14.574219 C 11.433594 14.585938 10.992188 14.835938 10.597656 14.742188 C 10.199219 14.644531 9.941406 14.117188 9.933594 14.101562 L 10.65625 14.324219 L 10.65625 14.578125 L 10.675781 14.558594 L 10.863281 14.390625 Z M 11.457031 14.574219 " fill-opacity="1" fill-rule="nonzero"/><path fill="#ffffff" d="M 11.375 24.808594 C 11.359375 25.160156 11.414062 25.5 11.539062 25.832031 C 11.59375 25.976562 11.664062 26.113281 11.75 26.238281 C 11.351562 25.984375 11.148438 25.578125 11.042969 25.1875 C 10.949219 24.816406 10.921875 24.4375 10.957031 24.058594 C 11.027344 24.816406 11.207031 25.125 11.207031 25.125 C 11.207031 25.125 11.171875 24.546875 11.289062 24.15625 C 11.414062 24.6875 11.964844 25.535156 11.984375 25.5625 C 11.894531 25.214844 11.988281 24.730469 11.988281 24.730469 C 11.988281 24.730469 11.992188 24.769531 12.003906 24.84375 C 12.09375 25.398438 12.261719 25.925781 12.515625 26.429688 C 11.578125 25.785156 11.386719 24.867188 11.375 24.808594 Z M 11.375 24.808594 " fill-opacity="1" fill-rule="nonzero"/><path fill="#ffffff" d="M 11.457031 8.457031 C 11.734375 8.597656 11.945312 8.804688 12.09375 9.078125 C 12.078125 9.066406 11.546875 8.789062 10.691406 8.601562 C 11.234375 9.144531 11.492188 9.519531 11.492188 9.519531 C 11.492188 9.519531 10.730469 8.992188 9.886719 8.78125 C 9.046875 8.570312 9.023438 7.964844 9.023438 7.964844 C 9.023438 7.964844 9.449219 8.304688 10.367188 8.261719 L 9.960938 8.015625 C 9.960938 8.015625 11.316406 7.847656 12.128906 8.238281 C 11.757812 7.871094 11.664062 7.71875 11.660156 7.710938 C 11.6875 7.71875 12.957031 8.09375 12.980469 9.40625 C 12.980469 9.40625 12.355469 8.472656 11.457031 8.457031 Z M 11.457031 8.457031 " fill-opacity="1" fill-rule="nonzero"/><path fill="#ffffff" d="M 13.46875 17.21875 C 13.636719 17.082031 13.820312 17.054688 14.023438 17.140625 C 14.023438 17.140625 13.9375 16.828125 13.519531 16.882812 C 13.101562 16.9375 12.980469 16.914062 12.980469 16.914062 C 12.980469 16.914062 12.859375 16.9375 12.441406 16.882812 C 12.023438 16.828125 11.9375 17.140625 11.9375 17.140625 C 12.136719 17.054688 12.324219 17.082031 12.492188 17.21875 C 12.773438 17.433594 12.980469 17.417969 12.980469 17.417969 C 12.980469 17.417969 13.1875 17.433594 13.46875 17.21875 Z M 13.46875 17.21875 " fill-opacity="1" fill-rule="nonzero"/><path fill="#ffffff" d="M 13.835938 19.910156 L 13.769531 19.644531 L 13.742188 19.761719 C 13.414062 19.714844 12.980469 19.761719 12.980469 19.761719 C 12.980469 19.761719 12.546875 19.714844 12.214844 19.761719 L 12.1875 19.644531 L 12.125 19.910156 C 12.117188 19.90625 11.980469 19.773438 12.027344 19.464844 C 12.027344 19.464844 12.246094 19.550781 12.980469 19.472656 C 13.714844 19.550781 13.933594 19.464844 13.933594 19.464844 C 13.980469 19.78125 13.835938 19.910156 13.835938 19.910156 Z M 13.835938 19.910156 " fill-opacity="1" fill-rule="nonzero"/><path fill="#ffffff" d="M 13.90625 24.140625 C 14.195312 23.695312 14.089844 23.078125 14.089844 23.078125 C 14.089844 23.078125 14 24.390625 12.980469 24.390625 C 11.964844 24.390625 11.875 23.078125 11.875 23.078125 C 11.875 23.078125 11.769531 23.695312 12.058594 24.140625 C 10.191406 23.539062 10.898438 21.84375 10.898438 21.84375 C 10.898438 21.84375 11.003906 22.410156 11.496094 22.257812 C 11.109375 21.660156 11.277344 20.910156 11.277344 20.910156 C 11.546875 21.484375 11.882812 21.800781 12.085938 21.949219 C 12.613281 21.703125 12.980469 21.746094 12.980469 21.746094 C 12.980469 21.746094 13.347656 21.703125 13.878906 21.949219 C 14.078125 21.800781 14.414062 21.484375 14.6875 20.910156 C 14.6875 20.910156 14.855469 21.660156 14.464844 22.257812 C 14.960938 22.410156 15.066406 21.84375 15.066406 21.84375 C 15.066406 21.84375 15.769531 23.539062 13.90625 24.140625 Z M 13.90625 24.140625 " fill-opacity="1" fill-rule="nonzero"/><path fill="#ffffff" d="M 19.496094 14.445312 C 18.539062 13.542969 18.648438 11.628906 16.472656 11.683594 C 16.917969 11.980469 17.136719 12.585938 17.148438 12.628906 C 17.113281 12.578125 16.410156 11.628906 15.132812 11.539062 L 15.101562 11.5 C 14.742188 11.085938 14.226562 11.101562 13.789062 11.25 C 13.835938 11.113281 13.992188 10.820312 14.554688 10.597656 C 15.320312 10.292969 15.488281 10.105469 15.488281 10.105469 C 15.488281 10.105469 15.621094 10.648438 14.695312 11.078125 C 14.695312 11.078125 15.765625 11.207031 16.382812 10.742188 C 16.160156 11.140625 15.695312 11.382812 15.148438 11.351562 C 15.148438 11.351562 17.699219 12.199219 16.628906 9.765625 C 16.753906 10.394531 15.921875 10.625 15.898438 10.628906 C 15.921875 10.613281 16.523438 10.175781 15.789062 9.078125 C 15.65625 9.816406 13.914062 9.808594 13.464844 11.078125 C 13.410156 10.140625 14.214844 9.300781 14.214844 9.300781 C 14.214844 9.300781 13.25 9.558594 12.980469 10.574219 C 12.980469 10.570312 12.980469 10.570312 12.980469 10.570312 C 12.710938 9.558594 11.746094 9.304688 11.746094 9.304688 C 11.746094 9.304688 12.554688 10.140625 12.496094 11.078125 C 12.046875 9.8125 10.304688 9.820312 10.171875 9.082031 C 9.4375 10.179688 10.039062 10.617188 10.0625 10.632812 C 10.039062 10.625 9.210938 10.398438 9.332031 9.769531 C 8.273438 12.171875 10.75 11.375 10.8125 11.355469 C 10.265625 11.386719 9.796875 11.144531 9.578125 10.746094 C 10.195312 11.210938 11.261719 11.082031 11.261719 11.082031 C 10.339844 10.652344 10.472656 10.109375 10.472656 10.109375 C 10.472656 10.109375 10.640625 10.296875 11.402344 10.601562 C 11.96875 10.824219 12.125 11.117188 12.171875 11.253906 C 11.734375 11.105469 11.21875 11.089844 10.859375 11.503906 L 10.828125 11.542969 C 9.550781 11.632812 8.847656 12.582031 8.8125 12.632812 C 8.824219 12.589844 9.042969 11.984375 9.488281 11.6875 C 7.3125 11.632812 7.421875 13.546875 6.464844 14.449219 C 7.765625 14.089844 8.589844 12.597656 8.644531 12.496094 C 8.617188 12.554688 8.386719 13.128906 8.359375 13.746094 C 8.820312 12.863281 9.515625 12.550781 9.902344 12.445312 C 9.554688 12.742188 9.234375 13.003906 8.984375 13.277344 C 8.898438 13.5 8.8125 14.132812 8.996094 14.34375 C 9.019531 14.367188 9.042969 14.386719 9.074219 14.398438 C 9.351562 14.511719 9.726562 14.363281 9.726562 14.363281 C 9.726562 14.363281 9.664062 13.953125 9.316406 13.875 C 9.515625 13.75 9.902344 13.601562 10.757812 14.113281 C 11.609375 14.628906 12.179688 14.257812 12.347656 14.035156 C 12.515625 13.808594 12.554688 13.441406 12.554688 13.441406 C 12.640625 13.640625 12.683594 13.84375 12.691406 14.054688 C 11.761719 14.675781 11.796875 15.371094 11.796875 15.371094 C 11.796875 15.371094 11.769531 15.1875 11.609375 14.960938 C 11.335938 15.1875 11.34375 15.640625 11.378906 15.894531 L 11.378906 15.910156 C 11.378906 15.902344 11.375 15.894531 11.375 15.890625 C 11.292969 15.632812 11.195312 15.21875 11.3125 14.941406 C 11.320312 14.921875 11.332031 14.902344 11.34375 14.882812 C 11.308594 14.894531 11.265625 14.902344 11.226562 14.910156 C 10.816406 14.988281 10.3125 14.902344 10.3125 14.902344 L 10.40625 15.046875 C 10.082031 14.902344 9.792969 14.546875 9.792969 14.546875 C 9.792969 14.546875 8.59375 15.289062 8.648438 15.828125 C 8.703125 16.371094 9.121094 16.828125 9.121094 16.828125 C 9.121094 16.828125 9.113281 16.726562 9.082031 16.394531 C 9.289062 16.863281 9.453125 17.363281 9.464844 17.394531 C 9.550781 17.148438 9.625 16.894531 9.683594 16.640625 C 9.753906 16.320312 9.621094 15.554688 9.621094 15.554688 C 9.621094 15.554688 9.988281 16.175781 10.601562 16.136719 C 10.199219 16.308594 9.835938 16.921875 9.835938 16.921875 C 9.835938 16.921875 9.855469 16.9375 10.972656 17.273438 L 10.949219 17.269531 C 10.742188 17.25 9.796875 17.089844 9.796875 17.089844 L 9.957031 17.664062 L 11.429688 18.085938 C 10.925781 18.09375 10.007812 18 10.007812 18 L 10.191406 18.3125 L 11.699219 18.609375 C 11.195312 18.660156 10.695312 18.664062 10.191406 18.617188 C 10.421875 18.804688 10.664062 18.96875 10.917969 19.113281 C 10.875 19.398438 10.828125 20.199219 11.542969 20.78125 C 11.539062 20.074219 11.667969 19.558594 11.761719 19.277344 C 12.246094 19.21875 12.878906 19.011719 12.808594 18.464844 C 12.722656 17.800781 12.117188 17.8125 11.507812 17.523438 C 10.898438 17.234375 11.21875 16.523438 11.21875 16.523438 C 11.226562 16.546875 11.371094 16.960938 11.5 16.96875 C 11.628906 16.980469 11.867188 16.882812 12.046875 16.386719 C 12.332031 16.738281 12.976562 16.640625 12.976562 16.640625 C 12.976562 16.640625 13.625 16.738281 13.910156 16.386719 C 14.089844 16.882812 14.324219 16.980469 14.457031 16.96875 C 14.589844 16.960938 14.738281 16.523438 14.738281 16.523438 C 14.738281 16.523438 15.058594 17.230469 14.453125 17.519531 C 13.84375 17.8125 13.234375 17.796875 13.148438 18.460938 C 13.078125 19.007812 13.710938 19.21875 14.199219 19.273438 C 14.292969 19.558594 14.421875 20.070312 14.417969 20.777344 C 15.132812 20.195312 15.085938 19.394531 15.042969 19.109375 C 15.296875 18.964844 15.539062 18.800781 15.769531 18.613281 C 15.265625 18.660156 14.761719 18.65625 14.261719 18.605469 L 15.769531 18.308594 L 15.953125 17.996094 C 15.953125 17.996094 15.035156 18.09375 14.535156 18.082031 L 16.003906 17.660156 L 16.167969 17.085938 C 16.167969 17.085938 15.125 17.261719 14.988281 17.273438 C 16.101562 16.9375 16.125 16.917969 16.125 16.917969 C 16.125 16.917969 15.761719 16.304688 15.359375 16.132812 C 15.972656 16.175781 16.335938 15.550781 16.335938 15.550781 C 16.335938 15.550781 16.207031 16.320312 16.273438 16.640625 C 16.335938 16.894531 16.410156 17.144531 16.496094 17.390625 C 16.496094 17.390625 16.664062 16.875 16.878906 16.390625 C 16.847656 16.722656 16.839844 16.824219 16.839844 16.824219 C 16.839844 16.824219 17.257812 16.367188 17.3125 15.828125 C 17.367188 15.285156 16.167969 14.546875 16.167969 14.546875 C 16.167969 14.546875 15.878906 14.898438 15.550781 15.042969 L 15.648438 14.898438 C 15.648438 14.898438 15.042969 15.003906 14.617188 14.878906 C 14.78125 15.160156 14.667969 15.632812 14.582031 15.90625 C 14.617188 15.65625 14.632812 15.1875 14.351562 14.953125 C 14.191406 15.183594 14.164062 15.363281 14.164062 15.363281 C 14.164062 15.363281 14.199219 14.667969 13.269531 14.050781 C 13.277344 13.835938 13.324219 13.632812 13.40625 13.4375 C 13.40625 13.4375 13.445312 13.800781 13.613281 14.027344 C 13.78125 14.253906 14.351562 14.621094 15.207031 14.109375 C 16.058594 13.59375 16.445312 13.742188 16.644531 13.867188 C 16.296875 13.945312 16.234375 14.355469 16.234375 14.355469 C 16.234375 14.355469 16.609375 14.503906 16.886719 14.390625 C 17.167969 14.277344 17.074219 13.519531 16.976562 13.269531 C 16.726562 12.996094 16.40625 12.734375 16.058594 12.4375 C 16.445312 12.542969 17.140625 12.851562 17.601562 13.738281 C 17.574219 13.121094 17.34375 12.546875 17.316406 12.488281 C 17.371094 12.59375 18.195312 14.085938 19.496094 14.445312 Z M 12.980469 13.304688 C 12.980469 13.304688 12.539062 12.777344 12.449219 12.398438 C 12.609375 12.644531 12.980469 12.792969 12.980469 12.792969 C 12.980469 12.792969 13.351562 12.644531 13.507812 12.398438 C 13.417969 12.777344 12.980469 13.304688 12.980469 13.304688 Z M 12.980469 13.304688 " fill-opacity="1" fill-rule="nonzero"/><path fill="#ffffff" d="M 19.585938 12.75 C 18.703125 12.351562 18.359375 11.53125 18.359375 11.53125 C 18.359375 11.53125 18.539062 12.570312 19.605469 13.273438 C 20.667969 13.976562 20.613281 14.949219 20.613281 14.949219 C 20.613281 14.949219 20.957031 13.695312 19.964844 12.695312 C 20.550781 13.128906 21.300781 13.390625 21.300781 13.390625 C 21.300781 13.390625 20.089844 12.507812 19.550781 11.414062 C 19.550781 11.410156 19.429688 12.125 19.585938 12.75 Z M 19.585938 12.75 " fill-opacity="1" fill-rule="nonzero"/><path fill="#ffffff" d="M 19.753906 14.878906 C 19.753906 14.878906 20.476562 15.882812 20.320312 16.875 C 19.511719 14.859375 17.8125 14.648438 17.8125 14.648438 C 18.710938 15.277344 19.042969 16.015625 19.042969 16.015625 C 19.042969 16.015625 18.652344 15.457031 17.757812 15.046875 C 18.917969 15.949219 18.898438 17.21875 18.898438 17.21875 C 18.898438 17.21875 18.453125 16.523438 17.785156 16.003906 C 18.824219 17.253906 18.667969 18.703125 18.667969 18.703125 C 18.667969 18.703125 18.367188 17.519531 17.777344 16.796875 C 18.414062 18.339844 17.875 19.960938 17.875 19.960938 C 17.875 19.960938 17.847656 18.421875 17.3125 17.671875 C 17.671875 19.652344 16.835938 21.066406 16.835938 21.066406 C 16.835938 21.066406 16.835938 19.917969 17.128906 19.003906 C 15.625 20.761719 15.820312 23.320312 15.820312 23.320312 C 15.820312 23.320312 15.703125 22.898438 15.515625 22.585938 C 15.972656 25.195312 15.148438 26.035156 15.148438 26.035156 C 15.148438 26.035156 16.078125 25.742188 16.054688 23.683594 C 16.03125 21.625 16.617188 20.96875 16.617188 20.96875 C 16.019531 23.402344 17.097656 25.71875 17.097656 25.71875 C 17.097656 25.71875 16.757812 23.367188 17.648438 21.746094 C 17.398438 22.90625 17.960938 23.636719 17.742188 25.054688 C 18.429688 24.035156 17.996094 21.636719 18.453125 20.558594 C 18.324219 22.023438 18.839844 23.53125 18.839844 23.53125 C 18.839844 23.53125 18.839844 21.308594 19.414062 19.910156 C 19.800781 21.253906 19.273438 22.609375 19.273438 22.609375 C 19.273438 22.609375 20.125 21.707031 19.972656 20.3125 C 19.824219 18.921875 20.042969 17.972656 20.042969 17.972656 C 20.042969 17.972656 20.082031 18.710938 20.710938 19.519531 C 20.253906 17.625 20.699219 16.875 20.699219 16.875 C 21.074219 17.753906 21.179688 18.308594 21.179688 18.308594 C 21.300781 14.871094 19.753906 14.878906 19.753906 14.878906 Z M 19.753906 14.878906 " fill-opacity="1" fill-rule="nonzero"/><path fill="#ffffff" d="M 18.710938 10.730469 C 18.351562 10.820312 18.253906 10.890625 18.253906 10.890625 C 18.253906 10.890625 19.007812 10.871094 19.105469 11.875 C 19.535156 10.847656 19.296875 10.5 19.296875 10.5 L 19.933594 10.691406 C 19.933594 10.691406 19.050781 9.523438 17.785156 9.886719 C 17.785156 9.886719 18.171875 9.128906 18.949219 8.949219 C 17.65625 8.703125 16.480469 9.230469 17.167969 10.789062 C 17.167969 10.789062 17.933594 10.570312 18.710938 10.730469 Z M 18.710938 10.730469 " fill-opacity="1" fill-rule="nonzero"/><path fill="#ffffff" d="M 13.765625 21.480469 C 13.289062 21.410156 12.976562 21.449219 12.976562 21.449219 C 12.976562 21.449219 12.667969 21.410156 12.191406 21.480469 C 12.027344 21.246094 12.046875 21.058594 12.046875 21.058594 L 12.261719 21.222656 C 12.464844 21.203125 12.976562 21.199219 12.976562 21.199219 C 12.976562 21.199219 13.492188 21.203125 13.695312 21.222656 L 13.910156 21.058594 C 13.910156 21.058594 13.929688 21.246094 13.765625 21.480469 Z M 13.765625 21.480469 " fill-opacity="1" fill-rule="nonzero"/><path fill="#ffffff" d="M 15.097656 14.390625 L 14.503906 14.574219 C 14.503906 14.574219 14.957031 14.839844 15.363281 14.742188 C 15.769531 14.644531 16.023438 14.101562 16.023438 14.101562 L 15.304688 14.324219 L 15.304688 14.578125 Z M 15.097656 14.390625 " fill-opacity="1" fill-rule="nonzero"/><path fill="#ffffff" d="M 14.753906 25.125 C 14.753906 25.125 14.789062 24.546875 14.671875 24.15625 C 14.546875 24.695312 13.976562 25.5625 13.976562 25.5625 C 14.066406 25.214844 13.972656 24.730469 13.972656 24.730469 C 13.894531 25.324219 13.71875 25.890625 13.445312 26.429688 C 14.414062 25.761719 14.585938 24.808594 14.585938 24.808594 C 14.585938 24.808594 14.648438 25.585938 14.210938 26.242188 C 15.195312 25.605469 15.003906 24.054688 15.003906 24.054688 C 14.929688 24.8125 14.753906 25.125 14.753906 25.125 Z M 14.753906 25.125 " fill-opacity="1" fill-rule="nonzero"/><path fill="#ffffff" d="M 14.503906 8.457031 C 14.039062 8.699219 13.863281 9.078125 13.863281 9.078125 C 13.863281 9.078125 14.398438 8.792969 15.265625 8.601562 C 14.722656 9.144531 14.464844 9.519531 14.464844 9.519531 C 14.464844 9.519531 15.230469 8.992188 16.070312 8.78125 C 16.914062 8.570312 16.933594 7.964844 16.933594 7.964844 C 16.933594 7.964844 16.511719 8.308594 15.589844 8.261719 L 16 8.015625 C 16 8.015625 14.640625 7.847656 13.832031 8.238281 C 14.210938 7.859375 14.300781 7.707031 14.300781 7.707031 C 14.300781 7.707031 13.003906 8.074219 12.980469 9.402344 C 12.980469 9.40625 13.601562 8.472656 14.503906 8.457031 Z M 14.503906 8.457031 " fill-opacity="1" fill-rule="nonzero"/><path fill="#ffffff" d="M 18.703125 3.570312 L 16.125 4.640625 L 16.675781 5.855469 L 15.234375 6.519531 L 13.515625 5.613281 L 14.621094 4.542969 L 12.980469 2.175781 L 11.34375 4.542969 L 12.445312 5.613281 L 10.726562 6.519531 L 9.28125 5.855469 L 9.832031 4.640625 L 7.253906 3.570312 L 7.699219 4.578125 L 8.695312 5.070312 L 8.230469 5.78125 L 9.023438 7.574219 L 9.070312 7.574219 C 10.070312 7.054688 11.453125 6.730469 12.980469 6.730469 C 14.507812 6.730469 15.886719 7.054688 16.890625 7.574219 L 16.9375 7.574219 L 17.730469 5.78125 L 17.265625 5.070312 L 18.257812 4.578125 Z M 12.398438 4.265625 L 12.980469 3.460938 L 13.5625 4.265625 L 12.980469 4.742188 Z M 12.398438 4.265625 " fill-opacity="1" fill-rule="nonzero"/><path fill="#a6a6a6" d="M 8.863281 25.71875 C 8.871094 25.65625 9.191406 23.347656 8.3125 21.746094 C 8.558594 22.90625 7.996094 23.636719 8.21875 25.054688 C 7.527344 24.035156 7.960938 21.636719 7.503906 20.558594 C 7.632812 22.023438 7.121094 23.53125 7.121094 23.53125 C 7.121094 23.53125 7.121094 21.308594 6.546875 19.910156 C 6.164062 21.234375 6.671875 22.570312 6.6875 22.605469 C 6.664062 22.582031 5.835938 21.6875 5.984375 20.3125 C 6.136719 18.921875 5.914062 17.972656 5.914062 17.972656 C 5.914062 17.972656 5.878906 18.710938 5.25 19.519531 C 5.703125 17.625 5.261719 16.875 5.261719 16.875 C 4.886719 17.753906 4.78125 18.308594 4.78125 18.308594 C 4.660156 14.871094 6.207031 14.878906 6.207031 14.878906 C 6.207031 14.878906 5.316406 15.121094 5.070312 16.75 C 5.183594 16.597656 5.273438 16.429688 5.339844 16.25 C 5.339844 16.25 5.796875 17.65625 5.566406 18.625 C 5.734375 18.207031 5.847656 17.777344 5.910156 17.332031 C 5.910156 17.332031 6.542969 18.347656 6.292969 19.722656 C 6.429688 19.472656 6.519531 19.203125 6.558594 18.921875 C 6.558594 18.921875 7.398438 20.464844 7.214844 22.101562 C 7.453125 21.15625 7.328125 19.910156 7.328125 19.910156 C 7.328125 19.910156 8.023438 20.519531 7.957031 22.3125 C 8.109375 21.839844 8.179688 21.351562 8.160156 20.855469 C 8.160156 20.855469 9.316406 22.363281 9.15625 24.007812 C 9.464844 23.464844 9.476562 21.792969 9.34375 20.96875 C 9.929688 23.371094 8.890625 25.65625 8.863281 25.71875 Z M 8.863281 25.71875 " fill-opacity="1" fill-rule="nonzero"/><path fill="#a6a6a6" d="M 7.0625 17.21875 C 7.019531 17.050781 7.050781 16.574219 7.195312 15.984375 C 6.78125 16.304688 6.460938 16.796875 6.460938 16.796875 C 6.71875 15.15625 8.101562 14.664062 8.148438 14.648438 C 7.273438 15.257812 6.933594 15.96875 6.914062 16.011719 C 6.941406 15.976562 7.339844 15.445312 8.199219 15.050781 C 7.042969 15.949219 7.0625 17.21875 7.0625 17.21875 Z M 7.0625 17.21875 " fill-opacity="1" fill-rule="nonzero"/><path fill="#737373" d="M 8.082031 19.960938 C 8.082031 19.960938 8.085938 19.726562 8.121094 19.394531 C 8.097656 19.730469 8.082031 19.960938 8.082031 19.960938 Z M 8.082031 19.960938 " fill-opacity="1" fill-rule="nonzero"/><path fill="#a6a6a6" d="M 8.082031 19.960938 C 8.070312 19.941406 7.652344 19.34375 7.636719 18.347656 C 7.414062 18.835938 7.226562 19.625 7.226562 19.625 C 6.671875 17.402344 8.09375 16.074219 8.167969 16.007812 L 8.171875 16.003906 C 7.132812 17.253906 7.289062 18.703125 7.289062 18.703125 C 7.289062 18.703125 7.589844 17.519531 8.183594 16.796875 C 7.550781 18.324219 8.070312 19.929688 8.082031 19.960938 Z M 8.082031 19.960938 " fill-opacity="1" fill-rule="nonzero"/><path fill="#a6a6a6" d="M 13.90625 24.140625 C 14.195312 23.695312 14.089844 23.078125 14.089844 23.078125 C 14.089844 23.078125 14 24.390625 12.980469 24.390625 C 11.964844 24.390625 11.875 23.078125 11.875 23.078125 C 11.875 23.078125 11.769531 23.695312 12.058594 24.140625 C 10.191406 23.539062 10.898438 21.84375 10.898438 21.84375 C 10.898438 21.84375 10.855469 23.097656 11.652344 23.710938 C 11.609375 22.738281 11.804688 22.257812 11.804688 22.257812 C 11.804688 22.257812 11.78125 23.300781 12.980469 23.300781 C 14.183594 23.300781 14.160156 22.257812 14.160156 22.257812 C 14.160156 22.257812 14.351562 22.738281 14.3125 23.710938 C 15.105469 23.097656 15.066406 21.84375 15.066406 21.84375 C 15.066406 21.84375 15.769531 23.539062 13.90625 24.140625 Z M 13.90625 24.140625 " fill-opacity="1" fill-rule="nonzero"/><g mask="url(#2c3309341a)"><g transform="matrix(1, 0, 0, 1, 12, 20)"><g clip-path="url(#c2c739af97)"><g clip-path="url(#da2da5c190)"><path fill="#172029" d="M 0.980469 1.324219 L 0.980469 1.449219 C 0.980469 1.449219 0.667969 1.410156 0.195312 1.480469 C 0.0273438 1.246094 0.0507812 1.058594 0.0507812 1.058594 C 0.0507812 1.058594 0.132812 1.277344 0.253906 1.367188 C 0.34375 1.316406 0.980469 1.324219 0.980469 1.324219 Z M 0.980469 1.324219 " fill-opacity="1" fill-rule="nonzero"/></g></g></g></g><g mask="url(#f957e16a45)"><g transform="matrix(1, 0, 0, 1, 11, 19)"><g clip-path="url(#8b88473291)"><g clip-path="url(#20973879dd)"><path fill="#172029" d="M 1.980469 0.472656 L 1.980469 0.570312 C 1.980469 0.570312 1.421875 0.609375 1.125 0.554688 C 1.089844 0.789062 1.121094 0.902344 1.125 0.910156 C 1.117188 0.90625 0.980469 0.773438 1.027344 0.464844 C 1.027344 0.464844 1.246094 0.546875 1.980469 0.472656 Z M 1.980469 0.472656 " fill-opacity="1" fill-rule="nonzero"/></g></g></g></g><g mask="url(#ff3f81d06a)"><g transform="matrix(1, 0, 0, 1, 9, 16)"><g clip-path="url(#14a87c37fc)"><g clip-path="url(#7a4e617ee0)"><path fill="#172029" d="M 2.539062 4.777344 C 1.824219 4.195312 1.871094 3.398438 1.914062 3.109375 C 1.660156 2.964844 1.417969 2.800781 1.1875 2.617188 C 1.691406 2.660156 2.191406 2.65625 2.695312 2.605469 L 1.1875 2.308594 L 1.003906 1.996094 C 1.003906 1.996094 1.921875 2.09375 2.425781 2.082031 L 0.953125 1.660156 L 0.792969 1.085938 C 0.792969 1.085938 1.738281 1.246094 1.945312 1.269531 L 1 1.308594 L 1.417969 1.578125 L 3.042969 2.136719 L 1.757812 2.238281 L 3.199219 2.566406 C 3.199219 2.566406 3.007812 2.683594 2.191406 2.964844 C 1.828125 4 2.507812 4.742188 2.539062 4.777344 Z M 2.539062 4.777344 " fill-opacity="1" fill-rule="nonzero"/></g></g></g></g><g mask="url(#dec116734f)"><g transform="matrix(1, 0, 0, 1, 8, 14)"><g clip-path="url(#b22944de19)"><g clip-path="url(#ccc5bc62e1)"><path fill="#172029" d="M 3.117188 1.234375 C 3.035156 1.210938 2.519531 1.039062 2.519531 1.039062 C 2.519531 1.039062 2.535156 1.105469 2.644531 1.347656 C 2.339844 1.164062 2.054688 0.949219 1.792969 0.707031 C 1.792969 0.707031 1.265625 1.046875 1.046875 1.394531 C 0.828125 1.746094 1.011719 2.164062 1.011719 2.164062 L 1.078125 1.839844 C 1.34375 2.433594 1.457031 3.351562 1.460938 3.390625 C 1.453125 3.359375 1.289062 2.859375 1.078125 2.390625 C 1.109375 2.726562 1.117188 2.824219 1.117188 2.824219 C 1.117188 2.824219 0.699219 2.371094 0.644531 1.828125 C 0.589844 1.285156 1.792969 0.546875 1.792969 0.546875 C 1.792969 0.546875 2.078125 0.898438 2.40625 1.042969 L 2.308594 0.898438 C 2.308594 0.898438 2.914062 1.003906 3.339844 0.878906 C 3.179688 1.15625 3.28125 1.609375 3.371094 1.886719 C 3.347656 1.859375 3.21875 1.707031 3.117188 1.234375 Z M 3.117188 1.234375 " fill-opacity="1" fill-rule="nonzero"/></g></g></g></g><g mask="url(#3a63ee47e2)"><g transform="matrix(1, 0, 0, 1, 11, 15)"><g clip-path="url(#b829d91b4a)"><g clip-path="url(#b9f3aa8a95)"><path fill="#172029" d="M 1.980469 1.402344 L 1.980469 1.644531 C 1.980469 1.644531 1.332031 1.738281 1.046875 1.386719 C 0.867188 1.886719 0.636719 1.980469 0.5 1.972656 C 0.367188 1.960938 0.230469 1.546875 0.222656 1.523438 C 0.230469 1.539062 0.378906 1.796875 0.625 1.726562 C 0.882812 1.660156 1.015625 0.804688 1.015625 0.804688 C 1.015625 0.804688 1.195312 1.351562 1.980469 1.402344 Z M 1.980469 1.402344 " fill-opacity="1" fill-rule="nonzero"/></g></g></g></g><path fill="#a6a6a6" d="M 9.933594 14.101562 L 10.652344 14.324219 L 10.652344 14.546875 C 10.378906 14.410156 9.949219 14.113281 9.933594 14.101562 Z M 9.933594 14.101562 " fill-opacity="1" fill-rule="nonzero"/><path fill="#a6a6a6" d="M 11.457031 14.574219 C 11.433594 14.578125 11.023438 14.664062 10.8125 14.613281 C 10.765625 14.601562 10.71875 14.582031 10.675781 14.558594 L 10.859375 14.386719 Z M 11.457031 14.574219 " fill-opacity="1" fill-rule="nonzero"/><path fill="#a6a6a6" d="M 11.226562 14.90625 C 11.265625 14.898438 11.304688 14.890625 11.339844 14.878906 C 11.328125 14.898438 11.320312 14.917969 11.3125 14.9375 Z M 11.226562 14.90625 " fill-opacity="1" fill-rule="nonzero"/><g mask="url(#8a0e6cdc5e)"><g transform="matrix(1, 0, 0, 1, 8, 12)"><g clip-path="url(#d56c09ce8f)"><g clip-path="url(#406120b16b)"><path fill="#172029" d="M 4.554688 1.4375 C 4.554688 1.4375 4.511719 1.800781 4.347656 2.027344 C 4.179688 2.253906 3.605469 2.625 2.753906 2.109375 C 1.902344 1.59375 1.511719 1.742188 1.3125 1.871094 C 1.660156 1.945312 1.726562 2.359375 1.726562 2.359375 C 1.726562 2.359375 1.351562 2.507812 1.070312 2.394531 C 1.039062 2.382812 1.015625 2.363281 0.996094 2.339844 L 0.992188 2.335938 C 0.992188 2.335938 0.972656 1.691406 1.253906 1.304688 C 1.535156 0.921875 2.597656 0.476562 2.597656 0.476562 C 2.609375 1.035156 2.851562 1.460938 3.324219 1.757812 C 2.984375 1.6875 2.667969 1.5625 2.375 1.375 C 2.9375 2.125 4.042969 2.554688 4.554688 1.4375 Z M 4.554688 1.4375 " fill-opacity="1" fill-rule="nonzero"/></g></g></g></g><g mask="url(#abebc5c205)"><g transform="matrix(1, 0, 0, 1, 6, 11)"><g clip-path="url(#5d5d910c9b)"><g clip-path="url(#d1efb9d30a)"><path fill="#172029" d="M 4.828125 0.535156 C 4.265625 0.664062 3.367188 1.085938 2.605469 1.980469 C 2.601562 1.628906 2.820312 1.023438 2.828125 1.003906 C 2.8125 1.011719 2.378906 1.257812 1.792969 2.179688 C 1.207031 3.101562 0.484375 3.433594 0.464844 3.445312 C 1.417969 2.542969 1.3125 0.628906 3.484375 0.683594 C 3.042969 0.980469 2.824219 1.585938 2.808594 1.628906 C 2.847656 1.578125 3.546875 0.625 4.828125 0.535156 Z M 4.828125 0.535156 " fill-opacity="1" fill-rule="nonzero"/></g></g></g></g><g mask="url(#5dd6a3d6e1)"><g transform="matrix(1, 0, 0, 1, 8, 9)"><g clip-path="url(#f6e460212a)"><g clip-path="url(#05f7080037)"><path fill="#172029" d="M 2.058594 1.628906 C 2.058594 1.628906 1.757812 1.648438 1.3125 1.445312 C 1.253906 1.882812 1.476562 2.109375 1.476562 2.109375 C 1.761719 2.542969 2.769531 2.359375 2.8125 2.351562 C 2.746094 2.371094 0.273438 3.167969 1.332031 0.765625 C 1.207031 1.394531 2.035156 1.621094 2.058594 1.628906 Z M 2.058594 1.628906 " fill-opacity="1" fill-rule="nonzero"/></g></g></g></g><g mask="url(#5058449620)"><g transform="matrix(1, 0, 0, 1, 9, 9)"><g clip-path="url(#801989c0aa)"><g clip-path="url(#740b1ee38c)"><path fill="#172029" d="M 3.492188 2.074219 C 3.472656 2.046875 3.175781 1.558594 2.28125 1.160156 C 1.359375 0.753906 1.226562 0.507812 1.226562 0.507812 C 0.917969 0.957031 1.058594 1.628906 1.058594 1.628906 C 1.035156 1.613281 0.4375 1.175781 1.167969 0.078125 C 1.300781 0.816406 3.042969 0.808594 3.492188 2.074219 Z M 3.492188 2.074219 " fill-opacity="1" fill-rule="nonzero"/></g></g></g></g><g mask="url(#785fc23d07)"><g transform="matrix(1, 0, 0, 1, 11, 9)"><g clip-path="url(#68d69370c7)"><g clip-path="url(#cc1d824acc)"><path fill="#172029" d="M 1.234375 0.714844 C 1.632812 1.378906 1.492188 2.078125 1.492188 2.078125 C 1.550781 1.140625 0.746094 0.300781 0.746094 0.300781 C 0.746094 0.300781 1.707031 0.558594 1.980469 1.566406 C 1.980469 1.570312 1.980469 1.570312 1.980469 1.570312 C 1.964844 1.546875 1.628906 0.941406 1.234375 0.714844 Z M 1.234375 0.714844 " fill-opacity="1" fill-rule="nonzero"/></g></g></g></g><path fill="#a6a6a6" d="M 11.539062 25.832031 C 11.59375 25.976562 11.664062 26.113281 11.75 26.238281 C 11.351562 25.984375 11.148438 25.578125 11.042969 25.1875 C 11.167969 25.355469 11.382812 25.640625 11.539062 25.832031 Z M 11.539062 25.832031 " fill-opacity="1" fill-rule="nonzero"/><path fill="#a6a6a6" d="M 12.515625 26.429688 C 11.578125 25.785156 11.386719 24.867188 11.375 24.808594 C 11.375 24.808594 11.675781 25.507812 12.199219 25.976562 C 12.113281 25.601562 12.046875 25.226562 12.003906 24.84375 C 12.089844 25.398438 12.261719 25.925781 12.515625 26.429688 Z M 12.515625 26.429688 " fill-opacity="1" fill-rule="nonzero"/><path fill="#a6a6a6" d="M 5.34375 14.949219 C 5.34375 14.949219 5 13.695312 5.992188 12.691406 C 5.417969 13.121094 4.679688 13.378906 4.660156 13.386719 C 4.695312 13.359375 5.875 12.484375 6.410156 11.410156 C 6.25 12.710938 6.082031 13.03125 6.082031 13.03125 L 6.460938 12.953125 C 5.164062 13.542969 5.34375 14.949219 5.34375 14.949219 Z M 5.34375 14.949219 " fill-opacity="1" fill-rule="nonzero"/><path fill="#a6a6a6" d="M 8.4375 10.441406 C 7.277344 10.21875 6.75 10.832031 6.75 10.832031 C 6.894531 10.828125 7.035156 10.84375 7.175781 10.875 C 6.722656 11.097656 6.847656 11.839844 6.851562 11.871094 C 6.425781 10.847656 6.664062 10.5 6.664062 10.5 L 6.027344 10.691406 C 6.027344 10.691406 6.90625 9.523438 8.175781 9.886719 C 8.175781 9.886719 7.785156 9.128906 7.011719 8.949219 C 8.195312 8.800781 8.648438 9.648438 8.4375 10.441406 Z M 8.4375 10.441406 " fill-opacity="1" fill-rule="nonzero"/><path fill="#a6a6a6" d="M 10.003906 8.386719 L 10.664062 8.804688 L 9.988281 8.589844 C 9.3125 8.375 9.023438 7.964844 9.023438 7.964844 C 9.023438 7.964844 9.449219 8.308594 10.367188 8.261719 L 9.960938 8.019531 C 9.960938 8.019531 10.777344 8.109375 11.378906 8.613281 C 10.855469 8.355469 10.003906 8.386719 10.003906 8.386719 Z M 10.003906 8.386719 " fill-opacity="1" fill-rule="nonzero"/><path fill="#a6a6a6" d="M 17.09375 25.71875 C 17.085938 25.65625 16.765625 23.347656 17.644531 21.746094 C 17.398438 22.90625 17.960938 23.636719 17.738281 25.054688 C 18.425781 24.035156 17.996094 21.636719 18.449219 20.558594 C 18.320312 22.023438 18.835938 23.53125 18.835938 23.53125 C 18.835938 23.53125 18.835938 21.308594 19.410156 19.910156 C 19.789062 21.234375 19.285156 22.570312 19.269531 22.605469 C 19.292969 22.582031 20.121094 21.6875 19.96875 20.3125 C 19.816406 18.921875 20.039062 17.972656 20.039062 17.972656 C 20.039062 17.972656 20.078125 18.710938 20.707031 19.519531 C 20.25 17.625 20.695312 16.875 20.695312 16.875 C 21.070312 17.753906 21.175781 18.308594 21.175781 18.308594 C 21.296875 14.871094 19.75 14.878906 19.75 14.878906 C 19.75 14.878906 20.640625 15.121094 20.886719 16.75 C 20.773438 16.597656 20.683594 16.429688 20.617188 16.25 C 20.617188 16.25 20.160156 17.65625 20.390625 18.625 C 20.222656 18.207031 20.109375 17.777344 20.046875 17.332031 C 20.046875 17.332031 19.417969 18.347656 19.664062 19.722656 C 19.527344 19.472656 19.4375 19.203125 19.398438 18.921875 C 19.398438 18.921875 18.558594 20.464844 18.746094 22.101562 C 18.507812 21.15625 18.628906 19.910156 18.628906 19.910156 C 18.628906 19.910156 17.933594 20.519531 18.003906 22.3125 C 17.847656 21.839844 17.78125 21.351562 17.800781 20.855469 C 17.800781 20.855469 16.640625 22.363281 16.800781 24.007812 C 16.492188 23.464844 16.480469 21.792969 16.613281 20.96875 C 16.023438 23.371094 17.0625 25.65625 17.09375 25.71875 Z M 17.09375 25.71875 " fill-opacity="1" fill-rule="nonzero"/><path fill="#a6a6a6" d="M 18.894531 17.21875 C 18.9375 17.050781 18.90625 16.574219 18.761719 15.984375 C 19.175781 16.304688 19.492188 16.796875 19.492188 16.796875 C 19.238281 15.15625 17.851562 14.664062 17.808594 14.648438 C 18.679688 15.257812 19.019531 15.96875 19.042969 16.011719 C 19.011719 15.976562 18.617188 15.445312 17.757812 15.050781 C 18.914062 15.949219 18.894531 17.21875 18.894531 17.21875 Z M 18.894531 17.21875 " fill-opacity="1" fill-rule="nonzero"/><path fill="#737373" d="M 17.875 19.960938 C 17.875 19.960938 17.871094 19.726562 17.832031 19.394531 C 17.859375 19.730469 17.875 19.960938 17.875 19.960938 Z M 17.875 19.960938 " fill-opacity="1" fill-rule="nonzero"/><path fill="#a6a6a6" d="M 17.875 19.960938 C 17.886719 19.941406 18.300781 19.34375 18.320312 18.347656 C 18.542969 18.835938 18.726562 19.625 18.726562 19.625 C 19.285156 17.402344 17.863281 16.074219 17.785156 16.007812 L 17.785156 16.003906 C 18.824219 17.253906 18.667969 18.703125 18.667969 18.703125 C 18.667969 18.703125 18.367188 17.519531 17.773438 16.796875 C 18.40625 18.324219 17.886719 19.929688 17.875 19.960938 Z M 17.875 19.960938 " fill-opacity="1" fill-rule="nonzero"/><path fill="#a6a6a6" d="M 12.054688 24.140625 C 11.765625 23.695312 11.867188 23.078125 11.867188 23.078125 C 11.867188 23.078125 11.957031 24.390625 12.976562 24.390625 C 13.996094 24.390625 14.085938 23.078125 14.085938 23.078125 C 14.085938 23.078125 14.1875 23.695312 13.902344 24.140625 C 15.765625 23.539062 15.0625 21.84375 15.0625 21.84375 C 15.0625 21.84375 15.101562 23.097656 14.308594 23.710938 C 14.347656 22.738281 14.152344 22.257812 14.152344 22.257812 C 14.152344 22.257812 14.179688 23.300781 12.976562 23.300781 C 11.777344 23.300781 11.800781 22.257812 11.800781 22.257812 C 11.800781 22.257812 11.605469 22.738281 11.644531 23.710938 C 10.851562 23.097656 10.890625 21.84375 10.890625 21.84375 C 10.890625 21.84375 10.1875 23.539062 12.054688 24.140625 Z M 12.054688 24.140625 " fill-opacity="1" fill-rule="nonzero"/><g mask="url(#20afe42ee4)"><g transform="matrix(1, 0, 0, 1, 12, 20)"><g clip-path="url(#43f48cba80)"><g clip-path="url(#8e1b82e5ef)"><path fill="#172029" d="M 0.976562 1.324219 L 0.976562 1.449219 C 0.976562 1.449219 1.289062 1.410156 1.761719 1.480469 C 1.925781 1.246094 1.90625 1.058594 1.90625 1.058594 C 1.90625 1.058594 1.820312 1.277344 1.703125 1.367188 C 1.613281 1.316406 0.976562 1.324219 0.976562 1.324219 Z M 0.976562 1.324219 " fill-opacity="1" fill-rule="nonzero"/></g></g></g></g><g mask="url(#e0bc70123a)"><g transform="matrix(1, 0, 0, 1, 12, 19)"><g clip-path="url(#cda24c5970)"><g clip-path="url(#74fff67ab4)"><path fill="#172029" d="M 0.976562 0.472656 L 0.976562 0.570312 C 0.976562 0.570312 1.535156 0.609375 1.832031 0.554688 C 1.867188 0.789062 1.835938 0.902344 1.832031 0.910156 C 1.839844 0.90625 1.976562 0.773438 1.929688 0.464844 C 1.929688 0.464844 1.707031 0.546875 0.976562 0.472656 Z M 0.976562 0.472656 " fill-opacity="1" fill-rule="nonzero"/></g></g></g></g><path fill="#a6a6a6" d="M 14.417969 20.777344 C 15.128906 20.195312 15.085938 19.398438 15.039062 19.109375 C 15.296875 18.964844 15.539062 18.800781 15.765625 18.617188 C 15.265625 18.660156 14.761719 18.65625 14.261719 18.605469 L 15.765625 18.308594 L 15.953125 17.996094 C 15.953125 17.996094 15.03125 18.09375 14.53125 18.082031 L 16 17.660156 L 16.164062 17.085938 C 16.164062 17.085938 15.21875 17.246094 15.011719 17.269531 L 15.007812 17.269531 L 15.953125 17.308594 L 15.535156 17.578125 L 13.910156 18.136719 L 15.195312 18.238281 L 13.753906 18.566406 C 13.753906 18.566406 13.945312 18.683594 14.761719 18.964844 C 15.128906 20 14.449219 20.742188 14.417969 20.777344 Z M 14.417969 20.777344 " fill-opacity="1" fill-rule="nonzero"/><path fill="#a6a6a6" d="M 14.835938 15.234375 C 14.921875 15.210938 15.4375 15.039062 15.4375 15.039062 C 15.4375 15.039062 15.421875 15.105469 15.3125 15.347656 C 15.617188 15.164062 15.902344 14.949219 16.164062 14.707031 C 16.164062 14.707031 16.691406 15.046875 16.910156 15.394531 C 17.125 15.746094 16.945312 16.164062 16.945312 16.164062 L 16.875 15.839844 C 16.609375 16.433594 16.5 17.351562 16.496094 17.390625 C 16.503906 17.359375 16.667969 16.859375 16.878906 16.390625 C 16.847656 16.726562 16.835938 16.824219 16.835938 16.824219 C 16.835938 16.824219 17.257812 16.371094 17.3125 15.828125 C 17.363281 15.285156 16.164062 14.546875 16.164062 14.546875 C 16.164062 14.546875 15.875 14.898438 15.550781 15.042969 L 15.644531 14.898438 C 15.644531 14.898438 15.042969 15.003906 14.617188 14.878906 C 14.777344 15.15625 14.671875 15.609375 14.585938 15.886719 C 14.613281 15.859375 14.738281 15.707031 14.835938 15.234375 Z M 14.835938 15.234375 " fill-opacity="1" fill-rule="nonzero"/><g mask="url(#2fc7398044)"><g transform="matrix(1, 0, 0, 1, 12, 15)"><g clip-path="url(#ceccf7aa06)"><g clip-path="url(#fd71c18bcb)"><path fill="#172029" d="M 0.976562 1.402344 L 0.976562 1.644531 C 0.976562 1.644531 1.621094 1.738281 1.90625 1.386719 C 2.089844 1.886719 2.320312 1.980469 2.453125 1.972656 C 2.585938 1.960938 2.726562 1.546875 2.734375 1.527344 C 2.726562 1.539062 2.578125 1.796875 2.328125 1.730469 C 2.074219 1.660156 1.941406 0.808594 1.941406 0.808594 C 1.941406 0.808594 1.761719 1.351562 0.976562 1.402344 Z M 0.976562 1.402344 " fill-opacity="1" fill-rule="nonzero"/></g></g></g></g><path fill="#a6a6a6" d="M 16.023438 14.101562 L 15.304688 14.324219 L 15.304688 14.546875 C 15.578125 14.410156 16.007812 14.113281 16.023438 14.101562 Z M 16.023438 14.101562 " fill-opacity="1" fill-rule="nonzero"/><path fill="#a6a6a6" d="M 14.5 14.574219 C 14.519531 14.578125 14.933594 14.664062 15.144531 14.613281 C 15.191406 14.601562 15.238281 14.582031 15.28125 14.558594 L 15.09375 14.386719 Z M 14.5 14.574219 " fill-opacity="1" fill-rule="nonzero"/><path fill="#a6a6a6" d="M 14.730469 14.90625 C 14.691406 14.898438 14.652344 14.890625 14.617188 14.878906 C 14.625 14.898438 14.636719 14.917969 14.644531 14.9375 Z M 14.730469 14.90625 " fill-opacity="1" fill-rule="nonzero"/><path fill="#a6a6a6" d="M 13.402344 13.4375 C 13.402344 13.4375 13.445312 13.800781 13.609375 14.027344 C 13.777344 14.253906 14.351562 14.625 15.203125 14.109375 C 16.054688 13.59375 16.445312 13.742188 16.640625 13.871094 C 16.292969 13.945312 16.230469 14.359375 16.230469 14.359375 C 16.230469 14.359375 16.605469 14.507812 16.886719 14.394531 C 16.914062 14.378906 16.941406 14.363281 16.960938 14.339844 L 16.960938 14.335938 C 16.960938 14.335938 16.984375 13.691406 16.703125 13.304688 C 16.417969 12.921875 15.355469 12.476562 15.355469 12.476562 C 15.34375 13.035156 15.101562 13.460938 14.628906 13.757812 C 14.96875 13.6875 15.285156 13.558594 15.582031 13.375 C 15.019531 14.125 13.914062 14.554688 13.402344 13.4375 Z M 13.402344 13.4375 " fill-opacity="1" fill-rule="nonzero"/><path fill="#a6a6a6" d="M 15.128906 11.535156 C 15.6875 11.664062 16.589844 12.085938 17.347656 12.980469 C 17.355469 12.628906 17.136719 12.023438 17.128906 12.003906 C 17.144531 12.011719 17.578125 12.257812 18.164062 13.179688 C 18.75 14.101562 19.472656 14.433594 19.492188 14.441406 C 18.535156 13.539062 18.644531 11.628906 16.46875 11.683594 C 16.914062 11.976562 17.132812 12.585938 17.144531 12.628906 C 17.109375 12.578125 16.410156 11.625 15.128906 11.535156 Z M 15.128906 11.535156 " fill-opacity="1" fill-rule="nonzero"/><path fill="#a6a6a6" d="M 15.894531 10.628906 C 15.894531 10.628906 16.199219 10.648438 16.644531 10.445312 C 16.703125 10.882812 16.480469 11.109375 16.480469 11.109375 C 16.195312 11.542969 15.1875 11.359375 15.144531 11.351562 C 15.210938 11.371094 17.683594 12.167969 16.625 9.765625 C 16.75 10.394531 15.917969 10.621094 15.894531 10.628906 Z M 15.894531 10.628906 " fill-opacity="1" fill-rule="nonzero"/><path fill="#a6a6a6" d="M 13.464844 11.074219 C 13.480469 11.046875 13.78125 10.558594 14.675781 10.160156 C 15.597656 9.753906 15.730469 9.507812 15.730469 9.507812 C 16.039062 9.957031 15.894531 10.628906 15.894531 10.628906 C 15.921875 10.613281 16.519531 10.175781 15.789062 9.078125 C 15.65625 9.816406 13.914062 9.808594 13.464844 11.074219 Z M 13.464844 11.074219 " fill-opacity="1" fill-rule="nonzero"/><path fill="#a6a6a6" d="M 13.722656 9.714844 C 13.324219 10.378906 13.460938 11.078125 13.460938 11.078125 C 13.40625 10.140625 14.210938 9.300781 14.210938 9.300781 C 14.210938 9.300781 13.246094 9.558594 12.976562 10.566406 C 12.976562 10.570312 12.976562 10.570312 12.976562 10.570312 C 12.988281 10.546875 13.324219 9.941406 13.722656 9.714844 Z M 13.722656 9.714844 " fill-opacity="1" fill-rule="nonzero"/><path fill="#a6a6a6" d="M 14.417969 25.832031 C 14.363281 25.976562 14.292969 26.113281 14.207031 26.238281 C 14.605469 25.984375 14.808594 25.578125 14.914062 25.1875 C 14.789062 25.355469 14.578125 25.640625 14.417969 25.832031 Z M 14.417969 25.832031 " fill-opacity="1" fill-rule="nonzero"/><path fill="#a6a6a6" d="M 13.441406 26.429688 C 14.378906 25.785156 14.570312 24.867188 14.582031 24.808594 C 14.582031 24.808594 14.28125 25.507812 13.757812 25.976562 C 13.84375 25.601562 13.910156 25.226562 13.953125 24.84375 C 13.863281 25.398438 13.695312 25.925781 13.441406 26.429688 Z M 13.441406 26.429688 " fill-opacity="1" fill-rule="nonzero"/><path fill="#a6a6a6" d="M 20.613281 14.949219 C 20.613281 14.949219 20.953125 13.695312 19.960938 12.691406 C 20.539062 13.121094 21.273438 13.378906 21.296875 13.386719 C 21.261719 13.359375 20.082031 12.484375 19.546875 11.410156 C 19.703125 12.710938 19.871094 13.03125 19.871094 13.03125 L 19.492188 12.953125 C 20.792969 13.542969 20.613281 14.949219 20.613281 14.949219 Z M 20.613281 14.949219 " fill-opacity="1" fill-rule="nonzero"/><path fill="#a6a6a6" d="M 17.519531 10.441406 C 18.675781 10.21875 19.207031 10.832031 19.207031 10.832031 C 19.0625 10.828125 18.921875 10.84375 18.78125 10.875 C 19.238281 11.097656 19.113281 11.839844 19.105469 11.871094 C 19.53125 10.851562 19.292969 10.503906 19.292969 10.503906 L 19.929688 10.691406 C 19.929688 10.691406 19.050781 9.523438 17.78125 9.886719 C 17.78125 9.886719 18.171875 9.128906 18.945312 8.953125 C 17.757812 8.800781 17.308594 9.648438 17.519531 10.441406 Z M 17.519531 10.441406 " fill-opacity="1" fill-rule="nonzero"/><path fill="#a6a6a6" d="M 15.953125 8.386719 L 15.296875 8.804688 L 15.972656 8.589844 C 16.644531 8.375 16.933594 7.964844 16.933594 7.964844 C 16.933594 7.964844 16.507812 8.308594 15.589844 8.261719 L 16 8.019531 C 16 8.019531 15.175781 8.109375 14.578125 8.613281 C 15.101562 8.355469 15.953125 8.386719 15.953125 8.386719 Z M 15.953125 8.386719 " fill-opacity="1" fill-rule="nonzero"/><path fill="#a6a6a6" d="M 12.980469 5.066406 L 12.980469 6.289062 C 10.03125 6.515625 9.023438 7.574219 9.023438 7.574219 L 8.230469 5.78125 L 8.695312 5.070312 L 7.703125 4.578125 L 7.253906 3.570312 L 9.410156 4.742188 L 8.996094 6 L 10.726562 6.519531 L 12.445312 5.613281 L 11.339844 4.542969 L 12.980469 2.175781 L 12.980469 3.207031 L 12.113281 4.339844 Z M 12.980469 5.066406 " fill-opacity="1" fill-rule="nonzero"/><path fill="#a6a6a6" d="M 18.257812 4.578125 L 17.265625 5.070312 L 17.730469 5.78125 L 16.9375 7.574219 L 16.890625 7.574219 L 17.453125 5.847656 L 16.964844 4.933594 L 18.039062 4.402344 L 18.703125 3.570312 Z M 18.257812 4.578125 " fill-opacity="1" fill-rule="nonzero"/><g clip-path="url(#39aa3c6256)"><path fill="#a6a6a6" d="M 4.554688 22.476562 L 4.664062 22.660156 C 3.417969 22.324219 2.195312 21.773438 1.011719 21.039062 C 1.363281 23.113281 2.921875 23.488281 4.441406 22.847656 C 4.542969 22.804688 4.652344 22.800781 4.769531 22.820312 C 5.011719 23.1875 5.273438 23.546875 5.5625 23.886719 C 4.046875 23.8125 2.511719 23.460938 0.976562 22.867188 C 1.785156 25.046875 3.546875 25.125 5.0625 24.121094 C 5.234375 24.007812 5.445312 24.015625 5.699219 24.042969 C 6.863281 25.378906 8.394531 26.484375 10.277344 27.21875 C 10.777344 27.414062 11.398438 27.605469 12.070312 27.773438 C 11.828125 27.808594 11.578125 27.835938 11.335938 27.863281 C 10.71875 27.917969 10.390625 28.117188 10.054688 28.421875 C 10.964844 28.359375 12.011719 28.203125 13.015625 27.992188 C 14.015625 28.203125 15.0625 28.359375 15.972656 28.421875 C 15.640625 28.117188 15.3125 27.917969 14.691406 27.863281 C 14.449219 27.835938 14.199219 27.808594 13.957031 27.773438 C 14.628906 27.605469 15.246094 27.414062 15.75 27.21875 C 17.636719 26.484375 19.164062 25.378906 20.332031 24.042969 C 20.582031 24.015625 20.796875 24.007812 20.964844 24.121094 C 22.480469 25.125 24.246094 25.046875 25.050781 22.867188 C 23.515625 23.460938 21.980469 23.8125 20.464844 23.886719 C 20.753906 23.546875 21.019531 23.1875 21.257812 22.820312 C 21.375 22.800781 21.484375 22.804688 21.585938 22.847656 C 23.109375 23.488281 24.664062 23.113281 25.015625 21.039062 C 23.832031 21.773438 22.609375 22.324219 21.363281 22.660156 L 21.476562 22.476562 C 21.679688 22.144531 21.859375 21.792969 22.027344 21.433594 C 22.09375 21.410156 22.164062 21.402344 22.234375 21.414062 C 23.859375 21.636719 25.257812 20.882812 25.058594 18.800781 C 24.15625 19.761719 23.179688 20.570312 22.128906 21.199219 C 22.351562 20.671875 22.535156 20.121094 22.683594 19.554688 C 24.164062 19.488281 25.285156 18.582031 24.769531 16.753906 C 24.183594 17.667969 23.519531 18.472656 22.777344 19.164062 C 22.894531 18.644531 22.980469 18.121094 23.03125 17.589844 C 24.363281 17.226562 25.199219 16.175781 24.363281 14.609375 C 24.019531 15.535156 23.585938 16.386719 23.066406 17.148438 C 23.097656 16.640625 23.101562 16.125 23.074219 15.621094 C 24.09375 14.96875 24.515625 13.875 23.421875 12.765625 C 23.367188 13.554688 23.238281 14.320312 23.027344 15.035156 C 22.964844 14.449219 22.863281 13.871094 22.714844 13.3125 C 23.324219 12.625 23.40625 11.742188 22.382812 11.152344 C 22.496094 11.699219 22.558594 12.242188 22.558594 12.765625 L 22.601562 12.898438 C 22.386719 12.1875 22.09375 11.511719 21.730469 10.890625 C 23.171875 14.585938 23.324219 18.835938 21.21875 22.324219 C 20.023438 24.300781 18.160156 25.902344 15.640625 26.882812 C 14.875 27.179688 13.964844 27.4375 13.015625 27.617188 C 12.0625 27.4375 11.152344 27.179688 10.386719 26.882812 C 7.871094 25.902344 6.003906 24.300781 4.808594 22.324219 C 2.703125 18.835938 2.855469 14.585938 4.296875 10.890625 C 3.929688 11.511719 3.644531 12.1875 3.425781 12.898438 L 3.46875 12.765625 C 3.46875 12.242188 3.53125 11.699219 3.648438 11.152344 C 2.617188 11.742188 2.703125 12.625 3.3125 13.3125 C 3.164062 13.871094 3.0625 14.449219 3 15.035156 C 2.789062 14.320312 2.660156 13.554688 2.605469 12.765625 C 1.511719 13.875 1.9375 14.96875 2.953125 15.621094 C 2.925781 16.125 2.929688 16.640625 2.960938 17.148438 C 2.441406 16.386719 2.007812 15.535156 1.664062 14.609375 C 0.828125 16.175781 1.664062 17.226562 2.996094 17.589844 C 3.050781 18.121094 3.132812 18.644531 3.25 19.164062 C 2.511719 18.472656 1.84375 17.667969 1.257812 16.753906 C 0.742188 18.582031 1.863281 19.488281 3.34375 19.554688 C 3.492188 20.121094 3.675781 20.671875 3.902344 21.199219 C 2.851562 20.570312 1.867188 19.761719 0.96875 18.800781 C 0.769531 20.882812 2.171875 21.636719 3.792969 21.414062 C 3.863281 21.402344 3.933594 21.410156 4.003906 21.433594 C 4.167969 21.792969 4.351562 22.144531 4.554688 22.476562 Z M 4.554688 22.476562 " fill-opacity="1" fill-rule="evenodd"/></g><g transform="matrix(1, 0, 0, 1, 29, 9)"><g clip-path="url(#32de382520)"><g clip-path="url(#6147b74a44)"><g fill="#f79533" fill-opacity="1"><g transform="translate(0.388136, 12.000349)"><g><path d="M 0.234375 0 L 4.578125 -10.703125 L 4.796875 -10.703125 L 9.15625 0 L 6.828125 0 L 6.40625 -1.109375 L 2.984375 -1.109375 L 2.578125 0 Z M 3.734375 -3.046875 L 5.640625 -3.046875 L 4.703125 -5.734375 Z M 3.734375 -3.046875 "/></g></g></g></g><g fill="#f79533" fill-opacity="1"><g transform="translate(9.103921, 12.000349)"><g><path d="M 6.296875 0 L 4.21875 -3.953125 L 3.21875 -3.953125 L 3.21875 0 L 1.15625 0 L 1.15625 -10.328125 L 5.234375 -10.328125 C 5.847656 -10.328125 6.367188 -10.195312 6.796875 -9.9375 C 7.222656 -9.6875 7.554688 -9.359375 7.796875 -8.953125 C 8.046875 -8.546875 8.195312 -8.101562 8.25 -7.625 C 8.3125 -7.144531 8.273438 -6.675781 8.140625 -6.21875 C 8.015625 -5.757812 7.796875 -5.351562 7.484375 -5 C 7.171875 -4.65625 6.757812 -4.410156 6.25 -4.265625 L 8.640625 0 Z M 3.21875 -5.953125 L 5.046875 -5.953125 C 5.328125 -5.953125 5.550781 -6.03125 5.71875 -6.1875 C 5.882812 -6.34375 5.992188 -6.535156 6.046875 -6.765625 C 6.109375 -6.992188 6.109375 -7.222656 6.046875 -7.453125 C 5.992188 -7.691406 5.882812 -7.882812 5.71875 -8.03125 C 5.550781 -8.1875 5.328125 -8.265625 5.046875 -8.265625 L 3.21875 -8.265625 Z M 3.21875 -5.953125 "/></g></g></g><g fill="#f79533" fill-opacity="1"><g transform="translate(17.24153, 12.000349)"><g><path d="M 5.890625 -5.953125 L 9.96875 -10.5 L 10.625 -10.5 L 10.625 0 L 8.53125 0 L 8.546875 -5.765625 L 5.890625 -2.984375 L 3.25 -5.765625 L 3.25 0 L 1.15625 0 L 1.15625 -10.5 L 1.828125 -10.5 Z M 5.890625 -5.953125 "/></g></g></g><g fill="#f79533" fill-opacity="1"><g transform="translate(28.313366, 12.000349)"><g><path d="M 0.671875 -0.671875 L 0.9375 -2.828125 C 1.332031 -2.546875 1.722656 -2.34375 2.109375 -2.21875 C 2.503906 -2.101562 2.859375 -2.035156 3.171875 -2.015625 C 3.492188 -2.003906 3.734375 -2.003906 3.890625 -2.015625 C 4.191406 -2.023438 4.453125 -2.128906 4.671875 -2.328125 C 4.890625 -2.523438 4.984375 -2.765625 4.953125 -3.046875 C 4.929688 -3.347656 4.820312 -3.570312 4.625 -3.71875 C 4.425781 -3.875 4.179688 -4.003906 3.890625 -4.109375 C 3.347656 -4.304688 2.84375 -4.535156 2.375 -4.796875 C 1.90625 -5.066406 1.53125 -5.398438 1.25 -5.796875 C 0.96875 -6.191406 0.828125 -6.675781 0.828125 -7.25 C 0.828125 -7.832031 0.945312 -8.359375 1.1875 -8.828125 C 1.4375 -9.296875 1.78125 -9.664062 2.21875 -9.9375 C 2.664062 -10.21875 3.175781 -10.375 3.75 -10.40625 C 4.007812 -10.425781 4.332031 -10.414062 4.71875 -10.375 C 5.113281 -10.332031 5.644531 -10.195312 6.3125 -9.96875 L 6.0625 -7.984375 C 5.488281 -8.210938 5.03125 -8.34375 4.6875 -8.375 C 4.351562 -8.40625 4.109375 -8.414062 3.953125 -8.40625 C 3.578125 -8.394531 3.304688 -8.269531 3.140625 -8.03125 C 2.972656 -7.800781 2.898438 -7.539062 2.921875 -7.25 C 2.953125 -6.96875 3.078125 -6.75 3.296875 -6.59375 C 3.515625 -6.445312 3.773438 -6.320312 4.078125 -6.21875 C 4.617188 -6.019531 5.113281 -5.78125 5.5625 -5.5 C 6.019531 -5.21875 6.382812 -4.875 6.65625 -4.46875 C 6.925781 -4.070312 7.0625 -3.597656 7.0625 -3.046875 C 7.0625 -2.484375 6.9375 -1.96875 6.6875 -1.5 C 6.4375 -1.039062 6.078125 -0.671875 5.609375 -0.390625 C 5.148438 -0.109375 4.597656 0.0507812 3.953125 0.09375 C 3.753906 0.09375 3.488281 0.0820312 3.15625 0.0625 C 2.820312 0.0390625 2.441406 -0.0195312 2.015625 -0.125 C 1.597656 -0.238281 1.148438 -0.421875 0.671875 -0.671875 Z M 0.671875 -0.671875 "/></g></g></g></g></g><g clip-path="url(#38981761f6)"><g transform="matrix(1, 0, 0, 1, 68, 11)"><g clip-path="url(#9ae10f35a7)"><g fill="#dee2e6" fill-opacity="1"><g transform="translate(1.035177, 9.120759)"><g><path d="M 3.015625 0 L 1.6875 -4.296875 L 1.65625 -4.296875 C 1.65625 -4.191406 1.660156 -4.035156 1.671875 -3.828125 C 1.691406 -3.628906 1.707031 -3.410156 1.71875 -3.171875 C 1.726562 -2.941406 1.734375 -2.734375 1.734375 -2.546875 L 1.734375 0 L 0.6875 0 L 0.6875 -5.484375 L 2.265625 -5.484375 L 3.5625 -1.28125 L 3.59375 -1.28125 L 4.96875 -5.484375 L 6.546875 -5.484375 L 6.546875 0 L 5.46875 0 L 5.46875 -2.59375 C 5.46875 -2.757812 5.46875 -2.957031 5.46875 -3.1875 C 5.476562 -3.414062 5.488281 -3.628906 5.5 -3.828125 C 5.507812 -4.035156 5.515625 -4.191406 5.515625 -4.296875 L 5.484375 -4.296875 L 4.078125 0 Z M 3.015625 0 "/></g></g></g><g fill="#dee2e6" fill-opacity="1"><g transform="translate(12.096495, 9.120759)"><g><path d="M 5.140625 -5.484375 L 5.140625 -1.9375 C 5.140625 -1.5625 5.054688 -1.21875 4.890625 -0.90625 C 4.734375 -0.601562 4.484375 -0.363281 4.140625 -0.1875 C 3.804688 -0.0078125 3.382812 0.078125 2.875 0.078125 C 2.15625 0.078125 1.601562 -0.101562 1.21875 -0.46875 C 0.84375 -0.84375 0.65625 -1.335938 0.65625 -1.953125 L 0.65625 -5.484375 L 1.8125 -5.484375 L 1.8125 -2.125 C 1.8125 -1.675781 1.898438 -1.359375 2.078125 -1.171875 C 2.265625 -0.992188 2.539062 -0.90625 2.90625 -0.90625 C 3.15625 -0.90625 3.359375 -0.945312 3.515625 -1.03125 C 3.679688 -1.113281 3.800781 -1.242188 3.875 -1.421875 C 3.945312 -1.609375 3.984375 -1.84375 3.984375 -2.125 L 3.984375 -5.484375 Z M 5.140625 -5.484375 "/></g></g></g><g fill="#dee2e6" fill-opacity="1"><g transform="translate(21.724147, 9.120759)"><g><path d="M 3.921875 -1.515625 C 3.921875 -1.191406 3.84375 -0.910156 3.6875 -0.671875 C 3.53125 -0.429688 3.300781 -0.242188 3 -0.109375 C 2.695312 0.0117188 2.332031 0.078125 1.90625 0.078125 C 1.71875 0.078125 1.53125 0.0625 1.34375 0.03125 C 1.164062 0.0078125 0.992188 -0.0195312 0.828125 -0.0625 C 0.660156 -0.113281 0.503906 -0.175781 0.359375 -0.25 L 0.359375 -1.328125 C 0.609375 -1.210938 0.875 -1.109375 1.15625 -1.015625 C 1.4375 -0.929688 1.71875 -0.890625 2 -0.890625 C 2.1875 -0.890625 2.335938 -0.910156 2.453125 -0.953125 C 2.566406 -1.003906 2.648438 -1.070312 2.703125 -1.15625 C 2.753906 -1.25 2.78125 -1.351562 2.78125 -1.46875 C 2.78125 -1.601562 2.734375 -1.71875 2.640625 -1.8125 C 2.546875 -1.914062 2.414062 -2.007812 2.25 -2.09375 C 2.09375 -2.175781 1.914062 -2.265625 1.71875 -2.359375 C 1.59375 -2.421875 1.453125 -2.492188 1.296875 -2.578125 C 1.148438 -2.671875 1.007812 -2.78125 0.875 -2.90625 C 0.738281 -3.03125 0.628906 -3.179688 0.546875 -3.359375 C 0.460938 -3.535156 0.421875 -3.75 0.421875 -4 C 0.421875 -4.320312 0.492188 -4.597656 0.640625 -4.828125 C 0.785156 -5.066406 1 -5.25 1.28125 -5.375 C 1.5625 -5.5 1.890625 -5.5625 2.265625 -5.5625 C 2.554688 -5.5625 2.828125 -5.523438 3.078125 -5.453125 C 3.335938 -5.390625 3.609375 -5.296875 3.890625 -5.171875 L 3.515625 -4.265625 C 3.265625 -4.367188 3.039062 -4.445312 2.84375 -4.5 C 2.644531 -4.5625 2.441406 -4.59375 2.234375 -4.59375 C 2.085938 -4.59375 1.960938 -4.566406 1.859375 -4.515625 C 1.753906 -4.472656 1.675781 -4.410156 1.625 -4.328125 C 1.570312 -4.242188 1.546875 -4.144531 1.546875 -4.03125 C 1.546875 -3.90625 1.582031 -3.796875 1.65625 -3.703125 C 1.738281 -3.617188 1.851562 -3.535156 2 -3.453125 C 2.15625 -3.367188 2.347656 -3.269531 2.578125 -3.15625 C 2.859375 -3.03125 3.097656 -2.894531 3.296875 -2.75 C 3.492188 -2.601562 3.644531 -2.429688 3.75 -2.234375 C 3.863281 -2.046875 3.921875 -1.804688 3.921875 -1.515625 Z M 3.921875 -1.515625 "/></g></g></g><g fill="#dee2e6" fill-opacity="1"><g transform="translate(29.779632, 9.120759)"><g><path d="M 0.6875 0 L 0.6875 -5.484375 L 1.84375 -5.484375 L 1.84375 0 Z M 0.6875 0 "/></g></g></g><g fill="#dee2e6" fill-opacity="1"><g transform="translate(36.150652, 9.120759)"><g><path d="M 3.015625 -4.59375 C 2.796875 -4.59375 2.597656 -4.546875 2.421875 -4.453125 C 2.253906 -4.367188 2.113281 -4.242188 2 -4.078125 C 1.882812 -3.921875 1.796875 -3.726562 1.734375 -3.5 C 1.671875 -3.269531 1.640625 -3.007812 1.640625 -2.71875 C 1.640625 -2.332031 1.6875 -2.003906 1.78125 -1.734375 C 1.875 -1.460938 2.019531 -1.253906 2.21875 -1.109375 C 2.425781 -0.960938 2.691406 -0.890625 3.015625 -0.890625 C 3.234375 -0.890625 3.453125 -0.914062 3.671875 -0.96875 C 3.898438 -1.019531 4.144531 -1.09375 4.40625 -1.1875 L 4.40625 -0.203125 C 4.164062 -0.109375 3.925781 -0.0390625 3.6875 0 C 3.457031 0.0507812 3.195312 0.078125 2.90625 0.078125 C 2.34375 0.078125 1.878906 -0.0351562 1.515625 -0.265625 C 1.148438 -0.503906 0.878906 -0.832031 0.703125 -1.25 C 0.535156 -1.675781 0.453125 -2.171875 0.453125 -2.734375 C 0.453125 -3.148438 0.503906 -3.53125 0.609375 -3.875 C 0.722656 -4.21875 0.890625 -4.515625 1.109375 -4.765625 C 1.328125 -5.015625 1.59375 -5.207031 1.90625 -5.34375 C 2.226562 -5.488281 2.597656 -5.5625 3.015625 -5.5625 C 3.285156 -5.5625 3.554688 -5.523438 3.828125 -5.453125 C 4.109375 -5.378906 4.375 -5.285156 4.625 -5.171875 L 4.25 -4.21875 C 4.039062 -4.320312 3.832031 -4.410156 3.625 -4.484375 C 3.414062 -4.554688 3.210938 -4.59375 3.015625 -4.59375 Z M 3.015625 -4.59375 "/></g></g></g></g></g></g></g></g></svg>