<svg xmlns="http://www.w3.org/2000/svg" xmlns:xlink="http://www.w3.org/1999/xlink" width="200" zoomAndPan="magnify" viewBox="0 0 150 37.5" height="50" preserveAspectRatio="xMidYMid meet" version="1.0"><defs><filter x="0%" y="0%" width="100%" height="100%" id="6d95dcf6f4"><feColorMatrix values="0 0 0 0 1 0 0 0 0 1 0 0 0 0 1 0 0 0 1 0" color-interpolation-filters="sRGB"/></filter><g/><clipPath id="35ef120d2a"><path d="M 3.785156 1 L 25.585938 1 L 25.585938 31.320312 L 3.785156 31.320312 Z M 3.785156 1 " clip-rule="nonzero"/></clipPath><mask id="44c20f7b2f"><g filter="url(#6d95dcf6f4)"><rect x="-34" width="216" fill="#000000" y="-9.25" height="54" fill-opacity="0.3"/></g></mask><clipPath id="5550bd366b"><path d="M 0.488281 1 L 1.671875 1 L 1.671875 1.578125 L 0.488281 1.578125 Z M 0.488281 1 " clip-rule="nonzero"/></clipPath><clipPath id="14d6b3f485"><rect x="0" width="2" y="0" height="2"/></clipPath><mask id="b8c0dc8a37"><g filter="url(#6d95dcf6f4)"><rect x="-34" width="216" fill="#000000" y="-9.25" height="54" fill-opacity="0.3"/></g></mask><clipPath id="5156417610"><path d="M 0.488281 0.210938 L 1.671875 0.210938 L 1.671875 0.921875 L 0.488281 0.921875 Z M 0.488281 0.210938 " clip-rule="nonzero"/></clipPath><clipPath id="3391c58d95"><rect x="0" width="2" y="0" height="1"/></clipPath><mask id="5c2fea5789"><g filter="url(#6d95dcf6f4)"><rect x="-34" width="216" fill="#000000" y="-9.25" height="54" fill-opacity="0.3"/></g></mask><clipPath id="7077c56585"><path d="M 1 0.367188 L 3.960938 0.367188 L 3.960938 4.867188 L 1 4.867188 Z M 1 0.367188 " clip-rule="nonzero"/></clipPath><clipPath id="aaffee856f"><rect x="0" width="4" y="0" height="5"/></clipPath><mask id="fa1ed0ac69"><g filter="url(#6d95dcf6f4)"><rect x="-34" width="216" fill="#000000" y="-9.25" height="54" fill-opacity="0.3"/></g></mask><clipPath id="86cf564eaa"><path d="M 0.699219 0.527344 L 4 0.527344 L 4 4 L 0.699219 4 Z M 0.699219 0.527344 " clip-rule="nonzero"/></clipPath><clipPath id="5940df56f2"><rect x="0" width="5" y="0" height="5"/></clipPath><mask id="5e5cd995b1"><g filter="url(#6d95dcf6f4)"><rect x="-34" width="216" fill="#000000" y="-9.25" height="54" fill-opacity="0.3"/></g></mask><clipPath id="c1e5630aca"><path d="M 0.539062 1 L 2.671875 1 L 2.671875 2.605469 L 0.539062 2.605469 Z M 0.539062 1 " clip-rule="nonzero"/></clipPath><clipPath id="6d8409fa77"><rect x="0" width="3" y="0" height="3"/></clipPath><mask id="bfbce8446d"><g filter="url(#6d95dcf6f4)"><rect x="-34" width="216" fill="#000000" y="-9.25" height="54" fill-opacity="0.3"/></g></mask><clipPath id="09c9ef28c4"><path d="M 1 0.15625 L 5.199219 0.15625 L 5.199219 2.761719 L 1 2.761719 Z M 1 0.15625 " clip-rule="nonzero"/></clipPath><clipPath id="248272a02a"><rect x="0" width="6" y="0" height="3"/></clipPath><mask id="b82467ec09"><g filter="url(#6d95dcf6f4)"><rect x="-34" width="216" fill="#000000" y="-9.25" height="54" fill-opacity="0.3"/></g></mask><clipPath id="018f0aa147"><path d="M 0.09375 0.210938 L 5.300781 0.210938 L 5.300781 3.761719 L 0.09375 3.761719 Z M 0.09375 0.210938 " clip-rule="nonzero"/></clipPath><clipPath id="f9a4e39e2e"><rect x="0" width="6" y="0" height="4"/></clipPath><mask id="71fe102b9e"><g filter="url(#6d95dcf6f4)"><rect x="-34" width="216" fill="#000000" y="-9.25" height="54" fill-opacity="0.3"/></g></mask><clipPath id="9a0e09f649"><path d="M 0.171875 0.078125 L 2.300781 0.078125 L 2.300781 2.449219 L 0.171875 2.449219 Z M 0.171875 0.078125 " clip-rule="nonzero"/></clipPath><clipPath id="500aff930d"><rect x="0" width="3" y="0" height="3"/></clipPath><mask id="f7b0b97987"><g filter="url(#6d95dcf6f4)"><rect x="-34" width="216" fill="#000000" y="-9.25" height="54" fill-opacity="0.3"/></g></mask><clipPath id="b5b5a5d3db"><path d="M 1 0.367188 L 4.199219 0.367188 L 4.199219 2.972656 L 1 2.972656 Z M 1 0.367188 " clip-rule="nonzero"/></clipPath><clipPath id="bc3846cf55"><rect x="0" width="5" y="0" height="3"/></clipPath><mask id="48f3fd68f7"><g filter="url(#6d95dcf6f4)"><rect x="-34" width="216" fill="#000000" y="-9.25" height="54" fill-opacity="0.3"/></g></mask><clipPath id="0623850e12"><path d="M 0.0117188 0.605469 L 1.671875 0.605469 L 1.671875 2.972656 L 0.0117188 2.972656 Z M 0.0117188 0.605469 " clip-rule="nonzero"/></clipPath><clipPath id="bcdf429027"><rect x="0" width="2" y="0" height="3"/></clipPath><mask id="d5fadc39f8"><g filter="url(#6d95dcf6f4)"><rect x="-34" width="216" fill="#000000" y="-9.25" height="54" fill-opacity="0.3"/></g></mask><clipPath id="5cd2dd28b0"><path d="M 0.433594 1 L 1.855469 1 L 1.855469 1.578125 L 0.433594 1.578125 Z M 0.433594 1 " clip-rule="nonzero"/></clipPath><clipPath id="28c28d22b7"><rect x="0" width="2" y="0" height="2"/></clipPath><mask id="4a15b0d60b"><g filter="url(#6d95dcf6f4)"><rect x="-34" width="216" fill="#000000" y="-9.25" height="54" fill-opacity="0.3"/></g></mask><clipPath id="d13a7e0716"><path d="M 0.433594 0.210938 L 1.855469 0.210938 L 1.855469 0.921875 L 0.433594 0.921875 Z M 0.433594 0.210938 " clip-rule="nonzero"/></clipPath><clipPath id="8aec4a5249"><rect x="0" width="2" y="0" height="1"/></clipPath><mask id="55ca3cdae8"><g filter="url(#6d95dcf6f4)"><rect x="-34" width="216" fill="#000000" y="-9.25" height="54" fill-opacity="0.3"/></g></mask><clipPath id="96fff90b62"><path d="M 0.433594 1 L 2.800781 1 L 2.800781 2.605469 L 0.433594 2.605469 Z M 0.433594 1 " clip-rule="nonzero"/></clipPath><clipPath id="ad3691ea55"><rect x="0" width="3" y="0" height="3"/></clipPath><clipPath id="5f7aa235b3"><path d="M 1 12.585938 L 28.3125 12.585938 L 28.3125 32.394531 L 1 32.394531 Z M 1 12.585938 " clip-rule="nonzero"/></clipPath><clipPath id="ae80e2c0f8"><path d="M 1 0.550781 L 12 0.550781 L 12 13 L 1 13 Z M 1 0.550781 " clip-rule="nonzero"/></clipPath><clipPath id="35fa2ed428"><rect x="0" width="42" y="0" height="18"/></clipPath><clipPath id="f287be3e23"><path d="M 77 13 L 127.171875 13 L 127.171875 26 L 77 26 Z M 77 13 " clip-rule="nonzero"/></clipPath><clipPath id="465042f784"><rect x="0" width="51" y="0" height="13"/></clipPath><clipPath id="3509ef5651"><rect x="0" width="128" y="0" height="33"/></clipPath></defs><g transform="matrix(1, 0, 0, 1, 1, 1)"><g clip-path="url(#3509ef5651)"><g clip-path="url(#35ef120d2a)"><path fill="#172029" d="M 24.101562 17.4375 C 24.074219 17.390625 24.058594 17.363281 24.058594 17.363281 L 24.082031 17.367188 C 24.199219 16.855469 24.207031 16.34375 24.101562 15.828125 C 24.617188 15.71875 25.09375 15.511719 25.527344 15.214844 C 25.0625 15.035156 24.632812 14.792969 24.246094 14.480469 C 23.875 14.171875 23.539062 13.824219 23.242188 13.449219 L 24.207031 13.734375 L 23.175781 11.859375 C 22.8125 11.402344 22.367188 11.050781 21.839844 10.804688 L 21.652344 10.730469 L 21.632812 10.722656 C 21.839844 10.53125 22.1875 10.265625 22.761719 9.957031 C 21.886719 9.441406 20.902344 9.460938 20.359375 9.523438 C 20.238281 9.539062 20.117188 9.558594 20 9.582031 C 19.957031 9.59375 19.933594 9.597656 19.933594 9.597656 C 19.957031 9.507812 19.96875 9.417969 19.972656 9.328125 L 19.976562 9.203125 L 20.09375 8.765625 L 20.980469 6.761719 L 20.722656 6.371094 L 21.265625 6.105469 L 22.734375 2.785156 L 17.273438 5.050781 L 15.347656 2.265625 L 14.65625 1.011719 L 13.964844 2.265625 L 12.039062 5.050781 L 6.582031 2.785156 L 8.046875 6.105469 L 8.589844 6.371094 L 8.335938 6.761719 L 9.222656 8.765625 L 9.339844 9.203125 L 9.34375 9.328125 C 9.347656 9.417969 9.359375 9.511719 9.382812 9.597656 C 9.382812 9.597656 9.359375 9.59375 9.316406 9.585938 C 9.199219 9.558594 9.078125 9.539062 8.957031 9.527344 C 8.414062 9.460938 7.429688 9.441406 6.558594 9.957031 C 7.128906 10.265625 7.476562 10.53125 7.6875 10.722656 L 7.664062 10.730469 L 7.476562 10.808594 C 6.949219 11.050781 6.503906 11.402344 6.140625 11.859375 L 5.109375 13.734375 L 6.078125 13.449219 C 5.777344 13.828125 5.441406 14.171875 5.074219 14.480469 C 4.679688 14.792969 4.253906 15.035156 3.785156 15.214844 C 4.21875 15.511719 4.695312 15.71875 5.210938 15.828125 C 5.105469 16.34375 5.113281 16.855469 5.230469 17.367188 L 5.253906 17.363281 C 5.253906 17.363281 5.238281 17.390625 5.210938 17.4375 C 4.910156 17.949219 4.710938 18.601562 4.621094 19.398438 C 4.507812 20.128906 4.457031 21.066406 4.558594 22.222656 C 4.835938 21.984375 5.046875 21.800781 5.210938 21.65625 C 5.203125 21.699219 5.195312 21.742188 5.183594 21.78125 C 5.167969 21.855469 4.890625 23.058594 4.558594 24.253906 C 5.035156 23.980469 5.484375 23.667969 5.910156 23.316406 C 5.902344 23.417969 5.902344 23.515625 5.902344 23.613281 C 5.925781 25.253906 6.902344 26.292969 6.945312 26.335938 L 7.195312 26.597656 L 7.421875 26.835938 L 8.058594 27.503906 C 8.058594 27.503906 8.207031 29.085938 9.964844 30.574219 L 10.042969 29.9375 C 10.265625 30.222656 10.550781 30.570312 10.734375 30.71875 C 10.742188 30.707031 10.785156 29.589844 10.832031 29.425781 C 11.046875 29.871094 11.535156 30.523438 12.609375 30.894531 C 12.550781 30.664062 12.503906 30.46875 12.46875 30.308594 C 12.636719 30.480469 12.84375 30.6875 13.03125 30.867188 C 13.144531 30.988281 13.269531 31.097656 13.402344 31.195312 C 13.421875 31.214844 13.441406 31.226562 13.457031 31.238281 C 13.429688 30.917969 13.410156 30.710938 13.394531 30.574219 C 13.46875 30.628906 13.542969 30.683594 13.621094 30.738281 C 13.8125 30.976562 14.136719 31.253906 14.65625 31.390625 C 15.175781 31.253906 15.5 30.976562 15.691406 30.738281 C 15.769531 30.683594 15.847656 30.628906 15.917969 30.574219 C 15.90625 30.710938 15.886719 30.917969 15.855469 31.238281 C 15.871094 31.226562 15.890625 31.210938 15.910156 31.195312 C 16.046875 31.097656 16.167969 30.988281 16.28125 30.867188 C 16.46875 30.6875 16.679688 30.480469 16.847656 30.308594 C 16.804688 30.46875 16.761719 30.664062 16.703125 30.894531 C 17.777344 30.519531 18.265625 29.871094 18.480469 29.425781 C 18.527344 29.589844 18.574219 30.707031 18.578125 30.71875 C 18.761719 30.570312 19.046875 30.222656 19.269531 29.9375 L 19.347656 30.574219 C 21.105469 29.085938 21.253906 27.503906 21.253906 27.503906 L 21.890625 26.835938 L 22.117188 26.597656 L 22.371094 26.335938 C 22.410156 26.292969 23.386719 25.253906 23.410156 23.613281 C 23.410156 23.515625 23.410156 23.417969 23.402344 23.316406 C 23.695312 23.566406 24.128906 23.886719 24.753906 24.253906 C 24.421875 23.058594 24.144531 21.855469 24.128906 21.78125 C 24.121094 21.742188 24.113281 21.699219 24.105469 21.65625 C 24.265625 21.800781 24.476562 21.984375 24.753906 22.222656 C 24.855469 21.066406 24.804688 20.128906 24.695312 19.398438 C 24.601562 18.605469 24.40625 17.953125 24.101562 17.4375 Z M 24.101562 17.4375 " fill-opacity="1" fill-rule="nonzero"/></g><path fill="#ffffff" d="M 8.574219 13.304688 C 8.566406 13.339844 8.351562 14.480469 7.171875 15.261719 C 5.976562 16.050781 6.035156 17.148438 6.035156 17.148438 C 6.035156 17.148438 5.652344 15.738281 6.765625 14.613281 C 6.117188 15.089844 5.292969 15.382812 5.265625 15.390625 C 5.304688 15.363281 6.632812 14.378906 7.234375 13.171875 C 7.234375 13.171875 7.371094 13.972656 7.195312 14.671875 C 8.167969 14.234375 8.5625 13.332031 8.574219 13.304688 Z M 8.574219 13.304688 " fill-opacity="1" fill-rule="nonzero"/><path fill="#ffffff" d="M 12.183594 29.613281 C 12.152344 29.601562 11.136719 29.25 11.164062 26.96875 C 11.191406 24.652344 10.53125 23.917969 10.53125 23.917969 C 11.195312 26.617188 10.027344 29.1875 9.992188 29.257812 C 10.003906 29.1875 10.359375 26.589844 9.375 24.789062 C 9.652344 26.09375 9.019531 26.917969 9.269531 28.507812 C 8.492188 27.363281 8.980469 24.667969 8.46875 23.457031 C 8.613281 25.101562 8.03125 26.796875 8.03125 26.796875 C 8.03125 26.796875 8.03125 24.300781 7.386719 22.726562 C 6.960938 24.214844 7.53125 25.71875 7.546875 25.757812 C 7.519531 25.730469 6.589844 24.726562 6.757812 23.179688 C 6.929688 21.613281 6.679688 20.550781 6.679688 20.550781 C 6.679688 20.550781 6.640625 21.378906 5.929688 22.285156 C 6.441406 20.15625 5.941406 19.316406 5.941406 19.316406 C 5.519531 20.304688 5.402344 20.925781 5.402344 20.925781 C 5.265625 17.058594 7.003906 17.070312 7.003906 17.070312 C 7.003906 17.070312 6.191406 18.199219 6.367188 19.316406 C 7.261719 17.082031 9.128906 16.816406 9.1875 16.808594 C 8.207031 17.492188 7.824219 18.292969 7.804688 18.34375 C 7.835938 18.300781 8.28125 17.703125 9.246094 17.261719 C 7.945312 18.273438 7.964844 19.699219 7.964844 19.699219 L 7.96875 19.695312 C 8.011719 19.625 8.5 18.894531 9.210938 18.339844 L 9.214844 18.335938 C 8.046875 19.742188 8.222656 21.371094 8.222656 21.371094 C 8.222656 21.371094 8.5625 20.035156 9.226562 19.226562 C 8.515625 20.941406 9.101562 22.75 9.113281 22.785156 C 9.113281 22.785156 9.117188 22.519531 9.160156 22.148438 C 9.160156 22.144531 9.160156 22.144531 9.160156 22.140625 C 9.226562 21.558594 9.382812 20.722656 9.746094 20.210938 C 9.34375 22.4375 10.28125 24.027344 10.28125 24.027344 C 10.28125 24.027344 10.28125 22.734375 9.953125 21.707031 C 11.644531 23.683594 11.421875 26.5625 11.421875 26.5625 C 11.421875 26.5625 11.554688 26.089844 11.765625 25.734375 C 11.265625 28.617188 12.15625 29.582031 12.183594 29.613281 Z M 12.183594 29.613281 " fill-opacity="1" fill-rule="nonzero"/><path fill="#ffffff" d="M 9.910156 12.472656 C 9.910156 12.472656 9.050781 12.226562 8.179688 12.40625 C 8.582031 12.503906 8.695312 12.582031 8.695312 12.582031 C 8.695312 12.582031 7.847656 12.5625 7.734375 13.691406 C 7.25 12.539062 7.519531 12.148438 7.519531 12.148438 L 6.804688 12.359375 C 6.804688 12.359375 7.792969 11.050781 9.21875 11.453125 C 9.21875 11.453125 8.78125 10.605469 7.910156 10.402344 C 9.363281 10.125 10.683594 10.71875 9.910156 12.472656 Z M 9.910156 12.472656 " fill-opacity="1" fill-rule="nonzero"/><path fill="#ffffff" d="M 12.90625 16.726562 C 12.882812 16.738281 12.390625 17.023438 11.941406 16.914062 C 11.496094 16.804688 11.207031 16.214844 11.199219 16.195312 L 12.007812 16.445312 L 12.007812 16.734375 L 12.03125 16.710938 L 12.238281 16.519531 Z M 12.90625 16.726562 " fill-opacity="1" fill-rule="nonzero"/><path fill="#ffffff" d="M 12.816406 28.234375 C 12.800781 28.628906 12.863281 29.011719 13.003906 29.382812 C 13.0625 29.546875 13.144531 29.699219 13.238281 29.84375 C 12.792969 29.554688 12.5625 29.101562 12.445312 28.660156 C 12.339844 28.242188 12.308594 27.820312 12.347656 27.390625 C 12.429688 28.242188 12.628906 28.589844 12.628906 28.589844 C 12.628906 28.589844 12.585938 27.941406 12.71875 27.5 C 12.859375 28.101562 13.480469 29.050781 13.5 29.082031 C 13.402344 28.691406 13.503906 28.148438 13.503906 28.148438 C 13.503906 28.148438 13.507812 28.191406 13.523438 28.273438 C 13.625 28.898438 13.816406 29.492188 14.097656 30.054688 C 13.042969 29.332031 12.832031 28.300781 12.820312 28.234375 C 12.816406 28.234375 12.816406 28.234375 12.816406 28.234375 Z M 12.816406 28.234375 " fill-opacity="1" fill-rule="nonzero"/><path fill="#ffffff" d="M 12.90625 9.851562 C 13.21875 10.007812 13.460938 10.238281 13.628906 10.546875 C 13.609375 10.535156 13.011719 10.222656 12.050781 10.011719 C 12.660156 10.621094 12.949219 11.042969 12.949219 11.042969 C 12.949219 11.042969 12.089844 10.453125 11.144531 10.214844 C 10.199219 9.976562 10.175781 9.296875 10.175781 9.296875 C 10.175781 9.296875 10.652344 9.679688 11.683594 9.628906 L 11.226562 9.355469 C 11.226562 9.355469 12.753906 9.164062 13.664062 9.605469 C 13.25 9.1875 13.144531 9.015625 13.136719 9.007812 C 13.167969 9.019531 14.597656 9.4375 14.621094 10.914062 C 14.621094 10.914062 13.921875 9.863281 12.90625 9.851562 Z M 12.90625 9.851562 " fill-opacity="1" fill-rule="nonzero"/><path fill="#ffffff" d="M 15.171875 19.699219 C 15.359375 19.546875 15.566406 19.515625 15.792969 19.613281 C 15.792969 19.613281 15.695312 19.261719 15.226562 19.324219 C 14.757812 19.382812 14.621094 19.355469 14.621094 19.355469 C 14.621094 19.355469 14.484375 19.382812 14.015625 19.324219 C 13.546875 19.261719 13.449219 19.613281 13.449219 19.613281 C 13.675781 19.515625 13.882812 19.546875 14.074219 19.699219 C 14.390625 19.941406 14.621094 19.921875 14.621094 19.921875 C 14.621094 19.921875 14.855469 19.941406 15.171875 19.699219 Z M 15.171875 19.699219 " fill-opacity="1" fill-rule="nonzero"/><path fill="#ffffff" d="M 15.582031 22.726562 L 15.511719 22.425781 L 15.480469 22.558594 C 15.109375 22.507812 14.621094 22.558594 14.621094 22.558594 C 14.621094 22.558594 14.132812 22.507812 13.761719 22.558594 L 13.730469 22.425781 L 13.660156 22.726562 C 13.652344 22.71875 13.496094 22.574219 13.550781 22.226562 C 13.550781 22.226562 13.800781 22.320312 14.625 22.234375 C 15.445312 22.320312 15.695312 22.226562 15.695312 22.226562 C 15.75 22.582031 15.582031 22.726562 15.582031 22.726562 Z M 15.582031 22.726562 " fill-opacity="1" fill-rule="nonzero"/><path fill="#ffffff" d="M 15.664062 27.484375 C 15.988281 26.984375 15.871094 26.289062 15.871094 26.289062 C 15.871094 26.289062 15.769531 27.761719 14.625 27.761719 C 13.480469 27.761719 13.378906 26.289062 13.378906 26.289062 C 13.378906 26.289062 13.261719 26.984375 13.585938 27.484375 C 11.484375 26.804688 12.28125 24.898438 12.28125 24.898438 C 12.28125 24.898438 12.398438 25.539062 12.953125 25.367188 C 12.519531 24.695312 12.707031 23.851562 12.707031 23.851562 C 13.011719 24.5 13.390625 24.851562 13.617188 25.019531 C 14.210938 24.746094 14.625 24.792969 14.625 24.792969 C 14.625 24.792969 15.035156 24.746094 15.632812 25.019531 C 15.859375 24.851562 16.234375 24.5 16.542969 23.851562 C 16.542969 23.851562 16.730469 24.695312 16.292969 25.367188 C 16.847656 25.539062 16.96875 24.898438 16.96875 24.898438 C 16.96875 24.898438 17.757812 26.804688 15.664062 27.484375 Z M 15.664062 27.484375 " fill-opacity="1" fill-rule="nonzero"/><path fill="#ffffff" d="M 21.949219 16.582031 C 20.871094 15.566406 20.996094 13.417969 18.550781 13.476562 C 19.050781 13.808594 19.292969 14.492188 19.308594 14.539062 C 19.269531 14.484375 18.480469 13.414062 17.042969 13.3125 L 17.007812 13.273438 C 16.601562 12.808594 16.023438 12.824219 15.53125 12.988281 C 15.582031 12.835938 15.761719 12.507812 16.394531 12.253906 C 17.253906 11.914062 17.445312 11.703125 17.445312 11.703125 C 17.445312 11.703125 17.589844 12.3125 16.550781 12.792969 C 16.550781 12.792969 17.753906 12.941406 18.449219 12.417969 C 18.199219 12.867188 17.671875 13.140625 17.058594 13.105469 C 17.058594 13.105469 19.929688 14.058594 18.726562 11.320312 C 18.863281 12.03125 17.929688 12.285156 17.90625 12.292969 C 17.933594 12.273438 18.605469 11.78125 17.78125 10.546875 C 17.632812 11.375 15.671875 11.367188 15.167969 12.796875 C 15.105469 11.742188 16.007812 10.796875 16.007812 10.796875 C 16.007812 10.796875 14.925781 11.085938 14.621094 12.226562 C 14.320312 11.089844 13.238281 10.800781 13.238281 10.800781 C 13.238281 10.800781 14.140625 11.742188 14.078125 12.796875 C 13.570312 11.371094 11.613281 11.378906 11.464844 10.550781 C 10.640625 11.785156 11.3125 12.277344 11.339844 12.296875 C 11.3125 12.289062 10.382812 12.035156 10.519531 11.324219 C 9.332031 14.027344 12.113281 13.132812 12.183594 13.109375 C 11.570312 13.144531 11.042969 12.871094 10.796875 12.425781 C 11.492188 12.945312 12.691406 12.800781 12.691406 12.800781 C 11.652344 12.316406 11.800781 11.707031 11.800781 11.707031 C 11.800781 11.707031 11.992188 11.917969 12.851562 12.257812 C 13.484375 12.511719 13.660156 12.839844 13.710938 12.992188 C 13.222656 12.828125 12.640625 12.8125 12.238281 13.277344 L 12.203125 13.316406 C 10.765625 13.417969 9.976562 14.488281 9.933594 14.542969 C 9.949219 14.496094 10.195312 13.816406 10.695312 13.480469 C 8.25 13.421875 8.371094 15.570312 7.296875 16.585938 C 8.757812 16.183594 9.683594 14.503906 9.746094 14.390625 C 9.71875 14.457031 9.457031 15.101562 9.425781 15.792969 C 9.941406 14.800781 10.726562 14.453125 11.160156 14.332031 C 10.769531 14.667969 10.410156 14.960938 10.128906 15.265625 C 10.03125 15.519531 9.9375 16.230469 10.144531 16.46875 C 10.167969 16.496094 10.195312 16.515625 10.230469 16.53125 C 10.542969 16.65625 10.964844 16.488281 10.964844 16.488281 C 10.964844 16.488281 10.894531 16.027344 10.503906 15.941406 C 10.726562 15.800781 11.164062 15.632812 12.121094 16.210938 C 13.082031 16.789062 13.722656 16.375 13.910156 16.121094 C 14.101562 15.867188 14.144531 15.457031 14.144531 15.457031 C 14.238281 15.675781 14.289062 15.90625 14.296875 16.144531 C 13.253906 16.839844 13.292969 17.621094 13.292969 17.621094 C 13.292969 17.621094 13.261719 17.417969 13.078125 17.160156 C 12.773438 17.414062 12.78125 17.925781 12.820312 18.210938 L 12.824219 18.230469 C 12.820312 18.222656 12.816406 18.214844 12.816406 18.207031 C 12.722656 17.917969 12.617188 17.449219 12.75 17.136719 C 12.757812 17.117188 12.769531 17.09375 12.78125 17.074219 C 12.742188 17.085938 12.695312 17.097656 12.652344 17.105469 C 12.191406 17.195312 11.625 17.097656 11.625 17.097656 L 11.730469 17.257812 C 11.363281 17.09375 11.039062 16.699219 11.039062 16.699219 C 11.039062 16.699219 9.6875 17.53125 9.75 18.140625 C 9.8125 18.746094 10.285156 19.261719 10.285156 19.261719 C 10.285156 19.261719 10.273438 19.148438 10.238281 18.773438 C 10.472656 19.300781 10.65625 19.863281 10.667969 19.898438 C 10.765625 19.621094 10.851562 19.335938 10.917969 19.050781 C 10.992188 18.691406 10.847656 17.828125 10.847656 17.828125 C 10.847656 17.828125 11.257812 18.527344 11.949219 18.480469 C 11.496094 18.675781 11.085938 19.363281 11.085938 19.363281 C 11.085938 19.363281 11.109375 19.386719 12.363281 19.761719 L 12.335938 19.757812 C 12.105469 19.734375 11.042969 19.554688 11.042969 19.554688 L 11.222656 20.199219 L 12.878906 20.675781 C 12.316406 20.6875 11.28125 20.578125 11.28125 20.578125 L 11.488281 20.929688 L 13.183594 21.265625 C 12.617188 21.320312 12.054688 21.324219 11.488281 21.273438 C 11.746094 21.484375 12.015625 21.667969 12.304688 21.832031 C 12.253906 22.152344 12.203125 23.050781 13.003906 23.707031 C 13 22.910156 13.144531 22.332031 13.25 22.015625 C 13.796875 21.949219 14.511719 21.714844 14.429688 21.101562 C 14.335938 20.355469 13.652344 20.371094 12.964844 20.042969 C 12.28125 19.71875 12.644531 18.917969 12.644531 18.917969 C 12.652344 18.941406 12.8125 19.410156 12.957031 19.421875 C 13.105469 19.429688 13.371094 19.324219 13.574219 18.761719 C 13.894531 19.160156 14.621094 19.050781 14.621094 19.050781 C 14.621094 19.050781 15.347656 19.160156 15.667969 18.761719 C 15.871094 19.324219 16.132812 19.429688 16.28125 19.421875 C 16.429688 19.410156 16.597656 18.917969 16.597656 18.917969 C 16.597656 18.917969 16.960938 19.714844 16.277344 20.039062 C 15.59375 20.367188 14.910156 20.351562 14.8125 21.097656 C 14.734375 21.710938 15.445312 21.949219 15.992188 22.011719 C 16.097656 22.332031 16.242188 22.90625 16.238281 23.703125 C 17.039062 23.046875 16.988281 22.148438 16.941406 21.824219 C 17.226562 21.664062 17.5 21.476562 17.757812 21.269531 C 17.191406 21.320312 16.628906 21.316406 16.0625 21.257812 L 17.757812 20.925781 L 17.964844 20.574219 C 17.964844 20.574219 16.933594 20.683594 16.367188 20.671875 L 18.023438 20.195312 L 18.203125 19.550781 C 18.203125 19.550781 17.03125 19.75 16.878906 19.761719 C 18.132812 19.382812 18.160156 19.363281 18.160156 19.363281 C 18.160156 19.363281 17.75 18.671875 17.296875 18.480469 C 17.988281 18.527344 18.398438 17.824219 18.398438 17.824219 C 18.398438 17.824219 18.25 18.6875 18.328125 19.046875 C 18.394531 19.335938 18.476562 19.617188 18.574219 19.894531 C 18.574219 19.894531 18.761719 19.3125 19.007812 18.769531 C 18.96875 19.144531 18.960938 19.257812 18.960938 19.257812 C 18.960938 19.257812 19.433594 18.742188 19.492188 18.136719 C 19.554688 17.527344 18.203125 16.695312 18.203125 16.695312 C 18.203125 16.695312 17.878906 17.09375 17.515625 17.253906 L 17.621094 17.09375 C 17.621094 17.09375 16.941406 17.207031 16.464844 17.070312 C 16.648438 17.386719 16.519531 17.917969 16.421875 18.222656 C 16.460938 17.941406 16.480469 17.414062 16.164062 17.152344 C 15.984375 17.410156 15.953125 17.613281 15.953125 17.613281 C 15.953125 17.613281 15.992188 16.832031 14.949219 16.136719 C 14.957031 15.898438 15.007812 15.667969 15.101562 15.445312 C 15.101562 15.445312 15.144531 15.859375 15.332031 16.113281 C 15.519531 16.367188 16.164062 16.78125 17.125 16.203125 C 18.082031 15.625 18.519531 15.792969 18.742188 15.933594 C 18.351562 16.019531 18.28125 16.480469 18.28125 16.480469 C 18.28125 16.480469 18.703125 16.648438 19.015625 16.523438 C 19.332031 16.394531 19.222656 15.542969 19.117188 15.257812 C 18.832031 14.953125 18.472656 14.660156 18.085938 14.324219 C 18.519531 14.441406 19.300781 14.792969 19.820312 15.785156 C 19.789062 15.09375 19.527344 14.449219 19.5 14.382812 C 19.558594 14.5 20.488281 16.175781 21.949219 16.582031 Z M 14.621094 15.300781 C 14.621094 15.300781 14.128906 14.707031 14.027344 14.28125 C 14.203125 14.554688 14.621094 14.722656 14.621094 14.722656 C 14.621094 14.722656 15.039062 14.554688 15.21875 14.28125 C 15.117188 14.707031 14.621094 15.300781 14.621094 15.300781 Z M 14.621094 15.300781 " fill-opacity="1" fill-rule="nonzero"/><path fill="#ffffff" d="M 22.050781 14.675781 C 21.058594 14.230469 20.671875 13.304688 20.671875 13.304688 C 20.671875 13.304688 20.871094 14.472656 22.070312 15.261719 C 23.265625 16.054688 23.207031 17.148438 23.207031 17.148438 C 23.207031 17.148438 23.59375 15.738281 22.476562 14.613281 C 23.136719 15.101562 23.976562 15.394531 23.976562 15.394531 C 23.976562 15.394531 22.617188 14.402344 22.007812 13.171875 C 22.007812 13.171875 21.871094 13.972656 22.050781 14.675781 Z M 22.050781 14.675781 " fill-opacity="1" fill-rule="nonzero"/><path fill="#ffffff" d="M 22.238281 17.070312 C 22.238281 17.070312 23.050781 18.199219 22.875 19.316406 C 21.96875 17.046875 20.054688 16.808594 20.054688 16.808594 C 21.066406 17.515625 21.441406 18.347656 21.441406 18.347656 C 21.441406 18.347656 21 17.722656 19.996094 17.257812 C 21.296875 18.273438 21.277344 19.699219 21.277344 19.699219 C 21.277344 19.699219 20.773438 18.921875 20.027344 18.335938 C 21.195312 19.738281 21.019531 21.371094 21.019531 21.371094 C 21.019531 21.371094 20.679688 20.039062 20.015625 19.226562 C 20.730469 20.960938 20.128906 22.785156 20.128906 22.785156 C 20.128906 22.785156 20.097656 21.050781 19.496094 20.210938 C 19.898438 22.4375 18.957031 24.023438 18.957031 24.023438 C 18.957031 24.023438 18.957031 22.734375 19.285156 21.707031 C 17.59375 23.683594 17.816406 26.5625 17.816406 26.5625 C 17.816406 26.5625 17.683594 26.089844 17.476562 25.734375 C 17.988281 28.667969 17.058594 29.613281 17.058594 29.613281 C 17.058594 29.613281 18.105469 29.285156 18.078125 26.96875 C 18.054688 24.65625 18.710938 23.917969 18.710938 23.917969 C 18.039062 26.652344 19.25 29.257812 19.25 29.257812 C 19.25 29.257812 18.871094 26.613281 19.871094 24.789062 C 19.589844 26.09375 20.222656 26.917969 19.972656 28.507812 C 20.75 27.363281 20.261719 24.667969 20.777344 23.457031 C 20.632812 25.101562 21.210938 26.800781 21.210938 26.800781 C 21.210938 26.800781 21.210938 24.300781 21.855469 22.726562 C 22.289062 24.238281 21.695312 25.757812 21.695312 25.757812 C 21.695312 25.757812 22.65625 24.746094 22.484375 23.179688 C 22.316406 21.613281 22.566406 20.550781 22.566406 20.550781 C 22.566406 20.550781 22.605469 21.378906 23.316406 22.285156 C 22.800781 20.15625 23.300781 19.316406 23.300781 19.316406 C 23.722656 20.304688 23.84375 20.925781 23.84375 20.925781 C 23.976562 17.058594 22.238281 17.070312 22.238281 17.070312 Z M 22.238281 17.070312 " fill-opacity="1" fill-rule="nonzero"/><path fill="#ffffff" d="M 21.0625 12.40625 C 20.660156 12.507812 20.550781 12.585938 20.550781 12.585938 C 20.550781 12.585938 21.398438 12.5625 21.511719 13.691406 C 21.992188 12.539062 21.722656 12.148438 21.722656 12.148438 L 22.4375 12.359375 C 22.4375 12.359375 21.449219 11.050781 20.023438 11.453125 C 20.023438 11.453125 20.460938 10.605469 21.332031 10.40625 C 19.878906 10.125 18.558594 10.71875 19.332031 12.472656 C 19.332031 12.472656 20.191406 12.226562 21.0625 12.40625 Z M 21.0625 12.40625 " fill-opacity="1" fill-rule="nonzero"/><path fill="#ffffff" d="M 15.503906 24.492188 C 14.96875 24.414062 14.621094 24.457031 14.621094 24.457031 C 14.621094 24.457031 14.269531 24.414062 13.738281 24.492188 C 13.550781 24.226562 13.574219 24.015625 13.574219 24.015625 L 13.8125 24.203125 C 14.042969 24.179688 14.621094 24.175781 14.621094 24.175781 C 14.621094 24.175781 15.195312 24.179688 15.429688 24.203125 L 15.667969 24.015625 C 15.667969 24.015625 15.691406 24.226562 15.503906 24.492188 Z M 15.503906 24.492188 " fill-opacity="1" fill-rule="nonzero"/><path fill="#ffffff" d="M 17.003906 16.519531 L 16.335938 16.726562 C 16.335938 16.726562 16.84375 17.027344 17.300781 16.914062 C 17.757812 16.804688 18.046875 16.195312 18.046875 16.195312 L 17.234375 16.445312 L 17.234375 16.734375 Z M 17.003906 16.519531 " fill-opacity="1" fill-rule="nonzero"/><path fill="#ffffff" d="M 16.617188 28.589844 C 16.617188 28.589844 16.65625 27.9375 16.527344 27.5 C 16.382812 28.109375 15.742188 29.082031 15.742188 29.082031 C 15.84375 28.691406 15.738281 28.144531 15.738281 28.144531 C 15.648438 28.816406 15.449219 29.453125 15.144531 30.054688 C 16.234375 29.308594 16.425781 28.234375 16.425781 28.234375 C 16.425781 28.234375 16.5 29.105469 16.003906 29.84375 C 17.113281 29.128906 16.894531 27.390625 16.894531 27.390625 C 16.8125 28.238281 16.617188 28.589844 16.617188 28.589844 Z M 16.617188 28.589844 " fill-opacity="1" fill-rule="nonzero"/><path fill="#ffffff" d="M 16.335938 9.851562 C 15.8125 10.121094 15.617188 10.546875 15.617188 10.546875 C 15.617188 10.546875 16.214844 10.226562 17.191406 10.011719 C 16.582031 10.621094 16.292969 11.042969 16.292969 11.042969 C 16.292969 11.042969 17.152344 10.453125 18.097656 10.214844 C 19.042969 9.976562 19.066406 9.296875 19.066406 9.296875 C 19.066406 9.296875 18.589844 9.679688 17.558594 9.628906 L 18.015625 9.355469 C 18.015625 9.355469 16.488281 9.164062 15.578125 9.605469 C 16.007812 9.175781 16.105469 9.007812 16.105469 9.007812 C 16.105469 9.007812 14.648438 9.421875 14.621094 10.914062 C 14.621094 10.914062 15.324219 9.863281 16.335938 9.851562 Z M 16.335938 9.851562 " fill-opacity="1" fill-rule="nonzero"/><path fill="#ffffff" d="M 21.058594 4.351562 L 18.160156 5.554688 L 18.777344 6.925781 L 17.15625 7.671875 L 15.226562 6.652344 L 16.464844 5.449219 L 14.625 2.785156 L 12.78125 5.449219 L 14.019531 6.652344 L 12.085938 7.671875 L 10.464844 6.925781 L 11.085938 5.554688 L 8.183594 4.351562 L 8.6875 5.488281 L 9.804688 6.039062 L 9.28125 6.839844 L 10.171875 8.855469 L 10.226562 8.855469 C 11.351562 8.273438 12.90625 7.910156 14.621094 7.910156 C 16.339844 7.910156 17.890625 8.273438 19.015625 8.855469 L 19.070312 8.855469 L 19.960938 6.839844 L 19.4375 6.039062 L 20.558594 5.488281 Z M 13.964844 5.136719 L 14.621094 4.230469 L 15.277344 5.136719 L 14.621094 5.675781 Z M 13.964844 5.136719 " fill-opacity="1" fill-rule="nonzero"/><path fill="#a6a6a6" d="M 9.992188 29.257812 C 10.003906 29.1875 10.359375 26.589844 9.375 24.789062 C 9.652344 26.09375 9.019531 26.917969 9.269531 28.507812 C 8.492188 27.363281 8.980469 24.667969 8.46875 23.457031 C 8.613281 25.101562 8.03125 26.800781 8.03125 26.800781 C 8.03125 26.800781 8.03125 24.300781 7.386719 22.726562 C 6.960938 24.214844 7.53125 25.71875 7.546875 25.757812 C 7.519531 25.730469 6.589844 24.726562 6.757812 23.179688 C 6.929688 21.617188 6.679688 20.550781 6.679688 20.550781 C 6.679688 20.550781 6.640625 21.378906 5.929688 22.285156 C 6.441406 20.15625 5.941406 19.316406 5.941406 19.316406 C 5.519531 20.304688 5.402344 20.925781 5.402344 20.925781 C 5.265625 17.058594 7.007812 17.070312 7.007812 17.070312 C 7.007812 17.070312 6.007812 17.339844 5.726562 19.175781 C 5.855469 19 5.957031 18.8125 6.03125 18.613281 C 6.03125 18.613281 6.542969 20.191406 6.285156 21.28125 C 6.476562 20.8125 6.605469 20.328125 6.671875 19.828125 C 6.671875 19.828125 7.382812 20.96875 7.105469 22.515625 C 7.257812 22.234375 7.359375 21.933594 7.402344 21.613281 C 7.402344 21.613281 8.347656 23.351562 8.136719 25.1875 C 8.40625 24.125 8.265625 22.726562 8.265625 22.726562 C 8.265625 22.726562 9.046875 23.410156 8.972656 25.425781 C 9.148438 24.894531 9.222656 24.347656 9.199219 23.789062 C 9.199219 23.789062 10.5 25.488281 10.324219 27.332031 C 10.667969 26.722656 10.683594 24.839844 10.535156 23.917969 C 11.195312 26.617188 10.027344 29.1875 9.992188 29.257812 Z M 9.992188 29.257812 " fill-opacity="1" fill-rule="nonzero"/><path fill="#a6a6a6" d="M 7.96875 19.699219 C 7.917969 19.511719 7.957031 18.976562 8.117188 18.3125 C 7.652344 18.671875 7.292969 19.226562 7.292969 19.226562 C 7.582031 17.378906 9.140625 16.828125 9.1875 16.808594 C 8.207031 17.496094 7.824219 18.296875 7.804688 18.34375 C 7.835938 18.300781 8.28125 17.703125 9.246094 17.261719 C 7.945312 18.273438 7.96875 19.699219 7.96875 19.699219 Z M 7.96875 19.699219 " fill-opacity="1" fill-rule="nonzero"/><path fill="#737373" d="M 9.113281 22.785156 C 9.113281 22.785156 9.121094 22.519531 9.160156 22.148438 C 9.132812 22.527344 9.113281 22.785156 9.113281 22.785156 Z M 9.113281 22.785156 " fill-opacity="1" fill-rule="nonzero"/><path fill="#a6a6a6" d="M 9.113281 22.785156 C 9.101562 22.761719 8.632812 22.089844 8.613281 20.96875 C 8.363281 21.515625 8.15625 22.40625 8.15625 22.40625 C 7.53125 19.90625 9.128906 18.414062 9.214844 18.339844 L 9.214844 18.335938 C 8.046875 19.742188 8.222656 21.371094 8.222656 21.371094 C 8.222656 21.371094 8.5625 20.035156 9.226562 19.226562 C 8.515625 20.941406 9.101562 22.75 9.113281 22.785156 Z M 9.113281 22.785156 " fill-opacity="1" fill-rule="nonzero"/><path fill="#a6a6a6" d="M 15.664062 27.484375 C 15.988281 26.984375 15.871094 26.289062 15.871094 26.289062 C 15.871094 26.289062 15.769531 27.761719 14.625 27.761719 C 13.480469 27.761719 13.378906 26.289062 13.378906 26.289062 C 13.378906 26.289062 13.261719 26.984375 13.585938 27.484375 C 11.484375 26.804688 12.28125 24.898438 12.28125 24.898438 C 12.28125 24.898438 12.234375 26.3125 13.128906 27 C 13.082031 25.910156 13.300781 25.367188 13.300781 25.367188 C 13.300781 25.367188 13.273438 26.539062 14.625 26.539062 C 15.972656 26.539062 15.949219 25.367188 15.949219 25.367188 C 15.949219 25.367188 16.164062 25.910156 16.121094 27 C 17.011719 26.3125 16.96875 24.898438 16.96875 24.898438 C 16.96875 24.898438 17.757812 26.804688 15.664062 27.484375 Z M 15.664062 27.484375 " fill-opacity="1" fill-rule="nonzero"/><g mask="url(#44c20f7b2f)"><g transform="matrix(1, 0, 0, 1, 13, 23)"><g clip-path="url(#14d6b3f485)"><g clip-path="url(#5550bd366b)"><path fill="#172029" d="M 1.621094 1.316406 L 1.621094 1.457031 C 1.621094 1.457031 1.273438 1.414062 0.738281 1.492188 C 0.550781 1.226562 0.574219 1.015625 0.574219 1.015625 C 0.574219 1.015625 0.671875 1.261719 0.804688 1.363281 C 0.90625 1.308594 1.621094 1.316406 1.621094 1.316406 Z M 1.621094 1.316406 " fill-opacity="1" fill-rule="nonzero"/></g></g></g></g><g mask="url(#b8c0dc8a37)"><g transform="matrix(1, 0, 0, 1, 13, 22)"><g clip-path="url(#3391c58d95)"><g clip-path="url(#5156417610)"><path fill="#172029" d="M 1.621094 0.234375 L 1.621094 0.34375 C 1.621094 0.34375 0.992188 0.386719 0.660156 0.328125 C 0.621094 0.589844 0.65625 0.71875 0.660156 0.726562 C 0.652344 0.71875 0.496094 0.574219 0.550781 0.222656 C 0.550781 0.222656 0.796875 0.320312 1.621094 0.234375 Z M 1.621094 0.234375 " fill-opacity="1" fill-rule="nonzero"/></g></g></g></g><g mask="url(#5c2fea5789)"><g transform="matrix(1, 0, 0, 1, 10, 19)"><g clip-path="url(#aaffee856f)"><g clip-path="url(#7077c56585)"><path fill="#172029" d="M 3 4.703125 C 2.199219 4.050781 2.25 3.148438 2.300781 2.828125 C 2.011719 2.664062 1.738281 2.480469 1.484375 2.269531 C 2.046875 2.320312 2.613281 2.316406 3.175781 2.261719 L 1.484375 1.925781 L 1.273438 1.574219 C 1.273438 1.574219 2.308594 1.683594 2.871094 1.671875 L 1.21875 1.195312 L 1.035156 0.550781 C 1.035156 0.550781 2.101562 0.730469 2.332031 0.757812 L 1.273438 0.800781 L 1.742188 1.105469 L 3.570312 1.734375 L 2.125 1.847656 L 3.746094 2.214844 C 3.746094 2.214844 3.53125 2.347656 2.609375 2.660156 C 2.203125 3.828125 2.964844 4.664062 3 4.703125 Z M 3 4.703125 " fill-opacity="1" fill-rule="nonzero"/></g></g></g></g><g mask="url(#fa1ed0ac69)"><g transform="matrix(1, 0, 0, 1, 9, 16)"><g clip-path="url(#5940df56f2)"><g clip-path="url(#86cf564eaa)"><path fill="#172029" d="M 3.527344 1.46875 C 3.4375 1.441406 2.855469 1.246094 2.855469 1.246094 C 2.855469 1.246094 2.871094 1.324219 2.996094 1.59375 C 2.652344 1.386719 2.332031 1.148438 2.039062 0.875 C 2.039062 0.875 1.445312 1.257812 1.199219 1.648438 C 0.957031 2.042969 1.160156 2.515625 1.160156 2.515625 L 1.238281 2.148438 C 1.535156 2.816406 1.660156 3.847656 1.664062 3.894531 C 1.65625 3.859375 1.472656 3.296875 1.234375 2.769531 C 1.269531 3.144531 1.28125 3.257812 1.28125 3.257812 C 1.28125 3.257812 0.808594 2.746094 0.746094 2.136719 C 0.6875 1.527344 2.035156 0.695312 2.035156 0.695312 C 2.035156 0.695312 2.359375 1.09375 2.726562 1.253906 L 2.621094 1.09375 C 2.621094 1.09375 3.300781 1.207031 3.777344 1.070312 C 3.597656 1.378906 3.714844 1.890625 3.8125 2.199219 C 3.785156 2.171875 3.640625 2 3.527344 1.46875 Z M 3.527344 1.46875 " fill-opacity="1" fill-rule="nonzero"/></g></g></g></g><g mask="url(#5e5cd995b1)"><g transform="matrix(1, 0, 0, 1, 12, 17)"><g clip-path="url(#6d8409fa77)"><g clip-path="url(#c1e5630aca)"><path fill="#172029" d="M 2.621094 1.78125 L 2.621094 2.054688 C 2.621094 2.054688 1.894531 2.160156 1.574219 1.765625 C 1.371094 2.324219 1.109375 2.433594 0.960938 2.421875 C 0.808594 2.410156 0.652344 1.945312 0.644531 1.921875 C 0.652344 1.9375 0.820312 2.222656 1.101562 2.148438 C 1.390625 2.070312 1.539062 1.109375 1.539062 1.109375 C 1.539062 1.109375 1.742188 1.726562 2.621094 1.78125 Z M 2.621094 1.78125 " fill-opacity="1" fill-rule="nonzero"/></g></g></g></g><path fill="#a6a6a6" d="M 11.195312 16.195312 L 12.007812 16.445312 L 12.007812 16.699219 C 11.699219 16.542969 11.214844 16.207031 11.195312 16.195312 Z M 11.195312 16.195312 " fill-opacity="1" fill-rule="nonzero"/><path fill="#a6a6a6" d="M 12.90625 16.726562 C 12.886719 16.730469 12.421875 16.828125 12.183594 16.769531 C 12.132812 16.753906 12.082031 16.734375 12.03125 16.710938 L 12.238281 16.519531 Z M 12.90625 16.726562 " fill-opacity="1" fill-rule="nonzero"/><path fill="#a6a6a6" d="M 12.648438 17.101562 C 12.691406 17.09375 12.734375 17.082031 12.777344 17.070312 C 12.765625 17.089844 12.753906 17.113281 12.746094 17.132812 Z M 12.648438 17.101562 " fill-opacity="1" fill-rule="nonzero"/><g mask="url(#bfbce8446d)"><g transform="matrix(1, 0, 0, 1, 9, 14)"><g clip-path="url(#248272a02a)"><g clip-path="url(#09c9ef28c4)"><path fill="#172029" d="M 5.140625 1.449219 C 5.140625 1.449219 5.097656 1.859375 4.910156 2.113281 C 4.722656 2.367188 4.074219 2.78125 3.117188 2.203125 C 2.164062 1.625 1.722656 1.792969 1.5 1.9375 C 1.890625 2.023438 1.960938 2.484375 1.960938 2.484375 C 1.960938 2.484375 1.539062 2.652344 1.226562 2.523438 C 1.191406 2.507812 1.164062 2.488281 1.140625 2.460938 L 1.136719 2.457031 C 1.136719 2.457031 1.117188 1.734375 1.433594 1.300781 C 1.75 0.867188 2.945312 0.367188 2.945312 0.367188 C 2.957031 0.996094 3.230469 1.476562 3.761719 1.8125 C 3.378906 1.730469 3.023438 1.585938 2.691406 1.378906 C 3.324219 2.222656 4.566406 2.707031 5.140625 1.449219 Z M 5.140625 1.449219 " fill-opacity="1" fill-rule="nonzero"/></g></g></g></g><g mask="url(#b82467ec09)"><g transform="matrix(1, 0, 0, 1, 7, 13)"><g clip-path="url(#f9a4e39e2e)"><g clip-path="url(#018f0aa147)"><path fill="#172029" d="M 5.203125 0.3125 C 4.570312 0.453125 3.558594 0.929688 2.707031 1.933594 C 2.699219 1.539062 2.945312 0.859375 2.953125 0.839844 C 2.933594 0.847656 2.449219 1.121094 1.789062 2.160156 C 1.128906 3.195312 0.320312 3.566406 0.296875 3.582031 C 1.371094 2.566406 1.25 0.417969 3.691406 0.476562 C 3.195312 0.808594 2.949219 1.492188 2.933594 1.539062 C 2.972656 1.484375 3.761719 0.414062 5.203125 0.3125 Z M 5.203125 0.3125 " fill-opacity="1" fill-rule="nonzero"/></g></g></g></g><g mask="url(#71fe102b9e)"><g transform="matrix(1, 0, 0, 1, 10, 11)"><g clip-path="url(#500aff930d)"><g clip-path="url(#9a0e09f649)"><path fill="#172029" d="M 1.339844 1.292969 C 1.339844 1.292969 1 1.3125 0.5 1.085938 C 0.433594 1.578125 0.679688 1.832031 0.679688 1.832031 C 1.003906 2.316406 2.132812 2.113281 2.183594 2.101562 C 2.113281 2.125 -0.671875 3.019531 0.519531 0.320312 C 0.378906 1.027344 1.3125 1.285156 1.339844 1.292969 Z M 1.339844 1.292969 " fill-opacity="1" fill-rule="nonzero"/></g></g></g></g><g mask="url(#f7b0b97987)"><g transform="matrix(1, 0, 0, 1, 10, 10)"><g clip-path="url(#bc3846cf55)"><g clip-path="url(#b5b5a5d3db)"><path fill="#172029" d="M 4.074219 2.792969 C 4.054688 2.761719 3.714844 2.210938 2.710938 1.765625 C 1.675781 1.304688 1.527344 1.027344 1.527344 1.027344 C 1.179688 1.535156 1.339844 2.292969 1.339844 2.292969 C 1.3125 2.273438 0.636719 1.78125 1.460938 0.546875 C 1.609375 1.378906 3.570312 1.367188 4.074219 2.792969 Z M 4.074219 2.792969 " fill-opacity="1" fill-rule="nonzero"/></g></g></g></g><g mask="url(#48f3fd68f7)"><g transform="matrix(1, 0, 0, 1, 13, 10)"><g clip-path="url(#bcdf429027)"><g clip-path="url(#0623850e12)"><path fill="#172029" d="M 0.785156 1.265625 C 1.230469 2.007812 1.074219 2.796875 1.074219 2.796875 C 1.140625 1.742188 0.234375 0.796875 0.234375 0.796875 C 0.234375 0.796875 1.316406 1.085938 1.621094 2.222656 C 1.621094 2.222656 1.621094 2.222656 1.621094 2.226562 C 1.605469 2.199219 1.230469 1.519531 0.785156 1.265625 Z M 0.785156 1.265625 " fill-opacity="1" fill-rule="nonzero"/></g></g></g></g><path fill="#a6a6a6" d="M 13.003906 29.386719 C 13.0625 29.546875 13.144531 29.699219 13.238281 29.84375 C 12.792969 29.554688 12.5625 29.101562 12.445312 28.660156 C 12.582031 28.847656 12.824219 29.167969 13.003906 29.386719 Z M 13.003906 29.386719 " fill-opacity="1" fill-rule="nonzero"/><path fill="#a6a6a6" d="M 14.097656 30.054688 C 13.042969 29.332031 12.832031 28.300781 12.820312 28.234375 C 12.820312 28.234375 13.15625 29.019531 13.742188 29.550781 C 13.648438 29.128906 13.574219 28.703125 13.523438 28.273438 C 13.625 28.894531 13.816406 29.488281 14.097656 30.054688 Z M 14.097656 30.054688 " fill-opacity="1" fill-rule="nonzero"/><path fill="#a6a6a6" d="M 6.035156 17.148438 C 6.035156 17.148438 5.652344 15.738281 6.765625 14.613281 C 6.117188 15.089844 5.292969 15.382812 5.265625 15.390625 C 5.304688 15.363281 6.632812 14.378906 7.234375 13.171875 C 7.054688 14.628906 6.867188 14.992188 6.867188 14.992188 L 7.292969 14.90625 C 5.835938 15.566406 6.035156 17.148438 6.035156 17.148438 Z M 6.035156 17.148438 " fill-opacity="1" fill-rule="nonzero"/><path fill="#a6a6a6" d="M 9.511719 12.078125 C 8.210938 11.828125 7.617188 12.519531 7.617188 12.519531 C 7.78125 12.515625 7.9375 12.535156 8.097656 12.570312 C 7.585938 12.816406 7.726562 13.652344 7.730469 13.691406 C 7.25 12.539062 7.519531 12.148438 7.519531 12.148438 L 6.804688 12.359375 C 6.804688 12.359375 7.792969 11.050781 9.21875 11.453125 C 9.21875 11.453125 8.78125 10.605469 7.910156 10.402344 C 9.242188 10.234375 9.753906 11.1875 9.511719 12.078125 Z M 9.511719 12.078125 " fill-opacity="1" fill-rule="nonzero"/><path fill="#a6a6a6" d="M 11.277344 9.769531 L 12.015625 10.238281 L 11.257812 9.996094 C 10.496094 9.757812 10.175781 9.296875 10.175781 9.296875 C 10.175781 9.296875 10.652344 9.679688 11.683594 9.628906 L 11.226562 9.355469 C 11.226562 9.355469 12.144531 9.460938 12.820312 10.027344 C 12.234375 9.734375 11.277344 9.769531 11.277344 9.769531 Z M 11.277344 9.769531 " fill-opacity="1" fill-rule="nonzero"/><path fill="#a6a6a6" d="M 19.246094 29.257812 C 19.238281 29.1875 18.878906 26.589844 19.867188 24.789062 C 19.589844 26.09375 20.21875 26.917969 19.96875 28.507812 C 20.746094 27.363281 20.261719 24.667969 20.773438 23.457031 C 20.628906 25.101562 21.207031 26.800781 21.207031 26.800781 C 21.207031 26.800781 21.207031 24.300781 21.851562 22.726562 C 22.28125 24.214844 21.710938 25.71875 21.691406 25.757812 C 21.71875 25.730469 22.652344 24.726562 22.480469 23.179688 C 22.308594 21.617188 22.5625 20.550781 22.5625 20.550781 C 22.5625 20.550781 22.601562 21.378906 23.3125 22.285156 C 22.796875 20.15625 23.296875 19.316406 23.296875 19.316406 C 23.71875 20.304688 23.839844 20.925781 23.839844 20.925781 C 23.972656 17.058594 22.234375 17.070312 22.234375 17.070312 C 22.234375 17.070312 23.234375 17.339844 23.511719 19.175781 C 23.382812 19 23.28125 18.8125 23.210938 18.613281 C 23.210938 18.613281 22.695312 20.191406 22.957031 21.28125 C 22.765625 20.8125 22.636719 20.328125 22.566406 19.828125 C 22.566406 19.828125 21.859375 20.96875 22.136719 22.515625 C 21.984375 22.234375 21.882812 21.933594 21.839844 21.613281 C 21.839844 21.613281 20.894531 23.351562 21.105469 25.1875 C 20.835938 24.125 20.976562 22.726562 20.976562 22.726562 C 20.976562 22.726562 20.191406 23.410156 20.269531 25.425781 C 20.09375 24.894531 20.019531 24.347656 20.042969 23.789062 C 20.042969 23.789062 18.738281 25.488281 18.917969 27.332031 C 18.574219 26.722656 18.558594 24.839844 18.707031 23.917969 C 18.046875 26.617188 19.214844 29.1875 19.246094 29.257812 Z M 19.246094 29.257812 " fill-opacity="1" fill-rule="nonzero"/><path fill="#a6a6a6" d="M 21.273438 19.699219 C 21.320312 19.511719 21.285156 18.976562 21.125 18.3125 C 21.585938 18.671875 21.945312 19.226562 21.945312 19.226562 C 21.65625 17.378906 20.101562 16.828125 20.050781 16.808594 C 21.03125 17.496094 21.414062 18.296875 21.4375 18.34375 C 21.40625 18.300781 20.960938 17.703125 19.992188 17.261719 C 21.292969 18.273438 21.273438 19.699219 21.273438 19.699219 Z M 21.273438 19.699219 " fill-opacity="1" fill-rule="nonzero"/><path fill="#737373" d="M 20.125 22.785156 C 20.125 22.785156 20.121094 22.519531 20.078125 22.148438 C 20.105469 22.527344 20.125 22.785156 20.125 22.785156 Z M 20.125 22.785156 " fill-opacity="1" fill-rule="nonzero"/><path fill="#a6a6a6" d="M 20.125 22.785156 C 20.140625 22.761719 20.605469 22.089844 20.625 20.96875 C 20.878906 21.515625 21.085938 22.40625 21.085938 22.40625 C 21.710938 19.90625 20.109375 18.414062 20.027344 18.339844 L 20.023438 18.335938 C 21.191406 19.742188 21.015625 21.371094 21.015625 21.371094 C 21.015625 21.371094 20.679688 20.039062 20.011719 19.226562 C 20.722656 20.941406 20.136719 22.75 20.125 22.785156 Z M 20.125 22.785156 " fill-opacity="1" fill-rule="nonzero"/><path fill="#a6a6a6" d="M 13.578125 27.484375 C 13.253906 26.984375 13.371094 26.289062 13.371094 26.289062 C 13.371094 26.289062 13.472656 27.761719 14.617188 27.761719 C 15.761719 27.761719 15.863281 26.289062 15.863281 26.289062 C 15.863281 26.289062 15.980469 26.984375 15.65625 27.484375 C 17.753906 26.804688 16.960938 24.898438 16.960938 24.898438 C 16.960938 24.898438 17.007812 26.3125 16.113281 27 C 16.160156 25.910156 15.941406 25.367188 15.941406 25.367188 C 15.941406 25.367188 15.96875 26.539062 14.617188 26.539062 C 13.269531 26.539062 13.292969 25.367188 13.292969 25.367188 C 13.292969 25.367188 13.074219 25.910156 13.121094 27 C 12.226562 26.3125 12.273438 24.898438 12.273438 24.898438 C 12.273438 24.898438 11.480469 26.804688 13.578125 27.484375 Z M 13.578125 27.484375 " fill-opacity="1" fill-rule="nonzero"/><g mask="url(#d5fadc39f8)"><g transform="matrix(1, 0, 0, 1, 14, 23)"><g clip-path="url(#28c28d22b7)"><g clip-path="url(#5cd2dd28b0)"><path fill="#172029" d="M 0.617188 1.316406 L 0.617188 1.457031 C 0.617188 1.457031 0.96875 1.414062 1.5 1.492188 C 1.6875 1.226562 1.664062 1.015625 1.664062 1.015625 C 1.664062 1.015625 1.570312 1.261719 1.433594 1.363281 C 1.332031 1.308594 0.617188 1.316406 0.617188 1.316406 Z M 0.617188 1.316406 " fill-opacity="1" fill-rule="nonzero"/></g></g></g></g><g mask="url(#4a15b0d60b)"><g transform="matrix(1, 0, 0, 1, 14, 22)"><g clip-path="url(#8aec4a5249)"><g clip-path="url(#d13a7e0716)"><path fill="#172029" d="M 0.617188 0.234375 L 0.617188 0.34375 C 0.617188 0.34375 1.246094 0.386719 1.578125 0.328125 C 1.621094 0.589844 1.582031 0.71875 1.578125 0.726562 C 1.589844 0.71875 1.742188 0.574219 1.6875 0.222656 C 1.6875 0.222656 1.441406 0.320312 0.617188 0.234375 Z M 0.617188 0.234375 " fill-opacity="1" fill-rule="nonzero"/></g></g></g></g><path fill="#a6a6a6" d="M 16.238281 23.703125 C 17.039062 23.050781 16.988281 22.148438 16.9375 21.828125 C 17.226562 21.664062 17.5 21.480469 17.753906 21.269531 C 17.191406 21.320312 16.625 21.316406 16.0625 21.261719 L 17.753906 20.925781 L 17.964844 20.574219 C 17.964844 20.574219 16.929688 20.683594 16.367188 20.671875 L 18.019531 20.195312 L 18.203125 19.550781 C 18.203125 19.550781 17.136719 19.730469 16.90625 19.757812 L 16.902344 19.757812 L 17.964844 19.800781 L 17.492188 20.105469 L 15.667969 20.734375 L 17.109375 20.847656 L 15.492188 21.214844 C 15.492188 21.214844 15.707031 21.347656 16.628906 21.660156 C 17.039062 22.828125 16.273438 23.664062 16.238281 23.703125 Z M 16.238281 23.703125 " fill-opacity="1" fill-rule="nonzero"/><path fill="#a6a6a6" d="M 16.710938 17.46875 C 16.804688 17.441406 17.382812 17.246094 17.382812 17.246094 C 17.382812 17.246094 17.367188 17.324219 17.242188 17.59375 C 17.589844 17.386719 17.90625 17.148438 18.203125 16.875 C 18.203125 16.875 18.792969 17.257812 19.039062 17.648438 C 19.285156 18.042969 19.078125 18.515625 19.078125 18.515625 L 19.003906 18.148438 C 18.703125 18.816406 18.578125 19.847656 18.574219 19.894531 C 18.585938 19.859375 18.769531 19.296875 19.003906 18.769531 C 18.96875 19.144531 18.960938 19.257812 18.960938 19.257812 C 18.960938 19.257812 19.429688 18.746094 19.492188 18.136719 C 19.550781 17.527344 18.203125 16.695312 18.203125 16.695312 C 18.203125 16.695312 17.878906 17.09375 17.511719 17.253906 L 17.621094 17.09375 C 17.621094 17.09375 16.941406 17.207031 16.464844 17.070312 C 16.640625 17.378906 16.527344 17.890625 16.429688 18.199219 C 16.457031 18.171875 16.601562 18 16.710938 17.46875 Z M 16.710938 17.46875 " fill-opacity="1" fill-rule="nonzero"/><g mask="url(#55ca3cdae8)"><g transform="matrix(1, 0, 0, 1, 14, 17)"><g clip-path="url(#ad3691ea55)"><g clip-path="url(#96fff90b62)"><path fill="#172029" d="M 0.617188 1.78125 L 0.617188 2.054688 C 0.617188 2.054688 1.34375 2.160156 1.664062 1.765625 C 1.867188 2.328125 2.128906 2.433594 2.28125 2.421875 C 2.429688 2.414062 2.585938 1.945312 2.59375 1.921875 C 2.585938 1.9375 2.421875 2.226562 2.140625 2.148438 C 1.851562 2.074219 1.703125 1.113281 1.703125 1.113281 C 1.703125 1.113281 1.5 1.726562 0.617188 1.78125 Z M 0.617188 1.78125 " fill-opacity="1" fill-rule="nonzero"/></g></g></g></g><path fill="#a6a6a6" d="M 18.046875 16.195312 L 17.234375 16.445312 L 17.234375 16.699219 C 17.542969 16.542969 18.027344 16.207031 18.046875 16.195312 Z M 18.046875 16.195312 " fill-opacity="1" fill-rule="nonzero"/><path fill="#a6a6a6" d="M 16.332031 16.726562 C 16.355469 16.730469 16.820312 16.828125 17.054688 16.769531 C 17.109375 16.753906 17.160156 16.734375 17.207031 16.710938 L 17 16.519531 Z M 16.332031 16.726562 " fill-opacity="1" fill-rule="nonzero"/><path fill="#a6a6a6" d="M 16.589844 17.101562 C 16.546875 17.09375 16.503906 17.082031 16.460938 17.070312 C 16.472656 17.089844 16.484375 17.113281 16.492188 17.132812 Z M 16.589844 17.101562 " fill-opacity="1" fill-rule="nonzero"/><path fill="#a6a6a6" d="M 15.097656 15.449219 C 15.097656 15.449219 15.144531 15.859375 15.332031 16.113281 C 15.519531 16.367188 16.164062 16.78125 17.121094 16.203125 C 18.078125 15.625 18.515625 15.792969 18.738281 15.9375 C 18.347656 16.023438 18.277344 16.484375 18.277344 16.484375 C 18.277344 16.484375 18.699219 16.652344 19.011719 16.523438 C 19.046875 16.507812 19.074219 16.488281 19.097656 16.460938 L 19.101562 16.457031 C 19.101562 16.457031 19.121094 15.734375 18.804688 15.300781 C 18.488281 14.867188 17.292969 14.367188 17.292969 14.367188 C 17.28125 14.996094 17.007812 15.476562 16.476562 15.808594 C 16.859375 15.730469 17.214844 15.585938 17.546875 15.378906 C 16.914062 16.222656 15.671875 16.707031 15.097656 15.449219 Z M 15.097656 15.449219 " fill-opacity="1" fill-rule="nonzero"/><path fill="#a6a6a6" d="M 17.039062 13.3125 C 17.667969 13.453125 18.679688 13.929688 19.535156 14.933594 C 19.539062 14.539062 19.296875 13.859375 19.289062 13.839844 C 19.304688 13.847656 19.792969 14.121094 20.453125 15.160156 C 21.109375 16.195312 21.921875 16.566406 21.945312 16.578125 C 20.871094 15.5625 20.992188 13.414062 18.546875 13.476562 C 19.046875 13.808594 19.289062 14.492188 19.304688 14.539062 C 19.265625 14.484375 18.476562 13.414062 17.039062 13.3125 Z M 17.039062 13.3125 " fill-opacity="1" fill-rule="nonzero"/><path fill="#a6a6a6" d="M 17.902344 12.292969 C 17.902344 12.292969 18.238281 12.3125 18.742188 12.085938 C 18.804688 12.578125 18.558594 12.832031 18.558594 12.832031 C 18.238281 13.316406 17.105469 13.113281 17.058594 13.101562 C 17.128906 13.125 19.910156 14.019531 18.722656 11.320312 C 18.859375 12.027344 17.925781 12.285156 17.902344 12.292969 Z M 17.902344 12.292969 " fill-opacity="1" fill-rule="nonzero"/><path fill="#a6a6a6" d="M 15.164062 12.792969 C 15.1875 12.761719 15.523438 12.210938 16.527344 11.765625 C 17.5625 11.304688 17.714844 11.027344 17.714844 11.027344 C 18.0625 11.535156 17.902344 12.292969 17.902344 12.292969 C 17.929688 12.273438 18.601562 11.78125 17.777344 10.546875 C 17.628906 11.378906 15.671875 11.367188 15.164062 12.792969 Z M 15.164062 12.792969 " fill-opacity="1" fill-rule="nonzero"/><path fill="#a6a6a6" d="M 15.457031 11.265625 C 15.011719 12.007812 15.164062 12.796875 15.164062 12.796875 C 15.101562 11.742188 16.003906 10.796875 16.003906 10.796875 C 16.003906 10.796875 14.921875 11.085938 14.621094 12.222656 C 14.617188 12.222656 14.617188 12.222656 14.621094 12.226562 C 14.632812 12.199219 15.011719 11.519531 15.457031 11.265625 Z M 15.457031 11.265625 " fill-opacity="1" fill-rule="nonzero"/><path fill="#a6a6a6" d="M 16.238281 29.386719 C 16.175781 29.546875 16.097656 29.699219 16 29.84375 C 16.449219 29.554688 16.679688 29.101562 16.796875 28.660156 C 16.65625 28.847656 16.417969 29.167969 16.238281 29.386719 Z M 16.238281 29.386719 " fill-opacity="1" fill-rule="nonzero"/><path fill="#a6a6a6" d="M 15.140625 30.054688 C 16.195312 29.332031 16.410156 28.300781 16.421875 28.234375 C 16.421875 28.234375 16.082031 29.019531 15.496094 29.550781 C 15.59375 29.128906 15.667969 28.703125 15.71875 28.273438 C 15.617188 28.894531 15.425781 29.488281 15.140625 30.054688 Z M 15.140625 30.054688 " fill-opacity="1" fill-rule="nonzero"/><path fill="#a6a6a6" d="M 23.203125 17.148438 C 23.203125 17.148438 23.589844 15.738281 22.472656 14.613281 C 23.121094 15.089844 23.949219 15.382812 23.972656 15.390625 C 23.933594 15.363281 22.605469 14.378906 22.007812 13.171875 C 22.183594 14.628906 22.371094 14.992188 22.371094 14.992188 L 21.945312 14.90625 C 23.40625 15.566406 23.203125 17.148438 23.203125 17.148438 Z M 23.203125 17.148438 " fill-opacity="1" fill-rule="nonzero"/><path fill="#a6a6a6" d="M 19.726562 12.078125 C 21.027344 11.828125 21.621094 12.519531 21.621094 12.519531 C 21.460938 12.515625 21.300781 12.535156 21.144531 12.570312 C 21.65625 12.816406 21.515625 13.652344 21.507812 13.691406 C 21.988281 12.539062 21.722656 12.148438 21.722656 12.148438 L 22.4375 12.359375 C 22.4375 12.359375 21.445312 11.050781 20.023438 11.457031 C 20.023438 11.457031 20.460938 10.605469 21.332031 10.40625 C 19.996094 10.234375 19.488281 11.1875 19.726562 12.078125 Z M 19.726562 12.078125 " fill-opacity="1" fill-rule="nonzero"/><path fill="#a6a6a6" d="M 17.964844 9.769531 L 17.226562 10.238281 L 17.984375 9.996094 C 18.746094 9.757812 19.066406 9.296875 19.066406 9.296875 C 19.066406 9.296875 18.589844 9.679688 17.558594 9.628906 L 18.015625 9.355469 C 18.015625 9.355469 17.09375 9.460938 16.417969 10.027344 C 17.007812 9.734375 17.964844 9.769531 17.964844 9.769531 Z M 17.964844 9.769531 " fill-opacity="1" fill-rule="nonzero"/><path fill="#a6a6a6" d="M 14.621094 6.035156 L 14.621094 7.410156 C 11.308594 7.667969 10.171875 8.855469 10.171875 8.855469 L 9.28125 6.839844 L 9.804688 6.039062 L 8.6875 5.488281 L 8.183594 4.351562 L 10.609375 5.675781 L 10.140625 7.085938 L 12.085938 7.671875 L 14.019531 6.652344 L 12.78125 5.445312 L 14.621094 2.785156 L 14.621094 3.945312 L 13.648438 5.21875 Z M 14.621094 6.035156 " fill-opacity="1" fill-rule="nonzero"/><path fill="#a6a6a6" d="M 20.558594 5.488281 L 19.4375 6.039062 L 19.960938 6.839844 L 19.070312 8.855469 L 19.015625 8.855469 L 19.652344 6.914062 L 19.101562 5.886719 L 20.308594 5.289062 L 21.058594 4.351562 Z M 20.558594 5.488281 " fill-opacity="1" fill-rule="nonzero"/><g clip-path="url(#5f7aa235b3)"><path fill="#a6a6a6" d="M 5.148438 25.609375 L 5.269531 25.816406 C 3.871094 25.4375 2.496094 24.824219 1.164062 23.996094 C 1.558594 26.332031 3.3125 26.75 5.023438 26.027344 C 5.136719 25.984375 5.257812 25.976562 5.390625 26 C 5.664062 26.414062 5.957031 26.816406 6.28125 27.199219 C 4.578125 27.113281 2.851562 26.71875 1.128906 26.054688 C 2.035156 28.5 4.015625 28.589844 5.71875 27.460938 C 5.914062 27.332031 6.148438 27.339844 6.433594 27.375 C 7.746094 28.875 9.464844 30.121094 11.585938 30.945312 C 12.148438 31.164062 12.84375 31.378906 13.601562 31.570312 C 13.324219 31.609375 13.046875 31.636719 12.773438 31.667969 C 12.078125 31.730469 11.710938 31.953125 11.332031 32.296875 C 12.355469 32.226562 13.535156 32.050781 14.660156 31.8125 C 15.785156 32.050781 16.964844 32.226562 17.988281 32.296875 C 17.613281 31.953125 17.246094 31.730469 16.546875 31.667969 C 16.273438 31.636719 15.996094 31.609375 15.71875 31.570312 C 16.476562 31.378906 17.171875 31.164062 17.734375 30.945312 C 19.855469 30.121094 21.574219 28.875 22.890625 27.375 C 23.171875 27.339844 23.410156 27.332031 23.601562 27.460938 C 25.304688 28.589844 27.289062 28.5 28.191406 26.054688 C 26.46875 26.71875 24.742188 27.113281 23.039062 27.199219 C 23.359375 26.816406 23.660156 26.414062 23.929688 26 C 24.0625 25.976562 24.183594 25.984375 24.296875 26.027344 C 26.011719 26.75 27.761719 26.332031 28.15625 23.996094 C 26.824219 24.824219 25.449219 25.4375 24.046875 25.816406 L 24.171875 25.609375 C 24.402344 25.238281 24.605469 24.84375 24.792969 24.4375 C 24.867188 24.414062 24.949219 24.40625 25.027344 24.414062 C 26.851562 24.667969 28.425781 23.820312 28.203125 21.476562 C 27.191406 22.5625 26.089844 23.46875 24.90625 24.175781 C 25.15625 23.582031 25.367188 22.964844 25.53125 22.324219 C 27.199219 22.25 28.457031 21.234375 27.878906 19.179688 C 27.21875 20.203125 26.472656 21.113281 25.636719 21.886719 C 25.769531 21.304688 25.863281 20.714844 25.921875 20.121094 C 27.421875 19.710938 28.359375 18.527344 27.421875 16.765625 C 27.035156 17.808594 26.550781 18.765625 25.964844 19.625 C 25.996094 19.050781 26.003906 18.472656 25.96875 17.902344 C 27.117188 17.167969 27.59375 15.941406 26.363281 14.691406 C 26.304688 15.582031 26.15625 16.441406 25.917969 17.246094 C 25.847656 16.585938 25.734375 15.9375 25.570312 15.304688 C 26.253906 14.539062 26.347656 13.539062 25.195312 12.882812 C 25.324219 13.496094 25.390625 14.105469 25.394531 14.695312 L 25.441406 14.84375 C 25.195312 14.046875 24.871094 13.285156 24.460938 12.585938 C 26.082031 16.738281 26.253906 21.519531 23.886719 25.4375 C 22.542969 27.664062 20.445312 29.464844 17.613281 30.566406 C 16.753906 30.902344 15.730469 31.191406 14.660156 31.394531 C 13.589844 31.191406 12.566406 30.902344 11.707031 30.566406 C 8.875 29.464844 6.777344 27.664062 5.433594 25.4375 C 3.066406 21.519531 3.238281 16.738281 4.859375 12.585938 C 4.449219 13.285156 4.125 14.046875 3.878906 14.84375 L 3.925781 14.695312 C 3.929688 14.105469 4 13.496094 4.128906 12.882812 C 2.972656 13.539062 3.066406 14.539062 3.75 15.304688 C 3.585938 15.9375 3.46875 16.585938 3.402344 17.246094 C 3.164062 16.441406 3.019531 15.582031 2.957031 14.691406 C 1.726562 15.941406 2.203125 17.167969 3.351562 17.902344 C 3.320312 18.472656 3.320312 19.050781 3.355469 19.625 C 2.773438 18.765625 2.285156 17.808594 1.898438 16.765625 C 0.960938 18.527344 1.898438 19.710938 3.398438 20.121094 C 3.457031 20.714844 3.550781 21.304688 3.683594 21.886719 C 2.851562 21.113281 2.101562 20.203125 1.441406 19.179688 C 0.863281 21.234375 2.121094 22.25 3.789062 22.324219 C 3.953125 22.964844 4.160156 23.582031 4.414062 24.175781 C 3.230469 23.46875 2.128906 22.5625 1.117188 21.476562 C 0.894531 23.820312 2.46875 24.667969 4.292969 24.414062 C 4.371094 24.40625 4.449219 24.414062 4.527344 24.4375 C 4.714844 24.84375 4.921875 25.238281 5.148438 25.609375 Z M 5.148438 25.609375 " fill-opacity="1" fill-rule="evenodd"/></g><g transform="matrix(1, 0, 0, 1, 32, 11)"><g clip-path="url(#35fa2ed428)"><g clip-path="url(#ae80e2c0f8)"><g fill="#f79533" fill-opacity="1"><g transform="translate(1.070775, 12.952355)"><g><path d="M 0.265625 0 L 5.15625 -12.046875 L 5.390625 -12.046875 L 10.28125 0 L 7.671875 0 L 7.203125 -1.25 L 3.34375 -1.25 L 2.890625 0 Z M 4.1875 -3.421875 L 6.34375 -3.421875 L 5.28125 -6.453125 Z M 4.1875 -3.421875 "/></g></g></g></g><g fill="#f79533" fill-opacity="1"><g transform="translate(10.87049, 12.952355)"><g><path d="M 7.078125 0 L 4.75 -4.4375 L 3.625 -4.4375 L 3.625 0 L 1.296875 0 L 1.296875 -11.625 L 5.875 -11.625 C 6.570312 -11.625 7.160156 -11.476562 7.640625 -11.1875 C 8.128906 -10.894531 8.507812 -10.519531 8.78125 -10.0625 C 9.050781 -9.601562 9.21875 -9.101562 9.28125 -8.5625 C 9.34375 -8.03125 9.300781 -7.503906 9.15625 -6.984375 C 9.007812 -6.472656 8.757812 -6.019531 8.40625 -5.625 C 8.050781 -5.226562 7.585938 -4.953125 7.015625 -4.796875 L 9.71875 0 Z M 3.625 -6.6875 L 5.671875 -6.6875 C 5.984375 -6.6875 6.234375 -6.773438 6.421875 -6.953125 C 6.617188 -7.128906 6.75 -7.347656 6.8125 -7.609375 C 6.875 -7.867188 6.875 -8.128906 6.8125 -8.390625 C 6.75 -8.648438 6.617188 -8.863281 6.421875 -9.03125 C 6.234375 -9.207031 5.984375 -9.296875 5.671875 -9.296875 L 3.625 -9.296875 Z M 3.625 -6.6875 "/></g></g></g><g fill="#f79533" fill-opacity="1"><g transform="translate(20.020125, 12.952355)"><g><path d="M 6.625 -6.6875 L 11.21875 -11.796875 L 11.9375 -11.796875 L 11.9375 0 L 9.59375 0 L 9.609375 -6.484375 L 6.625 -3.359375 L 3.65625 -6.484375 L 3.65625 0 L 1.296875 0 L 1.296875 -11.796875 L 2.046875 -11.796875 Z M 6.625 -6.6875 "/></g></g></g><g fill="#f79533" fill-opacity="1"><g transform="translate(32.4689, 12.952355)"><g><path d="M 0.765625 -0.75 L 1.0625 -3.1875 C 1.5 -2.875 1.9375 -2.648438 2.375 -2.515625 C 2.8125 -2.378906 3.207031 -2.300781 3.5625 -2.28125 C 3.925781 -2.257812 4.195312 -2.253906 4.375 -2.265625 C 4.71875 -2.285156 5.007812 -2.40625 5.25 -2.625 C 5.5 -2.84375 5.609375 -3.109375 5.578125 -3.421875 C 5.554688 -3.765625 5.429688 -4.019531 5.203125 -4.1875 C 4.972656 -4.363281 4.695312 -4.503906 4.375 -4.609375 C 3.769531 -4.835938 3.203125 -5.097656 2.671875 -5.390625 C 2.148438 -5.691406 1.726562 -6.066406 1.40625 -6.515625 C 1.082031 -6.960938 0.921875 -7.507812 0.921875 -8.15625 C 0.921875 -8.800781 1.054688 -9.382812 1.328125 -9.90625 C 1.609375 -10.4375 2 -10.859375 2.5 -11.171875 C 3 -11.492188 3.566406 -11.671875 4.203125 -11.703125 C 4.503906 -11.722656 4.875 -11.710938 5.3125 -11.671875 C 5.757812 -11.628906 6.351562 -11.476562 7.09375 -11.21875 L 6.8125 -8.96875 C 6.164062 -9.226562 5.65625 -9.375 5.28125 -9.40625 C 4.90625 -9.445312 4.625 -9.460938 4.4375 -9.453125 C 4.019531 -9.429688 3.71875 -9.289062 3.53125 -9.03125 C 3.34375 -8.769531 3.257812 -8.476562 3.28125 -8.15625 C 3.3125 -7.832031 3.453125 -7.585938 3.703125 -7.421875 C 3.953125 -7.253906 4.242188 -7.109375 4.578125 -6.984375 C 5.191406 -6.765625 5.75 -6.492188 6.25 -6.171875 C 6.757812 -5.859375 7.171875 -5.476562 7.484375 -5.03125 C 7.796875 -4.582031 7.953125 -4.046875 7.953125 -3.421875 C 7.953125 -2.785156 7.804688 -2.207031 7.515625 -1.6875 C 7.234375 -1.164062 6.832031 -0.75 6.3125 -0.4375 C 5.789062 -0.125 5.164062 0.0507812 4.4375 0.09375 C 4.21875 0.101562 3.921875 0.09375 3.546875 0.0625 C 3.171875 0.0390625 2.742188 -0.03125 2.265625 -0.15625 C 1.796875 -0.28125 1.296875 -0.476562 0.765625 -0.75 Z M 0.765625 -0.75 "/></g></g></g></g></g><g clip-path="url(#f287be3e23)"><g transform="matrix(1, 0, 0, 1, 77, 13)"><g clip-path="url(#465042f784)"><g fill="#dee2e6" fill-opacity="1"><g transform="translate(0.648481, 9.96337)"><g><path d="M 3.375 0 L 1.90625 -4.828125 L 1.859375 -4.828125 C 1.867188 -4.710938 1.878906 -4.539062 1.890625 -4.3125 C 1.898438 -4.082031 1.910156 -3.832031 1.921875 -3.5625 C 1.929688 -3.300781 1.9375 -3.066406 1.9375 -2.859375 L 1.9375 0 L 0.78125 0 L 0.78125 -6.15625 L 2.546875 -6.15625 L 4.015625 -1.453125 L 4.03125 -1.453125 L 5.578125 -6.15625 L 7.359375 -6.15625 L 7.359375 0 L 6.140625 0 L 6.140625 -2.921875 C 6.140625 -3.109375 6.140625 -3.328125 6.140625 -3.578125 C 6.148438 -3.835938 6.160156 -4.082031 6.171875 -4.3125 C 6.179688 -4.539062 6.191406 -4.710938 6.203125 -4.828125 L 6.171875 -4.828125 L 4.578125 0 Z M 3.375 0 "/></g></g></g><g fill="#dee2e6" fill-opacity="1"><g transform="translate(13.085428, 9.96337)"><g><path d="M 5.78125 -6.15625 L 5.78125 -2.171875 C 5.78125 -1.742188 5.6875 -1.359375 5.5 -1.015625 C 5.3125 -0.679688 5.03125 -0.414062 4.65625 -0.21875 C 4.28125 -0.0195312 3.804688 0.078125 3.234375 0.078125 C 2.421875 0.078125 1.800781 -0.125 1.375 -0.53125 C 0.945312 -0.945312 0.734375 -1.5 0.734375 -2.1875 L 0.734375 -6.15625 L 2.03125 -6.15625 L 2.03125 -2.390625 C 2.03125 -1.878906 2.132812 -1.519531 2.34375 -1.3125 C 2.550781 -1.113281 2.859375 -1.015625 3.265625 -1.015625 C 3.554688 -1.015625 3.789062 -1.0625 3.96875 -1.15625 C 4.144531 -1.257812 4.273438 -1.410156 4.359375 -1.609375 C 4.441406 -1.816406 4.484375 -2.078125 4.484375 -2.390625 L 4.484375 -6.15625 Z M 5.78125 -6.15625 "/></g></g></g><g fill="#dee2e6" fill-opacity="1"><g transform="translate(23.910413, 9.96337)"><g><path d="M 4.40625 -1.703125 C 4.40625 -1.335938 4.316406 -1.019531 4.140625 -0.75 C 3.960938 -0.488281 3.703125 -0.285156 3.359375 -0.140625 C 3.023438 0.00390625 2.617188 0.078125 2.140625 0.078125 C 1.921875 0.078125 1.707031 0.0625 1.5 0.03125 C 1.300781 0.0078125 1.109375 -0.0234375 0.921875 -0.078125 C 0.742188 -0.140625 0.566406 -0.207031 0.390625 -0.28125 L 0.390625 -1.5 C 0.679688 -1.375 0.984375 -1.257812 1.296875 -1.15625 C 1.617188 -1.050781 1.929688 -1 2.234375 -1 C 2.453125 -1 2.625 -1.023438 2.75 -1.078125 C 2.882812 -1.128906 2.976562 -1.203125 3.03125 -1.296875 C 3.09375 -1.398438 3.125 -1.515625 3.125 -1.640625 C 3.125 -1.796875 3.070312 -1.925781 2.96875 -2.03125 C 2.863281 -2.144531 2.722656 -2.25 2.546875 -2.34375 C 2.367188 -2.445312 2.164062 -2.550781 1.9375 -2.65625 C 1.789062 -2.726562 1.632812 -2.8125 1.46875 -2.90625 C 1.300781 -3 1.140625 -3.113281 0.984375 -3.25 C 0.835938 -3.394531 0.710938 -3.566406 0.609375 -3.765625 C 0.515625 -3.972656 0.46875 -4.21875 0.46875 -4.5 C 0.46875 -4.863281 0.550781 -5.175781 0.71875 -5.4375 C 0.882812 -5.695312 1.125 -5.894531 1.4375 -6.03125 C 1.75 -6.175781 2.117188 -6.25 2.546875 -6.25 C 2.867188 -6.25 3.175781 -6.207031 3.46875 -6.125 C 3.757812 -6.050781 4.0625 -5.945312 4.375 -5.8125 L 3.953125 -4.796875 C 3.671875 -4.910156 3.414062 -5 3.1875 -5.0625 C 2.96875 -5.125 2.742188 -5.15625 2.515625 -5.15625 C 2.347656 -5.15625 2.207031 -5.128906 2.09375 -5.078125 C 1.976562 -5.023438 1.890625 -4.953125 1.828125 -4.859375 C 1.773438 -4.765625 1.75 -4.65625 1.75 -4.53125 C 1.75 -4.382812 1.789062 -4.257812 1.875 -4.15625 C 1.957031 -4.0625 2.082031 -3.96875 2.25 -3.875 C 2.425781 -3.78125 2.644531 -3.671875 2.90625 -3.546875 C 3.21875 -3.398438 3.484375 -3.242188 3.703125 -3.078125 C 3.929688 -2.921875 4.101562 -2.734375 4.21875 -2.515625 C 4.34375 -2.296875 4.40625 -2.023438 4.40625 -1.703125 Z M 4.40625 -1.703125 "/></g></g></g><g fill="#dee2e6" fill-opacity="1"><g transform="translate(32.96771, 9.96337)"><g><path d="M 0.78125 0 L 0.78125 -6.15625 L 2.078125 -6.15625 L 2.078125 0 Z M 0.78125 0 "/></g></g></g><g fill="#dee2e6" fill-opacity="1"><g transform="translate(40.131055, 9.96337)"><g><path d="M 3.390625 -5.15625 C 3.140625 -5.15625 2.914062 -5.109375 2.71875 -5.015625 C 2.53125 -4.921875 2.367188 -4.78125 2.234375 -4.59375 C 2.109375 -4.414062 2.007812 -4.195312 1.9375 -3.9375 C 1.875 -3.675781 1.84375 -3.382812 1.84375 -3.0625 C 1.84375 -2.625 1.894531 -2.25 2 -1.9375 C 2.113281 -1.632812 2.28125 -1.398438 2.5 -1.234375 C 2.726562 -1.078125 3.023438 -1 3.390625 -1 C 3.640625 -1 3.890625 -1.023438 4.140625 -1.078125 C 4.390625 -1.140625 4.664062 -1.222656 4.96875 -1.328125 L 4.96875 -0.234375 C 4.6875 -0.117188 4.414062 -0.0390625 4.15625 0 C 3.894531 0.0507812 3.597656 0.078125 3.265625 0.078125 C 2.628906 0.078125 2.109375 -0.0507812 1.703125 -0.3125 C 1.296875 -0.570312 0.992188 -0.9375 0.796875 -1.40625 C 0.597656 -1.882812 0.5 -2.4375 0.5 -3.0625 C 0.5 -3.53125 0.5625 -3.957031 0.6875 -4.34375 C 0.8125 -4.738281 0.992188 -5.078125 1.234375 -5.359375 C 1.484375 -5.640625 1.785156 -5.859375 2.140625 -6.015625 C 2.503906 -6.171875 2.921875 -6.25 3.390625 -6.25 C 3.691406 -6.25 3.992188 -6.207031 4.296875 -6.125 C 4.609375 -6.050781 4.90625 -5.945312 5.1875 -5.8125 L 4.765625 -4.75 C 4.535156 -4.863281 4.304688 -4.957031 4.078125 -5.03125 C 3.847656 -5.113281 3.617188 -5.15625 3.390625 -5.15625 Z M 3.390625 -5.15625 "/></g></g></g></g></g></g></g></g></svg>