<svg xmlns="http://www.w3.org/2000/svg" xmlns:xlink="http://www.w3.org/1999/xlink" width="200" zoomAndPan="magnify" viewBox="0 0 150 37.5" height="50" preserveAspectRatio="xMidYMid meet" version="1.0"><defs><filter x="0%" y="0%" width="100%" height="100%" id="3cbd44cb50"><feColorMatrix values="0 0 0 0 1 0 0 0 0 1 0 0 0 0 1 0 0 0 1 0" color-interpolation-filters="sRGB"/></filter><g/><clipPath id="9276f37a27"><path d="M 3.453125 0.464844 L 27.175781 0.464844 L 27.175781 33.46875 L 3.453125 33.46875 Z M 3.453125 0.464844 " clip-rule="nonzero"/></clipPath><mask id="75eb201e63"><g filter="url(#3cbd44cb50)"><rect x="-34" width="216" fill="#000000" y="-9.25" height="54" fill-opacity="0.3"/></g></mask><clipPath id="f152df01ec"><path d="M 1 0.289062 L 2.382812 0.289062 L 2.382812 1.238281 L 1 1.238281 Z M 1 0.289062 " clip-rule="nonzero"/></clipPath><clipPath id="ae6b50cc91"><rect x="0" width="3" y="0" height="2"/></clipPath><mask id="1f5defdc21"><g filter="url(#3cbd44cb50)"><rect x="-34" width="216" fill="#000000" y="-9.25" height="54" fill-opacity="0.3"/></g></mask><clipPath id="5b3a92a14a"><path d="M 1 0.394531 L 2.382812 0.394531 L 2.382812 1.34375 L 1 1.34375 Z M 1 0.394531 " clip-rule="nonzero"/></clipPath><clipPath id="91a3937eb9"><rect x="0" width="3" y="0" height="2"/></clipPath><mask id="ee03616bfe"><g filter="url(#3cbd44cb50)"><rect x="-34" width="216" fill="#000000" y="-9.25" height="54" fill-opacity="0.3"/></g></mask><clipPath id="eef73d2da9"><path d="M 0.117188 0.550781 L 3.433594 0.550781 L 3.433594 5.289062 L 0.117188 5.289062 Z M 0.117188 0.550781 " clip-rule="nonzero"/></clipPath><clipPath id="2e22860645"><rect x="0" width="4" y="0" height="6"/></clipPath><mask id="0fafdfc5a3"><g filter="url(#3cbd44cb50)"><rect x="-34" width="216" fill="#000000" y="-9.25" height="54" fill-opacity="0.3"/></g></mask><clipPath id="1aa6aff2d9"><path d="M 0.933594 0.472656 L 4.488281 0.472656 L 4.488281 4.261719 L 0.933594 4.261719 Z M 0.933594 0.472656 " clip-rule="nonzero"/></clipPath><clipPath id="b6cefdbe0e"><rect x="0" width="5" y="0" height="5"/></clipPath><mask id="038721d9f4"><g filter="url(#3cbd44cb50)"><rect x="-34" width="216" fill="#000000" y="-9.25" height="54" fill-opacity="0.3"/></g></mask><clipPath id="1be749f9bd"><path d="M 0.0117188 1 L 2.382812 1 L 2.382812 2.550781 L 0.0117188 2.550781 Z M 0.0117188 1 " clip-rule="nonzero"/></clipPath><clipPath id="75a8fdee1b"><rect x="0" width="3" y="0" height="3"/></clipPath><mask id="f62ac74e0c"><g filter="url(#3cbd44cb50)"><rect x="-34" width="216" fill="#000000" y="-9.25" height="54" fill-opacity="0.3"/></g></mask><clipPath id="2ad221f292"><path d="M 0.171875 1 L 4.90625 1 L 4.90625 3.472656 L 0.171875 3.472656 Z M 0.171875 1 " clip-rule="nonzero"/></clipPath><clipPath id="8083a42bf4"><rect x="0" width="5" y="0" height="4"/></clipPath><mask id="942b8ae7a6"><g filter="url(#3cbd44cb50)"><rect x="-34" width="216" fill="#000000" y="-9.25" height="54" fill-opacity="0.3"/></g></mask><clipPath id="b53f53b681"><path d="M 0.09375 0.683594 L 5.777344 0.683594 L 5.777344 4.472656 L 0.09375 4.472656 Z M 0.09375 0.683594 " clip-rule="nonzero"/></clipPath><clipPath id="1043f85e61"><rect x="0" width="6" y="0" height="5"/></clipPath><mask id="975cfc85eb"><g filter="url(#3cbd44cb50)"><rect x="-34" width="216" fill="#000000" y="-9.25" height="54" fill-opacity="0.3"/></g></mask><clipPath id="20925ebddd"><path d="M 0.40625 0.550781 L 2.777344 0.550781 L 2.777344 2.921875 L 0.40625 2.921875 Z M 0.40625 0.550781 " clip-rule="nonzero"/></clipPath><clipPath id="5a81435daa"><rect x="0" width="3" y="0" height="3"/></clipPath><mask id="c9beb3a766"><g filter="url(#3cbd44cb50)"><rect x="-34" width="216" fill="#000000" y="-9.25" height="54" fill-opacity="0.3"/></g></mask><clipPath id="bc5f8f6eac"><path d="M 0.117188 0.84375 L 3.671875 0.84375 L 3.671875 3.449219 L 0.117188 3.449219 Z M 0.117188 0.84375 " clip-rule="nonzero"/></clipPath><clipPath id="6d37a7c395"><rect x="0" width="4" y="0" height="4"/></clipPath><mask id="4740c5af97"><g filter="url(#3cbd44cb50)"><rect x="-34" width="216" fill="#000000" y="-9.25" height="54" fill-opacity="0.3"/></g></mask><clipPath id="521e9bcf2f"><path d="M 0.488281 0.078125 L 2.382812 0.078125 L 2.382812 2.449219 L 0.488281 2.449219 Z M 0.488281 0.078125 " clip-rule="nonzero"/></clipPath><clipPath id="6d950c71de"><rect x="0" width="3" y="0" height="3"/></clipPath><mask id="5d3f8895d2"><g filter="url(#3cbd44cb50)"><rect x="-34" width="216" fill="#000000" y="-9.25" height="54" fill-opacity="0.3"/></g></mask><clipPath id="ffa128047b"><path d="M 0.144531 0.289062 L 1.566406 0.289062 L 1.566406 1.238281 L 0.144531 1.238281 Z M 0.144531 0.289062 " clip-rule="nonzero"/></clipPath><clipPath id="28afbe7067"><rect x="0" width="2" y="0" height="2"/></clipPath><mask id="8e749b502f"><g filter="url(#3cbd44cb50)"><rect x="-34" width="216" fill="#000000" y="-9.25" height="54" fill-opacity="0.3"/></g></mask><clipPath id="2b5cac5828"><path d="M 0.144531 0.394531 L 1.566406 0.394531 L 1.566406 1.34375 L 0.144531 1.34375 Z M 0.144531 0.394531 " clip-rule="nonzero"/></clipPath><clipPath id="c5cb868082"><rect x="0" width="2" y="0" height="2"/></clipPath><mask id="105027fb5f"><g filter="url(#3cbd44cb50)"><rect x="-34" width="216" fill="#000000" y="-9.25" height="54" fill-opacity="0.3"/></g></mask><clipPath id="bce267ab54"><path d="M 0.144531 1 L 2.511719 1 L 2.511719 2.550781 L 0.144531 2.550781 Z M 0.144531 1 " clip-rule="nonzero"/></clipPath><clipPath id="1b56be373a"><rect x="0" width="3" y="0" height="3"/></clipPath><clipPath id="7c2dac0a54"><path d="M 0.230469 13.082031 L 30.140625 13.082031 L 30.140625 34.742188 L 0.230469 34.742188 Z M 0.230469 13.082031 " clip-rule="nonzero"/></clipPath><clipPath id="79bbe7bf9b"><path d="M 0.0390625 0.0273438 L 12 0.0273438 L 12 14 L 0.0390625 14 Z M 0.0390625 0.0273438 " clip-rule="nonzero"/></clipPath><clipPath id="8e2c78e081"><path d="M 12 0.0273438 L 22 0.0273438 L 22 14 L 12 14 Z M 12 0.0273438 " clip-rule="nonzero"/></clipPath><clipPath id="2493ff0046"><path d="M 22 0.0273438 L 34 0.0273438 L 34 14 L 22 14 Z M 22 0.0273438 " clip-rule="nonzero"/></clipPath><clipPath id="1d4ebc133b"><path d="M 35 0.0273438 L 43.855469 0.0273438 L 43.855469 14 L 35 14 Z M 35 0.0273438 " clip-rule="nonzero"/></clipPath><clipPath id="eae7eba355"><rect x="0" width="44" y="0" height="19"/></clipPath><clipPath id="1c3d6e9f0f"><path d="M 83 14 L 137.828125 14 L 137.828125 28 L 83 28 Z M 83 14 " clip-rule="nonzero"/></clipPath><clipPath id="67fd41031d"><rect x="0" width="55" y="0" height="14"/></clipPath><clipPath id="c5b5f09e11"><rect x="0" width="138" y="0" height="35"/></clipPath></defs><g transform="matrix(1, 0, 0, 1, 1, 1)"><g clip-path="url(#c5b5f09e11)"><g clip-path="url(#9276f37a27)"><path fill="#172029" d="M 25.5625 18.363281 C 25.53125 18.308594 25.511719 18.28125 25.511719 18.28125 L 25.539062 18.289062 C 25.664062 17.730469 25.671875 17.171875 25.558594 16.613281 C 26.121094 16.492188 26.636719 16.269531 27.113281 15.945312 C 26.605469 15.75 26.140625 15.484375 25.714844 15.144531 C 25.3125 14.808594 24.949219 14.433594 24.621094 14.023438 L 25.675781 14.335938 L 24.550781 12.292969 C 24.15625 11.796875 23.671875 11.414062 23.097656 11.148438 L 22.894531 11.0625 L 22.871094 11.054688 C 23.097656 10.847656 23.476562 10.558594 24.101562 10.222656 C 23.148438 9.660156 22.082031 9.683594 21.488281 9.753906 C 21.355469 9.765625 21.226562 9.789062 21.097656 9.816406 C 21.050781 9.828125 21.023438 9.832031 21.023438 9.832031 C 21.050781 9.738281 21.0625 9.636719 21.070312 9.539062 L 21.074219 9.402344 L 21.199219 8.929688 L 22.164062 6.746094 L 21.882812 6.324219 L 22.476562 6.03125 L 24.070312 2.417969 L 18.128906 4.882812 L 16.03125 1.855469 L 15.28125 0.488281 L 14.53125 1.855469 L 12.433594 4.882812 L 6.492188 2.417969 L 8.089844 6.03125 L 8.683594 6.324219 L 8.40625 6.746094 L 9.371094 8.929688 L 9.496094 9.402344 L 9.5 9.539062 C 9.503906 9.640625 9.519531 9.738281 9.542969 9.835938 C 9.542969 9.835938 9.519531 9.828125 9.472656 9.816406 C 9.34375 9.789062 9.210938 9.769531 9.082031 9.753906 C 8.488281 9.683594 7.421875 9.664062 6.46875 10.222656 C 7.089844 10.558594 7.472656 10.847656 7.699219 11.054688 L 7.671875 11.066406 L 7.46875 11.148438 C 6.894531 11.414062 6.410156 11.796875 6.015625 12.292969 L 4.894531 14.335938 L 5.945312 14.023438 C 5.621094 14.433594 5.253906 14.808594 4.851562 15.148438 C 4.429688 15.484375 3.960938 15.75 3.453125 15.945312 C 3.925781 16.269531 4.441406 16.492188 5.003906 16.613281 C 4.890625 17.171875 4.898438 17.730469 5.027344 18.289062 L 5.050781 18.28125 C 5.050781 18.28125 5.03125 18.308594 5.003906 18.363281 C 4.675781 18.921875 4.460938 19.632812 4.359375 20.496094 C 4.242188 21.292969 4.183594 22.3125 4.292969 23.570312 C 4.597656 23.3125 4.828125 23.109375 5.003906 22.957031 C 4.996094 23 4.984375 23.046875 4.976562 23.089844 C 4.957031 23.171875 4.65625 24.480469 4.292969 25.78125 C 4.8125 25.484375 5.304688 25.144531 5.765625 24.761719 C 5.757812 24.867188 5.753906 24.976562 5.757812 25.082031 C 5.78125 26.867188 6.84375 28 6.890625 28.046875 L 7.164062 28.332031 L 7.410156 28.589844 L 8.101562 29.316406 C 8.101562 29.316406 8.261719 31.035156 10.175781 32.65625 L 10.265625 31.964844 C 10.503906 32.277344 10.8125 32.65625 11.015625 32.8125 C 11.023438 32.800781 11.070312 31.589844 11.121094 31.40625 C 11.355469 31.894531 11.886719 32.601562 13.054688 33.007812 C 12.992188 32.753906 12.941406 32.542969 12.902344 32.367188 C 13.082031 32.554688 13.308594 32.78125 13.515625 32.976562 C 13.636719 33.109375 13.773438 33.226562 13.917969 33.335938 C 13.941406 33.351562 13.960938 33.367188 13.980469 33.378906 C 13.945312 33.03125 13.925781 32.804688 13.910156 32.65625 C 13.988281 32.71875 14.070312 32.777344 14.15625 32.835938 C 14.367188 33.097656 14.71875 33.398438 15.28125 33.542969 C 15.847656 33.398438 16.199219 33.097656 16.410156 32.835938 C 16.496094 32.777344 16.578125 32.71875 16.652344 32.65625 C 16.640625 32.804688 16.617188 33.03125 16.585938 33.378906 C 16.601562 33.367188 16.625 33.351562 16.648438 33.335938 C 16.792969 33.226562 16.925781 33.109375 17.050781 32.976562 C 17.253906 32.78125 17.484375 32.554688 17.664062 32.367188 C 17.621094 32.542969 17.570312 32.753906 17.511719 33.007812 C 18.675781 32.601562 19.210938 31.894531 19.445312 31.40625 C 19.496094 31.589844 19.542969 32.800781 19.550781 32.8125 C 19.75 32.65625 20.0625 32.277344 20.300781 31.964844 L 20.386719 32.65625 C 22.300781 31.035156 22.460938 29.316406 22.460938 29.316406 L 23.152344 28.589844 L 23.402344 28.332031 L 23.675781 28.046875 C 23.722656 28 24.785156 26.867188 24.808594 25.082031 C 24.808594 24.976562 24.808594 24.867188 24.800781 24.761719 C 25.117188 25.03125 25.589844 25.382812 26.269531 25.78125 C 25.910156 24.480469 25.605469 23.171875 25.589844 23.089844 C 25.578125 23.046875 25.570312 23 25.5625 22.957031 C 25.738281 23.109375 25.96875 23.3125 26.269531 23.570312 C 26.378906 22.3125 26.324219 21.292969 26.207031 20.496094 C 26.105469 19.632812 25.890625 18.921875 25.5625 18.363281 Z M 25.5625 18.363281 " fill-opacity="1" fill-rule="nonzero"/></g><path fill="#ffffff" d="M 8.660156 13.863281 C 8.65625 13.902344 8.421875 15.148438 7.140625 15.996094 C 5.835938 16.855469 5.902344 18.046875 5.902344 18.046875 C 5.902344 18.046875 5.484375 16.511719 6.695312 15.289062 C 5.992188 15.808594 5.09375 16.128906 5.0625 16.136719 C 5.105469 16.105469 6.554688 15.035156 7.203125 13.71875 C 7.203125 13.71875 7.355469 14.59375 7.160156 15.355469 C 8.222656 14.878906 8.648438 13.894531 8.660156 13.863281 Z M 8.660156 13.863281 " fill-opacity="1" fill-rule="nonzero"/><path fill="#ffffff" d="M 12.589844 31.613281 C 12.558594 31.601562 11.453125 31.214844 11.480469 28.734375 C 11.511719 26.214844 10.792969 25.414062 10.792969 25.414062 C 11.515625 28.351562 10.242188 31.148438 10.207031 31.226562 C 10.21875 31.148438 10.609375 28.320312 9.535156 26.363281 C 9.835938 27.785156 9.148438 28.679688 9.421875 30.410156 C 8.574219 29.164062 9.105469 26.230469 8.546875 24.914062 C 8.703125 26.703125 8.074219 28.550781 8.074219 28.550781 C 8.074219 28.550781 8.074219 25.828125 7.375 24.121094 C 6.90625 25.738281 7.527344 27.375 7.546875 27.417969 C 7.515625 27.386719 6.503906 26.292969 6.6875 24.613281 C 6.875 22.910156 6.601562 21.75 6.601562 21.75 C 6.601562 21.75 6.558594 22.652344 5.785156 23.640625 C 6.34375 21.320312 5.800781 20.40625 5.800781 20.40625 C 5.339844 21.480469 5.210938 22.15625 5.210938 22.15625 C 5.0625 17.949219 6.957031 17.960938 6.957031 17.960938 C 6.957031 17.960938 6.074219 19.191406 6.261719 20.40625 C 7.234375 17.976562 9.269531 17.6875 9.332031 17.679688 C 8.265625 18.425781 7.847656 19.296875 7.824219 19.347656 C 7.859375 19.304688 8.34375 18.652344 9.394531 18.171875 C 7.980469 19.273438 8 20.824219 8 20.824219 L 8.003906 20.820312 C 8.054688 20.746094 8.585938 19.949219 9.359375 19.34375 L 9.363281 19.339844 C 8.089844 20.871094 8.28125 22.644531 8.28125 22.644531 C 8.28125 22.644531 8.648438 21.191406 9.375 20.3125 C 8.601562 22.175781 9.238281 24.140625 9.25 24.179688 C 9.25 24.179688 9.257812 23.894531 9.300781 23.488281 C 9.300781 23.488281 9.300781 23.484375 9.300781 23.480469 C 9.371094 22.847656 9.542969 21.9375 9.9375 21.382812 C 9.5 23.804688 10.523438 25.53125 10.523438 25.53125 C 10.523438 25.53125 10.523438 24.128906 10.164062 23.007812 C 12.003906 25.160156 11.765625 28.292969 11.765625 28.292969 C 11.765625 28.292969 11.90625 27.777344 12.136719 27.390625 C 11.589844 30.53125 12.558594 31.578125 12.589844 31.613281 Z M 12.589844 31.613281 " fill-opacity="1" fill-rule="nonzero"/><path fill="#ffffff" d="M 10.121094 12.960938 C 10.121094 12.960938 9.183594 12.691406 8.234375 12.886719 C 8.671875 12.996094 8.796875 13.082031 8.796875 13.082031 C 8.796875 13.082031 7.871094 13.058594 7.75 14.285156 C 7.222656 13.03125 7.515625 12.609375 7.515625 12.609375 L 6.738281 12.839844 C 6.738281 12.839844 7.816406 11.410156 9.367188 11.851562 C 9.367188 11.851562 8.890625 10.929688 7.941406 10.710938 C 9.523438 10.40625 10.957031 11.050781 10.121094 12.960938 Z M 10.121094 12.960938 " fill-opacity="1" fill-rule="nonzero"/><path fill="#ffffff" d="M 13.378906 17.589844 C 13.355469 17.605469 12.816406 17.910156 12.328125 17.792969 C 11.84375 17.675781 11.527344 17.03125 11.519531 17.011719 L 12.398438 17.285156 L 12.398438 17.597656 L 12.425781 17.570312 L 12.652344 17.363281 Z M 13.378906 17.589844 " fill-opacity="1" fill-rule="nonzero"/><path fill="#ffffff" d="M 13.28125 30.109375 C 13.261719 30.542969 13.328125 30.960938 13.484375 31.363281 C 13.550781 31.539062 13.636719 31.707031 13.738281 31.863281 C 13.253906 31.550781 13.003906 31.054688 12.875 30.574219 C 12.761719 30.121094 12.726562 29.660156 12.769531 29.191406 C 12.859375 30.121094 13.078125 30.5 13.078125 30.5 C 13.078125 30.5 13.03125 29.792969 13.175781 29.3125 C 13.328125 29.964844 14.003906 31 14.023438 31.03125 C 13.917969 30.609375 14.03125 30.015625 14.03125 30.015625 C 14.03125 30.015625 14.035156 30.066406 14.046875 30.15625 C 14.15625 30.832031 14.367188 31.480469 14.675781 32.09375 C 13.527344 31.304688 13.296875 30.183594 13.28125 30.113281 C 13.28125 30.113281 13.28125 30.109375 13.28125 30.109375 Z M 13.28125 30.109375 " fill-opacity="1" fill-rule="nonzero"/><path fill="#ffffff" d="M 13.378906 10.109375 C 13.71875 10.277344 13.980469 10.53125 14.164062 10.863281 C 14.140625 10.851562 13.492188 10.511719 12.445312 10.28125 C 13.109375 10.945312 13.425781 11.40625 13.425781 11.40625 C 13.425781 11.40625 12.492188 10.761719 11.460938 10.503906 C 10.429688 10.242188 10.40625 9.503906 10.40625 9.503906 C 10.40625 9.503906 10.925781 9.921875 12.046875 9.863281 L 11.550781 9.566406 C 11.550781 9.566406 13.210938 9.359375 14.203125 9.839844 C 13.75 9.386719 13.636719 9.199219 13.628906 9.191406 C 13.664062 9.199219 15.21875 9.660156 15.242188 11.265625 C 15.242188 11.265625 14.480469 10.125 13.378906 10.109375 Z M 13.378906 10.109375 " fill-opacity="1" fill-rule="nonzero"/><path fill="#ffffff" d="M 15.839844 20.824219 C 16.046875 20.65625 16.273438 20.625 16.519531 20.730469 C 16.519531 20.730469 16.414062 20.347656 15.902344 20.414062 C 15.394531 20.480469 15.242188 20.453125 15.242188 20.453125 C 15.242188 20.453125 15.09375 20.480469 14.585938 20.414062 C 14.074219 20.347656 13.96875 20.730469 13.96875 20.730469 C 14.214844 20.625 14.441406 20.65625 14.648438 20.824219 C 14.992188 21.085938 15.246094 21.066406 15.246094 21.066406 C 15.246094 21.066406 15.496094 21.085938 15.839844 20.824219 Z M 15.839844 20.824219 " fill-opacity="1" fill-rule="nonzero"/><path fill="#ffffff" d="M 16.289062 24.121094 L 16.210938 23.792969 L 16.179688 23.9375 C 15.773438 23.882812 15.242188 23.9375 15.242188 23.9375 C 15.242188 23.9375 14.714844 23.882812 14.308594 23.9375 L 14.277344 23.792969 L 14.199219 24.121094 C 14.1875 24.113281 14.019531 23.949219 14.078125 23.574219 C 14.078125 23.574219 14.347656 23.675781 15.246094 23.582031 C 16.140625 23.675781 16.410156 23.574219 16.410156 23.574219 C 16.472656 23.960938 16.289062 24.121094 16.289062 24.121094 Z M 16.289062 24.121094 " fill-opacity="1" fill-rule="nonzero"/><path fill="#ffffff" d="M 16.375 29.296875 C 16.730469 28.75 16.601562 27.996094 16.601562 27.996094 C 16.601562 27.996094 16.492188 29.597656 15.246094 29.597656 C 14 29.597656 13.890625 27.996094 13.890625 27.996094 C 13.890625 27.996094 13.761719 28.75 14.117188 29.296875 C 11.832031 28.558594 12.695312 26.484375 12.695312 26.484375 C 12.695312 26.484375 12.824219 27.179688 13.429688 26.992188 C 12.953125 26.261719 13.160156 25.34375 13.160156 25.34375 C 13.492188 26.046875 13.902344 26.429688 14.148438 26.613281 C 14.796875 26.3125 15.246094 26.367188 15.246094 26.367188 C 15.246094 26.367188 15.695312 26.3125 16.34375 26.613281 C 16.589844 26.429688 17 26.046875 17.332031 25.34375 C 17.332031 25.34375 17.539062 26.261719 17.0625 26.992188 C 17.667969 27.179688 17.796875 26.484375 17.796875 26.484375 C 17.796875 26.484375 18.65625 28.558594 16.375 29.296875 Z M 16.375 29.296875 " fill-opacity="1" fill-rule="nonzero"/><path fill="#ffffff" d="M 23.21875 17.429688 C 22.046875 16.328125 22.179688 13.988281 19.519531 14.054688 C 20.0625 14.417969 20.328125 15.160156 20.34375 15.210938 C 20.300781 15.148438 19.441406 13.984375 17.878906 13.875 L 17.839844 13.832031 C 17.402344 13.324219 16.769531 13.34375 16.234375 13.523438 C 16.289062 13.355469 16.484375 12.996094 17.171875 12.722656 C 18.109375 12.351562 18.316406 12.121094 18.316406 12.121094 C 18.316406 12.121094 18.476562 12.785156 17.34375 13.3125 C 17.34375 13.3125 18.652344 13.472656 19.410156 12.902344 C 19.136719 13.386719 18.566406 13.6875 17.898438 13.648438 C 17.898438 13.648438 21.019531 14.683594 19.710938 11.707031 C 19.859375 12.476562 18.84375 12.757812 18.816406 12.765625 C 18.847656 12.742188 19.578125 12.207031 18.683594 10.863281 C 18.519531 11.769531 16.386719 11.757812 15.839844 13.3125 C 15.769531 12.164062 16.753906 11.136719 16.753906 11.136719 C 16.753906 11.136719 15.574219 11.453125 15.246094 12.695312 C 15.246094 12.695312 15.246094 12.691406 15.246094 12.691406 C 14.914062 11.457031 13.738281 11.140625 13.738281 11.140625 C 13.738281 11.140625 14.722656 12.167969 14.652344 13.316406 C 14.101562 11.761719 11.972656 11.773438 11.808594 10.867188 C 10.910156 12.210938 11.644531 12.746094 11.675781 12.769531 C 11.644531 12.761719 10.632812 12.484375 10.78125 11.710938 C 9.488281 14.652344 12.515625 13.679688 12.59375 13.652344 C 11.925781 13.691406 11.351562 13.394531 11.082031 12.90625 C 11.835938 13.476562 13.144531 13.316406 13.144531 13.316406 C 12.015625 12.789062 12.175781 12.125 12.175781 12.125 C 12.175781 12.125 12.382812 12.359375 13.316406 12.730469 C 14.007812 13 14.199219 13.359375 14.253906 13.527344 C 13.71875 13.347656 13.089844 13.328125 12.648438 13.835938 L 12.613281 13.878906 C 11.046875 13.988281 10.1875 15.15625 10.144531 15.214844 C 10.160156 15.164062 10.429688 14.421875 10.972656 14.058594 C 8.3125 13.992188 8.445312 16.332031 7.273438 17.4375 C 8.863281 16.996094 9.871094 15.171875 9.9375 15.046875 C 9.910156 15.121094 9.621094 15.824219 9.589844 16.574219 C 10.152344 15.496094 11.003906 15.113281 11.476562 14.984375 C 11.054688 15.351562 10.664062 15.667969 10.355469 16 C 10.25 16.277344 10.148438 17.050781 10.371094 17.308594 C 10.398438 17.339844 10.429688 17.359375 10.464844 17.375 C 10.808594 17.511719 11.265625 17.332031 11.265625 17.332031 C 11.265625 17.332031 11.1875 16.828125 10.761719 16.734375 C 11.003906 16.582031 11.480469 16.398438 12.523438 17.027344 C 13.566406 17.65625 14.269531 17.207031 14.472656 16.929688 C 14.675781 16.652344 14.726562 16.207031 14.726562 16.207031 C 14.828125 16.445312 14.882812 16.695312 14.890625 16.957031 C 13.753906 17.714844 13.796875 18.5625 13.796875 18.5625 C 13.796875 18.5625 13.765625 18.34375 13.566406 18.0625 C 13.234375 18.339844 13.242188 18.894531 13.285156 19.203125 L 13.285156 19.222656 C 13.285156 19.214844 13.28125 19.207031 13.277344 19.199219 C 13.179688 18.886719 13.0625 18.378906 13.207031 18.039062 C 13.214844 18.011719 13.226562 17.992188 13.242188 17.96875 C 13.199219 17.980469 13.148438 17.992188 13.101562 18 C 12.597656 18.097656 11.980469 17.992188 11.980469 17.992188 L 12.097656 18.167969 C 11.699219 17.988281 11.347656 17.558594 11.347656 17.558594 C 11.347656 17.558594 9.878906 18.464844 9.945312 19.125 C 10.011719 19.789062 10.523438 20.347656 10.523438 20.347656 C 10.523438 20.347656 10.511719 20.226562 10.472656 19.816406 C 10.730469 20.386719 10.929688 21 10.945312 21.039062 C 11.050781 20.738281 11.140625 20.429688 11.214844 20.117188 C 11.296875 19.726562 11.136719 18.789062 11.136719 18.789062 C 11.136719 18.789062 11.582031 19.550781 12.335938 19.5 C 11.84375 19.710938 11.394531 20.460938 11.394531 20.460938 C 11.394531 20.460938 11.421875 20.480469 12.785156 20.894531 L 12.757812 20.890625 C 12.503906 20.863281 11.347656 20.667969 11.347656 20.667969 L 11.546875 21.367188 L 13.347656 21.886719 C 12.734375 21.898438 11.609375 21.78125 11.609375 21.78125 L 11.835938 22.164062 L 13.675781 22.527344 C 13.0625 22.589844 12.449219 22.59375 11.835938 22.539062 C 12.113281 22.765625 12.410156 22.96875 12.722656 23.144531 C 12.667969 23.492188 12.613281 24.472656 13.484375 25.183594 C 13.480469 24.320312 13.636719 23.691406 13.753906 23.34375 C 14.347656 23.273438 15.121094 23.015625 15.035156 22.351562 C 14.933594 21.535156 14.1875 21.554688 13.445312 21.199219 C 12.699219 20.84375 13.089844 19.976562 13.089844 19.976562 C 13.101562 20 13.277344 20.511719 13.433594 20.519531 C 13.59375 20.53125 13.882812 20.417969 14.101562 19.804688 C 14.453125 20.238281 15.242188 20.121094 15.242188 20.121094 C 15.242188 20.121094 16.03125 20.238281 16.382812 19.804688 C 16.601562 20.417969 16.886719 20.53125 17.050781 20.519531 C 17.214844 20.507812 17.394531 19.972656 17.394531 19.972656 C 17.394531 19.972656 17.789062 20.839844 17.042969 21.195312 C 16.300781 21.550781 15.554688 21.53125 15.453125 22.347656 C 15.363281 23.015625 16.140625 23.273438 16.734375 23.339844 C 16.851562 23.6875 17.007812 24.316406 17.003906 25.179688 C 17.875 24.46875 17.820312 23.488281 17.765625 23.136719 C 18.082031 22.960938 18.375 22.761719 18.65625 22.53125 C 18.039062 22.585938 17.425781 22.582031 16.8125 22.519531 L 18.65625 22.15625 L 18.882812 21.777344 C 18.882812 21.777344 17.757812 21.894531 17.144531 21.882812 L 18.945312 21.363281 L 19.144531 20.664062 C 19.144531 20.664062 17.867188 20.878906 17.703125 20.890625 C 19.066406 20.480469 19.09375 20.457031 19.09375 20.457031 C 19.09375 20.457031 18.644531 19.707031 18.15625 19.496094 C 18.90625 19.546875 19.351562 18.785156 19.351562 18.785156 C 19.351562 18.785156 19.191406 19.722656 19.277344 20.117188 C 19.347656 20.429688 19.4375 20.734375 19.546875 21.039062 C 19.546875 21.039062 19.75 20.402344 20.015625 19.8125 C 19.976562 20.222656 19.964844 20.34375 19.964844 20.34375 C 19.964844 20.34375 20.480469 19.785156 20.546875 19.121094 C 20.609375 18.460938 19.144531 17.554688 19.144531 17.554688 C 19.144531 17.554688 18.789062 17.988281 18.390625 18.164062 L 18.507812 17.988281 C 18.507812 17.988281 17.769531 18.113281 17.25 17.960938 C 17.449219 18.308594 17.3125 18.886719 17.203125 19.21875 C 17.246094 18.910156 17.265625 18.339844 16.925781 18.050781 C 16.726562 18.332031 16.691406 18.554688 16.691406 18.554688 C 16.691406 18.554688 16.734375 17.703125 15.597656 16.949219 C 15.609375 16.6875 15.664062 16.4375 15.765625 16.195312 C 15.765625 16.195312 15.816406 16.644531 16.019531 16.921875 C 16.222656 17.195312 16.925781 17.648438 17.96875 17.019531 C 19.011719 16.390625 19.484375 16.574219 19.726562 16.726562 C 19.304688 16.820312 19.226562 17.324219 19.226562 17.324219 C 19.226562 17.324219 19.683594 17.503906 20.027344 17.367188 C 20.367188 17.226562 20.253906 16.300781 20.136719 15.992188 C 19.828125 15.660156 19.433594 15.339844 19.011719 14.972656 C 19.484375 15.105469 20.335938 15.484375 20.898438 16.566406 C 20.867188 15.8125 20.582031 15.109375 20.550781 15.039062 C 20.617188 15.164062 21.628906 16.992188 23.21875 17.429688 Z M 15.242188 16.039062 C 15.242188 16.039062 14.707031 15.394531 14.597656 14.929688 C 14.789062 15.226562 15.242188 15.410156 15.242188 15.410156 C 15.242188 15.410156 15.699219 15.226562 15.890625 14.929688 C 15.78125 15.394531 15.242188 16.039062 15.242188 16.039062 Z M 15.242188 16.039062 " fill-opacity="1" fill-rule="nonzero"/><path fill="#ffffff" d="M 23.328125 15.355469 C 22.246094 14.871094 21.824219 13.867188 21.824219 13.867188 C 21.824219 13.867188 22.046875 15.136719 23.347656 15.996094 C 24.652344 16.859375 24.585938 18.050781 24.585938 18.050781 C 24.585938 18.050781 25.003906 16.515625 23.789062 15.289062 C 24.507812 15.820312 25.425781 16.140625 25.425781 16.140625 C 25.425781 16.140625 23.945312 15.058594 23.285156 13.722656 C 23.285156 13.71875 23.132812 14.59375 23.328125 15.355469 Z M 23.328125 15.355469 " fill-opacity="1" fill-rule="nonzero"/><path fill="#ffffff" d="M 23.53125 17.960938 C 23.53125 17.960938 24.414062 19.191406 24.226562 20.40625 C 23.238281 17.9375 21.15625 17.679688 21.15625 17.679688 C 22.257812 18.449219 22.664062 19.351562 22.664062 19.351562 C 22.664062 19.351562 22.183594 18.671875 21.089844 18.167969 C 22.507812 19.273438 22.484375 20.824219 22.484375 20.824219 C 22.484375 20.824219 21.9375 19.976562 21.125 19.339844 C 22.394531 20.867188 22.207031 22.640625 22.207031 22.640625 C 22.207031 22.640625 21.835938 21.191406 21.113281 20.3125 C 21.894531 22.195312 21.234375 24.183594 21.234375 24.183594 C 21.234375 24.183594 21.199219 22.296875 20.546875 21.382812 C 20.984375 23.800781 19.964844 25.53125 19.964844 25.53125 C 19.964844 25.53125 19.964844 24.125 20.320312 23.007812 C 18.480469 25.160156 18.722656 28.292969 18.722656 28.292969 C 18.722656 28.292969 18.578125 27.777344 18.347656 27.390625 C 18.90625 30.582031 17.898438 31.613281 17.898438 31.613281 C 17.898438 31.613281 19.035156 31.253906 19.007812 28.734375 C 18.976562 26.214844 19.695312 25.414062 19.695312 25.414062 C 18.964844 28.390625 20.28125 31.226562 20.28125 31.226562 C 20.28125 31.226562 19.867188 28.347656 20.953125 26.363281 C 20.652344 27.785156 21.339844 28.679688 21.070312 30.410156 C 21.914062 29.164062 21.382812 26.230469 21.941406 24.914062 C 21.785156 26.703125 22.414062 28.550781 22.414062 28.550781 C 22.414062 28.550781 22.414062 25.828125 23.117188 24.121094 C 23.589844 25.761719 22.941406 27.417969 22.941406 27.417969 C 22.941406 27.417969 23.988281 26.316406 23.800781 24.613281 C 23.617188 22.910156 23.886719 21.75 23.886719 21.75 C 23.886719 21.75 23.929688 22.652344 24.703125 23.640625 C 24.144531 21.320312 24.691406 20.40625 24.691406 20.40625 C 25.148438 21.480469 25.277344 22.160156 25.277344 22.160156 C 25.425781 17.953125 23.53125 17.960938 23.53125 17.960938 Z M 23.53125 17.960938 " fill-opacity="1" fill-rule="nonzero"/><path fill="#ffffff" d="M 22.253906 12.886719 C 21.816406 12.996094 21.695312 13.082031 21.695312 13.082031 C 21.695312 13.082031 22.621094 13.058594 22.742188 14.285156 C 23.265625 13.03125 22.972656 12.609375 22.972656 12.609375 L 23.75 12.839844 C 23.75 12.839844 22.671875 11.414062 21.121094 11.851562 C 21.121094 11.851562 21.597656 10.929688 22.546875 10.710938 C 20.964844 10.40625 19.53125 11.050781 20.367188 12.960938 C 20.367188 12.960938 21.304688 12.691406 22.253906 12.886719 Z M 22.253906 12.886719 " fill-opacity="1" fill-rule="nonzero"/><path fill="#ffffff" d="M 16.203125 26.042969 C 15.621094 25.953125 15.242188 26.003906 15.242188 26.003906 C 15.242188 26.003906 14.863281 25.953125 14.28125 26.042969 C 14.078125 25.75 14.105469 25.523438 14.105469 25.523438 L 14.363281 25.726562 C 14.617188 25.699219 15.242188 25.695312 15.242188 25.695312 C 15.242188 25.695312 15.867188 25.699219 16.121094 25.726562 L 16.382812 25.523438 C 16.382812 25.523438 16.40625 25.75 16.203125 26.042969 Z M 16.203125 26.042969 " fill-opacity="1" fill-rule="nonzero"/><path fill="#ffffff" d="M 17.835938 17.363281 L 17.109375 17.589844 C 17.109375 17.589844 17.664062 17.914062 18.160156 17.792969 C 18.660156 17.675781 18.96875 17.011719 18.96875 17.011719 L 18.085938 17.285156 L 18.085938 17.597656 Z M 17.835938 17.363281 " fill-opacity="1" fill-rule="nonzero"/><path fill="#ffffff" d="M 17.414062 30.496094 C 17.414062 30.496094 17.460938 29.789062 17.316406 29.3125 C 17.160156 29.972656 16.464844 31.03125 16.464844 31.03125 C 16.574219 30.605469 16.460938 30.015625 16.460938 30.015625 C 16.363281 30.742188 16.148438 31.4375 15.816406 32.09375 C 17 31.277344 17.207031 30.109375 17.207031 30.109375 C 17.207031 30.109375 17.285156 31.0625 16.75 31.863281 C 17.957031 31.085938 17.71875 29.191406 17.71875 29.191406 C 17.628906 30.117188 17.414062 30.496094 17.414062 30.496094 Z M 17.414062 30.496094 " fill-opacity="1" fill-rule="nonzero"/><path fill="#ffffff" d="M 17.109375 10.109375 C 16.542969 10.402344 16.324219 10.863281 16.324219 10.863281 C 16.324219 10.863281 16.980469 10.519531 18.042969 10.28125 C 17.378906 10.945312 17.0625 11.40625 17.0625 11.40625 C 17.0625 11.40625 17.996094 10.761719 19.027344 10.503906 C 20.058594 10.246094 20.082031 9.503906 20.082031 9.503906 C 20.082031 9.503906 19.5625 9.921875 18.441406 9.863281 L 18.9375 9.566406 C 18.9375 9.566406 17.277344 9.359375 16.285156 9.839844 C 16.753906 9.371094 16.859375 9.1875 16.859375 9.1875 C 16.859375 9.1875 15.273438 9.640625 15.246094 11.265625 C 15.242188 11.265625 16.007812 10.125 17.109375 10.109375 Z M 17.109375 10.109375 " fill-opacity="1" fill-rule="nonzero"/><path fill="#ffffff" d="M 22.25 4.125 L 19.09375 5.433594 L 19.769531 6.921875 L 18.003906 7.734375 L 15.902344 6.625 L 17.25 5.316406 L 15.246094 2.421875 L 13.242188 5.316406 L 14.589844 6.625 L 12.488281 7.734375 L 10.71875 6.921875 L 11.394531 5.433594 L 8.238281 4.125 L 8.785156 5.363281 L 10.003906 5.960938 L 9.433594 6.832031 L 10.402344 9.027344 L 10.460938 9.027344 C 11.6875 8.390625 13.375 7.996094 15.242188 7.996094 C 17.113281 7.996094 18.800781 8.390625 20.027344 9.027344 L 20.085938 9.027344 L 21.054688 6.832031 L 20.484375 5.960938 L 21.703125 5.363281 Z M 14.53125 4.980469 L 15.242188 3.992188 L 15.957031 4.980469 L 15.242188 5.5625 Z M 14.53125 4.980469 " fill-opacity="1" fill-rule="nonzero"/><path fill="#a6a6a6" d="M 10.207031 31.226562 C 10.21875 31.148438 10.609375 28.324219 9.535156 26.363281 C 9.835938 27.785156 9.148438 28.679688 9.421875 30.410156 C 8.574219 29.164062 9.105469 26.230469 8.546875 24.914062 C 8.703125 26.703125 8.074219 28.550781 8.074219 28.550781 C 8.074219 28.550781 8.074219 25.828125 7.375 24.121094 C 6.90625 25.738281 7.527344 27.375 7.546875 27.417969 C 7.515625 27.386719 6.503906 26.292969 6.6875 24.613281 C 6.875 22.910156 6.601562 21.75 6.601562 21.75 C 6.601562 21.75 6.558594 22.652344 5.785156 23.640625 C 6.34375 21.320312 5.800781 20.40625 5.800781 20.40625 C 5.339844 21.480469 5.210938 22.160156 5.210938 22.160156 C 5.0625 17.953125 6.957031 17.960938 6.957031 17.960938 C 6.957031 17.960938 5.871094 18.257812 5.566406 20.253906 C 5.707031 20.066406 5.816406 19.859375 5.894531 19.640625 C 5.894531 19.640625 6.457031 21.359375 6.171875 22.542969 C 6.378906 22.035156 6.519531 21.507812 6.59375 20.964844 C 6.59375 20.964844 7.367188 22.203125 7.066406 23.890625 C 7.234375 23.582031 7.339844 23.253906 7.390625 22.90625 C 7.390625 22.90625 8.417969 24.796875 8.1875 26.796875 C 8.480469 25.640625 8.328125 24.121094 8.328125 24.121094 C 8.328125 24.121094 9.179688 24.863281 9.097656 27.058594 C 9.289062 26.476562 9.371094 25.882812 9.34375 25.273438 C 9.34375 25.273438 10.761719 27.121094 10.566406 29.132812 C 10.945312 28.464844 10.960938 26.421875 10.796875 25.414062 C 11.515625 28.351562 10.242188 31.148438 10.207031 31.226562 Z M 10.207031 31.226562 " fill-opacity="1" fill-rule="nonzero"/><path fill="#a6a6a6" d="M 8.003906 20.824219 C 7.949219 20.621094 7.992188 20.039062 8.164062 19.316406 C 7.660156 19.707031 7.269531 20.308594 7.269531 20.308594 C 7.585938 18.300781 9.277344 17.699219 9.332031 17.679688 C 8.265625 18.425781 7.847656 19.296875 7.824219 19.351562 C 7.859375 19.304688 8.34375 18.652344 9.394531 18.171875 C 7.980469 19.273438 8.003906 20.824219 8.003906 20.824219 Z M 8.003906 20.824219 " fill-opacity="1" fill-rule="nonzero"/><path fill="#737373" d="M 9.253906 24.179688 C 9.253906 24.179688 9.257812 23.894531 9.300781 23.488281 C 9.273438 23.898438 9.253906 24.179688 9.253906 24.179688 Z M 9.253906 24.179688 " fill-opacity="1" fill-rule="nonzero"/><path fill="#a6a6a6" d="M 9.25 24.179688 C 9.234375 24.15625 8.726562 23.425781 8.707031 22.207031 C 8.433594 22.800781 8.207031 23.769531 8.207031 23.769531 C 7.527344 21.050781 9.269531 19.425781 9.359375 19.34375 L 9.363281 19.339844 C 8.09375 20.871094 8.28125 22.644531 8.28125 22.644531 C 8.28125 22.644531 8.648438 21.191406 9.375 20.3125 C 8.601562 22.175781 9.238281 24.140625 9.25 24.179688 Z M 9.25 24.179688 " fill-opacity="1" fill-rule="nonzero"/><path fill="#a6a6a6" d="M 16.375 29.296875 C 16.730469 28.75 16.601562 27.996094 16.601562 27.996094 C 16.601562 27.996094 16.492188 29.597656 15.246094 29.597656 C 14 29.597656 13.890625 27.996094 13.890625 27.996094 C 13.890625 27.996094 13.761719 28.75 14.117188 29.296875 C 11.832031 28.558594 12.695312 26.484375 12.695312 26.484375 C 12.695312 26.484375 12.644531 28.019531 13.617188 28.769531 C 13.566406 27.582031 13.804688 26.988281 13.804688 26.988281 C 13.804688 26.988281 13.777344 28.265625 15.246094 28.265625 C 16.714844 28.265625 16.6875 26.988281 16.6875 26.988281 C 16.6875 26.988281 16.925781 27.582031 16.875 28.769531 C 17.847656 28.019531 17.796875 26.484375 17.796875 26.484375 C 17.796875 26.484375 18.65625 28.558594 16.375 29.296875 Z M 16.375 29.296875 " fill-opacity="1" fill-rule="nonzero"/><g mask="url(#75eb201e63)"><g transform="matrix(1, 0, 0, 1, 13, 25)"><g clip-path="url(#ae6b50cc91)"><g clip-path="url(#f152df01ec)"><path fill="#172029" d="M 2.242188 0.847656 L 2.242188 1.003906 C 2.242188 1.003906 1.863281 0.953125 1.285156 1.042969 C 1.082031 0.75 1.105469 0.523438 1.105469 0.523438 C 1.105469 0.523438 1.210938 0.789062 1.355469 0.902344 C 1.464844 0.839844 2.242188 0.847656 2.242188 0.847656 Z M 2.242188 0.847656 " fill-opacity="1" fill-rule="nonzero"/></g></g></g></g><g mask="url(#1f5defdc21)"><g transform="matrix(1, 0, 0, 1, 13, 23)"><g clip-path="url(#91a3937eb9)"><g clip-path="url(#5b3a92a14a)"><path fill="#172029" d="M 2.242188 0.582031 L 2.242188 0.703125 C 2.242188 0.703125 1.5625 0.75 1.199219 0.683594 C 1.15625 0.972656 1.195312 1.109375 1.199219 1.121094 C 1.1875 1.113281 1.019531 0.949219 1.078125 0.570312 C 1.078125 0.570312 1.347656 0.675781 2.242188 0.582031 Z M 2.242188 0.582031 " fill-opacity="1" fill-rule="nonzero"/></g></g></g></g><g mask="url(#ee03616bfe)"><g transform="matrix(1, 0, 0, 1, 11, 20)"><g clip-path="url(#2e22860645)"><g clip-path="url(#eef73d2da9)"><path fill="#172029" d="M 2.480469 5.179688 C 1.609375 4.46875 1.664062 3.492188 1.71875 3.140625 C 1.40625 2.964844 1.109375 2.761719 0.828125 2.535156 C 1.445312 2.589844 2.058594 2.585938 2.671875 2.523438 L 0.828125 2.160156 L 0.601562 1.777344 C 0.601562 1.777344 1.726562 1.894531 2.339844 1.882812 L 0.542969 1.363281 L 0.34375 0.664062 C 0.34375 0.664062 1.5 0.859375 1.753906 0.886719 L 0.601562 0.933594 L 1.109375 1.265625 L 3.097656 1.949219 L 1.527344 2.074219 L 3.289062 2.472656 C 3.289062 2.472656 3.058594 2.617188 2.054688 2.960938 C 1.613281 4.230469 2.441406 5.136719 2.480469 5.179688 Z M 2.480469 5.179688 " fill-opacity="1" fill-rule="nonzero"/></g></g></g></g><g mask="url(#0fafdfc5a3)"><g transform="matrix(1, 0, 0, 1, 9, 17)"><g clip-path="url(#b6cefdbe0e)"><g clip-path="url(#1aa6aff2d9)"><path fill="#172029" d="M 3.96875 1.394531 C 3.867188 1.367188 3.234375 1.15625 3.234375 1.15625 C 3.234375 1.15625 3.253906 1.238281 3.386719 1.535156 C 3.011719 1.308594 2.664062 1.046875 2.34375 0.75 C 2.34375 0.75 1.699219 1.167969 1.433594 1.59375 C 1.167969 2.023438 1.390625 2.535156 1.390625 2.535156 L 1.472656 2.136719 C 1.796875 2.863281 1.933594 3.988281 1.941406 4.039062 C 1.925781 4 1.726562 3.386719 1.472656 2.8125 C 1.507812 3.222656 1.519531 3.34375 1.519531 3.34375 C 1.519531 3.34375 1.007812 2.785156 0.941406 2.125 C 0.875 1.460938 2.34375 0.554688 2.34375 0.554688 C 2.34375 0.554688 2.695312 0.988281 3.09375 1.164062 L 2.976562 0.988281 C 2.976562 0.988281 3.71875 1.113281 4.238281 0.960938 C 4.042969 1.300781 4.167969 1.859375 4.273438 2.195312 C 4.246094 2.164062 4.085938 1.976562 3.96875 1.394531 Z M 3.96875 1.394531 " fill-opacity="1" fill-rule="nonzero"/></g></g></g></g><g mask="url(#038721d9f4)"><g transform="matrix(1, 0, 0, 1, 13, 18)"><g clip-path="url(#75a8fdee1b)"><g clip-path="url(#1be749f9bd)"><path fill="#172029" d="M 2.242188 1.828125 L 2.242188 2.121094 C 2.242188 2.121094 1.453125 2.238281 1.105469 1.808594 C 0.882812 2.417969 0.597656 2.535156 0.4375 2.523438 C 0.273438 2.511719 0.101562 2.003906 0.09375 1.976562 C 0.101562 1.992188 0.285156 2.308594 0.589844 2.226562 C 0.902344 2.140625 1.066406 1.097656 1.066406 1.097656 C 1.066406 1.097656 1.285156 1.765625 2.242188 1.828125 Z M 2.242188 1.828125 " fill-opacity="1" fill-rule="nonzero"/></g></g></g></g><path fill="#a6a6a6" d="M 11.515625 17.011719 L 12.398438 17.285156 L 12.398438 17.558594 C 12.0625 17.390625 11.539062 17.027344 11.515625 17.011719 Z M 11.515625 17.011719 " fill-opacity="1" fill-rule="nonzero"/><path fill="#a6a6a6" d="M 13.378906 17.589844 C 13.355469 17.59375 12.847656 17.699219 12.59375 17.636719 C 12.535156 17.621094 12.480469 17.597656 12.425781 17.570312 L 12.652344 17.363281 Z M 13.378906 17.589844 " fill-opacity="1" fill-rule="nonzero"/><path fill="#a6a6a6" d="M 13.097656 17.996094 C 13.144531 17.988281 13.191406 17.976562 13.238281 17.960938 C 13.226562 17.984375 13.214844 18.007812 13.203125 18.03125 Z M 13.097656 17.996094 " fill-opacity="1" fill-rule="nonzero"/><g mask="url(#f62ac74e0c)"><g transform="matrix(1, 0, 0, 1, 10, 14)"><g clip-path="url(#8083a42bf4)"><g clip-path="url(#2ad221f292)"><path fill="#172029" d="M 4.722656 2.199219 C 4.722656 2.199219 4.671875 2.644531 4.46875 2.921875 C 4.265625 3.199219 3.5625 3.652344 2.519531 3.019531 C 1.480469 2.390625 1.003906 2.574219 0.757812 2.730469 C 1.183594 2.824219 1.261719 3.324219 1.261719 3.324219 C 1.261719 3.324219 0.804688 3.507812 0.460938 3.367188 C 0.425781 3.355469 0.394531 3.332031 0.367188 3.300781 L 0.367188 3.296875 C 0.367188 3.296875 0.339844 2.507812 0.6875 2.039062 C 1.03125 1.566406 2.332031 1.023438 2.332031 1.023438 C 2.339844 1.34375 2.421875 1.640625 2.578125 1.921875 C 2.734375 2.199219 2.949219 2.421875 3.222656 2.59375 C 2.804688 2.507812 2.417969 2.351562 2.058594 2.125 C 2.746094 3.042969 4.097656 3.566406 4.722656 2.199219 Z M 4.722656 2.199219 " fill-opacity="1" fill-rule="nonzero"/></g></g></g></g><g mask="url(#942b8ae7a6)"><g transform="matrix(1, 0, 0, 1, 7, 13)"><g clip-path="url(#1043f85e61)"><g clip-path="url(#b53f53b681)"><path fill="#172029" d="M 5.609375 0.871094 C 4.925781 1.027344 3.824219 1.546875 2.894531 2.636719 C 2.886719 2.210938 3.152344 1.472656 3.164062 1.449219 C 3.144531 1.457031 2.613281 1.757812 1.898438 2.882812 C 1.179688 4.011719 0.300781 4.417969 0.273438 4.429688 C 1.441406 3.328125 1.308594 0.988281 3.96875 1.054688 C 3.425781 1.417969 3.160156 2.160156 3.144531 2.210938 C 3.1875 2.148438 4.046875 0.984375 5.609375 0.871094 Z M 5.609375 0.871094 " fill-opacity="1" fill-rule="nonzero"/></g></g></g></g><g mask="url(#975cfc85eb)"><g transform="matrix(1, 0, 0, 1, 10, 11)"><g clip-path="url(#5a81435daa)"><g clip-path="url(#20925ebddd)"><path fill="#172029" d="M 1.671875 1.761719 C 1.671875 1.761719 1.304688 1.785156 0.757812 1.539062 C 0.6875 2.074219 0.957031 2.351562 0.957031 2.351562 C 1.304688 2.878906 2.539062 2.65625 2.589844 2.648438 C 2.511719 2.671875 -0.515625 3.644531 0.78125 0.707031 C 0.628906 1.476562 1.644531 1.753906 1.671875 1.761719 Z M 1.671875 1.761719 " fill-opacity="1" fill-rule="nonzero"/></g></g></g></g><g mask="url(#c9beb3a766)"><g transform="matrix(1, 0, 0, 1, 11, 10)"><g clip-path="url(#6d37a7c395)"><g clip-path="url(#bc5f8f6eac)"><path fill="#172029" d="M 3.648438 3.308594 C 3.625 3.273438 3.257812 2.675781 2.164062 2.191406 C 1.039062 1.691406 0.875 1.390625 0.875 1.390625 C 0.496094 1.941406 0.671875 2.761719 0.671875 2.761719 C 0.644531 2.742188 -0.0898438 2.207031 0.804688 0.863281 C 0.96875 1.769531 3.097656 1.757812 3.648438 3.308594 Z M 3.648438 3.308594 " fill-opacity="1" fill-rule="nonzero"/></g></g></g></g><g mask="url(#4740c5af97)"><g transform="matrix(1, 0, 0, 1, 13, 11)"><g clip-path="url(#6d950c71de)"><g clip-path="url(#521e9bcf2f)"><path fill="#172029" d="M 1.332031 0.644531 C 1.816406 1.457031 1.648438 2.3125 1.648438 2.3125 C 1.71875 1.164062 0.734375 0.136719 0.734375 0.136719 C 0.734375 0.136719 1.914062 0.453125 2.242188 1.6875 C 2.242188 1.691406 2.242188 1.691406 2.242188 1.691406 C 2.226562 1.664062 1.816406 0.921875 1.332031 0.644531 Z M 1.332031 0.644531 " fill-opacity="1" fill-rule="nonzero"/></g></g></g></g><path fill="#a6a6a6" d="M 13.484375 31.363281 C 13.550781 31.539062 13.636719 31.707031 13.738281 31.863281 C 13.253906 31.550781 13.003906 31.054688 12.875 30.574219 C 13.027344 30.78125 13.289062 31.128906 13.484375 31.363281 Z M 13.484375 31.363281 " fill-opacity="1" fill-rule="nonzero"/><path fill="#a6a6a6" d="M 14.675781 32.09375 C 13.527344 31.304688 13.296875 30.183594 13.28125 30.113281 C 13.28125 30.113281 13.28125 30.109375 13.28125 30.109375 C 13.28125 30.109375 13.648438 30.964844 14.289062 31.542969 C 14.183594 31.082031 14.105469 30.621094 14.046875 30.152344 C 14.15625 30.832031 14.367188 31.476562 14.675781 32.09375 Z M 14.675781 32.09375 " fill-opacity="1" fill-rule="nonzero"/><path fill="#a6a6a6" d="M 5.902344 18.046875 C 5.902344 18.046875 5.484375 16.511719 6.695312 15.289062 C 5.992188 15.808594 5.09375 16.128906 5.0625 16.136719 C 5.105469 16.105469 6.554688 15.035156 7.203125 13.71875 C 7.011719 15.308594 6.808594 15.699219 6.808594 15.699219 L 7.269531 15.605469 C 5.683594 16.324219 5.902344 18.046875 5.902344 18.046875 Z M 5.902344 18.046875 " fill-opacity="1" fill-rule="nonzero"/><path fill="#a6a6a6" d="M 9.683594 12.53125 C 8.269531 12.257812 7.621094 13.011719 7.621094 13.011719 C 7.800781 13.007812 7.972656 13.027344 8.144531 13.066406 C 7.585938 13.335938 7.738281 14.242188 7.746094 14.285156 C 7.222656 13.03125 7.515625 12.609375 7.515625 12.609375 L 6.738281 12.839844 C 6.738281 12.839844 7.816406 11.410156 9.367188 11.851562 C 9.367188 11.851562 8.890625 10.929688 7.941406 10.710938 C 9.390625 10.527344 9.945312 11.5625 9.683594 12.53125 Z M 9.683594 12.53125 " fill-opacity="1" fill-rule="nonzero"/><path fill="#a6a6a6" d="M 11.601562 10.019531 L 12.410156 10.53125 L 11.582031 10.265625 C 10.757812 10.003906 10.40625 9.507812 10.40625 9.507812 C 10.40625 9.507812 10.925781 9.921875 12.046875 9.867188 L 11.550781 9.570312 C 11.550781 9.570312 12.550781 9.683594 13.285156 10.296875 C 12.644531 9.980469 11.601562 10.019531 11.601562 10.019531 Z M 11.601562 10.019531 " fill-opacity="1" fill-rule="nonzero"/><path fill="#a6a6a6" d="M 20.277344 31.226562 C 20.265625 31.148438 19.878906 28.324219 20.949219 26.363281 C 20.648438 27.785156 21.335938 28.679688 21.066406 30.410156 C 21.910156 29.164062 21.378906 26.230469 21.9375 24.914062 C 21.78125 26.703125 22.410156 28.550781 22.410156 28.550781 C 22.410156 28.550781 22.410156 25.828125 23.113281 24.121094 C 23.578125 25.738281 22.957031 27.375 22.9375 27.417969 C 22.96875 27.386719 23.980469 26.292969 23.796875 24.613281 C 23.609375 22.910156 23.882812 21.75 23.882812 21.75 C 23.882812 21.75 23.925781 22.652344 24.699219 23.640625 C 24.140625 21.320312 24.683594 20.40625 24.683594 20.40625 C 25.144531 21.480469 25.273438 22.160156 25.273438 22.160156 C 25.421875 17.953125 23.527344 17.960938 23.527344 17.960938 C 23.527344 17.960938 24.613281 18.257812 24.917969 20.253906 C 24.777344 20.066406 24.667969 19.859375 24.589844 19.640625 C 24.589844 19.640625 24.03125 21.359375 24.3125 22.542969 C 24.105469 22.035156 23.964844 21.507812 23.890625 20.964844 C 23.890625 20.964844 23.121094 22.203125 23.421875 23.890625 C 23.253906 23.582031 23.148438 23.253906 23.097656 22.90625 C 23.097656 22.90625 22.070312 24.796875 22.296875 26.796875 C 22.007812 25.640625 22.15625 24.121094 22.15625 24.121094 C 22.15625 24.121094 21.304688 24.863281 21.390625 27.058594 C 21.199219 26.476562 21.117188 25.882812 21.140625 25.273438 C 21.140625 25.273438 19.726562 27.121094 19.921875 29.132812 C 19.542969 28.464844 19.527344 26.421875 19.691406 25.414062 C 18.96875 28.351562 20.242188 31.148438 20.277344 31.226562 Z M 20.277344 31.226562 " fill-opacity="1" fill-rule="nonzero"/><path fill="#a6a6a6" d="M 22.480469 20.824219 C 22.535156 20.621094 22.492188 20.039062 22.320312 19.316406 C 22.824219 19.707031 23.214844 20.308594 23.214844 20.308594 C 22.898438 18.300781 21.207031 17.699219 21.152344 17.679688 C 22.21875 18.425781 22.636719 19.296875 22.660156 19.351562 C 22.625 19.304688 22.140625 18.652344 21.089844 18.171875 C 22.503906 19.273438 22.480469 20.824219 22.480469 20.824219 Z M 22.480469 20.824219 " fill-opacity="1" fill-rule="nonzero"/><path fill="#737373" d="M 21.234375 24.179688 C 21.234375 24.179688 21.226562 23.894531 21.183594 23.488281 C 21.210938 23.898438 21.234375 24.179688 21.234375 24.179688 Z M 21.234375 24.179688 " fill-opacity="1" fill-rule="nonzero"/><path fill="#a6a6a6" d="M 21.234375 24.179688 C 21.25 24.15625 21.757812 23.425781 21.777344 22.207031 C 22.050781 22.800781 22.277344 23.769531 22.277344 23.769531 C 22.957031 21.050781 21.21875 19.425781 21.125 19.34375 L 21.121094 19.339844 C 22.394531 20.871094 22.203125 22.644531 22.203125 22.644531 C 22.203125 22.644531 21.835938 21.191406 21.109375 20.3125 C 21.882812 22.175781 21.246094 24.140625 21.234375 24.179688 Z M 21.234375 24.179688 " fill-opacity="1" fill-rule="nonzero"/><path fill="#a6a6a6" d="M 14.109375 29.296875 C 13.757812 28.75 13.886719 27.996094 13.886719 27.996094 C 13.886719 27.996094 13.996094 29.597656 15.242188 29.597656 C 16.488281 29.597656 16.597656 27.996094 16.597656 27.996094 C 16.597656 27.996094 16.722656 28.75 16.371094 29.296875 C 18.65625 28.558594 17.792969 26.484375 17.792969 26.484375 C 17.792969 26.484375 17.839844 28.019531 16.867188 28.769531 C 16.917969 27.582031 16.679688 26.988281 16.679688 26.988281 C 16.679688 26.988281 16.710938 28.265625 15.242188 28.265625 C 13.769531 28.265625 13.800781 26.988281 13.800781 26.988281 C 13.800781 26.988281 13.5625 27.582031 13.613281 28.769531 C 12.640625 28.019531 12.691406 26.484375 12.691406 26.484375 C 12.691406 26.484375 11.828125 28.558594 14.109375 29.296875 Z M 14.109375 29.296875 " fill-opacity="1" fill-rule="nonzero"/><g mask="url(#5d3f8895d2)"><g transform="matrix(1, 0, 0, 1, 15, 25)"><g clip-path="url(#28afbe7067)"><g clip-path="url(#ffa128047b)"><path fill="#172029" d="M 0.242188 0.847656 L 0.242188 1.003906 C 0.242188 1.003906 0.621094 0.953125 1.203125 1.042969 C 1.402344 0.75 1.378906 0.523438 1.378906 0.523438 C 1.378906 0.523438 1.273438 0.789062 1.128906 0.902344 C 1.019531 0.839844 0.242188 0.847656 0.242188 0.847656 Z M 0.242188 0.847656 " fill-opacity="1" fill-rule="nonzero"/></g></g></g></g><g mask="url(#8e749b502f)"><g transform="matrix(1, 0, 0, 1, 15, 23)"><g clip-path="url(#c5cb868082)"><g clip-path="url(#2b5cac5828)"><path fill="#172029" d="M 0.242188 0.582031 L 0.242188 0.703125 C 0.242188 0.703125 0.921875 0.75 1.285156 0.683594 C 1.328125 0.972656 1.289062 1.109375 1.285156 1.121094 C 1.296875 1.113281 1.464844 0.949219 1.40625 0.570312 C 1.40625 0.570312 1.136719 0.675781 0.242188 0.582031 Z M 0.242188 0.582031 " fill-opacity="1" fill-rule="nonzero"/></g></g></g></g><path fill="#a6a6a6" d="M 17.003906 25.179688 C 17.875 24.46875 17.820312 23.492188 17.765625 23.140625 C 18.078125 22.964844 18.375 22.761719 18.652344 22.535156 C 18.039062 22.589844 17.425781 22.585938 16.808594 22.523438 L 18.652344 22.160156 L 18.878906 21.777344 C 18.878906 21.777344 17.753906 21.894531 17.140625 21.882812 L 18.941406 21.363281 L 19.140625 20.664062 C 19.140625 20.664062 17.984375 20.859375 17.730469 20.886719 L 17.726562 20.886719 L 18.878906 20.933594 L 18.371094 21.265625 L 16.382812 21.949219 L 17.953125 22.074219 L 16.191406 22.472656 C 16.191406 22.472656 16.421875 22.617188 17.425781 22.960938 C 17.871094 24.230469 17.042969 25.136719 17.003906 25.179688 Z M 17.003906 25.179688 " fill-opacity="1" fill-rule="nonzero"/><path fill="#a6a6a6" d="M 17.519531 18.394531 C 17.617188 18.367188 18.25 18.15625 18.25 18.15625 C 18.25 18.15625 18.230469 18.238281 18.097656 18.535156 C 18.472656 18.308594 18.820312 18.046875 19.140625 17.75 C 19.140625 17.75 19.785156 18.167969 20.050781 18.59375 C 20.316406 19.023438 20.09375 19.535156 20.09375 19.535156 L 20.011719 19.136719 C 19.6875 19.863281 19.550781 20.988281 19.542969 21.039062 C 19.558594 21 19.757812 20.386719 20.015625 19.8125 C 19.976562 20.222656 19.964844 20.34375 19.964844 20.34375 C 19.964844 20.34375 20.476562 19.785156 20.542969 19.125 C 20.609375 18.460938 19.140625 17.554688 19.140625 17.554688 C 19.140625 17.554688 18.789062 17.988281 18.390625 18.164062 L 18.507812 17.988281 C 18.507812 17.988281 17.765625 18.113281 17.25 17.960938 C 17.441406 18.300781 17.316406 18.859375 17.210938 19.195312 C 17.242188 19.164062 17.398438 18.976562 17.519531 18.394531 Z M 17.519531 18.394531 " fill-opacity="1" fill-rule="nonzero"/><g mask="url(#105027fb5f)"><g transform="matrix(1, 0, 0, 1, 15, 18)"><g clip-path="url(#1b56be373a)"><g clip-path="url(#bce267ab54)"><path fill="#172029" d="M 0.242188 1.828125 L 0.242188 2.121094 C 0.242188 2.121094 1.03125 2.238281 1.378906 1.808594 C 1.601562 2.417969 1.886719 2.535156 2.046875 2.523438 C 2.210938 2.511719 2.382812 2.003906 2.390625 1.976562 C 2.382812 1.996094 2.203125 2.308594 1.894531 2.226562 C 1.582031 2.140625 1.421875 1.097656 1.421875 1.097656 C 1.421875 1.097656 1.199219 1.765625 0.242188 1.828125 Z M 0.242188 1.828125 " fill-opacity="1" fill-rule="nonzero"/></g></g></g></g><path fill="#a6a6a6" d="M 18.96875 17.011719 L 18.089844 17.285156 L 18.089844 17.558594 C 18.421875 17.390625 18.949219 17.027344 18.96875 17.011719 Z M 18.96875 17.011719 " fill-opacity="1" fill-rule="nonzero"/><path fill="#a6a6a6" d="M 17.105469 17.589844 C 17.128906 17.59375 17.636719 17.699219 17.890625 17.636719 C 17.949219 17.621094 18.003906 17.597656 18.058594 17.570312 L 17.832031 17.363281 Z M 17.105469 17.589844 " fill-opacity="1" fill-rule="nonzero"/><path fill="#a6a6a6" d="M 17.386719 17.996094 C 17.339844 17.988281 17.292969 17.976562 17.246094 17.960938 C 17.257812 17.984375 17.269531 18.007812 17.28125 18.03125 Z M 17.386719 17.996094 " fill-opacity="1" fill-rule="nonzero"/><path fill="#a6a6a6" d="M 15.761719 16.199219 C 15.761719 16.199219 15.8125 16.644531 16.015625 16.921875 C 16.21875 17.199219 16.921875 17.652344 17.964844 17.019531 C 19.003906 16.390625 19.480469 16.574219 19.726562 16.730469 C 19.300781 16.824219 19.222656 17.324219 19.222656 17.324219 C 19.222656 17.324219 19.679688 17.507812 20.023438 17.367188 C 20.058594 17.351562 20.089844 17.332031 20.113281 17.300781 L 20.117188 17.296875 C 20.117188 17.296875 20.140625 16.507812 19.796875 16.039062 C 19.453125 15.566406 18.152344 15.023438 18.152344 15.023438 C 18.144531 15.34375 18.0625 15.640625 17.90625 15.917969 C 17.75 16.199219 17.535156 16.421875 17.261719 16.59375 C 17.679688 16.503906 18.066406 16.347656 18.425781 16.125 C 17.738281 17.042969 16.386719 17.566406 15.761719 16.199219 Z M 15.761719 16.199219 " fill-opacity="1" fill-rule="nonzero"/><path fill="#a6a6a6" d="M 17.875 13.871094 C 18.558594 14.027344 19.660156 14.546875 20.589844 15.636719 C 20.597656 15.210938 20.332031 14.472656 20.320312 14.449219 C 20.339844 14.457031 20.871094 14.757812 21.589844 15.882812 C 22.304688 17.011719 23.1875 17.417969 23.210938 17.429688 C 22.042969 16.324219 22.175781 13.984375 19.515625 14.050781 C 20.058594 14.414062 20.324219 15.15625 20.34375 15.207031 C 20.296875 15.148438 19.4375 13.984375 17.875 13.871094 Z M 17.875 13.871094 " fill-opacity="1" fill-rule="nonzero"/><path fill="#a6a6a6" d="M 18.8125 12.761719 C 18.8125 12.761719 19.179688 12.785156 19.726562 12.539062 C 19.796875 13.074219 19.527344 13.351562 19.527344 13.351562 C 19.179688 13.878906 17.945312 13.65625 17.894531 13.648438 C 17.972656 13.671875 21 14.644531 19.707031 11.707031 C 19.855469 12.476562 18.839844 12.753906 18.8125 12.761719 Z M 18.8125 12.761719 " fill-opacity="1" fill-rule="nonzero"/><path fill="#a6a6a6" d="M 15.835938 13.308594 C 15.859375 13.273438 16.226562 12.675781 17.320312 12.191406 C 18.445312 11.691406 18.609375 11.390625 18.609375 11.390625 C 18.988281 11.941406 18.8125 12.761719 18.8125 12.761719 C 18.84375 12.742188 19.574219 12.207031 18.679688 10.863281 C 18.515625 11.769531 16.386719 11.757812 15.835938 13.308594 Z M 15.835938 13.308594 " fill-opacity="1" fill-rule="nonzero"/><path fill="#a6a6a6" d="M 16.152344 11.644531 C 15.667969 12.457031 15.835938 13.3125 15.835938 13.3125 C 15.765625 12.164062 16.75 11.136719 16.75 11.136719 C 16.75 11.136719 15.570312 11.453125 15.242188 12.6875 C 15.242188 12.691406 15.242188 12.691406 15.242188 12.691406 C 15.257812 12.664062 15.667969 11.921875 16.152344 11.644531 Z M 16.152344 11.644531 " fill-opacity="1" fill-rule="nonzero"/><path fill="#a6a6a6" d="M 17.003906 31.363281 C 16.933594 31.539062 16.847656 31.707031 16.746094 31.863281 C 17.230469 31.550781 17.484375 31.054688 17.609375 30.574219 C 17.457031 30.78125 17.199219 31.128906 17.003906 31.363281 Z M 17.003906 31.363281 " fill-opacity="1" fill-rule="nonzero"/><path fill="#a6a6a6" d="M 15.808594 32.09375 C 16.957031 31.304688 17.1875 30.183594 17.203125 30.113281 C 17.203125 30.113281 17.203125 30.109375 17.203125 30.109375 C 17.203125 30.109375 16.835938 30.964844 16.195312 31.542969 C 16.300781 31.082031 16.378906 30.621094 16.4375 30.152344 C 16.328125 30.832031 16.117188 31.476562 15.808594 32.09375 Z M 15.808594 32.09375 " fill-opacity="1" fill-rule="nonzero"/><path fill="#a6a6a6" d="M 24.582031 18.046875 C 24.582031 18.046875 25 16.511719 23.789062 15.289062 C 24.492188 15.808594 25.394531 16.128906 25.421875 16.136719 C 25.375 16.105469 23.929688 15.035156 23.28125 13.71875 C 23.472656 15.308594 23.675781 15.699219 23.675781 15.699219 L 23.214844 15.605469 C 24.800781 16.324219 24.582031 18.046875 24.582031 18.046875 Z M 24.582031 18.046875 " fill-opacity="1" fill-rule="nonzero"/><path fill="#a6a6a6" d="M 20.800781 12.53125 C 22.214844 12.257812 22.863281 13.011719 22.863281 13.011719 C 22.6875 13.007812 22.511719 13.027344 22.339844 13.066406 C 22.898438 13.335938 22.746094 14.242188 22.738281 14.285156 C 23.261719 13.035156 22.96875 12.609375 22.96875 12.609375 L 23.75 12.839844 C 23.75 12.839844 22.671875 11.414062 21.121094 11.855469 C 21.121094 11.855469 21.597656 10.929688 22.542969 10.710938 C 21.09375 10.527344 20.539062 11.5625 20.800781 12.53125 Z M 20.800781 12.53125 " fill-opacity="1" fill-rule="nonzero"/><path fill="#a6a6a6" d="M 18.882812 10.019531 L 18.078125 10.53125 L 18.902344 10.265625 C 19.730469 10.003906 20.082031 9.507812 20.082031 9.507812 C 20.082031 9.507812 19.5625 9.921875 18.4375 9.867188 L 18.9375 9.570312 C 18.9375 9.570312 17.933594 9.683594 17.199219 10.300781 C 17.839844 9.980469 18.882812 10.019531 18.882812 10.019531 Z M 18.882812 10.019531 " fill-opacity="1" fill-rule="nonzero"/><path fill="#a6a6a6" d="M 15.246094 5.957031 L 15.246094 7.453125 C 11.636719 7.730469 10.402344 9.027344 10.402344 9.027344 L 9.433594 6.832031 L 10.003906 5.960938 L 8.785156 5.363281 L 8.238281 4.125 L 10.875 5.5625 L 10.367188 7.101562 L 12.488281 7.738281 L 14.589844 6.625 L 13.238281 5.316406 L 15.242188 2.417969 L 15.242188 3.683594 L 14.183594 5.070312 Z M 15.246094 5.957031 " fill-opacity="1" fill-rule="nonzero"/><path fill="#a6a6a6" d="M 21.703125 5.363281 L 20.484375 5.960938 L 21.054688 6.832031 L 20.085938 9.027344 L 20.027344 9.027344 L 20.71875 6.914062 L 20.121094 5.792969 L 21.433594 5.144531 L 22.25 4.125 Z M 21.703125 5.363281 " fill-opacity="1" fill-rule="nonzero"/><g clip-path="url(#7c2dac0a54)"><path fill="#a6a6a6" d="M 4.933594 27.257812 L 5.070312 27.480469 C 3.546875 27.070312 2.050781 26.398438 0.601562 25.5 C 1.03125 28.039062 2.9375 28.496094 4.796875 27.710938 C 4.925781 27.660156 5.058594 27.65625 5.199219 27.679688 C 5.496094 28.128906 5.816406 28.566406 6.167969 28.984375 C 4.316406 28.890625 2.4375 28.464844 0.5625 27.738281 C 1.546875 30.402344 3.703125 30.5 5.554688 29.269531 C 5.769531 29.132812 6.027344 29.140625 6.335938 29.175781 C 7.761719 30.808594 9.632812 32.164062 11.941406 33.0625 C 12.550781 33.300781 13.308594 33.535156 14.132812 33.742188 C 13.832031 33.785156 13.53125 33.816406 13.234375 33.847656 C 12.476562 33.917969 12.074219 34.160156 11.664062 34.53125 C 12.777344 34.457031 14.058594 34.265625 15.285156 34.007812 C 16.511719 34.265625 17.792969 34.457031 18.90625 34.53125 C 18.5 34.160156 18.097656 33.917969 17.339844 33.847656 C 17.042969 33.816406 16.738281 33.785156 16.4375 33.742188 C 17.261719 33.535156 18.019531 33.300781 18.632812 33.0625 C 20.941406 32.164062 22.808594 30.808594 24.242188 29.175781 C 24.546875 29.140625 24.808594 29.132812 25.015625 29.269531 C 26.867188 30.5 29.027344 30.402344 30.011719 27.738281 C 28.136719 28.464844 26.253906 28.890625 24.402344 28.984375 C 24.753906 28.566406 25.078125 28.128906 25.371094 27.679688 C 25.515625 27.65625 25.648438 27.660156 25.773438 27.710938 C 27.636719 28.496094 29.539062 28.039062 29.972656 25.5 C 28.523438 26.398438 27.027344 27.070312 25.503906 27.480469 L 25.636719 27.257812 C 25.886719 26.851562 26.105469 26.421875 26.3125 25.980469 C 26.394531 25.953125 26.480469 25.945312 26.566406 25.957031 C 28.554688 26.230469 30.265625 25.308594 30.023438 22.761719 C 28.921875 23.9375 27.722656 24.925781 26.4375 25.695312 C 26.710938 25.050781 26.9375 24.378906 27.117188 23.683594 C 28.929688 23.601562 30.300781 22.492188 29.671875 20.257812 C 28.953125 21.375 28.140625 22.359375 27.230469 23.203125 C 27.375 22.570312 27.476562 21.929688 27.539062 21.28125 C 29.171875 20.835938 30.195312 19.550781 29.171875 17.632812 C 28.75 18.765625 28.222656 19.808594 27.585938 20.742188 C 27.621094 20.117188 27.628906 19.488281 27.59375 18.871094 C 28.839844 18.070312 29.359375 16.734375 28.019531 15.375 C 27.957031 16.34375 27.792969 17.277344 27.539062 18.152344 C 27.460938 17.4375 27.339844 16.730469 27.15625 16.042969 C 27.898438 15.207031 28.003906 14.121094 26.75 13.40625 C 26.886719 14.074219 26.960938 14.738281 26.964844 15.378906 L 27.015625 15.542969 C 26.75 14.671875 26.398438 13.84375 25.953125 13.082031 C 27.714844 17.601562 27.898438 22.804688 25.328125 27.070312 C 23.863281 29.492188 21.582031 31.449219 18.5 32.648438 C 17.5625 33.015625 16.449219 33.328125 15.285156 33.546875 C 14.125 33.328125 13.007812 33.015625 12.070312 32.648438 C 8.992188 31.449219 6.710938 29.492188 5.246094 27.070312 C 2.671875 22.804688 2.859375 17.601562 4.621094 13.082031 C 4.175781 13.84375 3.820312 14.671875 3.558594 15.542969 L 3.605469 15.378906 C 3.609375 14.738281 3.6875 14.074219 3.828125 13.40625 C 2.566406 14.121094 2.671875 15.207031 3.414062 16.042969 C 3.234375 16.730469 3.109375 17.4375 3.035156 18.152344 C 2.777344 17.277344 2.621094 16.34375 2.550781 15.375 C 1.214844 16.734375 1.734375 18.070312 2.980469 18.871094 C 2.945312 19.488281 2.949219 20.117188 2.984375 20.742188 C 2.351562 19.808594 1.820312 18.765625 1.398438 17.632812 C 0.378906 19.550781 1.398438 20.835938 3.03125 21.28125 C 3.09375 21.929688 3.199219 22.570312 3.339844 23.203125 C 2.433594 22.359375 1.621094 21.375 0.902344 20.257812 C 0.273438 22.492188 1.644531 23.601562 3.457031 23.683594 C 3.636719 24.378906 3.863281 25.050781 4.136719 25.695312 C 2.851562 24.925781 1.652344 23.9375 0.550781 22.761719 C 0.308594 25.308594 2.019531 26.230469 4.003906 25.957031 C 4.09375 25.945312 4.175781 25.953125 4.261719 25.980469 C 4.464844 26.421875 4.6875 26.851562 4.933594 27.257812 Z M 4.933594 27.257812 " fill-opacity="1" fill-rule="evenodd"/></g><g transform="matrix(1, 0, 0, 1, 35, 12)"><g clip-path="url(#eae7eba355)"><g clip-path="url(#79bbe7bf9b)"><g fill="#f79533" fill-opacity="1"><g transform="translate(0.319504, 13.452226)"><g><path d="M 0.28125 0 L 5.609375 -13.109375 L 5.875 -13.109375 L 11.203125 0 L 8.34375 0 L 7.828125 -1.359375 L 3.640625 -1.359375 L 3.140625 0 Z M 4.5625 -3.734375 L 6.890625 -3.734375 L 5.75 -7.015625 Z M 4.5625 -3.734375 "/></g></g></g></g><g clip-path="url(#8e2c78e081)"><g fill="#f79533" fill-opacity="1"><g transform="translate(10.982972, 13.452226)"><g><path d="M 7.71875 0 L 5.171875 -4.828125 L 3.9375 -4.828125 L 3.9375 0 L 1.421875 0 L 1.421875 -12.640625 L 6.40625 -12.640625 C 7.15625 -12.640625 7.789062 -12.484375 8.3125 -12.171875 C 8.84375 -11.859375 9.253906 -11.453125 9.546875 -10.953125 C 9.847656 -10.453125 10.03125 -9.910156 10.09375 -9.328125 C 10.164062 -8.742188 10.125 -8.171875 9.96875 -7.609375 C 9.8125 -7.054688 9.539062 -6.5625 9.15625 -6.125 C 8.769531 -5.695312 8.265625 -5.394531 7.640625 -5.21875 L 10.578125 0 Z M 3.9375 -7.28125 L 6.171875 -7.28125 C 6.515625 -7.28125 6.789062 -7.375 7 -7.5625 C 7.207031 -7.757812 7.34375 -8 7.40625 -8.28125 C 7.476562 -8.5625 7.476562 -8.84375 7.40625 -9.125 C 7.34375 -9.40625 7.207031 -9.640625 7 -9.828125 C 6.789062 -10.023438 6.515625 -10.125 6.171875 -10.125 L 3.9375 -10.125 Z M 3.9375 -7.28125 "/></g></g></g></g><g clip-path="url(#2493ff0046)"><g fill="#f79533" fill-opacity="1"><g transform="translate(20.939061, 13.452226)"><g><path d="M 7.21875 -7.28125 L 12.203125 -12.84375 L 13 -12.84375 L 13 0 L 10.4375 0 L 10.453125 -7.0625 L 7.21875 -3.65625 L 3.984375 -7.0625 L 3.984375 0 L 1.421875 0 L 1.421875 -12.84375 L 2.234375 -12.84375 Z M 7.21875 -7.28125 "/></g></g></g></g><g clip-path="url(#1d4ebc133b)"><g fill="#f79533" fill-opacity="1"><g transform="translate(34.485079, 13.452226)"><g><path d="M 0.828125 -0.8125 L 1.15625 -3.46875 C 1.632812 -3.125 2.113281 -2.878906 2.59375 -2.734375 C 3.070312 -2.585938 3.503906 -2.5 3.890625 -2.46875 C 4.273438 -2.445312 4.566406 -2.441406 4.765625 -2.453125 C 5.140625 -2.484375 5.457031 -2.617188 5.71875 -2.859375 C 5.988281 -3.097656 6.101562 -3.390625 6.0625 -3.734375 C 6.039062 -4.097656 5.90625 -4.375 5.65625 -4.5625 C 5.40625 -4.75 5.109375 -4.898438 4.765625 -5.015625 C 4.097656 -5.265625 3.476562 -5.550781 2.90625 -5.875 C 2.332031 -6.207031 1.875 -6.613281 1.53125 -7.09375 C 1.1875 -7.570312 1.015625 -8.164062 1.015625 -8.875 C 1.015625 -9.582031 1.160156 -10.222656 1.453125 -10.796875 C 1.753906 -11.367188 2.175781 -11.828125 2.71875 -12.171875 C 3.257812 -12.515625 3.878906 -12.703125 4.578125 -12.734375 C 4.910156 -12.753906 5.316406 -12.738281 5.796875 -12.6875 C 6.273438 -12.644531 6.921875 -12.484375 7.734375 -12.203125 L 7.40625 -9.765625 C 6.71875 -10.046875 6.164062 -10.207031 5.75 -10.25 C 5.332031 -10.289062 5.023438 -10.304688 4.828125 -10.296875 C 4.378906 -10.273438 4.050781 -10.117188 3.84375 -9.828125 C 3.632812 -9.546875 3.546875 -9.226562 3.578125 -8.875 C 3.609375 -8.519531 3.757812 -8.25 4.03125 -8.0625 C 4.300781 -7.882812 4.617188 -7.734375 4.984375 -7.609375 C 5.648438 -7.367188 6.257812 -7.070312 6.8125 -6.71875 C 7.363281 -6.375 7.804688 -5.957031 8.140625 -5.46875 C 8.484375 -4.976562 8.65625 -4.398438 8.65625 -3.734375 C 8.65625 -3.035156 8.5 -2.398438 8.1875 -1.828125 C 7.882812 -1.265625 7.445312 -0.8125 6.875 -0.46875 C 6.300781 -0.132812 5.617188 0.0546875 4.828125 0.109375 C 4.585938 0.117188 4.265625 0.109375 3.859375 0.078125 C 3.453125 0.046875 2.988281 -0.0351562 2.46875 -0.171875 C 1.957031 -0.304688 1.410156 -0.519531 0.828125 -0.8125 Z M 0.828125 -0.8125 "/></g></g></g></g></g></g><g clip-path="url(#1c3d6e9f0f)"><g transform="matrix(1, 0, 0, 1, 83, 14)"><g clip-path="url(#67fd41031d)"><g fill="#dee2e6" fill-opacity="1"><g transform="translate(0.826306, 10.376074)"><g><path d="M 3.671875 0 L 2.0625 -5.25 L 2.015625 -5.25 C 2.023438 -5.125 2.035156 -4.9375 2.046875 -4.6875 C 2.066406 -4.4375 2.082031 -4.164062 2.09375 -3.875 C 2.101562 -3.59375 2.109375 -3.335938 2.109375 -3.109375 L 2.109375 0 L 0.84375 0 L 0.84375 -6.6875 L 2.78125 -6.6875 L 4.359375 -1.578125 L 4.390625 -1.578125 L 6.0625 -6.6875 L 8 -6.6875 L 8 0 L 6.671875 0 L 6.671875 -3.171875 C 6.671875 -3.378906 6.675781 -3.617188 6.6875 -3.890625 C 6.695312 -4.171875 6.707031 -4.429688 6.71875 -4.671875 C 6.726562 -4.921875 6.738281 -5.109375 6.75 -5.234375 L 6.703125 -5.234375 L 4.96875 0 Z M 3.671875 0 "/></g></g></g><g fill="#dee2e6" fill-opacity="1"><g transform="translate(14.359454, 10.376074)"><g><path d="M 6.296875 -6.6875 L 6.296875 -2.359375 C 6.296875 -1.898438 6.191406 -1.484375 5.984375 -1.109375 C 5.785156 -0.742188 5.476562 -0.453125 5.0625 -0.234375 C 4.65625 -0.015625 4.140625 0.09375 3.515625 0.09375 C 2.628906 0.09375 1.953125 -0.128906 1.484375 -0.578125 C 1.023438 -1.035156 0.796875 -1.632812 0.796875 -2.375 L 0.796875 -6.6875 L 2.21875 -6.6875 L 2.21875 -2.59375 C 2.21875 -2.039062 2.328125 -1.648438 2.546875 -1.421875 C 2.773438 -1.203125 3.109375 -1.09375 3.546875 -1.09375 C 3.859375 -1.09375 4.109375 -1.144531 4.296875 -1.25 C 4.492188 -1.363281 4.640625 -1.53125 4.734375 -1.75 C 4.828125 -1.976562 4.875 -2.265625 4.875 -2.609375 L 4.875 -6.6875 Z M 6.296875 -6.6875 "/></g></g></g><g fill="#dee2e6" fill-opacity="1"><g transform="translate(26.13856, 10.376074)"><g><path d="M 4.796875 -1.859375 C 4.796875 -1.460938 4.695312 -1.117188 4.5 -0.828125 C 4.3125 -0.535156 4.03125 -0.304688 3.65625 -0.140625 C 3.289062 0.0117188 2.847656 0.09375 2.328125 0.09375 C 2.097656 0.09375 1.867188 0.078125 1.640625 0.046875 C 1.421875 0.015625 1.207031 -0.0234375 1 -0.078125 C 0.800781 -0.140625 0.613281 -0.21875 0.4375 -0.3125 L 0.4375 -1.625 C 0.75 -1.488281 1.078125 -1.363281 1.421875 -1.25 C 1.765625 -1.132812 2.101562 -1.078125 2.4375 -1.078125 C 2.664062 -1.078125 2.847656 -1.109375 2.984375 -1.171875 C 3.128906 -1.234375 3.234375 -1.316406 3.296875 -1.421875 C 3.367188 -1.523438 3.40625 -1.648438 3.40625 -1.796875 C 3.40625 -1.960938 3.347656 -2.101562 3.234375 -2.21875 C 3.117188 -2.34375 2.960938 -2.453125 2.765625 -2.546875 C 2.566406 -2.648438 2.34375 -2.765625 2.09375 -2.890625 C 1.945312 -2.960938 1.78125 -3.050781 1.59375 -3.15625 C 1.40625 -3.257812 1.226562 -3.382812 1.0625 -3.53125 C 0.90625 -3.6875 0.773438 -3.875 0.671875 -4.09375 C 0.566406 -4.3125 0.515625 -4.578125 0.515625 -4.890625 C 0.515625 -5.285156 0.601562 -5.625 0.78125 -5.90625 C 0.96875 -6.1875 1.226562 -6.398438 1.5625 -6.546875 C 1.90625 -6.703125 2.3125 -6.78125 2.78125 -6.78125 C 3.125 -6.78125 3.453125 -6.738281 3.765625 -6.65625 C 4.085938 -6.582031 4.421875 -6.46875 4.765625 -6.3125 L 4.296875 -5.21875 C 3.992188 -5.34375 3.71875 -5.4375 3.46875 -5.5 C 3.226562 -5.570312 2.984375 -5.609375 2.734375 -5.609375 C 2.554688 -5.609375 2.40625 -5.578125 2.28125 -5.515625 C 2.15625 -5.460938 2.054688 -5.382812 1.984375 -5.28125 C 1.921875 -5.175781 1.890625 -5.0625 1.890625 -4.9375 C 1.890625 -4.769531 1.9375 -4.628906 2.03125 -4.515625 C 2.125 -4.410156 2.265625 -4.304688 2.453125 -4.203125 C 2.640625 -4.109375 2.875 -3.992188 3.15625 -3.859375 C 3.5 -3.703125 3.789062 -3.535156 4.03125 -3.359375 C 4.28125 -3.179688 4.46875 -2.972656 4.59375 -2.734375 C 4.726562 -2.503906 4.796875 -2.210938 4.796875 -1.859375 Z M 4.796875 -1.859375 "/></g></g></g><g fill="#dee2e6" fill-opacity="1"><g transform="translate(35.994172, 10.376074)"><g><path d="M 0.84375 0 L 0.84375 -6.6875 L 2.265625 -6.6875 L 2.265625 0 Z M 0.84375 0 "/></g></g></g><g fill="#dee2e6" fill-opacity="1"><g transform="translate(43.788899, 10.376074)"><g><path d="M 3.6875 -5.609375 C 3.414062 -5.609375 3.175781 -5.554688 2.96875 -5.453125 C 2.757812 -5.347656 2.582031 -5.195312 2.4375 -5 C 2.289062 -4.800781 2.179688 -4.5625 2.109375 -4.28125 C 2.035156 -4 2 -3.679688 2 -3.328125 C 2 -2.859375 2.054688 -2.453125 2.171875 -2.109375 C 2.296875 -1.773438 2.476562 -1.519531 2.71875 -1.34375 C 2.96875 -1.175781 3.289062 -1.09375 3.6875 -1.09375 C 3.957031 -1.09375 4.226562 -1.117188 4.5 -1.171875 C 4.769531 -1.234375 5.066406 -1.320312 5.390625 -1.4375 L 5.390625 -0.25 C 5.097656 -0.125 4.804688 -0.0351562 4.515625 0.015625 C 4.234375 0.0664062 3.910156 0.09375 3.546875 0.09375 C 2.859375 0.09375 2.289062 -0.046875 1.84375 -0.328125 C 1.40625 -0.617188 1.078125 -1.019531 0.859375 -1.53125 C 0.648438 -2.050781 0.546875 -2.65625 0.546875 -3.34375 C 0.546875 -3.84375 0.613281 -4.300781 0.75 -4.71875 C 0.882812 -5.144531 1.082031 -5.507812 1.34375 -5.8125 C 1.613281 -6.125 1.941406 -6.363281 2.328125 -6.53125 C 2.722656 -6.695312 3.175781 -6.78125 3.6875 -6.78125 C 4.019531 -6.78125 4.351562 -6.738281 4.6875 -6.65625 C 5.019531 -6.570312 5.335938 -6.457031 5.640625 -6.3125 L 5.1875 -5.15625 C 4.9375 -5.28125 4.679688 -5.382812 4.421875 -5.46875 C 4.171875 -5.5625 3.925781 -5.609375 3.6875 -5.609375 Z M 3.6875 -5.609375 "/></g></g></g></g></g></g></g></g></svg>