<svg xmlns="http://www.w3.org/2000/svg" xmlns:xlink="http://www.w3.org/1999/xlink" width="160" zoomAndPan="magnify" viewBox="0 0 120 30.000001" height="40" preserveAspectRatio="xMidYMid meet" version="1.0"><defs><filter x="0%" y="0%" width="100%" height="100%" id="184aa71da5"><feColorMatrix values="0 0 0 0 1 0 0 0 0 1 0 0 0 0 1 0 0 0 1 0" color-interpolation-filters="sRGB"/></filter><g/><clipPath id="94fe3801e3"><path d="M 2.605469 0.902344 L 17.710938 0.902344 L 17.710938 21.917969 L 2.605469 21.917969 Z M 2.605469 0.902344 " clip-rule="nonzero"/></clipPath><clipPath id="756bbe3f26"><path d="M 8 19 L 10 19 L 10 21.917969 L 8 21.917969 Z M 8 19 " clip-rule="nonzero"/></clipPath><clipPath id="41a60b7fab"><path d="M 10 19 L 12 19 L 12 21.917969 L 10 21.917969 Z M 10 19 " clip-rule="nonzero"/></clipPath><mask id="5f32efc70e"><g filter="url(#184aa71da5)"><rect x="-30.4" width="172.8" fill="#000000" y="-8.6" height="43.200001" fill-opacity="0.3"/></g></mask><clipPath id="3ebe22e659"><path d="M 0.316406 0.8125 L 1.246094 0.8125 L 1.246094 1.277344 L 0.316406 1.277344 Z M 0.316406 0.8125 " clip-rule="nonzero"/></clipPath><clipPath id="cfb3fc22bd"><rect x="0" width="2" y="0" height="2"/></clipPath><mask id="650bbabbdb"><g filter="url(#184aa71da5)"><rect x="-30.4" width="172.8" fill="#000000" y="-8.6" height="43.200001" fill-opacity="0.3"/></g></mask><clipPath id="926538567c"><path d="M 0.316406 0.417969 L 1.246094 0.417969 L 1.246094 1 L 0.316406 1 Z M 0.316406 0.417969 " clip-rule="nonzero"/></clipPath><clipPath id="f211b5ce72"><rect x="0" width="2" y="0" height="2"/></clipPath><mask id="c955786d20"><g filter="url(#184aa71da5)"><rect x="-30.4" width="172.8" fill="#000000" y="-8.6" height="43.200001" fill-opacity="0.3"/></g></mask><clipPath id="6a8b7e8ae1"><path d="M 0.457031 0.5625 L 2.546875 0.5625 L 2.546875 3.8125 L 0.457031 3.8125 Z M 0.457031 0.5625 " clip-rule="nonzero"/></clipPath><clipPath id="551c9a0447"><rect x="0" width="3" y="0" height="4"/></clipPath><mask id="445b049a4e"><g filter="url(#184aa71da5)"><rect x="-30.4" width="172.8" fill="#000000" y="-8.6" height="43.200001" fill-opacity="0.3"/></g></mask><clipPath id="ce1a155a62"><path d="M 0.527344 0.703125 L 3 0.703125 L 3 3.027344 L 0.527344 3.027344 Z M 0.527344 0.703125 " clip-rule="nonzero"/></clipPath><clipPath id="68c17b0342"><rect x="0" width="4" y="0" height="4"/></clipPath><mask id="462bde0cd4"><g filter="url(#184aa71da5)"><rect x="-30.4" width="172.8" fill="#000000" y="-8.6" height="43.200001" fill-opacity="0.3"/></g></mask><clipPath id="7b143a1960"><path d="M 0.621094 0.632812 L 2.246094 0.632812 L 2.246094 1.792969 L 0.621094 1.792969 Z M 0.621094 0.632812 " clip-rule="nonzero"/></clipPath><clipPath id="d3e8440dd0"><rect x="0" width="3" y="0" height="2"/></clipPath><mask id="4b0cf832db"><g filter="url(#184aa71da5)"><rect x="-30.4" width="172.8" fill="#000000" y="-8.6" height="43.200001" fill-opacity="0.3"/></g></mask><clipPath id="63b7cd820b"><path d="M 1 0.078125 L 4 0.078125 L 4 1.933594 L 1 1.933594 Z M 1 0.078125 " clip-rule="nonzero"/></clipPath><clipPath id="34d75ff4da"><rect x="0" width="5" y="0" height="2"/></clipPath><mask id="a7274608a8"><g filter="url(#184aa71da5)"><rect x="-30.4" width="172.8" fill="#000000" y="-8.6" height="43.200001" fill-opacity="0.3"/></g></mask><clipPath id="dfbb75ec2b"><path d="M 1 0.378906 L 4.621094 0.378906 L 4.621094 2.933594 L 1 2.933594 Z M 1 0.378906 " clip-rule="nonzero"/></clipPath><clipPath id="3c0e5870b5"><rect x="0" width="5" y="0" height="3"/></clipPath><mask id="d6bcf88b35"><g filter="url(#184aa71da5)"><rect x="-30.4" width="172.8" fill="#000000" y="-8.6" height="43.200001" fill-opacity="0.3"/></g></mask><clipPath id="5b6719b683"><path d="M 1 1 L 2.621094 1 L 2.621094 2.613281 L 1 2.613281 Z M 1 1 " clip-rule="nonzero"/></clipPath><clipPath id="22916d5f3d"><rect x="0" width="3" y="0" height="3"/></clipPath><mask id="e1c9d4ab30"><g filter="url(#184aa71da5)"><rect x="-30.4" width="172.8" fill="#000000" y="-8.6" height="43.200001" fill-opacity="0.3"/></g></mask><clipPath id="967bb95441"><path d="M 0.457031 0.523438 L 2.78125 0.523438 L 2.78125 2.148438 L 0.457031 2.148438 Z M 0.457031 0.523438 " clip-rule="nonzero"/></clipPath><clipPath id="ac94899e26"><rect x="0" width="3" y="0" height="3"/></clipPath><mask id="be25f71132"><g filter="url(#184aa71da5)"><rect x="-30.4" width="172.8" fill="#000000" y="-8.6" height="43.200001" fill-opacity="0.3"/></g></mask><clipPath id="3afbb5924f"><path d="M 0.0820312 0.523438 L 1.246094 0.523438 L 1.246094 2.148438 L 0.0820312 2.148438 Z M 0.0820312 0.523438 " clip-rule="nonzero"/></clipPath><clipPath id="65cd670b8e"><rect x="0" width="2" y="0" height="3"/></clipPath><clipPath id="fd2a7bf3bf"><path d="M 8 19 L 10 19 L 10 21.917969 L 8 21.917969 Z M 8 19 " clip-rule="nonzero"/></clipPath><mask id="490368ad94"><g filter="url(#184aa71da5)"><rect x="-30.4" width="172.8" fill="#000000" y="-8.6" height="43.200001" fill-opacity="0.3"/></g></mask><clipPath id="e2783d07ff"><path d="M 0.0117188 0.8125 L 0.941406 0.8125 L 0.941406 1.277344 L 0.0117188 1.277344 Z M 0.0117188 0.8125 " clip-rule="nonzero"/></clipPath><clipPath id="e89b155e1b"><rect x="0" width="1" y="0" height="2"/></clipPath><mask id="8e330b1a7d"><g filter="url(#184aa71da5)"><rect x="-30.4" width="172.8" fill="#000000" y="-8.6" height="43.200001" fill-opacity="0.3"/></g></mask><clipPath id="3e09bbb4bd"><path d="M 0.0117188 0.417969 L 0.941406 0.417969 L 0.941406 1 L 0.0117188 1 Z M 0.0117188 0.417969 " clip-rule="nonzero"/></clipPath><clipPath id="a6c3441c4e"><rect x="0" width="1" y="0" height="2"/></clipPath><mask id="aaef12c731"><g filter="url(#184aa71da5)"><rect x="-30.4" width="172.8" fill="#000000" y="-8.6" height="43.200001" fill-opacity="0.3"/></g></mask><clipPath id="4b142b7930"><path d="M 0.0117188 0.632812 L 1.640625 0.632812 L 1.640625 1.792969 L 0.0117188 1.792969 Z M 0.0117188 0.632812 " clip-rule="nonzero"/></clipPath><clipPath id="4b8971fabf"><rect x="0" width="2" y="0" height="2"/></clipPath><clipPath id="a7a956ece0"><path d="M 10 19 L 12 19 L 12 21.917969 L 10 21.917969 Z M 10 19 " clip-rule="nonzero"/></clipPath><clipPath id="810769565e"><path d="M 0.554688 8.9375 L 19.601562 8.9375 L 19.601562 22.621094 L 0.554688 22.621094 Z M 0.554688 8.9375 " clip-rule="nonzero"/></clipPath><clipPath id="c2915ffa6d"><path d="M 1 0.21875 L 9 0.21875 L 9 9 L 1 9 Z M 1 0.21875 " clip-rule="nonzero"/></clipPath><clipPath id="2dadd7b235"><path d="M 8 0.21875 L 15 0.21875 L 15 9 L 8 9 Z M 8 0.21875 " clip-rule="nonzero"/></clipPath><clipPath id="9393c0cff9"><path d="M 14 0.21875 L 23 0.21875 L 23 9 L 14 9 Z M 14 0.21875 " clip-rule="nonzero"/></clipPath><clipPath id="ceb00e39af"><path d="M 23 0.21875 L 28.65625 0.21875 L 28.65625 9 L 23 9 Z M 23 0.21875 " clip-rule="nonzero"/></clipPath><clipPath id="ecb86b0420"><rect x="0" width="29" y="0" height="12"/></clipPath><clipPath id="6d9be6dba6"><path d="M 53 9 L 88.285156 9 L 88.285156 18 L 53 18 Z M 53 9 " clip-rule="nonzero"/></clipPath><clipPath id="e3234cc64b"><rect x="0" width="36" y="0" height="9"/></clipPath><clipPath id="1447b5f740"><rect x="0" width="89" y="0" height="23"/></clipPath></defs><g transform="matrix(1, 0, 0, 1, 4, 2)"><g clip-path="url(#1447b5f740)"><g clip-path="url(#94fe3801e3)"><path fill="#172029" d="M 16.683594 12.300781 C 16.664062 12.265625 16.652344 12.25 16.652344 12.25 L 16.667969 12.25 C 16.75 11.898438 16.753906 11.542969 16.683594 11.183594 C 17.039062 11.109375 17.371094 10.964844 17.671875 10.757812 C 17.347656 10.636719 17.050781 10.464844 16.78125 10.25 C 16.527344 10.035156 16.292969 9.796875 16.085938 9.535156 L 16.757812 9.734375 L 16.042969 8.433594 C 15.789062 8.117188 15.480469 7.875 15.117188 7.707031 L 14.988281 7.652344 L 14.972656 7.648438 C 15.117188 7.515625 15.355469 7.328125 15.753906 7.117188 C 15.148438 6.757812 14.46875 6.773438 14.089844 6.816406 C 14.007812 6.828125 13.921875 6.839844 13.84375 6.859375 C 13.8125 6.863281 13.796875 6.867188 13.796875 6.867188 C 13.8125 6.808594 13.820312 6.742188 13.824219 6.679688 L 13.828125 6.59375 L 13.90625 6.292969 L 14.519531 4.902344 L 14.34375 4.632812 L 14.71875 4.449219 L 15.734375 2.148438 L 11.953125 3.71875 L 10.617188 1.789062 L 10.140625 0.917969 L 9.660156 1.789062 L 8.328125 3.71875 L 4.542969 2.148438 L 5.558594 4.449219 L 5.9375 4.632812 L 5.761719 4.902344 L 6.375 6.292969 L 6.453125 6.59375 L 6.457031 6.679688 C 6.460938 6.746094 6.46875 6.808594 6.484375 6.871094 C 6.484375 6.871094 6.46875 6.863281 6.4375 6.859375 C 6.355469 6.839844 6.273438 6.828125 6.191406 6.816406 C 5.8125 6.773438 5.132812 6.761719 4.527344 7.117188 C 4.921875 7.332031 5.164062 7.515625 5.308594 7.648438 L 5.292969 7.652344 L 5.164062 7.707031 C 4.800781 7.875 4.492188 8.117188 4.238281 8.433594 L 3.523438 9.734375 L 4.195312 9.535156 C 3.988281 9.796875 3.753906 10.035156 3.5 10.25 C 3.226562 10.46875 2.929688 10.636719 2.605469 10.757812 C 2.910156 10.964844 3.238281 11.109375 3.59375 11.183594 C 3.523438 11.542969 3.527344 11.898438 3.609375 12.25 L 3.625 12.25 C 3.625 12.25 3.613281 12.265625 3.59375 12.300781 C 3.386719 12.65625 3.25 13.105469 3.183594 13.65625 C 3.109375 14.164062 3.074219 14.8125 3.144531 15.617188 C 3.335938 15.449219 3.484375 15.324219 3.59375 15.222656 C 3.589844 15.25 3.582031 15.28125 3.578125 15.308594 C 3.566406 15.359375 3.371094 16.195312 3.144531 17.023438 C 3.472656 16.832031 3.785156 16.617188 4.078125 16.375 C 4.074219 16.441406 4.074219 16.511719 4.074219 16.578125 C 4.089844 17.714844 4.765625 18.433594 4.796875 18.464844 L 4.96875 18.648438 L 5.128906 18.8125 L 5.566406 19.273438 C 5.566406 19.273438 5.671875 20.367188 6.890625 21.402344 L 6.945312 20.960938 C 7.097656 21.160156 7.292969 21.398438 7.421875 21.5 C 7.425781 21.492188 7.457031 20.71875 7.488281 20.605469 C 7.640625 20.914062 7.976562 21.367188 8.722656 21.625 C 8.679688 21.464844 8.648438 21.328125 8.621094 21.214844 C 8.738281 21.335938 8.882812 21.480469 9.011719 21.605469 C 9.09375 21.6875 9.175781 21.765625 9.269531 21.832031 C 9.285156 21.84375 9.296875 21.855469 9.308594 21.859375 C 9.289062 21.640625 9.273438 21.496094 9.265625 21.398438 C 9.316406 21.441406 9.367188 21.476562 9.421875 21.515625 C 9.554688 21.679688 9.78125 21.875 10.140625 21.964844 C 10.5 21.871094 10.722656 21.679688 10.855469 21.515625 C 10.910156 21.476562 10.964844 21.441406 11.011719 21.398438 C 11.003906 21.496094 10.992188 21.640625 10.96875 21.859375 C 10.980469 21.851562 10.992188 21.84375 11.007812 21.832031 C 11.101562 21.765625 11.1875 21.6875 11.265625 21.605469 C 11.394531 21.480469 11.539062 21.335938 11.65625 21.214844 C 11.628906 21.328125 11.597656 21.464844 11.558594 21.625 C 12.300781 21.363281 12.640625 20.914062 12.789062 20.605469 C 12.820312 20.71875 12.851562 21.492188 12.855469 21.5 C 12.984375 21.398438 13.183594 21.160156 13.335938 20.960938 L 13.390625 21.402344 C 14.609375 20.367188 14.710938 19.273438 14.710938 19.273438 L 15.152344 18.8125 L 15.308594 18.648438 L 15.484375 18.464844 C 15.511719 18.433594 16.1875 17.714844 16.203125 16.578125 C 16.203125 16.511719 16.203125 16.441406 16.199219 16.375 C 16.402344 16.546875 16.703125 16.769531 17.136719 17.023438 C 16.90625 16.195312 16.714844 15.359375 16.703125 15.308594 C 16.695312 15.28125 16.691406 15.253906 16.683594 15.222656 C 16.796875 15.324219 16.945312 15.449219 17.136719 15.617188 C 17.207031 14.8125 17.171875 14.164062 17.09375 13.65625 C 17.03125 13.109375 16.894531 12.65625 16.683594 12.300781 Z M 16.683594 12.300781 " fill-opacity="1" fill-rule="nonzero"/></g><path fill="#ffffff" d="M 5.925781 9.4375 C 5.917969 9.460938 5.769531 10.25 4.953125 10.792969 C 4.125 11.339844 4.167969 12.097656 4.167969 12.097656 C 4.167969 12.097656 3.898438 11.121094 4.671875 10.34375 C 4.222656 10.675781 3.652344 10.875 3.632812 10.882812 C 3.660156 10.863281 4.582031 10.179688 4.996094 9.34375 C 4.996094 9.34375 5.089844 9.898438 4.96875 10.382812 C 5.644531 10.082031 5.914062 9.453125 5.925781 9.4375 Z M 5.925781 9.4375 " fill-opacity="1" fill-rule="nonzero"/><path fill="#ffffff" d="M 8.425781 20.734375 C 8.40625 20.730469 7.703125 20.484375 7.71875 18.902344 C 7.738281 17.300781 7.28125 16.789062 7.28125 16.789062 C 7.742188 18.660156 6.929688 20.441406 6.910156 20.488281 C 6.914062 20.441406 7.164062 18.640625 6.480469 17.394531 C 6.671875 18.296875 6.234375 18.867188 6.40625 19.96875 C 5.867188 19.175781 6.207031 17.308594 5.851562 16.46875 C 5.949219 17.609375 5.550781 18.785156 5.550781 18.785156 C 5.550781 18.785156 5.550781 17.054688 5.101562 15.964844 C 4.808594 16.996094 5.203125 18.035156 5.214844 18.066406 C 5.195312 18.046875 4.550781 17.347656 4.667969 16.277344 C 4.785156 15.195312 4.613281 14.457031 4.613281 14.457031 C 4.613281 14.457031 4.585938 15.03125 4.09375 15.660156 C 4.449219 14.183594 4.101562 13.601562 4.101562 13.601562 C 3.808594 14.285156 3.726562 14.714844 3.726562 14.714844 C 3.632812 12.035156 4.839844 12.042969 4.839844 12.042969 C 4.839844 12.042969 4.273438 12.828125 4.394531 13.601562 C 5.015625 12.054688 6.308594 11.871094 6.351562 11.863281 C 5.671875 12.339844 5.40625 12.894531 5.390625 12.925781 C 5.414062 12.898438 5.722656 12.484375 6.390625 12.175781 C 5.488281 12.878906 5.503906 13.867188 5.503906 13.867188 L 5.503906 13.863281 C 5.535156 13.816406 5.875 13.308594 6.367188 12.925781 L 6.371094 12.921875 C 5.558594 13.894531 5.679688 15.023438 5.679688 15.023438 C 5.679688 15.023438 5.917969 14.101562 6.378906 13.539062 C 5.886719 14.726562 6.292969 15.980469 6.300781 16.003906 C 6.300781 16.003906 6.300781 15.820312 6.332031 15.5625 C 6.332031 15.5625 6.332031 15.558594 6.332031 15.558594 C 6.375 15.15625 6.484375 14.574219 6.738281 14.222656 C 6.457031 15.761719 7.109375 16.863281 7.109375 16.863281 C 7.109375 16.863281 7.109375 15.96875 6.882812 15.257812 C 8.054688 16.625 7.898438 18.621094 7.898438 18.621094 C 7.898438 18.621094 7.992188 18.292969 8.136719 18.046875 C 7.789062 20.046875 8.40625 20.714844 8.425781 20.734375 Z M 8.425781 20.734375 " fill-opacity="1" fill-rule="nonzero"/><path fill="#ffffff" d="M 6.851562 8.859375 C 6.851562 8.859375 6.253906 8.6875 5.652344 8.8125 C 5.929688 8.882812 6.007812 8.9375 6.007812 8.9375 C 6.007812 8.9375 5.421875 8.921875 5.34375 9.703125 C 5.007812 8.90625 5.195312 8.636719 5.195312 8.636719 L 4.699219 8.78125 C 4.699219 8.78125 5.382812 7.875 6.371094 8.15625 C 6.371094 8.15625 6.070312 7.566406 5.464844 7.425781 C 6.472656 7.234375 7.386719 7.644531 6.851562 8.859375 Z M 6.851562 8.859375 " fill-opacity="1" fill-rule="nonzero"/><path fill="#ffffff" d="M 8.929688 11.808594 C 8.910156 11.816406 8.566406 12.011719 8.257812 11.9375 C 7.949219 11.863281 7.75 11.453125 7.742188 11.4375 L 8.304688 11.613281 L 8.304688 11.8125 L 8.320312 11.796875 L 8.464844 11.664062 L 8.929688 11.804688 Z M 8.929688 11.808594 " fill-opacity="1" fill-rule="nonzero"/><g clip-path="url(#756bbe3f26)"><path fill="#ffffff" d="M 8.867188 19.777344 C 8.851562 20.054688 8.894531 20.320312 8.992188 20.578125 C 9.035156 20.6875 9.089844 20.796875 9.15625 20.894531 C 8.847656 20.695312 8.6875 20.378906 8.605469 20.074219 C 8.535156 19.785156 8.511719 19.492188 8.539062 19.195312 C 8.59375 19.785156 8.734375 20.027344 8.734375 20.027344 C 8.734375 20.027344 8.707031 19.578125 8.796875 19.273438 C 8.894531 19.6875 9.324219 20.34375 9.339844 20.367188 C 9.269531 20.097656 9.339844 19.71875 9.339844 19.71875 C 9.339844 19.71875 9.34375 19.75 9.355469 19.808594 C 9.421875 20.238281 9.554688 20.652344 9.753906 21.042969 C 9.023438 20.539062 8.875 19.824219 8.867188 19.78125 C 8.867188 19.78125 8.867188 19.78125 8.867188 19.777344 Z M 8.867188 19.777344 " fill-opacity="1" fill-rule="nonzero"/></g><path fill="#ffffff" d="M 8.929688 7.042969 C 9.144531 7.152344 9.308594 7.3125 9.425781 7.523438 C 9.414062 7.519531 9 7.300781 8.332031 7.15625 C 8.757812 7.578125 8.957031 7.871094 8.957031 7.871094 C 8.957031 7.871094 8.363281 7.460938 7.707031 7.296875 C 7.050781 7.128906 7.035156 6.660156 7.035156 6.660156 C 7.035156 6.660156 7.363281 6.925781 8.082031 6.890625 L 7.761719 6.699219 C 7.761719 6.699219 8.820312 6.566406 9.453125 6.871094 C 9.164062 6.585938 9.089844 6.464844 9.085938 6.460938 C 9.109375 6.464844 10.097656 6.757812 10.113281 7.78125 C 10.113281 7.78125 9.628906 7.054688 8.929688 7.042969 Z M 8.929688 7.042969 " fill-opacity="1" fill-rule="nonzero"/><path fill="#ffffff" d="M 10.496094 13.867188 C 10.628906 13.761719 10.769531 13.738281 10.925781 13.804688 C 10.925781 13.804688 10.859375 13.5625 10.535156 13.605469 C 10.210938 13.648438 10.113281 13.628906 10.113281 13.628906 C 10.113281 13.628906 10.019531 13.648438 9.695312 13.605469 C 9.371094 13.5625 9.304688 13.804688 9.304688 13.804688 C 9.460938 13.738281 9.601562 13.761719 9.734375 13.867188 C 9.953125 14.035156 10.117188 14.023438 10.117188 14.023438 C 10.117188 14.023438 10.277344 14.035156 10.496094 13.867188 Z M 10.496094 13.867188 " fill-opacity="1" fill-rule="nonzero"/><path fill="#ffffff" d="M 10.78125 15.964844 L 10.730469 15.757812 L 10.710938 15.847656 C 10.453125 15.8125 10.113281 15.847656 10.113281 15.847656 C 10.113281 15.847656 9.777344 15.8125 9.519531 15.847656 L 9.5 15.757812 L 9.449219 15.964844 C 9.441406 15.960938 9.335938 15.859375 9.375 15.617188 C 9.375 15.617188 9.546875 15.683594 10.117188 15.621094 C 10.6875 15.683594 10.859375 15.617188 10.859375 15.617188 C 10.894531 15.863281 10.78125 15.964844 10.78125 15.964844 Z M 10.78125 15.964844 " fill-opacity="1" fill-rule="nonzero"/><path fill="#ffffff" d="M 10.835938 19.261719 C 11.0625 18.914062 10.980469 18.433594 10.980469 18.433594 C 10.980469 18.433594 10.910156 19.453125 10.117188 19.453125 C 9.324219 19.453125 9.253906 18.433594 9.253906 18.433594 C 9.253906 18.433594 9.171875 18.914062 9.398438 19.261719 C 7.941406 18.789062 8.492188 17.46875 8.492188 17.46875 C 8.492188 17.46875 8.574219 17.914062 8.960938 17.792969 C 8.65625 17.328125 8.789062 16.742188 8.789062 16.742188 C 9 17.191406 9.261719 17.4375 9.417969 17.554688 C 9.832031 17.363281 10.117188 17.394531 10.117188 17.394531 C 10.117188 17.394531 10.402344 17.363281 10.816406 17.554688 C 10.972656 17.4375 11.234375 17.191406 11.445312 16.742188 C 11.445312 16.742188 11.574219 17.328125 11.273438 17.792969 C 11.660156 17.914062 11.742188 17.46875 11.742188 17.46875 C 11.742188 17.46875 12.289062 18.789062 10.835938 19.261719 Z M 10.835938 19.261719 " fill-opacity="1" fill-rule="nonzero"/><path fill="#ffffff" d="M 15.191406 11.707031 C 14.445312 11.003906 14.53125 9.511719 12.835938 9.554688 C 13.183594 9.785156 13.351562 10.257812 13.363281 10.292969 C 13.335938 10.253906 12.789062 9.511719 11.792969 9.441406 L 11.769531 9.414062 C 11.488281 9.089844 11.085938 9.101562 10.746094 9.21875 C 10.78125 9.109375 10.90625 8.882812 11.34375 8.710938 C 11.9375 8.472656 12.070312 8.324219 12.070312 8.324219 C 12.070312 8.324219 12.171875 8.746094 11.453125 9.082031 C 11.453125 9.082031 12.285156 9.183594 12.765625 8.824219 C 12.59375 9.132812 12.230469 9.324219 11.804688 9.296875 C 11.804688 9.296875 13.792969 9.957031 12.957031 8.0625 C 13.054688 8.550781 12.40625 8.730469 12.390625 8.734375 C 12.410156 8.722656 12.875 8.378906 12.304688 7.523438 C 12.203125 8.101562 10.84375 8.09375 10.496094 9.082031 C 10.449219 8.351562 11.078125 7.699219 11.078125 7.699219 C 11.078125 7.699219 10.324219 7.898438 10.117188 8.691406 C 10.117188 8.691406 10.117188 8.6875 10.117188 8.6875 C 9.90625 7.902344 9.15625 7.703125 9.15625 7.703125 C 9.15625 7.703125 9.78125 8.355469 9.738281 9.085938 C 9.386719 8.097656 8.03125 8.101562 7.925781 7.527344 C 7.355469 8.382812 7.824219 8.722656 7.84375 8.738281 C 7.824219 8.730469 7.179688 8.554688 7.273438 8.066406 C 6.449219 9.9375 8.378906 9.316406 8.425781 9.300781 C 8 9.324219 7.636719 9.136719 7.464844 8.828125 C 7.945312 9.1875 8.777344 9.085938 8.777344 9.085938 C 8.058594 8.75 8.160156 8.328125 8.160156 8.328125 C 8.160156 8.328125 8.292969 8.476562 8.886719 8.710938 C 9.328125 8.886719 9.449219 9.113281 9.484375 9.222656 C 9.144531 9.105469 8.742188 9.09375 8.464844 9.417969 L 8.441406 9.445312 C 7.441406 9.515625 6.894531 10.257812 6.867188 10.296875 C 6.878906 10.261719 7.046875 9.789062 7.394531 9.558594 C 5.699219 9.515625 5.785156 11.003906 5.039062 11.710938 C 6.050781 11.429688 6.695312 10.265625 6.738281 10.1875 C 6.71875 10.234375 6.535156 10.683594 6.515625 11.160156 C 6.875 10.472656 7.417969 10.230469 7.71875 10.148438 C 7.449219 10.382812 7.199219 10.582031 7 10.796875 C 6.9375 10.972656 6.871094 11.464844 7.011719 11.628906 C 7.03125 11.648438 7.050781 11.660156 7.070312 11.671875 C 7.289062 11.757812 7.582031 11.644531 7.582031 11.644531 C 7.582031 11.644531 7.53125 11.324219 7.261719 11.265625 C 7.417969 11.164062 7.71875 11.050781 8.382812 11.449219 C 9.046875 11.851562 9.492188 11.5625 9.625 11.386719 C 9.753906 11.210938 9.785156 10.925781 9.785156 10.925781 C 9.851562 11.078125 9.886719 11.238281 9.890625 11.402344 C 9.167969 11.886719 9.195312 12.425781 9.195312 12.425781 C 9.195312 12.425781 9.171875 12.285156 9.046875 12.105469 C 8.835938 12.285156 8.839844 12.636719 8.867188 12.835938 L 8.867188 12.847656 C 8.867188 12.84375 8.867188 12.835938 8.863281 12.832031 C 8.800781 12.632812 8.726562 12.308594 8.816406 12.09375 C 8.824219 12.078125 8.832031 12.0625 8.839844 12.046875 C 8.8125 12.054688 8.78125 12.0625 8.75 12.070312 C 8.429688 12.132812 8.039062 12.0625 8.039062 12.0625 L 8.113281 12.175781 C 7.859375 12.0625 7.632812 11.789062 7.632812 11.789062 C 7.632812 11.789062 6.699219 12.363281 6.742188 12.785156 C 6.785156 13.207031 7.109375 13.5625 7.109375 13.5625 C 7.109375 13.5625 7.101562 13.484375 7.078125 13.226562 C 7.242188 13.589844 7.367188 13.980469 7.375 14.003906 C 7.445312 13.8125 7.5 13.617188 7.546875 13.417969 C 7.601562 13.167969 7.5 12.570312 7.5 12.570312 C 7.5 12.570312 7.785156 13.054688 8.261719 13.023438 C 7.949219 13.15625 7.664062 13.636719 7.664062 13.636719 C 7.664062 13.636719 7.683594 13.648438 8.550781 13.910156 L 8.53125 13.910156 C 8.371094 13.890625 7.632812 13.765625 7.632812 13.765625 L 7.761719 14.214844 L 8.90625 14.542969 C 8.515625 14.550781 7.800781 14.476562 7.800781 14.476562 L 7.945312 14.71875 L 9.117188 14.949219 C 8.726562 14.988281 8.335938 14.992188 7.945312 14.957031 C 8.121094 15.101562 8.308594 15.230469 8.511719 15.34375 C 8.476562 15.566406 8.441406 16.191406 8.996094 16.644531 C 8.992188 16.09375 9.09375 15.691406 9.164062 15.472656 C 9.542969 15.425781 10.039062 15.261719 9.984375 14.839844 C 9.917969 14.320312 9.441406 14.332031 8.96875 14.105469 C 8.496094 13.878906 8.746094 13.328125 8.746094 13.328125 C 8.75 13.34375 8.863281 13.667969 8.960938 13.671875 C 9.0625 13.679688 9.246094 13.605469 9.386719 13.21875 C 9.609375 13.492188 10.113281 13.417969 10.113281 13.417969 C 10.113281 13.417969 10.617188 13.492188 10.839844 13.21875 C 10.980469 13.605469 11.160156 13.679688 11.265625 13.671875 C 11.367188 13.667969 11.484375 13.324219 11.484375 13.324219 C 11.484375 13.324219 11.734375 13.878906 11.261719 14.101562 C 10.789062 14.328125 10.3125 14.316406 10.246094 14.835938 C 10.191406 15.261719 10.6875 15.425781 11.0625 15.46875 C 11.136719 15.691406 11.238281 16.089844 11.234375 16.640625 C 11.792969 16.1875 11.753906 15.5625 11.722656 15.339844 C 11.921875 15.226562 12.109375 15.097656 12.289062 14.953125 C 11.894531 14.988281 11.503906 14.988281 11.113281 14.945312 L 12.289062 14.714844 L 12.429688 14.472656 C 12.429688 14.472656 11.71875 14.546875 11.324219 14.539062 L 12.472656 14.210938 L 12.597656 13.765625 C 12.597656 13.765625 11.785156 13.902344 11.679688 13.910156 C 12.546875 13.648438 12.566406 13.632812 12.566406 13.632812 C 12.566406 13.632812 12.28125 13.15625 11.96875 13.023438 C 12.445312 13.054688 12.730469 12.570312 12.730469 12.570312 C 12.730469 12.570312 12.628906 13.167969 12.683594 13.414062 C 12.730469 13.613281 12.785156 13.808594 12.855469 14.003906 C 12.855469 14.003906 12.984375 13.597656 13.152344 13.222656 C 13.128906 13.484375 13.121094 13.558594 13.121094 13.558594 C 13.121094 13.558594 13.449219 13.203125 13.492188 12.785156 C 13.53125 12.363281 12.597656 11.785156 12.597656 11.785156 C 12.597656 11.785156 12.371094 12.0625 12.121094 12.171875 L 12.195312 12.058594 C 12.195312 12.058594 11.722656 12.140625 11.390625 12.042969 C 11.519531 12.265625 11.429688 12.632812 11.363281 12.84375 C 11.390625 12.648438 11.402344 12.285156 11.183594 12.101562 C 11.058594 12.28125 11.035156 12.421875 11.035156 12.421875 C 11.035156 12.421875 11.066406 11.878906 10.339844 11.398438 C 10.347656 11.234375 10.382812 11.074219 10.445312 10.921875 C 10.445312 10.921875 10.476562 11.207031 10.609375 11.382812 C 10.738281 11.558594 11.183594 11.84375 11.847656 11.445312 C 12.511719 11.042969 12.816406 11.160156 12.96875 11.257812 C 12.699219 11.316406 12.648438 11.636719 12.648438 11.636719 C 12.648438 11.636719 12.941406 11.753906 13.160156 11.664062 C 13.378906 11.578125 13.304688 10.988281 13.230469 10.789062 C 13.03125 10.578125 12.785156 10.375 12.515625 10.140625 C 12.816406 10.222656 13.355469 10.464844 13.714844 11.15625 C 13.695312 10.675781 13.515625 10.230469 13.496094 10.183594 C 13.535156 10.261719 14.179688 11.425781 15.191406 11.707031 Z M 10.113281 10.820312 C 10.113281 10.820312 9.773438 10.410156 9.703125 10.113281 C 9.824219 10.304688 10.113281 10.417969 10.113281 10.417969 C 10.113281 10.417969 10.40625 10.304688 10.527344 10.113281 C 10.457031 10.410156 10.113281 10.820312 10.113281 10.820312 Z M 10.113281 10.820312 " fill-opacity="1" fill-rule="nonzero"/><path fill="#ffffff" d="M 15.261719 10.386719 C 14.574219 10.078125 14.304688 9.4375 14.304688 9.4375 C 14.304688 9.4375 14.445312 10.246094 15.277344 10.792969 C 16.105469 11.339844 16.0625 12.101562 16.0625 12.101562 C 16.0625 12.101562 16.332031 11.125 15.558594 10.34375 C 16.015625 10.679688 16.597656 10.882812 16.597656 10.882812 C 16.597656 10.882812 15.65625 10.195312 15.234375 9.34375 C 15.234375 9.34375 15.136719 9.898438 15.261719 10.386719 Z M 15.261719 10.386719 " fill-opacity="1" fill-rule="nonzero"/><path fill="#ffffff" d="M 15.390625 12.042969 C 15.390625 12.042969 15.953125 12.828125 15.835938 13.601562 C 15.203125 12.03125 13.878906 11.863281 13.878906 11.863281 C 14.582031 12.355469 14.839844 12.929688 14.839844 12.929688 C 14.839844 12.929688 14.535156 12.496094 13.835938 12.175781 C 14.738281 12.878906 14.726562 13.867188 14.726562 13.867188 C 14.726562 13.867188 14.378906 13.328125 13.859375 12.921875 C 14.667969 13.894531 14.546875 15.023438 14.546875 15.023438 C 14.546875 15.023438 14.3125 14.101562 13.851562 13.539062 C 14.347656 14.742188 13.929688 16.003906 13.929688 16.003906 C 13.929688 16.003906 13.90625 14.804688 13.492188 14.222656 C 13.769531 15.761719 13.121094 16.863281 13.121094 16.863281 C 13.121094 16.863281 13.121094 15.96875 13.347656 15.257812 C 12.175781 16.625 12.328125 18.621094 12.328125 18.621094 C 12.328125 18.621094 12.238281 18.292969 12.09375 18.046875 C 12.449219 20.082031 11.804688 20.734375 11.804688 20.734375 C 11.804688 20.734375 12.53125 20.507812 12.511719 18.902344 C 12.492188 17.300781 12.949219 16.789062 12.949219 16.789062 C 12.484375 18.683594 13.324219 20.492188 13.324219 20.492188 C 13.324219 20.492188 13.058594 18.65625 13.75 17.394531 C 13.558594 18.296875 13.996094 18.867188 13.824219 19.96875 C 14.363281 19.179688 14.023438 17.308594 14.378906 16.46875 C 14.28125 17.609375 14.679688 18.785156 14.679688 18.785156 C 14.679688 18.785156 14.679688 17.054688 15.128906 15.964844 C 15.429688 17.011719 15.015625 18.066406 15.015625 18.066406 C 15.015625 18.066406 15.683594 17.363281 15.5625 16.277344 C 15.445312 15.195312 15.617188 14.457031 15.617188 14.457031 C 15.617188 14.457031 15.648438 15.03125 16.136719 15.660156 C 15.78125 14.183594 16.128906 13.601562 16.128906 13.601562 C 16.421875 14.285156 16.503906 14.714844 16.503906 14.714844 C 16.597656 12.039062 15.390625 12.042969 15.390625 12.042969 Z M 15.390625 12.042969 " fill-opacity="1" fill-rule="nonzero"/><path fill="#ffffff" d="M 14.578125 8.8125 C 14.300781 8.882812 14.222656 8.9375 14.222656 8.9375 C 14.222656 8.9375 14.8125 8.921875 14.886719 9.703125 C 15.222656 8.90625 15.035156 8.636719 15.035156 8.636719 L 15.53125 8.78125 C 15.53125 8.78125 14.84375 7.875 13.859375 8.15625 C 13.859375 8.15625 14.160156 7.566406 14.765625 7.425781 C 13.757812 7.234375 12.84375 7.644531 13.378906 8.859375 C 13.378906 8.859375 13.972656 8.6875 14.578125 8.8125 Z M 14.578125 8.8125 " fill-opacity="1" fill-rule="nonzero"/><path fill="#ffffff" d="M 10.726562 17.1875 C 10.355469 17.132812 10.113281 17.164062 10.113281 17.164062 C 10.113281 17.164062 9.871094 17.132812 9.503906 17.1875 C 9.375 17.003906 9.390625 16.859375 9.390625 16.859375 L 9.554688 16.988281 C 9.714844 16.972656 10.113281 16.96875 10.113281 16.96875 C 10.113281 16.96875 10.511719 16.972656 10.671875 16.988281 L 10.839844 16.859375 C 10.839844 16.859375 10.855469 17.003906 10.726562 17.1875 Z M 10.726562 17.1875 " fill-opacity="1" fill-rule="nonzero"/><path fill="#ffffff" d="M 11.765625 11.664062 L 11.300781 11.808594 C 11.300781 11.808594 11.65625 12.015625 11.972656 11.9375 C 12.289062 11.859375 12.488281 11.4375 12.488281 11.4375 L 11.925781 11.613281 L 11.925781 11.8125 Z M 11.765625 11.664062 " fill-opacity="1" fill-rule="nonzero"/><g clip-path="url(#41a60b7fab)"><path fill="#ffffff" d="M 11.496094 20.027344 C 11.496094 20.027344 11.527344 19.574219 11.433594 19.269531 C 11.335938 19.691406 10.890625 20.367188 10.890625 20.367188 C 10.960938 20.09375 10.890625 19.71875 10.890625 19.71875 C 10.828125 20.183594 10.691406 20.625 10.476562 21.042969 C 11.230469 20.523438 11.367188 19.78125 11.367188 19.78125 C 11.367188 19.78125 11.414062 20.386719 11.074219 20.894531 C 11.839844 20.398438 11.691406 19.195312 11.691406 19.195312 C 11.632812 19.785156 11.496094 20.027344 11.496094 20.027344 Z M 11.496094 20.027344 " fill-opacity="1" fill-rule="nonzero"/></g><path fill="#ffffff" d="M 11.300781 7.042969 C 10.941406 7.230469 10.804688 7.523438 10.804688 7.523438 C 10.804688 7.523438 11.21875 7.304688 11.894531 7.15625 C 11.472656 7.578125 11.273438 7.871094 11.273438 7.871094 C 11.273438 7.871094 11.867188 7.460938 12.523438 7.296875 C 13.179688 7.128906 13.195312 6.660156 13.195312 6.660156 C 13.195312 6.660156 12.867188 6.925781 12.148438 6.890625 L 12.46875 6.699219 C 12.46875 6.699219 11.410156 6.566406 10.777344 6.871094 C 11.074219 6.574219 11.144531 6.457031 11.144531 6.457031 C 11.144531 6.457031 10.132812 6.746094 10.117188 7.78125 C 10.113281 7.78125 10.601562 7.054688 11.300781 7.042969 Z M 11.300781 7.042969 " fill-opacity="1" fill-rule="nonzero"/><path fill="#ffffff" d="M 14.574219 3.234375 L 12.566406 4.066406 L 12.996094 5.015625 L 11.871094 5.535156 L 10.535156 4.824219 L 11.394531 3.992188 L 10.117188 2.148438 L 8.839844 3.992188 L 9.699219 4.824219 L 8.359375 5.535156 L 7.234375 5.015625 L 7.664062 4.066406 L 5.65625 3.234375 L 6.003906 4.023438 L 6.777344 4.402344 L 6.414062 4.957031 L 7.03125 6.355469 L 7.070312 6.355469 C 7.847656 5.949219 8.925781 5.699219 10.113281 5.699219 C 11.304688 5.699219 12.382812 5.949219 13.160156 6.355469 L 13.199219 6.355469 L 13.816406 4.957031 L 13.453125 4.402344 L 14.226562 4.023438 Z M 9.660156 3.777344 L 10.113281 3.148438 L 10.570312 3.777344 L 10.113281 4.148438 Z M 9.660156 3.777344 " fill-opacity="1" fill-rule="nonzero"/><path fill="#a6a6a6" d="M 6.910156 20.488281 C 6.914062 20.441406 7.164062 18.640625 6.480469 17.394531 C 6.671875 18.296875 6.234375 18.867188 6.40625 19.96875 C 5.867188 19.179688 6.207031 17.308594 5.851562 16.46875 C 5.949219 17.609375 5.550781 18.785156 5.550781 18.785156 C 5.550781 18.785156 5.550781 17.054688 5.101562 15.964844 C 4.808594 16.996094 5.203125 18.035156 5.214844 18.066406 C 5.195312 18.046875 4.550781 17.347656 4.667969 16.277344 C 4.785156 15.195312 4.613281 14.457031 4.613281 14.457031 C 4.613281 14.457031 4.585938 15.03125 4.09375 15.660156 C 4.449219 14.183594 4.101562 13.601562 4.101562 13.601562 C 3.808594 14.285156 3.726562 14.714844 3.726562 14.714844 C 3.632812 12.039062 4.839844 12.042969 4.839844 12.042969 C 4.839844 12.042969 4.144531 12.234375 3.953125 13.503906 C 4.042969 13.382812 4.113281 13.253906 4.164062 13.113281 C 4.164062 13.113281 4.519531 14.207031 4.339844 14.960938 C 4.46875 14.636719 4.558594 14.300781 4.605469 13.957031 C 4.605469 13.957031 5.101562 14.746094 4.90625 15.820312 C 5.015625 15.621094 5.082031 15.414062 5.113281 15.191406 C 5.113281 15.191406 5.769531 16.398438 5.625 17.667969 C 5.808594 16.933594 5.710938 15.964844 5.710938 15.964844 C 5.710938 15.964844 6.253906 16.4375 6.199219 17.835938 C 6.324219 17.464844 6.375 17.085938 6.359375 16.699219 C 6.359375 16.699219 7.261719 17.875 7.136719 19.15625 C 7.375 18.730469 7.386719 17.429688 7.28125 16.789062 C 7.742188 18.660156 6.929688 20.441406 6.910156 20.488281 Z M 6.910156 20.488281 " fill-opacity="1" fill-rule="nonzero"/><path fill="#a6a6a6" d="M 5.503906 13.867188 C 5.472656 13.738281 5.496094 13.367188 5.609375 12.90625 C 5.285156 13.15625 5.039062 13.539062 5.039062 13.539062 C 5.238281 12.261719 6.316406 11.875 6.351562 11.863281 C 5.671875 12.339844 5.40625 12.894531 5.390625 12.929688 C 5.414062 12.898438 5.722656 12.484375 6.390625 12.175781 C 5.488281 12.878906 5.503906 13.867188 5.503906 13.867188 Z M 5.503906 13.867188 " fill-opacity="1" fill-rule="nonzero"/><path fill="#737373" d="M 6.300781 16.003906 C 6.300781 16.003906 6.304688 15.820312 6.332031 15.5625 C 6.3125 15.824219 6.300781 16.003906 6.300781 16.003906 Z M 6.300781 16.003906 " fill-opacity="1" fill-rule="nonzero"/><path fill="#a6a6a6" d="M 6.300781 16.003906 C 6.289062 15.988281 5.964844 15.523438 5.953125 14.746094 C 5.777344 15.125 5.632812 15.742188 5.632812 15.742188 C 5.203125 14.011719 6.308594 12.976562 6.367188 12.925781 L 6.371094 12.921875 C 5.5625 13.894531 5.683594 15.023438 5.683594 15.023438 C 5.683594 15.023438 5.917969 14.101562 6.378906 13.539062 C 5.886719 14.726562 6.292969 15.980469 6.300781 16.003906 Z M 6.300781 16.003906 " fill-opacity="1" fill-rule="nonzero"/><path fill="#a6a6a6" d="M 10.835938 19.261719 C 11.0625 18.914062 10.980469 18.433594 10.980469 18.433594 C 10.980469 18.433594 10.910156 19.453125 10.117188 19.453125 C 9.324219 19.453125 9.253906 18.433594 9.253906 18.433594 C 9.253906 18.433594 9.171875 18.914062 9.398438 19.261719 C 7.941406 18.789062 8.492188 17.46875 8.492188 17.46875 C 8.492188 17.46875 8.460938 18.449219 9.078125 18.925781 C 9.046875 18.167969 9.199219 17.792969 9.199219 17.792969 C 9.199219 17.792969 9.179688 18.605469 10.117188 18.605469 C 11.050781 18.605469 11.035156 17.792969 11.035156 17.792969 C 11.035156 17.792969 11.183594 18.167969 11.152344 18.925781 C 11.773438 18.449219 11.742188 17.46875 11.742188 17.46875 C 11.742188 17.46875 12.289062 18.789062 10.835938 19.261719 Z M 10.835938 19.261719 " fill-opacity="1" fill-rule="nonzero"/><g mask="url(#5f32efc70e)"><g transform="matrix(1, 0, 0, 1, 9, 16)"><g clip-path="url(#cfb3fc22bd)"><g clip-path="url(#3ebe22e659)"><path fill="#172029" d="M 1.113281 1.0625 L 1.113281 1.164062 C 1.113281 1.164062 0.875 1.132812 0.503906 1.1875 C 0.375 1.003906 0.390625 0.859375 0.390625 0.859375 C 0.390625 0.859375 0.457031 1.027344 0.550781 1.097656 C 0.621094 1.0625 1.113281 1.0625 1.113281 1.0625 Z M 1.113281 1.0625 " fill-opacity="1" fill-rule="nonzero"/></g></g></g></g><g mask="url(#650bbabbdb)"><g transform="matrix(1, 0, 0, 1, 9, 15)"><g clip-path="url(#f211b5ce72)"><g clip-path="url(#926538567c)"><path fill="#172029" d="M 1.113281 0.621094 L 1.113281 0.699219 C 1.113281 0.699219 0.679688 0.730469 0.449219 0.6875 C 0.421875 0.871094 0.445312 0.957031 0.449219 0.964844 C 0.441406 0.960938 0.335938 0.855469 0.375 0.617188 C 0.375 0.617188 0.542969 0.683594 1.113281 0.621094 Z M 1.113281 0.621094 " fill-opacity="1" fill-rule="nonzero"/></g></g></g></g><g mask="url(#c955786d20)"><g transform="matrix(1, 0, 0, 1, 7, 13)"><g clip-path="url(#551c9a0447)"><g clip-path="url(#6a8b7e8ae1)"><path fill="#172029" d="M 1.992188 3.640625 C 1.4375 3.1875 1.472656 2.5625 1.507812 2.339844 C 1.308594 2.230469 1.117188 2.101562 0.941406 1.957031 C 1.332031 1.992188 1.722656 1.988281 2.113281 1.949219 L 0.941406 1.714844 L 0.796875 1.472656 C 0.796875 1.472656 1.511719 1.546875 1.902344 1.539062 L 0.757812 1.210938 L 0.632812 0.765625 C 0.632812 0.765625 1.367188 0.890625 1.527344 0.90625 L 0.796875 0.9375 L 1.121094 1.148438 L 2.386719 1.582031 L 1.386719 1.660156 L 2.507812 1.917969 C 2.507812 1.917969 2.359375 2.007812 1.722656 2.226562 C 1.4375 3.035156 1.96875 3.613281 1.992188 3.640625 Z M 1.992188 3.640625 " fill-opacity="1" fill-rule="nonzero"/></g></g></g></g><g mask="url(#445b049a4e)"><g transform="matrix(1, 0, 0, 1, 6, 11)"><g clip-path="url(#68c17b0342)"><g clip-path="url(#ce1a155a62)"><path fill="#172029" d="M 2.664062 1.320312 C 2.601562 1.304688 2.199219 1.167969 2.199219 1.167969 C 2.199219 1.167969 2.210938 1.222656 2.296875 1.410156 C 2.058594 1.265625 1.835938 1.097656 1.632812 0.910156 C 1.632812 0.910156 1.222656 1.175781 1.050781 1.445312 C 0.882812 1.71875 1.023438 2.046875 1.023438 2.046875 L 1.078125 1.792969 C 1.285156 2.253906 1.371094 2.972656 1.375 3.003906 C 1.367188 2.976562 1.238281 2.589844 1.074219 2.222656 C 1.101562 2.484375 1.109375 2.5625 1.109375 2.5625 C 1.109375 2.5625 0.78125 2.207031 0.738281 1.785156 C 0.695312 1.363281 1.632812 0.785156 1.632812 0.785156 C 1.632812 0.785156 1.855469 1.0625 2.109375 1.171875 L 2.035156 1.058594 C 2.035156 1.058594 2.507812 1.140625 2.835938 1.042969 C 2.714844 1.261719 2.792969 1.613281 2.859375 1.828125 C 2.84375 1.808594 2.742188 1.691406 2.664062 1.320312 Z M 2.664062 1.320312 " fill-opacity="1" fill-rule="nonzero"/></g></g></g></g><g mask="url(#462bde0cd4)"><g transform="matrix(1, 0, 0, 1, 8, 12)"><g clip-path="url(#d3e8440dd0)"><g clip-path="url(#7b143a1960)"><path fill="#172029" d="M 2.113281 1.230469 L 2.113281 1.417969 C 2.113281 1.417969 1.613281 1.492188 1.390625 1.21875 C 1.25 1.609375 1.066406 1.683594 0.964844 1.675781 C 0.859375 1.667969 0.75 1.34375 0.746094 1.328125 C 0.753906 1.335938 0.867188 1.539062 1.0625 1.484375 C 1.261719 1.429688 1.363281 0.765625 1.363281 0.765625 C 1.363281 0.765625 1.503906 1.191406 2.113281 1.230469 Z M 2.113281 1.230469 " fill-opacity="1" fill-rule="nonzero"/></g></g></g></g><path fill="#a6a6a6" d="M 7.742188 11.4375 L 8.304688 11.613281 L 8.304688 11.789062 C 8.089844 11.679688 7.753906 11.449219 7.742188 11.4375 Z M 7.742188 11.4375 " fill-opacity="1" fill-rule="nonzero"/><path fill="#a6a6a6" d="M 8.929688 11.808594 C 8.914062 11.808594 8.589844 11.878906 8.425781 11.835938 C 8.390625 11.828125 8.355469 11.8125 8.320312 11.796875 L 8.464844 11.664062 L 8.925781 11.804688 Z M 8.929688 11.808594 " fill-opacity="1" fill-rule="nonzero"/><path fill="#a6a6a6" d="M 8.75 12.066406 C 8.777344 12.058594 8.808594 12.054688 8.835938 12.042969 C 8.828125 12.058594 8.824219 12.074219 8.816406 12.089844 Z M 8.75 12.066406 " fill-opacity="1" fill-rule="nonzero"/><g mask="url(#4b0cf832db)"><g transform="matrix(1, 0, 0, 1, 6, 10)"><g clip-path="url(#34d75ff4da)"><g clip-path="url(#63b7cd820b)"><path fill="#172029" d="M 3.78125 0.921875 C 3.78125 0.921875 3.75 1.207031 3.621094 1.382812 C 3.492188 1.558594 3.042969 1.847656 2.382812 1.445312 C 1.71875 1.042969 1.414062 1.160156 1.261719 1.257812 C 1.53125 1.320312 1.578125 1.636719 1.578125 1.636719 C 1.578125 1.636719 1.289062 1.753906 1.070312 1.667969 C 1.046875 1.65625 1.027344 1.644531 1.011719 1.625 L 1.007812 1.621094 C 1.007812 1.621094 0.992188 1.121094 1.210938 0.820312 C 1.433594 0.519531 2.261719 0.171875 2.261719 0.171875 C 2.269531 0.609375 2.457031 0.941406 2.828125 1.171875 C 2.5625 1.117188 2.316406 1.019531 2.085938 0.875 C 2.523438 1.457031 3.382812 1.792969 3.78125 0.921875 Z M 3.78125 0.921875 " fill-opacity="1" fill-rule="nonzero"/></g></g></g></g><g mask="url(#a7274608a8)"><g transform="matrix(1, 0, 0, 1, 4, 9)"><g clip-path="url(#3c0e5870b5)"><g clip-path="url(#dfbb75ec2b)"><path fill="#172029" d="M 4.4375 0.441406 C 4.003906 0.539062 3.300781 0.871094 2.710938 1.566406 C 2.703125 1.292969 2.875 0.820312 2.878906 0.804688 C 2.867188 0.8125 2.53125 1.003906 2.074219 1.722656 C 1.617188 2.441406 1.058594 2.695312 1.039062 2.707031 C 1.785156 2.003906 1.699219 0.515625 3.394531 0.554688 C 3.046875 0.785156 2.878906 1.257812 2.867188 1.292969 C 2.894531 1.253906 3.441406 0.511719 4.4375 0.441406 Z M 4.4375 0.441406 " fill-opacity="1" fill-rule="nonzero"/></g></g></g></g><g mask="url(#d6bcf88b35)"><g transform="matrix(1, 0, 0, 1, 6, 7)"><g clip-path="url(#22916d5f3d)"><g clip-path="url(#5b6719b683)"><path fill="#172029" d="M 1.839844 1.734375 C 1.839844 1.734375 1.605469 1.75 1.257812 1.589844 C 1.214844 1.933594 1.386719 2.109375 1.386719 2.109375 C 1.605469 2.445312 2.390625 2.304688 2.425781 2.296875 C 2.375 2.3125 0.449219 2.933594 1.273438 1.0625 C 1.175781 1.550781 1.820312 1.730469 1.839844 1.734375 Z M 1.839844 1.734375 " fill-opacity="1" fill-rule="nonzero"/></g></g></g></g><g mask="url(#e1c9d4ab30)"><g transform="matrix(1, 0, 0, 1, 7, 7)"><g clip-path="url(#ac94899e26)"><g clip-path="url(#967bb95441)"><path fill="#172029" d="M 2.734375 2.082031 C 2.722656 2.058594 2.488281 1.679688 1.792969 1.371094 C 1.074219 1.050781 0.96875 0.859375 0.96875 0.859375 C 0.730469 1.210938 0.839844 1.734375 0.839844 1.734375 C 0.820312 1.722656 0.355469 1.378906 0.925781 0.523438 C 1.027344 1.101562 2.386719 1.09375 2.734375 2.082031 Z M 2.734375 2.082031 " fill-opacity="1" fill-rule="nonzero"/></g></g></g></g><g mask="url(#be25f71132)"><g transform="matrix(1, 0, 0, 1, 9, 7)"><g clip-path="url(#65cd670b8e)"><g clip-path="url(#3afbb5924f)"><path fill="#172029" d="M 0.535156 1.023438 C 0.84375 1.539062 0.738281 2.082031 0.738281 2.082031 C 0.78125 1.351562 0.15625 0.699219 0.15625 0.699219 C 0.15625 0.699219 0.902344 0.898438 1.113281 1.6875 C 1.105469 1.671875 0.84375 1.199219 0.535156 1.023438 Z M 0.535156 1.023438 " fill-opacity="1" fill-rule="nonzero"/></g></g></g></g><path fill="#a6a6a6" d="M 8.992188 20.578125 C 9.035156 20.691406 9.089844 20.796875 9.15625 20.894531 C 8.847656 20.695312 8.6875 20.378906 8.605469 20.074219 C 8.703125 20.207031 8.871094 20.425781 8.992188 20.578125 Z M 8.992188 20.578125 " fill-opacity="1" fill-rule="nonzero"/><g clip-path="url(#fd2a7bf3bf)"><path fill="#a6a6a6" d="M 9.753906 21.042969 C 9.023438 20.539062 8.875 19.824219 8.867188 19.78125 C 8.867188 19.78125 8.867188 19.78125 8.867188 19.777344 C 8.867188 19.777344 9.101562 20.324219 9.507812 20.691406 C 9.441406 20.398438 9.390625 20.105469 9.355469 19.808594 C 9.421875 20.238281 9.554688 20.648438 9.753906 21.042969 Z M 9.753906 21.042969 " fill-opacity="1" fill-rule="nonzero"/></g><path fill="#a6a6a6" d="M 4.167969 12.097656 C 4.167969 12.097656 3.898438 11.121094 4.671875 10.34375 C 4.222656 10.675781 3.652344 10.875 3.632812 10.882812 C 3.660156 10.863281 4.582031 10.179688 4.996094 9.34375 C 4.875 10.355469 4.742188 10.605469 4.742188 10.605469 L 5.039062 10.546875 C 4.027344 11.003906 4.167969 12.097656 4.167969 12.097656 Z M 4.167969 12.097656 " fill-opacity="1" fill-rule="nonzero"/><path fill="#a6a6a6" d="M 6.574219 8.585938 C 5.675781 8.414062 5.261719 8.890625 5.261719 8.890625 C 5.375 8.890625 5.484375 8.902344 5.59375 8.925781 C 5.238281 9.097656 5.335938 9.675781 5.339844 9.703125 C 5.007812 8.90625 5.195312 8.636719 5.195312 8.636719 L 4.699219 8.78125 C 4.699219 8.78125 5.382812 7.875 6.371094 8.15625 C 6.371094 8.15625 6.070312 7.566406 5.464844 7.425781 C 6.390625 7.308594 6.742188 7.96875 6.574219 8.585938 Z M 6.574219 8.585938 " fill-opacity="1" fill-rule="nonzero"/><path fill="#a6a6a6" d="M 7.796875 6.984375 L 8.308594 7.3125 L 7.785156 7.144531 C 7.257812 6.976562 7.035156 6.660156 7.035156 6.660156 C 7.035156 6.660156 7.363281 6.925781 8.082031 6.890625 L 7.761719 6.699219 C 7.761719 6.699219 8.398438 6.773438 8.867188 7.164062 C 8.460938 6.960938 7.796875 6.984375 7.796875 6.984375 Z M 7.796875 6.984375 " fill-opacity="1" fill-rule="nonzero"/><path fill="#a6a6a6" d="M 13.320312 20.488281 C 13.3125 20.441406 13.066406 18.640625 13.75 17.394531 C 13.558594 18.296875 13.996094 18.867188 13.820312 19.96875 C 14.359375 19.179688 14.023438 17.308594 14.378906 16.46875 C 14.277344 17.609375 14.679688 18.785156 14.679688 18.785156 C 14.679688 18.785156 14.679688 17.054688 15.125 15.964844 C 15.421875 16.996094 15.027344 18.035156 15.015625 18.066406 C 15.03125 18.046875 15.679688 17.347656 15.5625 16.277344 C 15.441406 15.195312 15.617188 14.457031 15.617188 14.457031 C 15.617188 14.457031 15.644531 15.03125 16.136719 15.660156 C 15.78125 14.183594 16.125 13.601562 16.125 13.601562 C 16.417969 14.285156 16.5 14.714844 16.5 14.714844 C 16.59375 12.039062 15.390625 12.042969 15.390625 12.042969 C 15.390625 12.042969 16.082031 12.234375 16.273438 13.503906 C 16.1875 13.382812 16.117188 13.253906 16.066406 13.113281 C 16.066406 13.113281 15.710938 14.207031 15.890625 14.960938 C 15.757812 14.636719 15.667969 14.300781 15.621094 13.957031 C 15.621094 13.957031 15.128906 14.746094 15.320312 15.820312 C 15.214844 15.621094 15.148438 15.414062 15.117188 15.191406 C 15.117188 15.191406 14.460938 16.398438 14.605469 17.667969 C 14.421875 16.933594 14.515625 15.964844 14.515625 15.964844 C 14.515625 15.964844 13.976562 16.4375 14.027344 17.835938 C 13.90625 17.464844 13.855469 17.085938 13.871094 16.699219 C 13.871094 16.699219 12.96875 17.875 13.09375 19.15625 C 12.851562 18.730469 12.84375 17.429688 12.945312 16.789062 C 12.488281 18.660156 13.296875 20.441406 13.320312 20.488281 Z M 13.320312 20.488281 " fill-opacity="1" fill-rule="nonzero"/><path fill="#a6a6a6" d="M 14.722656 13.867188 C 14.757812 13.738281 14.730469 13.367188 14.621094 12.90625 C 14.941406 13.15625 15.191406 13.539062 15.191406 13.539062 C 14.988281 12.261719 13.910156 11.875 13.878906 11.863281 C 14.558594 12.339844 14.820312 12.894531 14.835938 12.929688 C 14.816406 12.898438 14.507812 12.484375 13.835938 12.175781 C 14.738281 12.878906 14.722656 13.867188 14.722656 13.867188 Z M 14.722656 13.867188 " fill-opacity="1" fill-rule="nonzero"/><path fill="#737373" d="M 13.929688 16.003906 C 13.929688 16.003906 13.925781 15.820312 13.894531 15.5625 C 13.914062 15.824219 13.929688 16.003906 13.929688 16.003906 Z M 13.929688 16.003906 " fill-opacity="1" fill-rule="nonzero"/><path fill="#a6a6a6" d="M 13.929688 16.003906 C 13.9375 15.988281 14.261719 15.523438 14.273438 14.746094 C 14.449219 15.125 14.59375 15.742188 14.59375 15.742188 C 15.027344 14.011719 13.917969 12.976562 13.859375 12.925781 L 13.859375 12.921875 C 14.667969 13.894531 14.546875 15.023438 14.546875 15.023438 C 14.546875 15.023438 14.3125 14.101562 13.851562 13.539062 C 14.34375 14.726562 13.9375 15.980469 13.929688 16.003906 Z M 13.929688 16.003906 " fill-opacity="1" fill-rule="nonzero"/><path fill="#a6a6a6" d="M 9.394531 19.261719 C 9.167969 18.914062 9.25 18.433594 9.25 18.433594 C 9.25 18.433594 9.320312 19.453125 10.113281 19.453125 C 10.90625 19.453125 10.976562 18.433594 10.976562 18.433594 C 10.976562 18.433594 11.058594 18.914062 10.832031 19.261719 C 12.285156 18.789062 11.738281 17.46875 11.738281 17.46875 C 11.738281 17.46875 11.769531 18.449219 11.148438 18.925781 C 11.179688 18.167969 11.03125 17.792969 11.03125 17.792969 C 11.03125 17.792969 11.046875 18.605469 10.113281 18.605469 C 9.175781 18.605469 9.195312 17.792969 9.195312 17.792969 C 9.195312 17.792969 9.042969 18.167969 9.078125 18.925781 C 8.457031 18.449219 8.488281 17.46875 8.488281 17.46875 C 8.488281 17.46875 7.9375 18.789062 9.394531 19.261719 Z M 9.394531 19.261719 " fill-opacity="1" fill-rule="nonzero"/><g mask="url(#490368ad94)"><g transform="matrix(1, 0, 0, 1, 10, 16)"><g clip-path="url(#e89b155e1b)"><g clip-path="url(#e2783d07ff)"><path fill="#172029" d="M 0.113281 1.0625 L 0.113281 1.164062 C 0.113281 1.164062 0.355469 1.132812 0.726562 1.1875 C 0.851562 1.003906 0.835938 0.859375 0.835938 0.859375 C 0.835938 0.859375 0.769531 1.027344 0.679688 1.097656 C 0.609375 1.0625 0.113281 1.0625 0.113281 1.0625 Z M 0.113281 1.0625 " fill-opacity="1" fill-rule="nonzero"/></g></g></g></g><g mask="url(#8e330b1a7d)"><g transform="matrix(1, 0, 0, 1, 10, 15)"><g clip-path="url(#a6c3441c4e)"><g clip-path="url(#3e09bbb4bd)"><path fill="#172029" d="M 0.113281 0.621094 L 0.113281 0.699219 C 0.113281 0.699219 0.546875 0.730469 0.777344 0.6875 C 0.804688 0.871094 0.78125 0.957031 0.777344 0.964844 C 0.785156 0.960938 0.890625 0.855469 0.855469 0.617188 C 0.855469 0.617188 0.683594 0.683594 0.113281 0.621094 Z M 0.113281 0.621094 " fill-opacity="1" fill-rule="nonzero"/></g></g></g></g><path fill="#a6a6a6" d="M 11.234375 16.640625 C 11.789062 16.1875 11.753906 15.5625 11.71875 15.339844 C 11.921875 15.230469 12.109375 15.101562 12.285156 14.957031 C 11.894531 14.992188 11.503906 14.988281 11.113281 14.949219 L 12.285156 14.714844 L 12.429688 14.472656 C 12.429688 14.472656 11.714844 14.546875 11.324219 14.539062 L 12.46875 14.210938 L 12.59375 13.765625 C 12.59375 13.765625 11.859375 13.890625 11.699219 13.90625 L 11.695312 13.90625 L 12.429688 13.9375 L 12.105469 14.148438 L 10.839844 14.582031 L 11.839844 14.660156 L 10.71875 14.917969 C 10.71875 14.917969 10.867188 15.007812 11.503906 15.226562 C 11.789062 16.035156 11.261719 16.613281 11.234375 16.640625 Z M 11.234375 16.640625 " fill-opacity="1" fill-rule="nonzero"/><path fill="#a6a6a6" d="M 11.5625 12.320312 C 11.628906 12.304688 12.027344 12.167969 12.027344 12.167969 C 12.027344 12.167969 12.015625 12.222656 11.933594 12.410156 C 12.171875 12.265625 12.390625 12.097656 12.59375 11.910156 C 12.59375 11.910156 13.003906 12.175781 13.175781 12.445312 C 13.347656 12.71875 13.203125 13.046875 13.203125 13.046875 L 13.152344 12.792969 C 12.945312 13.253906 12.855469 13.972656 12.851562 14.003906 C 12.863281 13.976562 12.988281 13.589844 13.152344 13.222656 C 13.128906 13.484375 13.121094 13.5625 13.121094 13.5625 C 13.121094 13.5625 13.449219 13.207031 13.488281 12.785156 C 13.53125 12.363281 12.597656 11.785156 12.597656 11.785156 C 12.597656 11.785156 12.371094 12.0625 12.117188 12.171875 L 12.191406 12.058594 C 12.191406 12.058594 11.722656 12.140625 11.390625 12.042969 C 11.515625 12.261719 11.433594 12.613281 11.367188 12.828125 C 11.386719 12.808594 11.484375 12.691406 11.5625 12.320312 Z M 11.5625 12.320312 " fill-opacity="1" fill-rule="nonzero"/><g mask="url(#aaef12c731)"><g transform="matrix(1, 0, 0, 1, 10, 12)"><g clip-path="url(#4b8971fabf)"><g clip-path="url(#4b142b7930)"><path fill="#172029" d="M 0.113281 1.230469 L 0.113281 1.417969 C 0.113281 1.417969 0.617188 1.492188 0.839844 1.21875 C 0.980469 1.609375 1.160156 1.683594 1.265625 1.675781 C 1.367188 1.667969 1.476562 1.34375 1.480469 1.328125 C 1.476562 1.339844 1.359375 1.539062 1.167969 1.484375 C 0.96875 1.433594 0.863281 0.765625 0.863281 0.765625 C 0.863281 0.765625 0.722656 1.191406 0.113281 1.230469 Z M 0.113281 1.230469 " fill-opacity="1" fill-rule="nonzero"/></g></g></g></g><path fill="#a6a6a6" d="M 12.488281 11.4375 L 11.925781 11.613281 L 11.925781 11.789062 C 12.140625 11.679688 12.472656 11.449219 12.488281 11.4375 Z M 12.488281 11.4375 " fill-opacity="1" fill-rule="nonzero"/><path fill="#a6a6a6" d="M 11.300781 11.808594 C 11.316406 11.808594 11.636719 11.878906 11.800781 11.835938 C 11.839844 11.828125 11.875 11.8125 11.90625 11.796875 L 11.761719 11.664062 L 11.300781 11.804688 Z M 11.300781 11.808594 " fill-opacity="1" fill-rule="nonzero"/><path fill="#a6a6a6" d="M 11.480469 12.066406 C 11.449219 12.058594 11.417969 12.054688 11.390625 12.042969 C 11.398438 12.058594 11.40625 12.074219 11.414062 12.089844 Z M 11.480469 12.066406 " fill-opacity="1" fill-rule="nonzero"/><path fill="#a6a6a6" d="M 10.445312 10.921875 C 10.445312 10.921875 10.476562 11.207031 10.605469 11.382812 C 10.734375 11.558594 11.183594 11.847656 11.847656 11.445312 C 12.507812 11.042969 12.8125 11.160156 12.96875 11.257812 C 12.699219 11.320312 12.648438 11.636719 12.648438 11.636719 C 12.648438 11.636719 12.941406 11.753906 13.15625 11.667969 C 13.179688 11.65625 13.199219 11.640625 13.214844 11.625 L 13.21875 11.621094 C 13.21875 11.621094 13.234375 11.121094 13.015625 10.820312 C 12.796875 10.519531 11.964844 10.171875 11.964844 10.171875 C 11.957031 10.609375 11.769531 10.941406 11.402344 11.171875 C 11.664062 11.117188 11.914062 11.015625 12.140625 10.875 C 11.703125 11.457031 10.84375 11.792969 10.445312 10.921875 Z M 10.445312 10.921875 " fill-opacity="1" fill-rule="nonzero"/><path fill="#a6a6a6" d="M 11.789062 9.441406 C 12.226562 9.539062 12.929688 9.871094 13.519531 10.566406 C 13.523438 10.292969 13.355469 9.820312 13.347656 9.804688 C 13.359375 9.8125 13.699219 10.003906 14.15625 10.722656 C 14.609375 11.441406 15.171875 11.695312 15.1875 11.703125 C 14.445312 11 14.527344 9.511719 12.835938 9.554688 C 13.179688 9.785156 13.351562 10.257812 13.359375 10.289062 C 13.332031 10.253906 12.785156 9.511719 11.789062 9.441406 Z M 11.789062 9.441406 " fill-opacity="1" fill-rule="nonzero"/><path fill="#a6a6a6" d="M 12.386719 8.734375 C 12.386719 8.734375 12.621094 8.75 12.96875 8.589844 C 13.015625 8.933594 12.84375 9.109375 12.84375 9.109375 C 12.621094 9.445312 11.835938 9.304688 11.800781 9.296875 C 11.851562 9.3125 13.777344 9.933594 12.957031 8.0625 C 13.050781 8.550781 12.40625 8.730469 12.386719 8.734375 Z M 12.386719 8.734375 " fill-opacity="1" fill-rule="nonzero"/><path fill="#a6a6a6" d="M 10.492188 9.082031 C 10.507812 9.058594 10.738281 8.679688 11.4375 8.371094 C 12.152344 8.050781 12.257812 7.859375 12.257812 7.859375 C 12.5 8.210938 12.386719 8.734375 12.386719 8.734375 C 12.40625 8.722656 12.871094 8.378906 12.300781 7.523438 C 12.199219 8.101562 10.84375 8.09375 10.492188 9.082031 Z M 10.492188 9.082031 " fill-opacity="1" fill-rule="nonzero"/><path fill="#a6a6a6" d="M 10.691406 8.023438 C 10.382812 8.539062 10.492188 9.082031 10.492188 9.082031 C 10.445312 8.351562 11.074219 7.699219 11.074219 7.699219 C 11.074219 7.699219 10.324219 7.898438 10.113281 8.6875 C 10.125 8.671875 10.386719 8.199219 10.691406 8.023438 Z M 10.691406 8.023438 " fill-opacity="1" fill-rule="nonzero"/><path fill="#a6a6a6" d="M 11.234375 20.578125 C 11.191406 20.691406 11.136719 20.796875 11.070312 20.894531 C 11.378906 20.695312 11.539062 20.378906 11.621094 20.074219 C 11.523438 20.207031 11.359375 20.425781 11.234375 20.578125 Z M 11.234375 20.578125 " fill-opacity="1" fill-rule="nonzero"/><g clip-path="url(#a7a956ece0)"><path fill="#a6a6a6" d="M 10.476562 21.042969 C 11.207031 20.539062 11.355469 19.824219 11.363281 19.78125 C 11.363281 19.78125 11.363281 19.78125 11.363281 19.777344 C 11.363281 19.777344 11.128906 20.324219 10.722656 20.691406 C 10.789062 20.398438 10.839844 20.105469 10.875 19.808594 C 10.804688 20.238281 10.671875 20.648438 10.476562 21.042969 Z M 10.476562 21.042969 " fill-opacity="1" fill-rule="nonzero"/></g><path fill="#a6a6a6" d="M 16.0625 12.097656 C 16.0625 12.097656 16.328125 11.121094 15.554688 10.34375 C 16.003906 10.675781 16.578125 10.875 16.59375 10.882812 C 16.566406 10.863281 15.648438 10.179688 15.230469 9.34375 C 15.355469 10.355469 15.484375 10.605469 15.484375 10.605469 L 15.191406 10.546875 C 16.199219 11.003906 16.0625 12.097656 16.0625 12.097656 Z M 16.0625 12.097656 " fill-opacity="1" fill-rule="nonzero"/><path fill="#a6a6a6" d="M 13.652344 8.585938 C 14.554688 8.414062 14.964844 8.890625 14.964844 8.890625 C 14.855469 8.890625 14.742188 8.902344 14.632812 8.925781 C 14.988281 9.097656 14.890625 9.675781 14.886719 9.703125 C 15.21875 8.90625 15.035156 8.636719 15.035156 8.636719 L 15.53125 8.78125 C 15.53125 8.78125 14.84375 7.875 13.855469 8.15625 C 13.855469 8.15625 14.160156 7.566406 14.761719 7.425781 C 13.839844 7.308594 13.488281 7.96875 13.652344 8.585938 Z M 13.652344 8.585938 " fill-opacity="1" fill-rule="nonzero"/><path fill="#a6a6a6" d="M 12.433594 6.984375 L 11.917969 7.3125 L 12.445312 7.144531 C 12.972656 6.976562 13.195312 6.660156 13.195312 6.660156 C 13.195312 6.660156 12.863281 6.925781 12.148438 6.890625 L 12.46875 6.699219 C 12.46875 6.699219 11.828125 6.773438 11.359375 7.164062 C 11.769531 6.960938 12.433594 6.984375 12.433594 6.984375 Z M 12.433594 6.984375 " fill-opacity="1" fill-rule="nonzero"/><path fill="#a6a6a6" d="M 10.117188 4.402344 L 10.117188 5.351562 C 7.820312 5.53125 7.03125 6.355469 7.03125 6.355469 L 6.414062 4.957031 L 6.777344 4.402344 L 6.003906 4.023438 L 5.65625 3.234375 L 7.335938 4.148438 L 7.011719 5.128906 L 8.359375 5.535156 L 9.699219 4.824219 L 8.839844 3.992188 L 10.113281 2.148438 L 10.113281 2.953125 L 9.441406 3.835938 Z M 10.117188 4.402344 " fill-opacity="1" fill-rule="nonzero"/><path fill="#a6a6a6" d="M 14.226562 4.023438 L 13.453125 4.402344 L 13.816406 4.957031 L 13.199219 6.355469 L 13.160156 6.355469 L 13.601562 5.007812 L 13.21875 4.296875 L 14.054688 3.882812 L 14.574219 3.234375 Z M 14.226562 4.023438 " fill-opacity="1" fill-rule="nonzero"/><g clip-path="url(#810769565e)"><path fill="#a6a6a6" d="M 3.550781 17.960938 L 3.636719 18.105469 C 2.667969 17.84375 1.714844 17.417969 0.792969 16.84375 C 1.066406 18.460938 2.28125 18.75 3.464844 18.253906 C 3.542969 18.21875 3.628906 18.214844 3.71875 18.230469 C 3.90625 18.519531 4.113281 18.796875 4.335938 19.0625 C 3.15625 19.003906 1.960938 18.730469 0.765625 18.269531 C 1.394531 19.964844 2.769531 20.027344 3.945312 19.242188 C 4.082031 19.15625 4.246094 19.160156 4.441406 19.183594 C 5.351562 20.222656 6.542969 21.085938 8.011719 21.65625 C 8.402344 21.808594 8.882812 21.960938 9.40625 22.089844 C 9.21875 22.117188 9.023438 22.140625 8.835938 22.160156 C 8.351562 22.203125 8.097656 22.355469 7.835938 22.59375 C 8.546875 22.546875 9.363281 22.425781 10.140625 22.261719 C 10.921875 22.425781 11.738281 22.546875 12.449219 22.59375 C 12.1875 22.355469 11.933594 22.203125 11.449219 22.160156 C 11.261719 22.140625 11.066406 22.117188 10.875 22.089844 C 11.398438 21.960938 11.882812 21.808594 12.273438 21.65625 C 13.742188 21.085938 14.933594 20.222656 15.84375 19.183594 C 16.039062 19.160156 16.203125 19.15625 16.335938 19.242188 C 17.515625 20.027344 18.890625 19.964844 19.519531 18.269531 C 18.324219 18.730469 17.125 19.003906 15.945312 19.0625 C 16.171875 18.796875 16.378906 18.519531 16.5625 18.230469 C 16.65625 18.214844 16.738281 18.21875 16.820312 18.253906 C 18.003906 18.75 19.21875 18.460938 19.492188 16.84375 C 18.570312 17.417969 17.617188 17.84375 16.648438 18.105469 L 16.734375 17.960938 C 16.890625 17.703125 17.03125 17.429688 17.164062 17.148438 C 17.214844 17.132812 17.269531 17.128906 17.324219 17.132812 C 18.589844 17.308594 19.679688 16.722656 19.523438 15.097656 C 18.824219 15.847656 18.058594 16.480469 17.242188 16.96875 C 17.414062 16.558594 17.558594 16.128906 17.675781 15.6875 C 18.828125 15.632812 19.699219 14.929688 19.300781 13.507812 C 18.84375 14.214844 18.324219 14.84375 17.75 15.382812 C 17.839844 14.980469 17.90625 14.570312 17.945312 14.15625 C 18.984375 13.875 19.632812 13.054688 18.984375 11.832031 C 18.714844 12.558594 18.378906 13.21875 17.972656 13.8125 C 17.996094 13.417969 18 13.015625 17.976562 12.621094 C 18.773438 12.113281 19.101562 11.261719 18.25 10.398438 C 18.207031 11.015625 18.105469 11.609375 17.941406 12.167969 C 17.894531 11.710938 17.816406 11.261719 17.699219 10.824219 C 18.171875 10.289062 18.238281 9.601562 17.441406 9.144531 C 17.527344 9.570312 17.574219 9.992188 17.578125 10.398438 L 17.613281 10.503906 C 17.441406 9.949219 17.214844 9.421875 16.933594 8.9375 C 18.054688 11.816406 18.171875 15.128906 16.535156 17.84375 C 15.601562 19.386719 14.148438 20.632812 12.1875 21.394531 C 11.59375 21.628906 10.882812 21.828125 10.140625 21.96875 C 9.402344 21.828125 8.691406 21.628906 8.09375 21.394531 C 6.132812 20.632812 4.679688 19.386719 3.75 17.84375 C 2.109375 15.128906 2.230469 11.816406 3.351562 8.9375 C 3.066406 9.421875 2.84375 9.949219 2.671875 10.503906 L 2.707031 10.398438 C 2.707031 9.992188 2.757812 9.570312 2.84375 9.144531 C 2.042969 9.601562 2.109375 10.289062 2.582031 10.824219 C 2.46875 11.261719 2.390625 11.710938 2.34375 12.167969 C 2.175781 11.609375 2.078125 11.015625 2.03125 10.398438 C 1.183594 11.261719 1.511719 12.113281 2.304688 12.621094 C 2.285156 13.015625 2.285156 13.417969 2.308594 13.8125 C 1.90625 13.21875 1.566406 12.558594 1.300781 11.832031 C 0.648438 13.054688 1.300781 13.875 2.339844 14.15625 C 2.378906 14.570312 2.445312 14.980469 2.535156 15.382812 C 1.960938 14.84375 1.441406 14.214844 0.984375 13.507812 C 0.582031 14.929688 1.457031 15.632812 2.609375 15.6875 C 2.722656 16.128906 2.867188 16.558594 3.042969 16.96875 C 2.222656 16.480469 1.460938 15.847656 0.757812 15.097656 C 0.605469 16.722656 1.695312 17.308594 2.960938 17.132812 C 3.015625 17.128906 3.070312 17.132812 3.121094 17.148438 C 3.25 17.429688 3.394531 17.703125 3.550781 17.960938 Z M 3.550781 17.960938 " fill-opacity="1" fill-rule="evenodd"/></g><g transform="matrix(1, 0, 0, 1, 22, 8)"><g clip-path="url(#ecb86b0420)"><g clip-path="url(#c2915ffa6d)"><g fill="#f79533" fill-opacity="1"><g transform="translate(0.897527, 8.813448)"><g><path d="M 0.1875 0 L 3.578125 -8.34375 L 3.734375 -8.34375 L 7.125 0 L 5.3125 0 L 4.984375 -0.875 L 2.328125 -0.875 L 2 0 Z M 2.90625 -2.375 L 4.390625 -2.375 L 3.65625 -4.46875 Z M 2.90625 -2.375 "/></g></g></g></g><g clip-path="url(#2dadd7b235)"><g fill="#f79533" fill-opacity="1"><g transform="translate(7.687187, 8.813448)"><g><path d="M 4.90625 0 L 3.296875 -3.078125 L 2.515625 -3.078125 L 2.515625 0 L 0.90625 0 L 0.90625 -8.0625 L 4.078125 -8.0625 C 4.554688 -8.0625 4.960938 -7.957031 5.296875 -7.75 C 5.628906 -7.550781 5.890625 -7.289062 6.078125 -6.96875 C 6.265625 -6.65625 6.378906 -6.3125 6.421875 -5.9375 C 6.472656 -5.570312 6.445312 -5.207031 6.34375 -4.84375 C 6.25 -4.488281 6.078125 -4.175781 5.828125 -3.90625 C 5.585938 -3.632812 5.265625 -3.441406 4.859375 -3.328125 L 6.734375 0 Z M 2.515625 -4.640625 L 3.9375 -4.640625 C 4.15625 -4.640625 4.328125 -4.695312 4.453125 -4.8125 C 4.585938 -4.9375 4.675781 -5.085938 4.71875 -5.265625 C 4.757812 -5.453125 4.757812 -5.632812 4.71875 -5.8125 C 4.675781 -5.988281 4.585938 -6.132812 4.453125 -6.25 C 4.328125 -6.375 4.15625 -6.4375 3.9375 -6.4375 L 2.515625 -6.4375 Z M 2.515625 -4.640625 "/></g></g></g></g><g clip-path="url(#9393c0cff9)"><g fill="#f79533" fill-opacity="1"><g transform="translate(14.026443, 8.813448)"><g><path d="M 4.59375 -4.640625 L 7.765625 -8.171875 L 8.28125 -8.171875 L 8.28125 0 L 6.640625 0 L 6.65625 -4.5 L 4.59375 -2.328125 L 2.53125 -4.5 L 2.53125 0 L 0.90625 0 L 0.90625 -8.171875 L 1.421875 -8.171875 Z M 4.59375 -4.640625 "/></g></g></g></g><g clip-path="url(#ceb00e39af)"><g fill="#f79533" fill-opacity="1"><g transform="translate(22.651484, 8.813448)"><g><path d="M 0.53125 -0.515625 L 0.734375 -2.203125 C 1.035156 -1.984375 1.335938 -1.828125 1.640625 -1.734375 C 1.953125 -1.640625 2.226562 -1.582031 2.46875 -1.5625 C 2.71875 -1.550781 2.90625 -1.550781 3.03125 -1.5625 C 3.269531 -1.582031 3.472656 -1.664062 3.640625 -1.8125 C 3.804688 -1.96875 3.878906 -2.15625 3.859375 -2.375 C 3.847656 -2.601562 3.765625 -2.78125 3.609375 -2.90625 C 3.453125 -3.03125 3.257812 -3.128906 3.03125 -3.203125 C 2.613281 -3.359375 2.222656 -3.539062 1.859375 -3.75 C 1.492188 -3.957031 1.195312 -4.210938 0.96875 -4.515625 C 0.75 -4.828125 0.640625 -5.207031 0.640625 -5.65625 C 0.640625 -6.101562 0.734375 -6.507812 0.921875 -6.875 C 1.117188 -7.238281 1.390625 -7.53125 1.734375 -7.75 C 2.078125 -7.96875 2.472656 -8.085938 2.921875 -8.109375 C 3.128906 -8.128906 3.382812 -8.125 3.6875 -8.09375 C 3.988281 -8.0625 4.398438 -7.953125 4.921875 -7.765625 L 4.71875 -6.21875 C 4.28125 -6.394531 3.925781 -6.492188 3.65625 -6.515625 C 3.394531 -6.546875 3.203125 -6.5625 3.078125 -6.5625 C 2.785156 -6.539062 2.570312 -6.441406 2.4375 -6.265625 C 2.3125 -6.085938 2.257812 -5.882812 2.28125 -5.65625 C 2.300781 -5.425781 2.394531 -5.253906 2.5625 -5.140625 C 2.738281 -5.023438 2.941406 -4.925781 3.171875 -4.84375 C 3.597656 -4.695312 3.984375 -4.507812 4.328125 -4.28125 C 4.679688 -4.0625 4.96875 -3.796875 5.1875 -3.484375 C 5.40625 -3.171875 5.515625 -2.800781 5.515625 -2.375 C 5.515625 -1.9375 5.414062 -1.535156 5.21875 -1.171875 C 5.019531 -0.804688 4.738281 -0.515625 4.375 -0.296875 C 4.007812 -0.0859375 3.578125 0.03125 3.078125 0.0625 C 2.921875 0.0703125 2.710938 0.0664062 2.453125 0.046875 C 2.203125 0.0234375 1.910156 -0.0234375 1.578125 -0.109375 C 1.242188 -0.191406 0.894531 -0.328125 0.53125 -0.515625 Z M 0.53125 -0.515625 "/></g></g></g></g></g></g><g clip-path="url(#6d9be6dba6)"><g transform="matrix(1, 0, 0, 1, 53, 9)"><g clip-path="url(#e3234cc64b)"><g fill="#dee2e6" fill-opacity="1"><g transform="translate(0.782861, 7.12824)"><g><path d="M 2.34375 0 L 1.3125 -3.34375 L 1.28125 -3.34375 C 1.289062 -3.257812 1.296875 -3.140625 1.296875 -2.984375 C 1.304688 -2.828125 1.316406 -2.65625 1.328125 -2.46875 C 1.335938 -2.289062 1.34375 -2.128906 1.34375 -1.984375 L 1.34375 0 L 0.53125 0 L 0.53125 -4.265625 L 1.765625 -4.265625 L 2.78125 -1 L 2.796875 -1 L 3.859375 -4.265625 L 5.09375 -4.265625 L 5.09375 0 L 4.25 0 L 4.25 -2.015625 C 4.25 -2.148438 4.25 -2.304688 4.25 -2.484375 C 4.257812 -2.660156 4.265625 -2.828125 4.265625 -2.984375 C 4.273438 -3.140625 4.285156 -3.257812 4.296875 -3.34375 L 4.265625 -3.34375 L 3.171875 0 Z M 2.34375 0 "/></g></g></g><g fill="#dee2e6" fill-opacity="1"><g transform="translate(9.399708, 7.12824)"><g><path d="M 4 -4.265625 L 4 -1.5 C 4 -1.207031 3.929688 -0.941406 3.796875 -0.703125 C 3.671875 -0.472656 3.476562 -0.285156 3.21875 -0.140625 C 2.957031 -0.00390625 2.628906 0.0625 2.234375 0.0625 C 1.671875 0.0625 1.238281 -0.078125 0.9375 -0.359375 C 0.644531 -0.648438 0.5 -1.035156 0.5 -1.515625 L 0.5 -4.265625 L 1.40625 -4.265625 L 1.40625 -1.65625 C 1.40625 -1.300781 1.476562 -1.050781 1.625 -0.90625 C 1.769531 -0.769531 1.984375 -0.703125 2.265625 -0.703125 C 2.460938 -0.703125 2.617188 -0.734375 2.734375 -0.796875 C 2.859375 -0.867188 2.953125 -0.972656 3.015625 -1.109375 C 3.078125 -1.253906 3.109375 -1.4375 3.109375 -1.65625 L 3.109375 -4.265625 Z M 4 -4.265625 "/></g></g></g><g fill="#dee2e6" fill-opacity="1"><g transform="translate(16.899719, 7.12824)"><g><path d="M 3.046875 -1.1875 C 3.046875 -0.925781 2.984375 -0.703125 2.859375 -0.515625 C 2.742188 -0.335938 2.566406 -0.195312 2.328125 -0.09375 C 2.097656 0.0078125 1.816406 0.0625 1.484375 0.0625 C 1.335938 0.0625 1.191406 0.0507812 1.046875 0.03125 C 0.910156 0.0078125 0.773438 -0.015625 0.640625 -0.046875 C 0.515625 -0.0859375 0.394531 -0.140625 0.28125 -0.203125 L 0.28125 -1.03125 C 0.476562 -0.945312 0.6875 -0.867188 0.90625 -0.796875 C 1.125 -0.722656 1.335938 -0.6875 1.546875 -0.6875 C 1.691406 -0.6875 1.8125 -0.703125 1.90625 -0.734375 C 2 -0.773438 2.066406 -0.832031 2.109375 -0.90625 C 2.148438 -0.976562 2.171875 -1.054688 2.171875 -1.140625 C 2.171875 -1.242188 2.132812 -1.332031 2.0625 -1.40625 C 1.988281 -1.488281 1.890625 -1.5625 1.765625 -1.625 C 1.640625 -1.6875 1.5 -1.757812 1.34375 -1.84375 C 1.238281 -1.882812 1.128906 -1.9375 1.015625 -2 C 0.898438 -2.070312 0.789062 -2.15625 0.6875 -2.25 C 0.582031 -2.351562 0.492188 -2.472656 0.421875 -2.609375 C 0.359375 -2.742188 0.328125 -2.910156 0.328125 -3.109375 C 0.328125 -3.359375 0.382812 -3.570312 0.5 -3.75 C 0.613281 -3.9375 0.78125 -4.078125 1 -4.171875 C 1.21875 -4.273438 1.472656 -4.328125 1.765625 -4.328125 C 1.984375 -4.328125 2.191406 -4.300781 2.390625 -4.25 C 2.597656 -4.195312 2.8125 -4.117188 3.03125 -4.015625 L 2.734375 -3.3125 C 2.535156 -3.394531 2.359375 -3.457031 2.203125 -3.5 C 2.054688 -3.539062 1.898438 -3.5625 1.734375 -3.5625 C 1.617188 -3.5625 1.519531 -3.546875 1.4375 -3.515625 C 1.363281 -3.484375 1.304688 -3.429688 1.265625 -3.359375 C 1.222656 -3.296875 1.203125 -3.222656 1.203125 -3.140625 C 1.203125 -3.035156 1.234375 -2.945312 1.296875 -2.875 C 1.359375 -2.8125 1.445312 -2.75 1.5625 -2.6875 C 1.6875 -2.625 1.835938 -2.546875 2.015625 -2.453125 C 2.234375 -2.359375 2.414062 -2.253906 2.5625 -2.140625 C 2.71875 -2.023438 2.835938 -1.890625 2.921875 -1.734375 C 3.003906 -1.585938 3.046875 -1.40625 3.046875 -1.1875 Z M 3.046875 -1.1875 "/></g></g></g><g fill="#dee2e6" fill-opacity="1"><g transform="translate(23.175, 7.12824)"><g><path d="M 0.53125 0 L 0.53125 -4.265625 L 1.4375 -4.265625 L 1.4375 0 Z M 0.53125 0 "/></g></g></g><g fill="#dee2e6" fill-opacity="1"><g transform="translate(28.13807, 7.12824)"><g><path d="M 2.34375 -3.5625 C 2.175781 -3.5625 2.023438 -3.53125 1.890625 -3.46875 C 1.753906 -3.40625 1.640625 -3.304688 1.546875 -3.171875 C 1.460938 -3.046875 1.394531 -2.894531 1.34375 -2.71875 C 1.300781 -2.539062 1.28125 -2.34375 1.28125 -2.125 C 1.28125 -1.820312 1.316406 -1.5625 1.390625 -1.34375 C 1.460938 -1.132812 1.578125 -0.972656 1.734375 -0.859375 C 1.890625 -0.742188 2.09375 -0.6875 2.34375 -0.6875 C 2.519531 -0.6875 2.691406 -0.707031 2.859375 -0.75 C 3.035156 -0.789062 3.226562 -0.847656 3.4375 -0.921875 L 3.4375 -0.15625 C 3.25 -0.0820312 3.0625 -0.03125 2.875 0 C 2.695312 0.0390625 2.492188 0.0625 2.265625 0.0625 C 1.828125 0.0625 1.460938 -0.0234375 1.171875 -0.203125 C 0.890625 -0.390625 0.679688 -0.644531 0.546875 -0.96875 C 0.410156 -1.300781 0.34375 -1.6875 0.34375 -2.125 C 0.34375 -2.445312 0.382812 -2.738281 0.46875 -3 C 0.5625 -3.269531 0.691406 -3.503906 0.859375 -3.703125 C 1.023438 -3.898438 1.234375 -4.050781 1.484375 -4.15625 C 1.734375 -4.269531 2.019531 -4.328125 2.34375 -4.328125 C 2.550781 -4.328125 2.757812 -4.296875 2.96875 -4.234375 C 3.1875 -4.179688 3.394531 -4.109375 3.59375 -4.015625 L 3.296875 -3.28125 C 3.140625 -3.363281 2.976562 -3.429688 2.8125 -3.484375 C 2.65625 -3.535156 2.5 -3.5625 2.34375 -3.5625 Z M 2.34375 -3.5625 "/></g></g></g></g></g></g></g></g></svg>