<svg xmlns="http://www.w3.org/2000/svg" xmlns:xlink="http://www.w3.org/1999/xlink" width="200" zoomAndPan="magnify" viewBox="0 0 150 37.5" height="50" preserveAspectRatio="xMidYMid meet" version="1.0"><defs><filter x="0%" y="0%" width="100%" height="100%" id="89e1c3da4f"><feColorMatrix values="0 0 0 0 1 0 0 0 0 1 0 0 0 0 1 0 0 0 1 0" color-interpolation-filters="sRGB"/></filter><g/><clipPath id="13c578bd85"><path d="M 3.636719 0.441406 L 28.785156 0.441406 L 28.785156 35.429688 L 3.636719 35.429688 Z M 3.636719 0.441406 " clip-rule="nonzero"/></clipPath><mask id="2fb6ea338f"><g filter="url(#89e1c3da4f)"><rect x="-34" width="216" fill="#000000" y="-8.25" height="54" fill-opacity="0.3"/></g></mask><clipPath id="f8e5802629"><path d="M 0.671875 1 L 2.328125 1 L 2.328125 1.710938 L 0.671875 1.710938 Z M 0.671875 1 " clip-rule="nonzero"/></clipPath><clipPath id="598ea00b36"><rect x="0" width="3" y="0" height="2"/></clipPath><mask id="845bd3de1f"><g filter="url(#89e1c3da4f)"><rect x="-34" width="216" fill="#000000" y="-8.25" height="54" fill-opacity="0.3"/></g></mask><clipPath id="8932efa1fa"><path d="M 0.671875 0.867188 L 2.328125 0.867188 L 2.328125 1.578125 L 0.671875 1.578125 Z M 0.671875 0.867188 " clip-rule="nonzero"/></clipPath><clipPath id="ff5547a238"><rect x="0" width="3" y="0" height="2"/></clipPath><mask id="5cb1c1da29"><g filter="url(#89e1c3da4f)"><rect x="-34" width="216" fill="#000000" y="-8.25" height="54" fill-opacity="0.3"/></g></mask><clipPath id="4209084be4"><path d="M 1 0.789062 L 4.144531 0.789062 L 4.144531 5.761719 L 1 5.761719 Z M 1 0.789062 " clip-rule="nonzero"/></clipPath><clipPath id="3a83e9003b"><rect x="0" width="5" y="0" height="6"/></clipPath><mask id="822a0e8229"><g filter="url(#89e1c3da4f)"><rect x="-34" width="216" fill="#000000" y="-8.25" height="54" fill-opacity="0.3"/></g></mask><clipPath id="e99d49e2fa"><path d="M 0.40625 0.472656 L 4.199219 0.472656 L 4.199219 4.5 L 0.40625 4.5 Z M 0.40625 0.472656 " clip-rule="nonzero"/></clipPath><clipPath id="781622ad46"><rect x="0" width="5" y="0" height="5"/></clipPath><mask id="41667e071c"><g filter="url(#89e1c3da4f)"><rect x="-34" width="216" fill="#000000" y="-8.25" height="54" fill-opacity="0.3"/></g></mask><clipPath id="cf79b8cb8a"><path d="M 0.722656 0.132812 L 3.328125 0.132812 L 3.328125 1.789062 L 0.722656 1.789062 Z M 0.722656 0.132812 " clip-rule="nonzero"/></clipPath><clipPath id="7992cc2cd8"><rect x="0" width="4" y="0" height="2"/></clipPath><mask id="bfc71cbc74"><g filter="url(#89e1c3da4f)"><rect x="-34" width="216" fill="#000000" y="-8.25" height="54" fill-opacity="0.3"/></g></mask><clipPath id="6d034b9dda"><path d="M 0.882812 0.632812 L 5.617188 0.632812 L 5.617188 3.472656 L 0.882812 3.472656 Z M 0.882812 0.632812 " clip-rule="nonzero"/></clipPath><clipPath id="ee916860f1"><rect x="0" width="6" y="0" height="4"/></clipPath><mask id="623c6d9304"><g filter="url(#89e1c3da4f)"><rect x="-34" width="216" fill="#000000" y="-8.25" height="54" fill-opacity="0.3"/></g></mask><clipPath id="0b7f56a4c7"><path d="M 0.566406 0.449219 L 6.488281 0.449219 L 6.488281 4.472656 L 0.566406 4.472656 Z M 0.566406 0.449219 " clip-rule="nonzero"/></clipPath><clipPath id="f1c3b5d226"><rect x="0" width="7" y="0" height="5"/></clipPath><mask id="91c7acdff6"><g filter="url(#89e1c3da4f)"><rect x="-34" width="216" fill="#000000" y="-8.25" height="54" fill-opacity="0.3"/></g></mask><clipPath id="54b02a4364"><path d="M 1 0.316406 L 3.488281 0.316406 L 3.488281 2.683594 L 1 2.683594 Z M 1 0.316406 " clip-rule="nonzero"/></clipPath><clipPath id="e3fafd54d7"><rect x="0" width="4" y="0" height="3"/></clipPath><mask id="8b603189e0"><g filter="url(#89e1c3da4f)"><rect x="-34" width="216" fill="#000000" y="-8.25" height="54" fill-opacity="0.3"/></g></mask><clipPath id="268fd33e13"><path d="M 1 0.367188 L 4.617188 0.367188 L 4.617188 3.210938 L 1 3.210938 Z M 1 0.367188 " clip-rule="nonzero"/></clipPath><clipPath id="ee943974df"><rect x="0" width="5" y="0" height="4"/></clipPath><mask id="0f991bc8c0"><g filter="url(#89e1c3da4f)"><rect x="-34" width="216" fill="#000000" y="-8.25" height="54" fill-opacity="0.3"/></g></mask><clipPath id="ae6a13fb2b"><path d="M 0.433594 0.605469 L 2.328125 0.605469 L 2.328125 3.210938 L 0.433594 3.210938 Z M 0.433594 0.605469 " clip-rule="nonzero"/></clipPath><clipPath id="e3f9563baa"><rect x="0" width="3" y="0" height="4"/></clipPath><mask id="325d9e3bd5"><g filter="url(#89e1c3da4f)"><rect x="-34" width="216" fill="#000000" y="-8.25" height="54" fill-opacity="0.3"/></g></mask><clipPath id="d4ada9136c"><path d="M 0.09375 1 L 1.511719 1 L 1.511719 1.710938 L 0.09375 1.710938 Z M 0.09375 1 " clip-rule="nonzero"/></clipPath><clipPath id="474e703426"><rect x="0" width="2" y="0" height="2"/></clipPath><mask id="42b9f67a21"><g filter="url(#89e1c3da4f)"><rect x="-34" width="216" fill="#000000" y="-8.25" height="54" fill-opacity="0.3"/></g></mask><clipPath id="d8506a8011"><path d="M 0.09375 0.867188 L 1.511719 0.867188 L 1.511719 1.578125 L 0.09375 1.578125 Z M 0.09375 0.867188 " clip-rule="nonzero"/></clipPath><clipPath id="6aa227f631"><rect x="0" width="2" y="0" height="2"/></clipPath><mask id="059d55bcf3"><g filter="url(#89e1c3da4f)"><rect x="-34" width="216" fill="#000000" y="-8.25" height="54" fill-opacity="0.3"/></g></mask><clipPath id="f9b48e987e"><path d="M 0.09375 0.132812 L 2.460938 0.132812 L 2.460938 1.789062 L 0.09375 1.789062 Z M 0.09375 0.132812 " clip-rule="nonzero"/></clipPath><clipPath id="f772345440"><rect x="0" width="3" y="0" height="2"/></clipPath><clipPath id="9efc440947"><path d="M 0.222656 13.816406 L 31.929688 13.816406 L 31.929688 36.710938 L 0.222656 36.710938 Z M 0.222656 13.816406 " clip-rule="nonzero"/></clipPath><clipPath id="43267a2af4"><path d="M 0.171875 1 L 13 1 L 13 15 L 0.171875 15 Z M 0.171875 1 " clip-rule="nonzero"/></clipPath><clipPath id="a5c0981849"><rect x="0" width="47" y="0" height="20"/></clipPath><clipPath id="cf8d403481"><path d="M 88 15 L 146.117188 15 L 146.117188 29 L 88 29 Z M 88 15 " clip-rule="nonzero"/></clipPath><clipPath id="a1859dd533"><rect x="0" width="59" y="0" height="14"/></clipPath><clipPath id="41a425a0a0"><rect x="0" width="147" y="0" height="37"/></clipPath></defs><g transform="matrix(1, 0, 0, 1, 1, -0.000000000000001471)"><g clip-path="url(#41a425a0a0)"><g clip-path="url(#13c578bd85)"><path fill="#172029" d="M 27.070312 19.417969 C 27.039062 19.359375 27.023438 19.328125 27.023438 19.328125 L 27.046875 19.335938 C 27.183594 18.746094 27.191406 18.152344 27.070312 17.558594 C 27.667969 17.429688 28.214844 17.195312 28.714844 16.851562 C 28.179688 16.644531 27.683594 16.363281 27.234375 16.003906 C 26.808594 15.644531 26.421875 15.25 26.078125 14.8125 L 27.195312 15.144531 L 26.003906 12.980469 C 25.585938 12.453125 25.070312 12.046875 24.460938 11.765625 L 24.246094 11.675781 L 24.222656 11.667969 C 24.460938 11.445312 24.863281 11.140625 25.523438 10.785156 C 24.515625 10.191406 23.382812 10.210938 22.753906 10.289062 C 22.613281 10.300781 22.476562 10.324219 22.339844 10.355469 C 22.289062 10.367188 22.265625 10.371094 22.265625 10.371094 C 22.289062 10.269531 22.304688 10.164062 22.308594 10.058594 L 22.3125 9.917969 L 22.449219 9.414062 L 23.46875 7.097656 L 23.171875 6.652344 L 23.800781 6.339844 L 25.492188 2.511719 L 19.195312 5.125 L 16.972656 1.914062 L 16.175781 0.464844 L 15.378906 1.914062 L 13.15625 5.125 L 6.859375 2.511719 L 8.550781 6.34375 L 9.179688 6.652344 L 8.886719 7.101562 L 9.90625 9.414062 L 10.042969 9.917969 L 10.046875 10.058594 C 10.050781 10.167969 10.066406 10.269531 10.09375 10.375 C 10.09375 10.375 10.066406 10.367188 10.015625 10.355469 C 9.878906 10.324219 9.742188 10.304688 9.601562 10.289062 C 8.972656 10.210938 7.839844 10.191406 6.832031 10.785156 C 7.492188 11.140625 7.894531 11.449219 8.136719 11.667969 L 8.109375 11.679688 L 7.894531 11.765625 C 7.285156 12.050781 6.769531 12.453125 6.351562 12.980469 L 5.160156 15.144531 L 6.277344 14.8125 C 5.933594 15.25 5.546875 15.648438 5.121094 16.003906 C 4.667969 16.363281 4.175781 16.644531 3.636719 16.851562 C 4.136719 17.195312 4.683594 17.429688 5.28125 17.558594 C 5.160156 18.152344 5.167969 18.746094 5.304688 19.335938 L 5.328125 19.328125 C 5.328125 19.328125 5.3125 19.359375 5.277344 19.417969 C 4.929688 20.007812 4.703125 20.757812 4.597656 21.675781 C 4.46875 22.519531 4.410156 23.601562 4.527344 24.9375 C 4.847656 24.660156 5.09375 24.445312 5.277344 24.28125 C 5.269531 24.328125 5.261719 24.378906 5.25 24.425781 C 5.230469 24.511719 4.910156 25.902344 4.527344 27.28125 C 5.078125 26.964844 5.597656 26.601562 6.085938 26.199219 C 6.078125 26.3125 6.078125 26.425781 6.078125 26.535156 C 6.105469 28.429688 7.230469 29.628906 7.277344 29.679688 L 7.570312 29.984375 L 7.832031 30.257812 L 8.566406 31.023438 C 8.566406 31.023438 8.734375 32.847656 10.765625 34.566406 L 10.855469 33.835938 C 11.109375 34.164062 11.4375 34.566406 11.652344 34.734375 C 11.660156 34.71875 11.710938 33.433594 11.761719 33.242188 C 12.011719 33.757812 12.574219 34.507812 13.816406 34.9375 C 13.75 34.671875 13.695312 34.445312 13.652344 34.257812 C 13.84375 34.460938 14.085938 34.699219 14.300781 34.90625 C 14.433594 35.046875 14.574219 35.171875 14.730469 35.285156 C 14.753906 35.304688 14.773438 35.320312 14.792969 35.332031 C 14.757812 34.964844 14.738281 34.726562 14.722656 34.566406 C 14.804688 34.632812 14.890625 34.695312 14.980469 34.757812 C 15.203125 35.035156 15.578125 35.355469 16.175781 35.507812 C 16.777344 35.351562 17.148438 35.035156 17.371094 34.757812 C 17.460938 34.695312 17.546875 34.632812 17.628906 34.566406 C 17.617188 34.726562 17.59375 34.964844 17.558594 35.332031 C 17.578125 35.320312 17.597656 35.304688 17.625 35.285156 C 17.777344 35.171875 17.921875 35.046875 18.050781 34.90625 C 18.265625 34.699219 18.507812 34.460938 18.703125 34.257812 C 18.65625 34.445312 18.601562 34.671875 18.539062 34.9375 C 19.773438 34.507812 20.339844 33.757812 20.589844 33.242188 C 20.640625 33.433594 20.691406 34.71875 20.699219 34.734375 C 20.914062 34.566406 21.242188 34.164062 21.496094 33.835938 L 21.589844 34.566406 C 23.617188 32.847656 23.789062 31.023438 23.789062 31.023438 L 24.519531 30.257812 L 24.78125 29.984375 L 25.074219 29.679688 C 25.121094 29.628906 26.246094 28.429688 26.273438 26.535156 C 26.273438 26.425781 26.273438 26.3125 26.265625 26.199219 C 26.601562 26.484375 27.101562 26.855469 27.824219 27.28125 C 27.441406 25.902344 27.121094 24.511719 27.101562 24.425781 C 27.09375 24.378906 27.082031 24.332031 27.074219 24.28125 C 27.257812 24.445312 27.503906 24.660156 27.824219 24.9375 C 27.941406 23.597656 27.882812 22.519531 27.753906 21.675781 C 27.648438 20.761719 27.421875 20.007812 27.070312 19.417969 Z M 27.070312 19.417969 " fill-opacity="1" fill-rule="nonzero"/></g><path fill="#ffffff" d="M 9.15625 14.644531 C 9.152344 14.6875 8.902344 16.003906 7.542969 16.902344 C 6.164062 17.816406 6.230469 19.082031 6.230469 19.082031 C 6.230469 19.082031 5.789062 17.453125 7.074219 16.15625 C 6.324219 16.707031 5.375 17.046875 5.34375 17.054688 C 5.390625 17.019531 6.921875 15.886719 7.613281 14.492188 C 7.613281 14.492188 7.773438 15.417969 7.566406 16.226562 C 8.691406 15.71875 9.144531 14.679688 9.15625 14.644531 Z M 9.15625 14.644531 " fill-opacity="1" fill-rule="nonzero"/><path fill="#ffffff" d="M 13.324219 33.460938 C 13.289062 33.449219 12.117188 33.039062 12.148438 30.410156 C 12.175781 27.738281 11.417969 26.890625 11.417969 26.890625 C 12.183594 30.003906 10.832031 32.96875 10.796875 33.050781 C 10.808594 32.96875 11.21875 29.972656 10.082031 27.894531 C 10.402344 29.402344 9.671875 30.351562 9.960938 32.1875 C 9.066406 30.867188 9.628906 27.753906 9.035156 26.359375 C 9.203125 28.253906 8.535156 30.214844 8.535156 30.214844 C 8.535156 30.214844 8.535156 27.328125 7.792969 25.519531 C 7.296875 27.234375 7.953125 28.964844 7.976562 29.011719 C 7.945312 28.980469 6.871094 27.820312 7.066406 26.039062 C 7.261719 24.234375 6.972656 23.003906 6.972656 23.003906 C 6.972656 23.003906 6.925781 23.960938 6.109375 25.007812 C 6.699219 22.550781 6.125 21.582031 6.125 21.582031 C 5.636719 22.71875 5.5 23.4375 5.5 23.4375 C 5.34375 18.976562 7.347656 18.988281 7.347656 18.988281 C 7.347656 18.988281 6.414062 20.292969 6.613281 21.582031 C 7.644531 19.003906 9.800781 18.699219 9.867188 18.691406 C 8.734375 19.480469 8.296875 20.402344 8.269531 20.460938 C 8.304688 20.410156 8.820312 19.722656 9.933594 19.210938 C 8.433594 20.378906 8.457031 22.023438 8.457031 22.023438 L 8.460938 22.019531 C 8.511719 21.941406 9.074219 21.097656 9.894531 20.453125 L 9.898438 20.453125 C 8.550781 22.070312 8.753906 23.953125 8.753906 23.953125 C 8.753906 23.953125 9.144531 22.414062 9.914062 21.480469 C 9.09375 23.457031 9.769531 25.542969 9.78125 25.582031 C 9.78125 25.582031 9.789062 25.277344 9.835938 24.847656 C 9.835938 24.847656 9.835938 24.84375 9.835938 24.839844 C 9.910156 24.171875 10.089844 23.203125 10.511719 22.617188 C 10.046875 25.179688 11.128906 27.015625 11.128906 27.015625 C 11.128906 27.015625 11.128906 25.523438 10.75 24.339844 C 12.703125 26.617188 12.445312 29.941406 12.445312 29.941406 C 12.445312 29.941406 12.597656 29.394531 12.839844 28.984375 C 12.261719 32.3125 13.289062 33.425781 13.324219 33.460938 Z M 13.324219 33.460938 " fill-opacity="1" fill-rule="nonzero"/><path fill="#ffffff" d="M 10.703125 13.6875 C 10.703125 13.6875 9.710938 13.402344 8.703125 13.609375 C 9.167969 13.726562 9.300781 13.816406 9.300781 13.816406 C 9.300781 13.816406 8.320312 13.789062 8.191406 15.09375 C 7.632812 13.765625 7.941406 13.3125 7.941406 13.3125 L 7.117188 13.558594 C 7.117188 13.558594 8.261719 12.046875 9.902344 12.515625 C 9.902344 12.515625 9.398438 11.535156 8.394531 11.300781 C 10.070312 10.980469 11.59375 11.664062 10.703125 13.6875 Z M 10.703125 13.6875 " fill-opacity="1" fill-rule="nonzero"/><path fill="#ffffff" d="M 14.160156 18.59375 C 14.132812 18.609375 13.558594 18.9375 13.042969 18.8125 C 12.53125 18.6875 12.195312 18.003906 12.1875 17.980469 L 13.121094 18.273438 L 13.121094 18.601562 L 13.148438 18.574219 L 13.386719 18.355469 Z M 14.160156 18.59375 " fill-opacity="1" fill-rule="nonzero"/><path fill="#ffffff" d="M 14.054688 31.867188 C 14.035156 32.324219 14.105469 32.769531 14.269531 33.195312 C 14.339844 33.382812 14.429688 33.558594 14.539062 33.726562 C 14.027344 33.394531 13.757812 32.867188 13.625 32.359375 C 13.503906 31.878906 13.464844 31.390625 13.515625 30.894531 C 13.605469 31.878906 13.835938 32.28125 13.835938 32.28125 C 13.835938 32.28125 13.789062 31.53125 13.941406 31.023438 C 14.101562 31.714844 14.820312 32.808594 14.84375 32.847656 C 14.726562 32.394531 14.847656 31.769531 14.847656 31.769531 C 14.847656 31.769531 14.851562 31.820312 14.867188 31.914062 C 14.984375 32.632812 15.207031 33.320312 15.53125 33.972656 C 14.316406 33.136719 14.070312 31.945312 14.054688 31.871094 C 14.054688 31.871094 14.054688 31.867188 14.054688 31.867188 Z M 14.054688 31.867188 " fill-opacity="1" fill-rule="nonzero"/><path fill="#ffffff" d="M 14.160156 10.664062 C 14.519531 10.84375 14.796875 11.113281 14.988281 11.464844 C 14.96875 11.453125 14.277344 11.09375 13.167969 10.847656 C 13.875 11.550781 14.207031 12.039062 14.207031 12.039062 C 14.207031 12.039062 13.214844 11.355469 12.125 11.082031 C 11.03125 10.808594 11.007812 10.023438 11.007812 10.023438 C 11.007812 10.023438 11.554688 10.464844 12.746094 10.40625 L 12.21875 10.089844 C 12.21875 10.089844 13.980469 9.871094 15.03125 10.378906 C 14.550781 9.898438 14.429688 9.703125 14.421875 9.691406 C 14.460938 9.703125 16.105469 10.1875 16.136719 11.890625 C 16.136719 11.890625 15.328125 10.679688 14.160156 10.664062 Z M 14.160156 10.664062 " fill-opacity="1" fill-rule="nonzero"/><path fill="#ffffff" d="M 16.769531 22.023438 C 16.988281 21.847656 17.226562 21.8125 17.488281 21.921875 C 17.488281 21.921875 17.375 21.519531 16.835938 21.589844 C 16.292969 21.660156 16.136719 21.628906 16.136719 21.628906 C 16.136719 21.628906 15.976562 21.660156 15.4375 21.589844 C 14.894531 21.519531 14.785156 21.921875 14.785156 21.921875 C 15.042969 21.8125 15.285156 21.847656 15.503906 22.023438 C 15.867188 22.300781 16.136719 22.28125 16.136719 22.28125 C 16.136719 22.28125 16.40625 22.300781 16.769531 22.023438 Z M 16.769531 22.023438 " fill-opacity="1" fill-rule="nonzero"/><path fill="#ffffff" d="M 17.246094 25.519531 L 17.160156 25.171875 L 17.125 25.324219 C 16.699219 25.265625 16.136719 25.324219 16.136719 25.324219 C 16.136719 25.324219 15.574219 25.265625 15.144531 25.324219 L 15.109375 25.171875 L 15.027344 25.519531 C 15.015625 25.507812 14.835938 25.339844 14.902344 24.9375 C 14.902344 24.9375 15.1875 25.046875 16.136719 24.949219 C 17.085938 25.046875 17.371094 24.9375 17.371094 24.9375 C 17.4375 25.347656 17.246094 25.519531 17.246094 25.519531 Z M 17.246094 25.519531 " fill-opacity="1" fill-rule="nonzero"/><path fill="#ffffff" d="M 17.335938 31.003906 C 17.710938 30.425781 17.574219 29.625 17.574219 29.625 C 17.574219 29.625 17.457031 31.324219 16.136719 31.324219 C 14.816406 31.324219 14.699219 29.625 14.699219 29.625 C 14.699219 29.625 14.566406 30.425781 14.9375 31.003906 C 12.519531 30.222656 13.433594 28.023438 13.433594 28.023438 C 13.433594 28.023438 13.570312 28.761719 14.210938 28.558594 C 13.707031 27.785156 13.925781 26.8125 13.925781 26.8125 C 14.277344 27.558594 14.714844 27.964844 14.976562 28.160156 C 15.664062 27.84375 16.136719 27.898438 16.136719 27.898438 C 16.136719 27.898438 16.613281 27.84375 17.300781 28.160156 C 17.5625 27.964844 17.996094 27.558594 18.351562 26.8125 C 18.351562 26.8125 18.566406 27.785156 18.0625 28.558594 C 18.703125 28.761719 18.84375 28.023438 18.84375 28.023438 C 18.84375 28.023438 19.753906 30.222656 17.335938 31.003906 Z M 17.335938 31.003906 " fill-opacity="1" fill-rule="nonzero"/><path fill="#ffffff" d="M 24.585938 18.425781 C 23.347656 17.257812 23.488281 14.777344 20.667969 14.847656 C 21.242188 15.230469 21.523438 16.019531 21.542969 16.070312 C 21.496094 16.007812 20.585938 14.773438 18.925781 14.65625 L 18.886719 14.609375 C 18.421875 14.074219 17.753906 14.09375 17.1875 14.285156 C 17.246094 14.105469 17.449219 13.726562 18.179688 13.4375 C 19.171875 13.042969 19.390625 12.800781 19.390625 12.800781 C 19.390625 12.800781 19.558594 13.5 18.363281 14.058594 C 18.363281 14.058594 19.75 14.230469 20.550781 13.625 C 20.261719 14.140625 19.65625 14.457031 18.949219 14.414062 C 18.949219 14.414062 22.257812 15.515625 20.867188 12.359375 C 21.027344 13.175781 19.953125 13.472656 19.921875 13.480469 C 19.953125 13.457031 20.730469 12.890625 19.78125 11.464844 C 19.609375 12.421875 17.347656 12.414062 16.765625 14.058594 C 16.691406 12.84375 17.734375 11.757812 17.734375 11.757812 C 17.734375 11.757812 16.484375 12.089844 16.136719 13.40625 C 16.136719 13.40625 16.136719 13.402344 16.136719 13.402344 C 15.785156 12.09375 14.539062 11.757812 14.539062 11.757812 C 14.539062 11.757812 15.582031 12.847656 15.507812 14.0625 C 14.925781 12.417969 12.664062 12.425781 12.492188 11.46875 C 11.542969 12.894531 12.320312 13.460938 12.351562 13.484375 C 12.320312 13.476562 11.246094 13.179688 11.40625 12.363281 C 10.035156 15.480469 13.242188 14.449219 13.324219 14.421875 C 12.617188 14.464844 12.007812 14.144531 11.722656 13.632812 C 12.523438 14.234375 13.910156 14.0625 13.910156 14.0625 C 12.710938 13.507812 12.882812 12.804688 12.882812 12.804688 C 12.882812 12.804688 13.101562 13.046875 14.089844 13.441406 C 14.824219 13.730469 15.027344 14.109375 15.085938 14.289062 C 14.519531 14.097656 13.851562 14.078125 13.382812 14.617188 L 13.347656 14.660156 C 11.6875 14.777344 10.777344 16.011719 10.730469 16.078125 C 10.746094 16.023438 11.03125 15.234375 11.605469 14.851562 C 8.785156 14.78125 8.925781 17.261719 7.6875 18.429688 C 9.371094 17.96875 10.441406 16.03125 10.511719 15.898438 C 10.480469 15.976562 10.175781 16.722656 10.144531 17.519531 C 10.738281 16.375 11.640625 15.96875 12.144531 15.832031 C 11.695312 16.222656 11.277344 16.558594 10.953125 16.910156 C 10.839844 17.203125 10.730469 18.023438 10.972656 18.296875 C 11 18.328125 11.03125 18.351562 11.070312 18.367188 C 11.429688 18.515625 11.917969 18.320312 11.917969 18.320312 C 11.917969 18.320312 11.835938 17.789062 11.382812 17.691406 C 11.640625 17.527344 12.144531 17.332031 13.25 18 C 14.359375 18.667969 15.101562 18.1875 15.316406 17.894531 C 15.535156 17.601562 15.585938 17.128906 15.585938 17.128906 C 15.695312 17.382812 15.75 17.648438 15.761719 17.925781 C 14.554688 18.726562 14.601562 19.628906 14.601562 19.628906 C 14.601562 19.628906 14.566406 19.394531 14.355469 19.09375 C 14.003906 19.390625 14.011719 19.976562 14.058594 20.304688 L 14.0625 20.328125 C 14.058594 20.320312 14.054688 20.308594 14.050781 20.300781 C 13.945312 19.96875 13.824219 19.429688 13.976562 19.070312 C 13.984375 19.042969 13.996094 19.019531 14.011719 18.996094 C 13.964844 19.011719 13.914062 19.023438 13.863281 19.03125 C 13.332031 19.132812 12.675781 19.023438 12.675781 19.023438 L 12.800781 19.207031 C 12.378906 19.019531 12.003906 18.5625 12.003906 18.5625 C 12.003906 18.5625 10.445312 19.523438 10.515625 20.222656 C 10.589844 20.925781 11.132812 21.515625 11.132812 21.515625 C 11.132812 21.515625 11.121094 21.386719 11.078125 20.957031 C 11.351562 21.5625 11.5625 22.210938 11.578125 22.253906 C 11.6875 21.933594 11.785156 21.605469 11.863281 21.277344 C 11.949219 20.859375 11.78125 19.867188 11.78125 19.867188 C 11.78125 19.867188 12.253906 20.671875 13.050781 20.621094 C 12.53125 20.84375 12.054688 21.636719 12.054688 21.636719 C 12.054688 21.636719 12.085938 21.660156 13.53125 22.097656 L 13.5 22.09375 C 13.230469 22.0625 12.003906 21.855469 12.003906 21.855469 L 12.214844 22.601562 L 14.125 23.148438 C 13.472656 23.160156 12.28125 23.039062 12.28125 23.039062 L 12.519531 23.441406 L 14.476562 23.828125 C 13.824219 23.894531 13.171875 23.898438 12.519531 23.839844 C 12.816406 24.082031 13.128906 24.296875 13.464844 24.480469 C 13.40625 24.855469 13.347656 25.890625 14.269531 26.644531 C 14.265625 25.730469 14.433594 25.0625 14.554688 24.695312 C 15.183594 24.621094 16.007812 24.347656 15.914062 23.640625 C 15.804688 22.777344 15.015625 22.796875 14.226562 22.421875 C 13.4375 22.046875 13.851562 21.125 13.851562 21.125 C 13.863281 21.152344 14.046875 21.691406 14.21875 21.703125 C 14.386719 21.714844 14.691406 21.589844 14.925781 20.945312 C 15.296875 21.402344 16.132812 21.277344 16.132812 21.277344 C 16.132812 21.277344 16.972656 21.402344 17.339844 20.945312 C 17.574219 21.589844 17.878906 21.714844 18.050781 21.703125 C 18.222656 21.691406 18.414062 21.121094 18.414062 21.121094 C 18.414062 21.121094 18.832031 22.042969 18.042969 22.417969 C 17.253906 22.792969 16.464844 22.773438 16.355469 23.636719 C 16.261719 24.347656 17.085938 24.617188 17.714844 24.691406 C 17.839844 25.058594 18.003906 25.726562 18 26.640625 C 18.925781 25.886719 18.867188 24.847656 18.808594 24.476562 C 19.140625 24.289062 19.457031 24.074219 19.75 23.835938 C 19.101562 23.890625 18.449219 23.886719 17.796875 23.824219 L 19.75 23.4375 L 19.992188 23.03125 C 19.992188 23.03125 18.800781 23.160156 18.152344 23.144531 L 20.058594 22.597656 L 20.269531 21.855469 C 20.269531 21.855469 18.917969 22.082031 18.742188 22.09375 C 20.1875 21.660156 20.214844 21.636719 20.214844 21.636719 C 20.214844 21.636719 19.742188 20.839844 19.222656 20.617188 C 20.015625 20.671875 20.492188 19.863281 20.492188 19.863281 C 20.492188 19.863281 20.320312 20.859375 20.410156 21.273438 C 20.488281 21.605469 20.582031 21.929688 20.695312 22.25 C 20.695312 22.25 20.910156 21.578125 21.191406 20.953125 C 21.152344 21.382812 21.140625 21.511719 21.140625 21.511719 C 21.140625 21.511719 21.683594 20.921875 21.753906 20.21875 C 21.824219 19.519531 20.269531 18.558594 20.269531 18.558594 C 20.269531 18.558594 19.894531 19.019531 19.472656 19.203125 L 19.59375 19.015625 C 19.59375 19.015625 18.8125 19.152344 18.261719 18.988281 C 18.472656 19.355469 18.328125 19.96875 18.210938 20.320312 C 18.257812 19.996094 18.277344 19.390625 17.917969 19.085938 C 17.707031 19.382812 17.671875 19.617188 17.671875 19.617188 C 17.671875 19.617188 17.714844 18.714844 16.511719 17.914062 C 16.523438 17.636719 16.578125 17.375 16.6875 17.117188 C 16.6875 17.117188 16.738281 17.59375 16.957031 17.886719 C 17.171875 18.179688 17.917969 18.65625 19.023438 17.992188 C 20.128906 17.324219 20.632812 17.515625 20.890625 17.679688 C 20.4375 17.78125 20.355469 18.3125 20.355469 18.3125 C 20.355469 18.3125 20.84375 18.503906 21.203125 18.359375 C 21.566406 18.210938 21.445312 17.230469 21.320312 16.902344 C 20.992188 16.546875 20.578125 16.210938 20.128906 15.820312 C 20.632812 15.960938 21.535156 16.363281 22.128906 17.507812 C 22.097656 16.710938 21.792969 15.96875 21.761719 15.890625 C 21.832031 16.023438 22.902344 17.960938 24.585938 18.425781 Z M 16.136719 16.949219 C 16.136719 16.949219 15.566406 16.265625 15.449219 15.773438 C 15.652344 16.089844 16.136719 16.285156 16.136719 16.285156 C 16.136719 16.285156 16.617188 16.089844 16.824219 15.773438 C 16.707031 16.265625 16.136719 16.949219 16.136719 16.949219 Z M 16.136719 16.949219 " fill-opacity="1" fill-rule="nonzero"/><path fill="#ffffff" d="M 24.703125 16.226562 C 23.558594 15.714844 23.113281 14.648438 23.113281 14.648438 C 23.113281 14.648438 23.347656 15.992188 24.726562 16.90625 C 26.109375 17.820312 26.039062 19.082031 26.039062 19.082031 C 26.039062 19.082031 26.484375 17.457031 25.195312 16.15625 C 25.957031 16.71875 26.925781 17.058594 26.925781 17.058594 C 26.925781 17.058594 25.359375 15.914062 24.65625 14.496094 C 24.65625 14.492188 24.5 15.417969 24.703125 16.226562 Z M 24.703125 16.226562 " fill-opacity="1" fill-rule="nonzero"/><path fill="#ffffff" d="M 24.921875 18.988281 C 24.921875 18.988281 25.859375 20.292969 25.65625 21.582031 C 24.609375 18.964844 22.402344 18.691406 22.402344 18.691406 C 23.570312 19.503906 24 20.460938 24 20.460938 C 24 20.460938 23.492188 19.742188 22.332031 19.210938 C 23.835938 20.378906 23.8125 22.023438 23.8125 22.023438 C 23.8125 22.023438 23.234375 21.125 22.371094 20.453125 C 23.71875 22.070312 23.515625 23.949219 23.515625 23.949219 C 23.515625 23.949219 23.125 22.414062 22.355469 21.480469 C 23.183594 23.476562 22.484375 25.582031 22.484375 25.582031 C 22.484375 25.582031 22.449219 23.585938 21.757812 22.613281 C 22.21875 25.179688 21.136719 27.011719 21.136719 27.011719 C 21.136719 27.011719 21.136719 25.523438 21.515625 24.339844 C 19.566406 26.617188 19.820312 29.941406 19.820312 29.941406 C 19.820312 29.941406 19.667969 29.394531 19.425781 28.984375 C 20.019531 32.367188 18.949219 33.460938 18.949219 33.460938 C 18.949219 33.460938 20.15625 33.082031 20.125 30.410156 C 20.09375 27.738281 20.851562 26.890625 20.851562 26.890625 C 20.078125 30.046875 21.476562 33.050781 21.476562 33.050781 C 21.476562 33.050781 21.035156 30 22.1875 27.894531 C 21.867188 29.402344 22.597656 30.351562 22.308594 32.1875 C 23.207031 30.867188 22.644531 27.753906 23.234375 26.359375 C 23.070312 28.253906 23.738281 30.214844 23.738281 30.214844 C 23.738281 30.214844 23.738281 27.332031 24.480469 25.519531 C 24.980469 27.257812 24.296875 29.015625 24.296875 29.015625 C 24.296875 29.015625 25.40625 27.847656 25.207031 26.039062 C 25.011719 24.234375 25.300781 23.003906 25.300781 23.003906 C 25.300781 23.003906 25.34375 23.960938 26.164062 25.007812 C 25.570312 22.550781 26.148438 21.582031 26.148438 21.582031 C 26.632812 22.722656 26.773438 23.4375 26.773438 23.4375 C 26.929688 18.980469 24.921875 18.988281 24.921875 18.988281 Z M 24.921875 18.988281 " fill-opacity="1" fill-rule="nonzero"/><path fill="#ffffff" d="M 23.566406 13.609375 C 23.101562 13.726562 22.972656 13.816406 22.972656 13.816406 C 22.972656 13.816406 23.953125 13.789062 24.082031 15.09375 C 24.636719 13.765625 24.328125 13.3125 24.328125 13.3125 L 25.152344 13.558594 C 25.152344 13.558594 24.011719 12.046875 22.367188 12.515625 C 22.367188 12.515625 22.871094 11.535156 23.875 11.300781 C 22.199219 10.980469 20.679688 11.664062 21.566406 13.6875 C 21.566406 13.6875 22.558594 13.402344 23.566406 13.609375 Z M 23.566406 13.609375 " fill-opacity="1" fill-rule="nonzero"/><path fill="#ffffff" d="M 17.152344 27.554688 C 16.535156 27.460938 16.132812 27.515625 16.132812 27.515625 C 16.132812 27.515625 15.730469 27.460938 15.117188 27.554688 C 14.902344 27.246094 14.925781 27.003906 14.925781 27.003906 L 15.203125 27.21875 C 15.46875 27.191406 16.132812 27.183594 16.132812 27.183594 C 16.132812 27.183594 16.796875 27.191406 17.066406 27.21875 L 17.339844 27.003906 C 17.339844 27.003906 17.367188 27.246094 17.152344 27.554688 Z M 17.152344 27.554688 " fill-opacity="1" fill-rule="nonzero"/><path fill="#ffffff" d="M 18.882812 18.355469 L 18.113281 18.59375 C 18.113281 18.59375 18.699219 18.941406 19.226562 18.8125 C 19.753906 18.683594 20.085938 17.980469 20.085938 17.980469 L 19.148438 18.273438 L 19.148438 18.601562 Z M 18.882812 18.355469 " fill-opacity="1" fill-rule="nonzero"/><path fill="#ffffff" d="M 18.433594 32.277344 C 18.433594 32.277344 18.484375 31.527344 18.332031 31.023438 C 18.167969 31.722656 17.429688 32.84375 17.429688 32.84375 C 17.546875 32.394531 17.425781 31.765625 17.425781 31.765625 C 17.320312 32.539062 17.09375 33.273438 16.738281 33.96875 C 17.996094 33.105469 18.21875 31.867188 18.21875 31.867188 C 18.21875 31.867188 18.300781 32.875 17.730469 33.726562 C 19.011719 32.902344 18.757812 30.894531 18.757812 30.894531 C 18.664062 31.875 18.433594 32.277344 18.433594 32.277344 Z M 18.433594 32.277344 " fill-opacity="1" fill-rule="nonzero"/><path fill="#ffffff" d="M 18.113281 10.664062 C 17.511719 10.976562 17.28125 11.464844 17.28125 11.464844 C 17.28125 11.464844 17.976562 11.097656 19.101562 10.847656 C 18.398438 11.550781 18.0625 12.039062 18.0625 12.039062 C 18.0625 12.039062 19.054688 11.355469 20.144531 11.082031 C 21.238281 10.808594 21.265625 10.023438 21.265625 10.023438 C 21.265625 10.023438 20.714844 10.464844 19.523438 10.40625 L 20.050781 10.089844 C 20.050781 10.089844 18.289062 9.871094 17.238281 10.378906 C 17.734375 9.882812 17.847656 9.691406 17.847656 9.691406 C 17.847656 9.691406 16.164062 10.167969 16.136719 11.890625 C 16.136719 11.890625 16.945312 10.679688 18.113281 10.664062 Z M 18.113281 10.664062 " fill-opacity="1" fill-rule="nonzero"/><path fill="#ffffff" d="M 23.558594 4.320312 L 20.214844 5.710938 L 20.929688 7.289062 L 19.058594 8.148438 L 16.832031 6.972656 L 18.261719 5.585938 L 16.136719 2.515625 L 14.011719 5.585938 L 15.441406 6.972656 L 13.210938 8.148438 L 11.339844 7.289062 L 12.054688 5.710938 L 8.710938 4.320312 L 9.289062 5.632812 L 10.578125 6.269531 L 9.976562 7.1875 L 11.003906 9.515625 L 11.0625 9.515625 C 12.363281 8.84375 14.15625 8.425781 16.136719 8.425781 C 18.117188 8.425781 19.90625 8.84375 21.207031 9.515625 L 21.269531 9.515625 L 22.296875 7.1875 L 21.691406 6.269531 L 22.980469 5.632812 Z M 15.378906 5.226562 L 16.136719 4.179688 L 16.890625 5.226562 L 16.136719 5.84375 Z M 15.378906 5.226562 " fill-opacity="1" fill-rule="nonzero"/><path fill="#a6a6a6" d="M 10.796875 33.050781 C 10.808594 32.96875 11.21875 29.972656 10.082031 27.894531 C 10.402344 29.402344 9.671875 30.351562 9.960938 32.1875 C 9.066406 30.867188 9.628906 27.753906 9.035156 26.359375 C 9.203125 28.253906 8.535156 30.214844 8.535156 30.214844 C 8.535156 30.214844 8.535156 27.332031 7.792969 25.519531 C 7.296875 27.234375 7.953125 28.964844 7.976562 29.015625 C 7.945312 28.980469 6.871094 27.824219 7.066406 26.039062 C 7.261719 24.234375 6.972656 23.003906 6.972656 23.003906 C 6.972656 23.003906 6.925781 23.960938 6.109375 25.007812 C 6.699219 22.550781 6.125 21.582031 6.125 21.582031 C 5.636719 22.722656 5.5 23.4375 5.5 23.4375 C 5.34375 18.980469 7.351562 18.988281 7.351562 18.988281 C 7.351562 18.988281 6.199219 19.304688 5.875 21.417969 C 6.023438 21.21875 6.140625 21.003906 6.226562 20.769531 C 6.226562 20.769531 6.820312 22.589844 6.519531 23.847656 C 6.738281 23.308594 6.886719 22.75 6.964844 22.171875 C 6.964844 22.171875 7.785156 23.488281 7.464844 25.273438 C 7.640625 24.949219 7.757812 24.601562 7.808594 24.230469 C 7.808594 24.230469 8.898438 26.238281 8.65625 28.355469 C 8.964844 27.128906 8.804688 25.519531 8.804688 25.519531 C 8.804688 25.519531 9.707031 26.304688 9.617188 28.628906 C 9.820312 28.015625 9.910156 27.386719 9.882812 26.742188 C 9.882812 26.742188 11.382812 28.699219 11.175781 30.828125 C 11.578125 30.125 11.59375 27.957031 11.421875 26.890625 C 12.183594 30.003906 10.832031 32.96875 10.796875 33.050781 Z M 10.796875 33.050781 " fill-opacity="1" fill-rule="nonzero"/><path fill="#a6a6a6" d="M 8.460938 22.023438 C 8.402344 21.808594 8.445312 21.191406 8.632812 20.421875 C 8.097656 20.839844 7.683594 21.476562 7.683594 21.476562 C 8.015625 19.347656 9.8125 18.710938 9.867188 18.691406 C 8.734375 19.480469 8.296875 20.40625 8.269531 20.460938 C 8.304688 20.410156 8.820312 19.722656 9.933594 19.210938 C 8.433594 20.378906 8.460938 22.023438 8.460938 22.023438 Z M 8.460938 22.023438 " fill-opacity="1" fill-rule="nonzero"/><path fill="#737373" d="M 9.785156 25.582031 C 9.785156 25.582031 9.789062 25.277344 9.835938 24.847656 C 9.804688 25.285156 9.785156 25.582031 9.785156 25.582031 Z M 9.785156 25.582031 " fill-opacity="1" fill-rule="nonzero"/><path fill="#a6a6a6" d="M 9.78125 25.582031 C 9.765625 25.558594 9.226562 24.78125 9.207031 23.488281 C 8.914062 24.121094 8.675781 25.144531 8.675781 25.144531 C 7.953125 22.261719 9.800781 20.542969 9.898438 20.453125 L 9.902344 20.453125 C 8.554688 22.070312 8.753906 23.953125 8.753906 23.953125 C 8.753906 23.953125 9.144531 22.414062 9.914062 21.480469 C 9.09375 23.457031 9.769531 25.542969 9.78125 25.582031 Z M 9.78125 25.582031 " fill-opacity="1" fill-rule="nonzero"/><path fill="#a6a6a6" d="M 17.335938 31.003906 C 17.710938 30.425781 17.574219 29.625 17.574219 29.625 C 17.574219 29.625 17.457031 31.324219 16.136719 31.324219 C 14.816406 31.324219 14.699219 29.625 14.699219 29.625 C 14.699219 29.625 14.566406 30.425781 14.9375 31.003906 C 12.519531 30.222656 13.433594 28.023438 13.433594 28.023438 C 13.433594 28.023438 13.378906 29.652344 14.410156 30.445312 C 14.359375 29.1875 14.609375 28.558594 14.609375 28.558594 C 14.609375 28.558594 14.578125 29.910156 16.136719 29.910156 C 17.695312 29.910156 17.664062 28.558594 17.664062 28.558594 C 17.664062 28.558594 17.917969 29.1875 17.863281 30.445312 C 18.894531 29.652344 18.839844 28.023438 18.839844 28.023438 C 18.839844 28.023438 19.753906 30.222656 17.335938 31.003906 Z M 17.335938 31.003906 " fill-opacity="1" fill-rule="nonzero"/><g mask="url(#2fb6ea338f)"><g transform="matrix(1, 0, 0, 1, 14, 26)"><g clip-path="url(#598ea00b36)"><g clip-path="url(#f8e5802629)"><path fill="#172029" d="M 2.136719 1.347656 L 2.136719 1.515625 C 2.136719 1.515625 1.734375 1.460938 1.117188 1.554688 C 0.902344 1.246094 0.929688 1.003906 0.929688 1.003906 C 0.929688 1.003906 1.039062 1.289062 1.195312 1.40625 C 1.3125 1.34375 2.136719 1.347656 2.136719 1.347656 Z M 2.136719 1.347656 " fill-opacity="1" fill-rule="nonzero"/></g></g></g></g><g mask="url(#845bd3de1f)"><g transform="matrix(1, 0, 0, 1, 14, 24)"><g clip-path="url(#ff5547a238)"><g clip-path="url(#8932efa1fa)"><path fill="#172029" d="M 2.136719 0.945312 L 2.136719 1.074219 C 2.136719 1.074219 1.410156 1.125 1.027344 1.054688 C 0.980469 1.359375 1.023438 1.507812 1.027344 1.515625 C 1.015625 1.507812 0.835938 1.339844 0.902344 0.9375 C 0.902344 0.9375 1.1875 1.046875 2.136719 0.945312 Z M 2.136719 0.945312 " fill-opacity="1" fill-rule="nonzero"/></g></g></g></g><g mask="url(#5cb1c1da29)"><g transform="matrix(1, 0, 0, 1, 11, 21)"><g clip-path="url(#3a83e9003b)"><g clip-path="url(#4209084be4)"><path fill="#172029" d="M 3.265625 5.640625 C 2.339844 4.886719 2.398438 3.851562 2.457031 3.476562 C 2.125 3.292969 1.8125 3.078125 1.515625 2.835938 C 2.167969 2.894531 2.816406 2.890625 3.46875 2.824219 L 1.515625 2.4375 L 1.273438 2.035156 C 1.273438 2.035156 2.464844 2.15625 3.117188 2.144531 L 1.210938 1.597656 L 1 0.851562 C 1 0.851562 2.226562 1.058594 2.496094 1.089844 L 1.273438 1.140625 L 1.8125 1.492188 L 3.921875 2.21875 L 2.257812 2.347656 L 4.125 2.773438 C 4.125 2.773438 3.878906 2.925781 2.8125 3.289062 C 2.34375 4.632812 3.222656 5.59375 3.265625 5.640625 Z M 3.265625 5.640625 " fill-opacity="1" fill-rule="nonzero"/></g></g></g></g><g mask="url(#822a0e8229)"><g transform="matrix(1, 0, 0, 1, 10, 18)"><g clip-path="url(#781622ad46)"><g clip-path="url(#e99d49e2fa)"><path fill="#172029" d="M 3.722656 1.449219 C 3.613281 1.421875 2.945312 1.195312 2.945312 1.195312 C 2.945312 1.195312 2.964844 1.285156 3.105469 1.597656 C 2.710938 1.359375 2.339844 1.082031 2 0.765625 C 2 0.765625 1.320312 1.207031 1.035156 1.660156 C 0.753906 2.113281 0.988281 2.65625 0.988281 2.65625 L 1.078125 2.238281 C 1.421875 3.003906 1.566406 4.195312 1.574219 4.25 C 1.558594 4.210938 1.347656 3.558594 1.074219 2.953125 C 1.117188 3.386719 1.128906 3.515625 1.128906 3.515625 C 1.128906 3.515625 0.582031 2.921875 0.511719 2.222656 C 0.445312 1.519531 2 0.558594 2 0.558594 C 2 0.558594 2.375 1.019531 2.796875 1.203125 L 2.671875 1.015625 C 2.671875 1.015625 3.457031 1.152344 4.007812 0.988281 C 3.800781 1.347656 3.933594 1.9375 4.046875 2.296875 C 4.015625 2.261719 3.847656 2.066406 3.722656 1.449219 Z M 3.722656 1.449219 " fill-opacity="1" fill-rule="nonzero"/></g></g></g></g><g mask="url(#41667e071c)"><g transform="matrix(1, 0, 0, 1, 13, 20)"><g clip-path="url(#7992cc2cd8)"><g clip-path="url(#cf79b8cb8a)"><path fill="#172029" d="M 3.136719 0.964844 L 3.136719 1.277344 C 3.136719 1.277344 2.296875 1.402344 1.925781 0.945312 C 1.695312 1.59375 1.390625 1.714844 1.21875 1.703125 C 1.046875 1.691406 0.863281 1.152344 0.855469 1.125 C 0.867188 1.144531 1.058594 1.476562 1.382812 1.386719 C 1.714844 1.300781 1.886719 0.191406 1.886719 0.191406 C 1.886719 0.191406 2.117188 0.902344 3.136719 0.964844 Z M 3.136719 0.964844 " fill-opacity="1" fill-rule="nonzero"/></g></g></g></g><path fill="#a6a6a6" d="M 12.183594 17.980469 L 13.117188 18.273438 L 13.117188 18.5625 C 12.765625 18.382812 12.207031 17.996094 12.183594 17.980469 Z M 12.183594 17.980469 " fill-opacity="1" fill-rule="nonzero"/><path fill="#a6a6a6" d="M 14.160156 18.59375 C 14.132812 18.601562 13.597656 18.710938 13.324219 18.644531 C 13.261719 18.628906 13.203125 18.605469 13.148438 18.574219 L 13.386719 18.355469 Z M 14.160156 18.59375 " fill-opacity="1" fill-rule="nonzero"/><path fill="#a6a6a6" d="M 13.859375 19.027344 C 13.910156 19.015625 13.960938 19.003906 14.007812 18.988281 C 13.996094 19.015625 13.984375 19.039062 13.972656 19.0625 Z M 13.859375 19.027344 " fill-opacity="1" fill-rule="nonzero"/><g mask="url(#bfc71cbc74)"><g transform="matrix(1, 0, 0, 1, 10, 15)"><g clip-path="url(#ee916860f1)"><g clip-path="url(#6d034b9dda)"><path fill="#172029" d="M 5.582031 2.121094 C 5.582031 2.121094 5.53125 2.59375 5.3125 2.886719 C 5.097656 3.179688 4.351562 3.660156 3.25 2.992188 C 2.144531 2.324219 1.640625 2.519531 1.382812 2.683594 C 1.832031 2.78125 1.914062 3.3125 1.914062 3.3125 C 1.914062 3.3125 1.429688 3.507812 1.066406 3.359375 C 1.027344 3.34375 0.992188 3.320312 0.96875 3.289062 L 0.964844 3.285156 C 0.964844 3.285156 0.9375 2.449219 1.304688 1.949219 C 1.667969 1.449219 3.046875 0.875 3.046875 0.875 C 3.054688 1.210938 3.140625 1.53125 3.308594 1.824219 C 3.476562 2.121094 3.703125 2.359375 3.992188 2.539062 C 3.550781 2.445312 3.140625 2.28125 2.757812 2.042969 C 3.488281 3.015625 4.917969 3.570312 5.582031 2.121094 Z M 5.582031 2.121094 " fill-opacity="1" fill-rule="nonzero"/></g></g></g></g><g mask="url(#623c6d9304)"><g transform="matrix(1, 0, 0, 1, 7, 14)"><g clip-path="url(#f1c3b5d226)"><g clip-path="url(#0b7f56a4c7)"><path fill="#172029" d="M 6.34375 0.65625 C 5.617188 0.820312 4.449219 1.371094 3.464844 2.527344 C 3.457031 2.074219 3.738281 1.289062 3.75 1.265625 C 3.730469 1.273438 3.167969 1.589844 2.40625 2.785156 C 1.644531 3.984375 0.714844 4.410156 0.683594 4.425781 C 1.925781 3.253906 1.785156 0.777344 4.605469 0.847656 C 4.027344 1.230469 3.746094 2.019531 3.726562 2.074219 C 3.773438 2.007812 4.683594 0.773438 6.34375 0.65625 Z M 6.34375 0.65625 " fill-opacity="1" fill-rule="nonzero"/></g></g></g></g><g mask="url(#91c7acdff6)"><g transform="matrix(1, 0, 0, 1, 10, 12)"><g clip-path="url(#e3fafd54d7)"><g clip-path="url(#54b02a4364)"><path fill="#172029" d="M 2.347656 1.476562 C 2.347656 1.476562 1.957031 1.503906 1.378906 1.242188 C 1.304688 1.808594 1.589844 2.101562 1.589844 2.101562 C 1.960938 2.660156 3.265625 2.425781 3.324219 2.414062 C 3.238281 2.441406 0.03125 3.472656 1.402344 0.359375 C 1.242188 1.175781 2.316406 1.46875 2.347656 1.476562 Z M 2.347656 1.476562 " fill-opacity="1" fill-rule="nonzero"/></g></g></g></g><g mask="url(#8b603189e0)"><g transform="matrix(1, 0, 0, 1, 11, 11)"><g clip-path="url(#ee943974df)"><g clip-path="url(#268fd33e13)"><path fill="#172029" d="M 4.503906 3.058594 C 4.480469 3.019531 4.089844 2.386719 2.933594 1.871094 C 1.738281 1.339844 1.5625 1.023438 1.5625 1.023438 C 1.164062 1.609375 1.347656 2.476562 1.347656 2.476562 C 1.316406 2.457031 0.539062 1.890625 1.488281 0.464844 C 1.664062 1.425781 3.921875 1.414062 4.503906 3.058594 Z M 4.503906 3.058594 " fill-opacity="1" fill-rule="nonzero"/></g></g></g></g><g mask="url(#0f991bc8c0)"><g transform="matrix(1, 0, 0, 1, 14, 11)"><g clip-path="url(#e3f9563baa)"><g clip-path="url(#ae6a13fb2b)"><path fill="#172029" d="M 1.167969 1.292969 C 1.683594 2.152344 1.503906 3.058594 1.503906 3.058594 C 1.578125 1.84375 0.535156 0.753906 0.535156 0.753906 C 0.535156 0.753906 1.785156 1.089844 2.132812 2.398438 C 2.132812 2.402344 2.132812 2.402344 2.132812 2.402344 C 2.117188 2.371094 1.683594 1.585938 1.167969 1.292969 Z M 1.167969 1.292969 " fill-opacity="1" fill-rule="nonzero"/></g></g></g></g><path fill="#a6a6a6" d="M 14.269531 33.195312 C 14.339844 33.382812 14.429688 33.558594 14.539062 33.726562 C 14.027344 33.394531 13.757812 32.867188 13.625 32.359375 C 13.785156 32.578125 14.0625 32.945312 14.269531 33.195312 Z M 14.269531 33.195312 " fill-opacity="1" fill-rule="nonzero"/><path fill="#a6a6a6" d="M 15.53125 33.96875 C 14.316406 33.136719 14.070312 31.945312 14.054688 31.871094 C 14.054688 31.871094 14.054688 31.867188 14.054688 31.867188 C 14.054688 31.867188 14.445312 32.773438 15.125 33.386719 C 15.011719 32.898438 14.925781 32.410156 14.867188 31.914062 C 14.984375 32.632812 15.207031 33.316406 15.53125 33.96875 Z M 15.53125 33.96875 " fill-opacity="1" fill-rule="nonzero"/><path fill="#a6a6a6" d="M 6.230469 19.082031 C 6.230469 19.082031 5.789062 17.453125 7.074219 16.15625 C 6.324219 16.707031 5.375 17.046875 5.34375 17.054688 C 5.390625 17.019531 6.921875 15.886719 7.613281 14.492188 C 7.410156 16.175781 7.191406 16.59375 7.191406 16.59375 L 7.683594 16.492188 C 6 17.253906 6.230469 19.082031 6.230469 19.082031 Z M 6.230469 19.082031 " fill-opacity="1" fill-rule="nonzero"/><path fill="#a6a6a6" d="M 10.242188 13.234375 C 8.742188 12.945312 8.054688 13.742188 8.054688 13.742188 C 8.242188 13.738281 8.425781 13.757812 8.609375 13.800781 C 8.019531 14.085938 8.179688 15.046875 8.1875 15.089844 C 7.632812 13.765625 7.941406 13.3125 7.941406 13.3125 L 7.117188 13.558594 C 7.117188 13.558594 8.261719 12.046875 9.902344 12.515625 C 9.902344 12.515625 9.398438 11.535156 8.394531 11.300781 C 9.933594 11.105469 10.519531 12.207031 10.242188 13.234375 Z M 10.242188 13.234375 " fill-opacity="1" fill-rule="nonzero"/><path fill="#a6a6a6" d="M 12.277344 10.566406 L 13.128906 11.109375 L 12.253906 10.832031 C 11.378906 10.554688 11.007812 10.023438 11.007812 10.023438 C 11.007812 10.023438 11.554688 10.46875 12.746094 10.40625 L 12.21875 10.09375 C 12.21875 10.09375 13.28125 10.210938 14.058594 10.867188 C 13.378906 10.527344 12.277344 10.566406 12.277344 10.566406 Z M 12.277344 10.566406 " fill-opacity="1" fill-rule="nonzero"/><path fill="#a6a6a6" d="M 21.46875 33.050781 C 21.460938 32.96875 21.046875 29.972656 22.183594 27.894531 C 21.867188 29.402344 22.59375 30.351562 22.304688 32.1875 C 23.199219 30.867188 22.640625 27.753906 23.230469 26.359375 C 23.0625 28.253906 23.730469 30.214844 23.730469 30.214844 C 23.730469 30.214844 23.730469 27.332031 24.476562 25.519531 C 24.96875 27.234375 24.3125 28.964844 24.292969 29.015625 C 24.324219 28.980469 25.398438 27.824219 25.203125 26.039062 C 25.003906 24.234375 25.292969 23.003906 25.292969 23.003906 C 25.292969 23.003906 25.339844 23.960938 26.160156 25.007812 C 25.566406 22.550781 26.144531 21.582031 26.144531 21.582031 C 26.628906 22.722656 26.765625 23.4375 26.765625 23.4375 C 26.921875 18.980469 24.917969 18.988281 24.917969 18.988281 C 24.917969 18.988281 26.070312 19.304688 26.390625 21.417969 C 26.242188 21.21875 26.125 21.003906 26.042969 20.769531 C 26.042969 20.769531 25.449219 22.589844 25.75 23.847656 C 25.53125 23.308594 25.378906 22.75 25.300781 22.171875 C 25.300781 22.171875 24.484375 23.488281 24.804688 25.273438 C 24.628906 24.949219 24.511719 24.601562 24.460938 24.230469 C 24.460938 24.230469 23.371094 26.238281 23.613281 28.355469 C 23.304688 27.128906 23.464844 25.519531 23.464844 25.519531 C 23.464844 25.519531 22.5625 26.304688 22.652344 28.628906 C 22.449219 28.015625 22.359375 27.386719 22.386719 26.742188 C 22.386719 26.742188 20.886719 28.699219 21.09375 30.828125 C 20.695312 30.125 20.675781 27.957031 20.851562 26.890625 C 20.085938 30.003906 21.433594 32.96875 21.46875 33.050781 Z M 21.46875 33.050781 " fill-opacity="1" fill-rule="nonzero"/><path fill="#a6a6a6" d="M 23.808594 22.023438 C 23.863281 21.808594 23.820312 21.191406 23.636719 20.421875 C 24.171875 20.839844 24.582031 21.476562 24.582031 21.476562 C 24.25 19.347656 22.457031 18.710938 22.398438 18.691406 C 23.53125 19.480469 23.972656 20.40625 23.996094 20.460938 C 23.960938 20.410156 23.449219 19.722656 22.332031 19.210938 C 23.832031 20.378906 23.808594 22.023438 23.808594 22.023438 Z M 23.808594 22.023438 " fill-opacity="1" fill-rule="nonzero"/><path fill="#737373" d="M 22.484375 25.582031 C 22.484375 25.582031 22.476562 25.277344 22.429688 24.847656 C 22.460938 25.285156 22.484375 25.582031 22.484375 25.582031 Z M 22.484375 25.582031 " fill-opacity="1" fill-rule="nonzero"/><path fill="#a6a6a6" d="M 22.484375 25.582031 C 22.5 25.558594 23.039062 24.78125 23.0625 23.488281 C 23.351562 24.121094 23.589844 25.144531 23.589844 25.144531 C 24.3125 22.261719 22.46875 20.542969 22.371094 20.453125 L 22.367188 20.453125 C 23.714844 22.070312 23.511719 23.953125 23.511719 23.953125 C 23.511719 23.953125 23.121094 22.414062 22.351562 21.480469 C 23.171875 23.457031 22.496094 25.542969 22.484375 25.582031 Z M 22.484375 25.582031 " fill-opacity="1" fill-rule="nonzero"/><path fill="#a6a6a6" d="M 14.933594 31.003906 C 14.558594 30.425781 14.695312 29.625 14.695312 29.625 C 14.695312 29.625 14.8125 31.324219 16.132812 31.324219 C 17.453125 31.324219 17.570312 29.625 17.570312 29.625 C 17.570312 29.625 17.703125 30.425781 17.328125 31.003906 C 19.75 30.222656 18.835938 28.023438 18.835938 28.023438 C 18.835938 28.023438 18.890625 29.652344 17.859375 30.445312 C 17.910156 29.1875 17.660156 28.558594 17.660156 28.558594 C 17.660156 28.558594 17.691406 29.910156 16.132812 29.910156 C 14.574219 29.910156 14.605469 28.558594 14.605469 28.558594 C 14.605469 28.558594 14.351562 29.1875 14.40625 30.445312 C 13.375 29.652344 13.429688 28.023438 13.429688 28.023438 C 13.429688 28.023438 12.511719 30.222656 14.933594 31.003906 Z M 14.933594 31.003906 " fill-opacity="1" fill-rule="nonzero"/><g mask="url(#325d9e3bd5)"><g transform="matrix(1, 0, 0, 1, 16, 26)"><g clip-path="url(#474e703426)"><g clip-path="url(#d4ada9136c)"><path fill="#172029" d="M 0.132812 1.347656 L 0.132812 1.515625 C 0.132812 1.515625 0.535156 1.460938 1.148438 1.554688 C 1.363281 1.246094 1.339844 1.003906 1.339844 1.003906 C 1.339844 1.003906 1.226562 1.289062 1.074219 1.40625 C 0.957031 1.34375 0.132812 1.347656 0.132812 1.347656 Z M 0.132812 1.347656 " fill-opacity="1" fill-rule="nonzero"/></g></g></g></g><g mask="url(#42b9f67a21)"><g transform="matrix(1, 0, 0, 1, 16, 24)"><g clip-path="url(#6aa227f631)"><g clip-path="url(#d8506a8011)"><path fill="#172029" d="M 0.132812 0.945312 L 0.132812 1.074219 C 0.132812 1.074219 0.855469 1.125 1.242188 1.054688 C 1.285156 1.359375 1.242188 1.507812 1.242188 1.515625 C 1.25 1.507812 1.429688 1.339844 1.367188 0.9375 C 1.367188 0.9375 1.082031 1.046875 0.132812 0.945312 Z M 0.132812 0.945312 " fill-opacity="1" fill-rule="nonzero"/></g></g></g></g><path fill="#a6a6a6" d="M 18 26.640625 C 18.925781 25.886719 18.863281 24.851562 18.808594 24.476562 C 19.140625 24.292969 19.453125 24.078125 19.75 23.835938 C 19.097656 23.894531 18.445312 23.890625 17.796875 23.824219 L 19.75 23.4375 L 19.988281 23.035156 C 19.988281 23.035156 18.796875 23.15625 18.148438 23.144531 L 20.054688 22.597656 L 20.265625 21.851562 C 20.265625 21.851562 19.039062 22.058594 18.769531 22.089844 L 19.988281 22.140625 L 19.449219 22.492188 L 17.339844 23.21875 L 19.007812 23.347656 L 17.140625 23.773438 C 17.140625 23.773438 17.386719 23.925781 18.449219 24.289062 C 18.921875 25.632812 18.042969 26.59375 18 26.640625 Z M 18 26.640625 " fill-opacity="1" fill-rule="nonzero"/><path fill="#a6a6a6" d="M 18.546875 19.449219 C 18.652344 19.421875 19.320312 19.195312 19.320312 19.195312 C 19.320312 19.195312 19.300781 19.285156 19.160156 19.597656 C 19.558594 19.359375 19.925781 19.082031 20.265625 18.765625 C 20.265625 18.765625 20.949219 19.207031 21.230469 19.660156 C 21.515625 20.113281 21.277344 20.65625 21.277344 20.65625 L 21.1875 20.238281 C 20.84375 21.003906 20.699219 22.195312 20.695312 22.25 C 20.707031 22.210938 20.917969 21.558594 21.191406 20.953125 C 21.152344 21.386719 21.140625 21.515625 21.140625 21.515625 C 21.140625 21.515625 21.683594 20.921875 21.753906 20.222656 C 21.824219 19.519531 20.265625 18.558594 20.265625 18.558594 C 20.265625 18.558594 19.894531 19.019531 19.472656 19.203125 L 19.59375 19.015625 C 19.59375 19.015625 18.808594 19.152344 18.261719 18.988281 C 18.464844 19.347656 18.332031 19.9375 18.21875 20.296875 C 18.253906 20.261719 18.417969 20.066406 18.546875 19.449219 Z M 18.546875 19.449219 " fill-opacity="1" fill-rule="nonzero"/><g mask="url(#059d55bcf3)"><g transform="matrix(1, 0, 0, 1, 16, 20)"><g clip-path="url(#f772345440)"><g clip-path="url(#f9b48e987e)"><path fill="#172029" d="M 0.132812 0.964844 L 0.132812 1.277344 C 0.132812 1.277344 0.96875 1.402344 1.339844 0.945312 C 1.574219 1.59375 1.875 1.71875 2.046875 1.707031 C 2.222656 1.691406 2.402344 1.15625 2.410156 1.125 C 2.402344 1.144531 2.210938 1.476562 1.886719 1.390625 C 1.554688 1.300781 1.382812 0.195312 1.382812 0.195312 C 1.382812 0.195312 1.148438 0.902344 0.132812 0.964844 Z M 0.132812 0.964844 " fill-opacity="1" fill-rule="nonzero"/></g></g></g></g><path fill="#a6a6a6" d="M 20.085938 17.980469 L 19.148438 18.273438 L 19.148438 18.5625 C 19.503906 18.382812 20.0625 17.996094 20.085938 17.980469 Z M 20.085938 17.980469 " fill-opacity="1" fill-rule="nonzero"/><path fill="#a6a6a6" d="M 18.109375 18.59375 C 18.132812 18.601562 18.671875 18.710938 18.941406 18.644531 C 19.003906 18.628906 19.0625 18.605469 19.117188 18.574219 L 18.878906 18.355469 Z M 18.109375 18.59375 " fill-opacity="1" fill-rule="nonzero"/><path fill="#a6a6a6" d="M 18.40625 19.027344 C 18.355469 19.015625 18.304688 19.003906 18.257812 18.988281 C 18.273438 19.015625 18.285156 19.039062 18.292969 19.0625 Z M 18.40625 19.027344 " fill-opacity="1" fill-rule="nonzero"/><path fill="#a6a6a6" d="M 16.683594 17.121094 C 16.683594 17.121094 16.738281 17.59375 16.953125 17.886719 C 17.167969 18.179688 17.914062 18.660156 19.019531 17.992188 C 20.121094 17.324219 20.628906 17.519531 20.886719 17.683594 C 20.433594 17.78125 20.351562 18.3125 20.351562 18.3125 C 20.351562 18.3125 20.839844 18.507812 21.203125 18.359375 C 21.238281 18.34375 21.273438 18.320312 21.296875 18.289062 L 21.300781 18.285156 C 21.300781 18.285156 21.328125 17.449219 20.960938 16.949219 C 20.597656 16.449219 19.21875 15.871094 19.21875 15.871094 C 19.210938 16.210938 19.125 16.527344 18.957031 16.824219 C 18.789062 17.121094 18.5625 17.355469 18.277344 17.539062 C 18.71875 17.445312 19.128906 17.28125 19.507812 17.039062 C 18.78125 18.015625 17.347656 18.570312 16.683594 17.121094 Z M 16.683594 17.121094 " fill-opacity="1" fill-rule="nonzero"/><path fill="#a6a6a6" d="M 18.921875 14.65625 C 19.648438 14.820312 20.816406 15.371094 21.800781 16.527344 C 21.808594 16.074219 21.527344 15.289062 21.519531 15.265625 C 21.535156 15.273438 22.101562 15.589844 22.859375 16.785156 C 23.621094 17.984375 24.554688 18.410156 24.582031 18.425781 C 23.34375 17.253906 23.484375 14.773438 20.664062 14.84375 C 21.238281 15.230469 21.519531 16.015625 21.539062 16.070312 C 21.492188 16.007812 20.582031 14.773438 18.921875 14.65625 Z M 18.921875 14.65625 " fill-opacity="1" fill-rule="nonzero"/><path fill="#a6a6a6" d="M 19.917969 13.476562 C 19.917969 13.476562 20.308594 13.503906 20.886719 13.242188 C 20.960938 13.808594 20.675781 14.101562 20.675781 14.101562 C 20.308594 14.660156 19 14.425781 18.945312 14.414062 C 19.027344 14.441406 22.234375 15.472656 20.863281 12.359375 C 21.023438 13.175781 19.949219 13.46875 19.917969 13.476562 Z M 19.917969 13.476562 " fill-opacity="1" fill-rule="nonzero"/><path fill="#a6a6a6" d="M 16.761719 14.058594 C 16.785156 14.019531 17.175781 13.386719 18.335938 12.871094 C 19.527344 12.339844 19.703125 12.023438 19.703125 12.023438 C 20.101562 12.609375 19.917969 13.476562 19.917969 13.476562 C 19.949219 13.457031 20.726562 12.890625 19.777344 11.464844 C 19.605469 12.425781 17.34375 12.414062 16.761719 14.058594 Z M 16.761719 14.058594 " fill-opacity="1" fill-rule="nonzero"/><path fill="#a6a6a6" d="M 17.097656 12.292969 C 16.582031 13.152344 16.761719 14.058594 16.761719 14.058594 C 16.6875 12.84375 17.730469 11.753906 17.730469 11.753906 C 17.730469 11.753906 16.484375 12.089844 16.132812 13.398438 C 16.132812 13.402344 16.132812 13.402344 16.132812 13.402344 C 16.148438 13.371094 16.585938 12.585938 17.097656 12.292969 Z M 17.097656 12.292969 " fill-opacity="1" fill-rule="nonzero"/><path fill="#a6a6a6" d="M 18 33.195312 C 17.929688 33.382812 17.835938 33.558594 17.726562 33.726562 C 18.242188 33.394531 18.507812 32.867188 18.644531 32.359375 C 18.480469 32.578125 18.207031 32.945312 18 33.195312 Z M 18 33.195312 " fill-opacity="1" fill-rule="nonzero"/><path fill="#a6a6a6" d="M 16.734375 33.96875 C 17.949219 33.136719 18.195312 31.945312 18.210938 31.871094 C 18.210938 31.871094 18.210938 31.867188 18.210938 31.867188 C 18.210938 31.867188 17.820312 32.773438 17.144531 33.386719 C 17.253906 32.898438 17.339844 32.410156 17.398438 31.914062 C 17.28125 32.632812 17.0625 33.316406 16.734375 33.96875 Z M 16.734375 33.96875 " fill-opacity="1" fill-rule="nonzero"/><path fill="#a6a6a6" d="M 26.035156 19.082031 C 26.035156 19.082031 26.480469 17.453125 25.191406 16.15625 C 25.941406 16.707031 26.894531 17.046875 26.921875 17.054688 C 26.875 17.019531 25.34375 15.886719 24.652344 14.492188 C 24.859375 16.175781 25.074219 16.59375 25.074219 16.59375 L 24.582031 16.492188 C 26.269531 17.253906 26.035156 19.082031 26.035156 19.082031 Z M 26.035156 19.082031 " fill-opacity="1" fill-rule="nonzero"/><path fill="#a6a6a6" d="M 22.023438 13.234375 C 23.523438 12.945312 24.210938 13.742188 24.210938 13.742188 C 24.023438 13.738281 23.839844 13.757812 23.660156 13.800781 C 24.25 14.085938 24.089844 15.046875 24.082031 15.089844 C 24.636719 13.765625 24.324219 13.3125 24.324219 13.3125 L 25.152344 13.558594 C 25.152344 13.558594 24.007812 12.046875 22.363281 12.515625 C 22.363281 12.515625 22.867188 11.535156 23.875 11.300781 C 22.335938 11.105469 21.75 12.207031 22.023438 13.234375 Z M 22.023438 13.234375 " fill-opacity="1" fill-rule="nonzero"/><path fill="#a6a6a6" d="M 19.992188 10.566406 L 19.140625 11.109375 L 20.015625 10.832031 C 20.890625 10.554688 21.261719 10.023438 21.261719 10.023438 C 21.261719 10.023438 20.714844 10.46875 19.523438 10.40625 L 20.050781 10.09375 C 20.050781 10.09375 18.984375 10.210938 18.210938 10.867188 C 18.886719 10.527344 19.992188 10.566406 19.992188 10.566406 Z M 19.992188 10.566406 " fill-opacity="1" fill-rule="nonzero"/><path fill="#a6a6a6" d="M 16.136719 6.261719 L 16.136719 7.847656 C 12.3125 8.144531 11.003906 9.515625 11.003906 9.515625 L 9.976562 7.1875 L 10.578125 6.269531 L 9.289062 5.632812 L 8.710938 4.320312 L 11.503906 5.84375 L 10.96875 7.476562 L 13.210938 8.152344 L 15.441406 6.972656 L 14.011719 5.582031 L 16.136719 2.511719 L 16.136719 3.851562 L 15.011719 5.324219 Z M 16.136719 6.261719 " fill-opacity="1" fill-rule="nonzero"/><path fill="#a6a6a6" d="M 22.980469 5.632812 L 21.691406 6.269531 L 22.296875 7.1875 L 21.269531 9.515625 L 21.207031 9.515625 L 21.9375 7.277344 L 21.304688 6.089844 L 22.695312 5.402344 L 23.558594 4.320312 Z M 22.980469 5.632812 " fill-opacity="1" fill-rule="nonzero"/><g clip-path="url(#9efc440947)"><path fill="#a6a6a6" d="M 5.207031 28.84375 L 5.347656 29.082031 C 3.734375 28.644531 2.148438 27.933594 0.613281 26.976562 C 1.066406 29.671875 3.089844 30.15625 5.0625 29.324219 C 5.195312 29.273438 5.335938 29.265625 5.484375 29.292969 C 5.800781 29.769531 6.140625 30.230469 6.515625 30.675781 C 4.550781 30.574219 2.558594 30.121094 0.570312 29.351562 C 1.613281 32.175781 3.902344 32.28125 5.867188 30.976562 C 6.089844 30.828125 6.363281 30.839844 6.691406 30.875 C 8.203125 32.609375 10.1875 34.042969 12.632812 34.996094 C 13.28125 35.25 14.085938 35.496094 14.957031 35.714844 C 14.640625 35.761719 14.320312 35.796875 14.003906 35.828125 C 13.203125 35.902344 12.777344 36.160156 12.339844 36.554688 C 13.519531 36.472656 14.878906 36.269531 16.179688 36 C 17.480469 36.269531 18.839844 36.472656 20.019531 36.554688 C 19.585938 36.160156 19.164062 35.902344 18.359375 35.828125 C 18.042969 35.796875 17.71875 35.761719 17.402344 35.714844 C 18.273438 35.496094 19.078125 35.25 19.726562 34.996094 C 22.171875 34.042969 24.15625 32.609375 25.671875 30.875 C 25.996094 30.839844 26.273438 30.828125 26.492188 30.976562 C 28.457031 32.28125 30.746094 32.175781 31.789062 29.351562 C 29.800781 30.121094 27.808594 30.574219 25.84375 30.675781 C 26.214844 30.230469 26.5625 29.769531 26.871094 29.292969 C 27.023438 29.265625 27.164062 29.273438 27.296875 29.324219 C 29.273438 30.15625 31.289062 29.671875 31.746094 26.976562 C 30.210938 27.933594 28.625 28.644531 27.007812 29.082031 L 27.152344 28.84375 C 27.417969 28.414062 27.652344 27.957031 27.867188 27.488281 C 27.957031 27.460938 28.046875 27.453125 28.136719 27.464844 C 30.246094 27.753906 32.058594 26.777344 31.800781 24.074219 C 30.632812 25.324219 29.363281 26.371094 28 27.1875 C 28.289062 26.503906 28.53125 25.789062 28.722656 25.054688 C 30.640625 24.96875 32.09375 23.792969 31.429688 21.425781 C 30.667969 22.605469 29.804688 23.652344 28.84375 24.546875 C 28.996094 23.875 29.105469 23.195312 29.171875 22.507812 C 30.902344 22.035156 31.984375 20.671875 30.902344 18.640625 C 30.453125 19.84375 29.894531 20.945312 29.21875 21.9375 C 29.257812 21.273438 29.261719 20.609375 29.226562 19.953125 C 30.546875 19.105469 31.097656 17.6875 29.679688 16.25 C 29.609375 17.273438 29.441406 18.265625 29.167969 19.191406 C 29.085938 18.433594 28.957031 17.683594 28.765625 16.957031 C 29.550781 16.070312 29.660156 14.917969 28.332031 14.160156 C 28.480469 14.867188 28.558594 15.570312 28.558594 16.25 L 28.617188 16.421875 C 28.335938 15.5 27.957031 14.625 27.488281 13.816406 C 29.355469 18.609375 29.550781 24.125 26.824219 28.644531 C 25.269531 31.210938 22.851562 33.289062 19.589844 34.558594 C 18.59375 34.945312 17.414062 35.277344 16.179688 35.511719 C 14.949219 35.277344 13.765625 34.945312 12.773438 34.558594 C 9.507812 33.289062 7.085938 31.210938 5.535156 28.644531 C 2.804688 24.125 3.003906 18.609375 4.875 13.816406 C 4.398438 14.625 4.027344 15.5 3.746094 16.421875 L 3.796875 16.25 C 3.800781 15.570312 3.882812 14.867188 4.03125 14.160156 C 2.699219 14.917969 2.804688 16.070312 3.597656 16.957031 C 3.40625 17.683594 3.273438 18.433594 3.195312 19.191406 C 2.917969 18.265625 2.75 17.273438 2.679688 16.25 C 1.261719 17.6875 1.8125 19.105469 3.132812 19.953125 C 3.097656 20.609375 3.101562 21.273438 3.140625 21.9375 C 2.46875 20.945312 1.902344 19.84375 1.460938 18.640625 C 0.378906 20.671875 1.460938 22.035156 3.1875 22.507812 C 3.257812 23.195312 3.367188 23.875 3.515625 24.546875 C 2.558594 23.652344 1.695312 22.605469 0.933594 21.425781 C 0.261719 23.792969 1.71875 24.96875 3.640625 25.054688 C 3.832031 25.789062 4.070312 26.503906 4.359375 27.1875 C 2.996094 26.371094 1.726562 25.324219 0.558594 24.074219 C 0.300781 26.777344 2.117188 27.753906 4.222656 27.464844 C 4.3125 27.453125 4.402344 27.460938 4.492188 27.488281 C 4.707031 27.957031 4.945312 28.414062 5.207031 28.84375 Z M 5.207031 28.84375 " fill-opacity="1" fill-rule="evenodd"/></g><g transform="matrix(1, 0, 0, 1, 37, 12)"><g clip-path="url(#a5c0981849)"><g clip-path="url(#43267a2af4)"><g fill="#f79533" fill-opacity="1"><g transform="translate(0.416897, 14.929812)"><g><path d="M 0.296875 0 L 5.9375 -13.890625 L 6.21875 -13.890625 L 11.875 0 L 8.84375 0 L 8.3125 -1.4375 L 3.859375 -1.4375 L 3.34375 0 Z M 4.84375 -3.953125 L 7.3125 -3.953125 L 6.09375 -7.4375 Z M 4.84375 -3.953125 "/></g></g></g></g><g fill="#f79533" fill-opacity="1"><g transform="translate(11.721048, 14.929812)"><g><path d="M 8.171875 0 L 5.46875 -5.125 L 4.1875 -5.125 L 4.1875 0 L 1.5 0 L 1.5 -13.40625 L 6.78125 -13.40625 C 7.582031 -13.40625 8.257812 -13.238281 8.8125 -12.90625 C 9.375 -12.570312 9.8125 -12.140625 10.125 -11.609375 C 10.4375 -11.078125 10.628906 -10.503906 10.703125 -9.890625 C 10.773438 -9.273438 10.726562 -8.671875 10.5625 -8.078125 C 10.394531 -7.484375 10.109375 -6.957031 9.703125 -6.5 C 9.296875 -6.039062 8.757812 -5.71875 8.09375 -5.53125 L 11.21875 0 Z M 4.1875 -7.71875 L 6.546875 -7.71875 C 6.910156 -7.71875 7.203125 -7.816406 7.421875 -8.015625 C 7.640625 -8.222656 7.785156 -8.472656 7.859375 -8.765625 C 7.929688 -9.066406 7.929688 -9.367188 7.859375 -9.671875 C 7.785156 -9.972656 7.640625 -10.222656 7.421875 -10.421875 C 7.203125 -10.617188 6.910156 -10.71875 6.546875 -10.71875 L 4.1875 -10.71875 Z M 4.1875 -7.71875 "/></g></g></g><g fill="#f79533" fill-opacity="1"><g transform="translate(22.27532, 14.929812)"><g><path d="M 7.65625 -7.71875 L 12.9375 -13.609375 L 13.78125 -13.609375 L 13.78125 0 L 11.0625 0 L 11.078125 -7.484375 L 7.65625 -3.875 L 4.21875 -7.484375 L 4.21875 0 L 1.5 0 L 1.5 -13.609375 L 2.359375 -13.609375 Z M 7.65625 -7.71875 "/></g></g></g><g fill="#f79533" fill-opacity="1"><g transform="translate(36.63521, 14.929812)"><g><path d="M 0.875 -0.859375 L 1.21875 -3.671875 C 1.726562 -3.304688 2.234375 -3.046875 2.734375 -2.890625 C 3.242188 -2.734375 3.707031 -2.644531 4.125 -2.625 C 4.539062 -2.601562 4.847656 -2.597656 5.046875 -2.609375 C 5.441406 -2.628906 5.78125 -2.765625 6.0625 -3.015625 C 6.34375 -3.273438 6.46875 -3.585938 6.4375 -3.953125 C 6.40625 -4.335938 6.257812 -4.628906 6 -4.828125 C 5.738281 -5.035156 5.421875 -5.203125 5.046875 -5.328125 C 4.347656 -5.585938 3.691406 -5.890625 3.078125 -6.234375 C 2.472656 -6.578125 1.984375 -7.003906 1.609375 -7.515625 C 1.242188 -8.023438 1.0625 -8.65625 1.0625 -9.40625 C 1.0625 -10.15625 1.222656 -10.832031 1.546875 -11.4375 C 1.867188 -12.050781 2.316406 -12.535156 2.890625 -12.890625 C 3.460938 -13.253906 4.117188 -13.457031 4.859375 -13.5 C 5.203125 -13.519531 5.628906 -13.503906 6.140625 -13.453125 C 6.648438 -13.410156 7.332031 -13.238281 8.1875 -12.9375 L 7.859375 -10.34375 C 7.117188 -10.644531 6.53125 -10.816406 6.09375 -10.859375 C 5.65625 -10.910156 5.332031 -10.925781 5.125 -10.90625 C 4.644531 -10.882812 4.296875 -10.722656 4.078125 -10.421875 C 3.859375 -10.117188 3.757812 -9.78125 3.78125 -9.40625 C 3.820312 -9.03125 3.984375 -8.742188 4.265625 -8.546875 C 4.554688 -8.359375 4.894531 -8.195312 5.28125 -8.0625 C 5.988281 -7.8125 6.632812 -7.5 7.21875 -7.125 C 7.800781 -6.757812 8.269531 -6.316406 8.625 -5.796875 C 8.988281 -5.285156 9.171875 -4.671875 9.171875 -3.953125 C 9.171875 -3.210938 9.003906 -2.539062 8.671875 -1.9375 C 8.347656 -1.34375 7.882812 -0.863281 7.28125 -0.5 C 6.675781 -0.144531 5.957031 0.0546875 5.125 0.109375 C 4.875 0.117188 4.53125 0.109375 4.09375 0.078125 C 3.664062 0.046875 3.175781 -0.0351562 2.625 -0.171875 C 2.070312 -0.316406 1.488281 -0.546875 0.875 -0.859375 Z M 0.875 -0.859375 "/></g></g></g></g></g><g clip-path="url(#cf8d403481)"><g transform="matrix(1, 0, 0, 1, 88, 15)"><g clip-path="url(#a1859dd533)"><g fill="#dee2e6" fill-opacity="1"><g transform="translate(0.838096, 10.789003)"><g><path d="M 3.890625 0 L 2.1875 -5.5625 L 2.140625 -5.5625 C 2.148438 -5.425781 2.160156 -5.222656 2.171875 -4.953125 C 2.191406 -4.691406 2.207031 -4.410156 2.21875 -4.109375 C 2.226562 -3.804688 2.234375 -3.535156 2.234375 -3.296875 L 2.234375 0 L 0.890625 0 L 0.890625 -7.09375 L 2.9375 -7.09375 L 4.625 -1.671875 L 4.65625 -1.671875 L 6.421875 -7.09375 L 8.484375 -7.09375 L 8.484375 0 L 7.078125 0 L 7.078125 -3.359375 C 7.078125 -3.578125 7.078125 -3.832031 7.078125 -4.125 C 7.085938 -4.414062 7.097656 -4.691406 7.109375 -4.953125 C 7.128906 -5.222656 7.140625 -5.425781 7.140625 -5.5625 L 7.109375 -5.5625 L 5.28125 0 Z M 3.890625 0 "/></g></g></g><g fill="#dee2e6" fill-opacity="1"><g transform="translate(15.184344, 10.789003)"><g><path d="M 6.671875 -7.09375 L 6.671875 -2.5 C 6.671875 -2.007812 6.5625 -1.566406 6.34375 -1.171875 C 6.125 -0.785156 5.796875 -0.476562 5.359375 -0.25 C 4.929688 -0.0195312 4.390625 0.09375 3.734375 0.09375 C 2.785156 0.09375 2.066406 -0.144531 1.578125 -0.625 C 1.085938 -1.101562 0.84375 -1.734375 0.84375 -2.515625 L 0.84375 -7.09375 L 2.34375 -7.09375 L 2.34375 -2.75 C 2.34375 -2.164062 2.460938 -1.753906 2.703125 -1.515625 C 2.941406 -1.285156 3.296875 -1.171875 3.765625 -1.171875 C 4.097656 -1.171875 4.363281 -1.222656 4.5625 -1.328125 C 4.769531 -1.441406 4.921875 -1.617188 5.015625 -1.859375 C 5.117188 -2.097656 5.171875 -2.398438 5.171875 -2.765625 L 5.171875 -7.09375 Z M 6.671875 -7.09375 "/></g></g></g><g fill="#dee2e6" fill-opacity="1"><g transform="translate(27.671164, 10.789003)"><g><path d="M 5.078125 -1.96875 C 5.078125 -1.550781 4.972656 -1.1875 4.765625 -0.875 C 4.566406 -0.5625 4.269531 -0.320312 3.875 -0.15625 C 3.488281 0.0078125 3.019531 0.09375 2.46875 0.09375 C 2.21875 0.09375 1.972656 0.078125 1.734375 0.046875 C 1.503906 0.015625 1.28125 -0.03125 1.0625 -0.09375 C 0.851562 -0.15625 0.648438 -0.234375 0.453125 -0.328125 L 0.453125 -1.734375 C 0.785156 -1.578125 1.132812 -1.4375 1.5 -1.3125 C 1.863281 -1.195312 2.222656 -1.140625 2.578125 -1.140625 C 2.828125 -1.140625 3.023438 -1.171875 3.171875 -1.234375 C 3.328125 -1.304688 3.4375 -1.394531 3.5 -1.5 C 3.570312 -1.613281 3.609375 -1.742188 3.609375 -1.890625 C 3.609375 -2.078125 3.546875 -2.234375 3.421875 -2.359375 C 3.304688 -2.484375 3.144531 -2.597656 2.9375 -2.703125 C 2.726562 -2.816406 2.492188 -2.9375 2.234375 -3.0625 C 2.066406 -3.132812 1.882812 -3.226562 1.6875 -3.34375 C 1.488281 -3.457031 1.300781 -3.59375 1.125 -3.75 C 0.957031 -3.914062 0.816406 -4.113281 0.703125 -4.34375 C 0.585938 -4.570312 0.53125 -4.847656 0.53125 -5.171875 C 0.53125 -5.597656 0.628906 -5.960938 0.828125 -6.265625 C 1.023438 -6.566406 1.300781 -6.796875 1.65625 -6.953125 C 2.019531 -7.117188 2.445312 -7.203125 2.9375 -7.203125 C 3.3125 -7.203125 3.664062 -7.15625 4 -7.0625 C 4.332031 -6.976562 4.679688 -6.859375 5.046875 -6.703125 L 4.5625 -5.53125 C 4.238281 -5.65625 3.945312 -5.753906 3.6875 -5.828125 C 3.425781 -5.898438 3.160156 -5.9375 2.890625 -5.9375 C 2.703125 -5.9375 2.539062 -5.90625 2.40625 -5.84375 C 2.28125 -5.789062 2.179688 -5.707031 2.109375 -5.59375 C 2.046875 -5.488281 2.015625 -5.363281 2.015625 -5.21875 C 2.015625 -5.050781 2.0625 -4.910156 2.15625 -4.796875 C 2.257812 -4.679688 2.410156 -4.570312 2.609375 -4.46875 C 2.804688 -4.363281 3.050781 -4.238281 3.34375 -4.09375 C 3.707031 -3.925781 4.015625 -3.75 4.265625 -3.5625 C 4.523438 -3.375 4.722656 -3.15625 4.859375 -2.90625 C 5.003906 -2.65625 5.078125 -2.34375 5.078125 -1.96875 Z M 5.078125 -1.96875 "/></g></g></g><g fill="#dee2e6" fill-opacity="1"><g transform="translate(38.118922, 10.789003)"><g><path d="M 0.890625 0 L 0.890625 -7.09375 L 2.390625 -7.09375 L 2.390625 0 Z M 0.890625 0 "/></g></g></g><g fill="#dee2e6" fill-opacity="1"><g transform="translate(46.381973, 10.789003)"><g><path d="M 3.90625 -5.9375 C 3.613281 -5.9375 3.359375 -5.878906 3.140625 -5.765625 C 2.921875 -5.660156 2.734375 -5.503906 2.578125 -5.296875 C 2.429688 -5.085938 2.316406 -4.832031 2.234375 -4.53125 C 2.160156 -4.226562 2.125 -3.894531 2.125 -3.53125 C 2.125 -3.03125 2.1875 -2.601562 2.3125 -2.25 C 2.4375 -1.894531 2.628906 -1.625 2.890625 -1.4375 C 3.148438 -1.25 3.488281 -1.15625 3.90625 -1.15625 C 4.195312 -1.15625 4.484375 -1.1875 4.765625 -1.25 C 5.054688 -1.3125 5.375 -1.40625 5.71875 -1.53125 L 5.71875 -0.265625 C 5.40625 -0.140625 5.09375 -0.0507812 4.78125 0 C 4.476562 0.0625 4.140625 0.09375 3.765625 0.09375 C 3.035156 0.09375 2.429688 -0.0546875 1.953125 -0.359375 C 1.484375 -0.660156 1.132812 -1.082031 0.90625 -1.625 C 0.6875 -2.175781 0.578125 -2.8125 0.578125 -3.53125 C 0.578125 -4.070312 0.648438 -4.566406 0.796875 -5.015625 C 0.941406 -5.460938 1.15625 -5.847656 1.4375 -6.171875 C 1.71875 -6.492188 2.0625 -6.742188 2.46875 -6.921875 C 2.882812 -7.109375 3.363281 -7.203125 3.90625 -7.203125 C 4.257812 -7.203125 4.613281 -7.15625 4.96875 -7.0625 C 5.320312 -6.96875 5.660156 -6.847656 5.984375 -6.703125 L 5.5 -5.46875 C 5.226562 -5.59375 4.957031 -5.703125 4.6875 -5.796875 C 4.425781 -5.890625 4.164062 -5.9375 3.90625 -5.9375 Z M 3.90625 -5.9375 "/></g></g></g></g></g></g></g></g></svg>